<svg xmlns="http://www.w3.org/2000/svg" width="900" height="302" fill="none" viewBox="0 0 900 302">
  <g fill="#fff" stroke="#fff" stroke-miterlimit="10" stroke-width=".6" clip-path="url(#a)">
    <path
      d="M26.3 14.4H14v12.3h12.2V14.4Zm0 14.4H14v12.3h12.2V28.8Zm0 14.5H14v12.2h12.2V43.3Zm0 14.6H14v12.2h12.2V58Zm0 14.4H14v12.3h12.2V72.3Zm0 14.4H14V99h12.2V86.7ZM40.7 0H28.5v12.2h12.2V0Zm0 14.4H28.5v12.3h12.2V14.4Zm0 14.4H28.5v12.3h12.2V28.8Zm0 14.5H28.5v12.2h12.2V43.3Zm0 14.6H28.5v12.2h12.2V58Zm0 14.4H28.5v12.3h12.2V72.3Zm0 14.4H28.5V99h12.2V86.7ZM55.1 0H43v12.2h12.2V0Zm0 43.3H43v12.2h12.2V43.3Zm0 43.4H43V99h12.2V86.7ZM69.6 0H57.3v12.2h12.3V0Zm0 43.3H57.3v12.2h12.3V43.3Zm0 43.4H57.3V99h12.3V86.7ZM84.2 0H72v12.2h12.2V0Zm0 43.3H72v12.2h12.2V43.3Zm0 43.4H72V99h12.2V86.7ZM98.6 0H86.4v12.2h12.2V0Zm0 43.3H86.4v12.2h12.2V43.3Zm0 43.4H86.4V99h12.2V86.7ZM113 0h-12.2v12.2H113V0Zm0 86.7h-12.2V99H113V86.7Zm13.8-57.9H139v12.3h-12.2V28.8Zm0 14.5H139v12.2h-12.2V43.3Zm0 14.6H139v12.2h-12.2V58Zm14.4-29h12.3V41h-12.3V28.8Zm0 14.4h12.3v12.2h-12.3V43.3Zm0 14.6h12.3v12.2h-12.3V58Zm0 14.4h12.3v12.3h-12.3V72.3Zm14.4 0H168v12.3h-12.3V72.3Zm0 14.4H168V99h-12.3V86.7Zm14.5 0h12.2V99h-12.2V86.7Zm14.6-14.4H197v12.3h-12.3V72.3Zm0 14.4H197V99h-12.3V86.7Zm14.5-57.9h12.2v12.3H199V28.8Zm0 14.5h12.2v12.2H199V43.3Zm0 14.6h12.2v12.2H199V58Zm0 14.4h12.2v12.3H199V72.3Zm14.4-43.5h12.2v12.3h-12.3V28.8Zm0 14.5h12.2v12.2h-12.3V43.3Zm0 14.6h12.2v12.2h-12.3V58ZM240 43.2h12.3v12.3H240V43.2Zm0 14.7h12.3V70H240V58Zm0 14.4h12.3v12.2H240V72.3Zm14.4-43.5h12.3v12.3h-12.3V28.8Zm0 14.4h12.3v12.3h-12.3V43.2Zm0 14.7h12.3V70h-12.3V58Zm0 14.4h12.3v12.2h-12.3V72.3Zm0 14.4h12.3V99h-12.3V86.7Zm14.4-57.9h12.3v12.3h-12.3V28.8Zm0 29h12.3v12.3h-12.3V58Zm0 29h12.3V99h-12.3V86.7Zm14.5-58h12.2v12.3h-12.2V28.8Zm0 29h12.2v12.3h-12.2V58Zm0 29h12.2V99h-12.2V86.7Zm14.6-58h12.2v12.3H298V28.8Zm0 29h12.2v12.3H298V58Zm0 29h12.2V99H298V86.7Zm14.4-58h12.3v12.3h-12.3V28.8Zm0 14.4h12.3v12.3h-12.3V43.2Zm0 14.7h12.3V70h-12.3V58Zm0 28.8h12.3V99h-12.3V86.7Zm14.4-43.5H339v12.3h-12.3V43.2Zm0 14.7H339V70h-12.3V58ZM352.8 29h12.3v12.2h-12.3V28.9Zm0 14.4h12.3v12.2h-12.3V43.4Zm0 14.6h12.3v12.2h-12.3V58Zm0 14.4h12.3v12.3h-12.3V72.4Zm0 14.4h12.3v12.3h-12.3V86.8ZM367.2 29h12.3v12.3h-12.3V28.9Zm0 14.5h12.3v12.2h-12.3V43.4Zm0 14.6h12.3v12.2h-12.3V58Zm0 14.4h12.3v12.3h-12.3V72.4Zm0 14.4h12.3v12.3h-12.3V86.8Zm14.5-43.4h12.2v12.2h-12.2V43.4ZM396 28.9h12.2v12.3H396V28.9Zm14.6 0H423v12.3h-12.3V28.9Zm38.6 0h-12.3V41h12.3V28.9Zm0 14.4h-12.3v12.2h12.3V43.3Zm0 14.7h-12.3v12.2h12.3V57.9Zm0 28.8h-12.3V99h12.3V86.8Zm14.4-57.9h-12.2V41h12.2V28.9Zm0 29.1h-12.2v12.2h12.2V57.9Zm0 28.8h-12.2V99h12.2V86.8ZM478 28.9h-12.2V41H478V28.9Zm0 29.1h-12.2v12.2H478V57.9Zm0 28.8h-12.2V99H478V86.8Zm14.7-57.9h-12.3V41h12.3V28.9Zm0 29.1h-12.3v12.2h12.3V57.9Zm0 28.8h-12.3V99h12.3V86.8ZM507 28.9h-12.2V41h12.3V28.9Zm0 29.1h-12.2v12.2h12.3V57.9Zm0 14.3h-12.2v12.3h12.3V72.3Zm0 14.5h-12.2V99h12.3V86.8Zm40.7-.1h-12.2V99h12.2V86.7ZM521 28.8h12.3v12.3h-12.2V28.8ZM535.6 0h12.3v12.2h-12.3V0Zm0 14.4h12.3v12.3h-12.3V14.4Zm0 14.4h12.3v12.3h-12.3V28.8Zm0 14.5h12.3v12.2h-12.3V43.3Zm0 14.6h12.3v12.3h-12.3V57.9Zm0 14.4h12.3v12.3h-12.3V72.3ZM550 0h12.3v12.2H550V0Zm0 14.5h12.3v12.2H550V14.5Zm0 14.4h12.3V41H550V28.9Zm0 14.4h12.3v12.2H550V43.3Zm0 14.6h12.3v12.3H550V57.9Zm0 14.5h12.3v12.2H550V72.4Zm0 14.4h12.3V99H550V86.8Zm14.5-58h12.2v12.3h-12.2V28.9Zm0 58h12.2V99h-12.2V86.8Zm14.6 0h12.2V99H579V86.8Zm37.7-58h-12.2v12.3h12.2V28.8Zm0 29.1h-12.2v12.2h12.2V58Zm0 14.4h-12.2v12.3h12.2V72.3Zm0 14.4h-12.2V99h12.2V86.7Zm14.4-57.9H619v12.3h12.2V28.8Zm0 29.1H619v12.2h12.2V58Zm0 28.8H619V99h12.2V86.7Zm14.5-57.9h-12.3v12.3h12.3V28.8Zm0 29.1h-12.3v12.2h12.3V58Zm0 28.8h-12.3V99h12.3V86.7Zm14.6-57.9h-12.2v12.3h12.2V28.8Zm0 29.1h-12.2v12.2h12.2V58Zm0 28.8h-12.2V99h12.2V86.7Zm14.4-57.9h-12.2v12.3h12.2V28.8Zm0 14.5h-12.2v12.2h12.2V43.3Zm0 14.6h-12.2v12.2h12.2V58Zm0 14.4h-12.2v12.3h12.2V72.3Zm0 14.4h-12.2V99h12.2V86.7Zm14.4-43.4H677v12.2h12.2V43.3Zm0 14.6H677v12.2h12.2V58Zm0 14.4H677v12.3h12.2V72.3Zm0 14.4H677V99h12.2V86.7ZM703 0h12v12.2h-12V0Zm0 14.4h12v12.3h-12V14.4Zm0 14.4h12v12.3h-12V28.8Zm0 14.5h12v12.2h-12V43.3Zm0 14.6h12v12.2h-12V58Zm0 14.4h12v12.3h-12V72.3Zm0 14.4h12V99h-12V86.7ZM717.2 0h12.3v12.2h-12.3V0Zm0 14.4h12.3v12.3h-12.3V14.4Zm0 14.4h12.3v12.3h-12.3V28.8Zm0 14.5h12.3v12.2h-12.3V43.3Zm0 14.6h12.3v12.2h-12.3V58Zm0 14.4h12.3v12.3h-12.3V72.3Zm0 14.4h12.3V99h-12.3V86.7ZM731.8 58H744v12.2h-12.2V58Zm14.4-14.6h12.2v12.2h-12.2V43.3Zm0 14.6h12.2v12.3h-12.2V57.9Zm0 14.4h12.2v12.3h-12.2V72.3Zm14.6-43.5H773v12.3h-12.2V28.8Zm0 14.5H773v12.2h-12.2V43.3Zm0 29H773v12.3h-12.2V72.3Zm0 14.4H773V99h-12.2V86.7Zm14.4-57.9h12.3v12.3h-12.3V28.8Zm0 58h12.3V99h-12.3V86.7Zm25.6-43.6h12.3v12.2h-12.3V43.3Zm0 14.6h12.3v12.3h-12.3V57.9Zm0 14.4h12.3v12.3h-12.3V72.3ZM815.3 29h12.2v12h-12.2V28.9Zm0 14.4h12.2v12.2h-12.2V43.3Zm0 14.6h12.2v12.3h-12.2V57.9Zm0 14.4h12.2v12.3h-12.2V72.3Zm0 14.5h12.2V99h-12.2V86.8Zm14.4-58h12.2v12.3h-12.2V28.9Zm0 29.1h12.2v12.3h-12.2V57.9Zm0 28.9h12.2V99h-12.2V86.8Zm14.4-58h12.2v12.3h-12.2V28.9Zm0 29.1h12.2v12.3h-12.2V57.9Zm0 28.9h12.2V99h-12.2V86.8Zm14.6-58H871v12.3h-12.3V28.9Zm0 29.1H871v12.3h-12.3V57.9Zm0 28.9H871V99h-12.3V86.8Zm14.4-58h12.3v12.3H873V28.8Zm0 14.5h12.3v12.2H873V43.3Zm0 14.6h12.3v12.2H873V58Zm0 28.8h12.3V99H873V86.7Zm14.5-43.4h12.2v12.2h-12.2V43.3Zm0 14.6h12.2v12.3h-12.2V57.9ZM12.2 187.4H0v12.2h12.2v-12.2Zm14.1 0H14v12.2h12.2v-12.2Zm0 14.4H14V214h12.2v-12.2Zm0 14.4H14v12.3h12.2v-12.3Zm0 14.7H14V243h12.2v-12.2Zm0 14.4H14v12.2h12.2v-12.2ZM40.7 173H28.5v12.2h12.2V173Zm0 14.4H28.5v12.2h12.2v-12.2Zm0 14.4H28.5V214h12.2v-12.2Zm0 14.4H28.5v12.3h12.2v-12.3Zm0 14.7H28.5V243h12.2v-12.2Zm0 14.4H28.5v12.2h12.2v-12.2Zm0 14.4H28.5V272h12.2v-12.2ZM55.1 173H43v12.2h12.2V173Zm0 86.7H43V272h12.2v-12.2ZM69.6 173H57.3v12.2h12.3V173Zm0 86.7H57.3V272h12.3v-12.2ZM84.2 173H72v12.2h12.2V173Zm0 86.7H72V272h12.2v-12.2ZM98.6 173H86.4v12.2h12.2V173Zm0 14.4H86.4v12.2h12.2v-12.2Zm0 57.9H86.4v12.2h12.2v-12.2Zm0 14.4H86.4V272h12.2v-12.2ZM12.2 173H0v12.2h12.2V173Zm113.4 28.8h-12.2V214h12.2v-12.2Zm0 29.1h-12.2V243h12.2v-12.2Zm0 14.4h-12.2v12.2h12.2v-12.2Zm0 14.4h-12.2V272h12.2v-12.2Zm14.4-57.9h-12.2V214H140v-12.2Zm0 29.1h-12.2V243H140v-12.2Zm0 28.8h-12.2V272H140v-12.2Zm14.4-57.9h-12.2V214h12.2v-12.2Zm0 29.1h-12.2V243h12.2v-12.2Zm0 28.8h-12.2V272h12.2v-12.2Zm14.6-57.9h-12.2V214h12.3v-12.2Zm0 29.1h-12.2V243h12.3v-12.2Zm0 28.8h-12.2V272h12.3v-12.2Zm14.5-57.9h-12.2V214h12.2v-12.2Zm0 14.4h-12.2v12.3h12.2v-12.3Zm0 14.7h-12.2V243h12.2v-12.2Zm0 14.4h-12.2v12.2h12.2v-12.2Zm0 14.4h-12.2V272h12.2v-12.2Zm14.5-43.5h-12.3v12.3h12.2v-12.3Zm0 14.7h-12.3V243h12.2v-12.2Zm0 14.4h-12.3v12.2h12.2v-12.2Zm0 14.4h-12.3V272h12.2v-12.2Zm13.7-57.9h12.2V214h-12.2v-12.2Zm0 14.4h12.2v12.3h-12.2v-12.3Zm0 14.7h12.2V243h-12.2v-12.2Zm0 14.4h12.2v12.2h-12.2v-12.2Zm0 14.4h12.2V272h-12.2v-12.2Zm0 14.4h12.2v12.3h-12.2V274Zm0 14.7h12.2V301h-12.2v-12.2Zm14.4-87h12.2V214h-12.2v-12.2Zm0 14.4h12.2v12.3h-12.2v-12.3Zm0 14.7h12.2V243h-12.2v-12.2Zm0 14.4h12.2v12.2h-12.2v-12.2Zm0 14.4h12.2V272h-12.2v-12.2Zm0 14.4h12.2v12.3h-12.2V274Zm0 14.7h12.2V301h-12.2v-12.2Zm14.4-87h12.3V214h-12.3v-12.2Zm0 58h12.3v12.1h-12.3v-12.2Zm14.4-58h12.3V214h-12.3v-12.2Zm0 58h12.3v12.1h-12.3v-12.2Zm14.7-58h12.2V214h-12.2v-12.2Zm0 58h12.2v12.1h-12.2v-12.2Zm14.4-58h12.2V214H284v-12.2Zm0 14.4h12.2v12.3H284v-12.3Zm0 14.7h12.2V243H284v-12.2Zm0 14.4h12.2v12.2H284v-12.2Zm0 14.4h12.2V272H284v-12.2Zm14.4-43.5h12.3v12.3h-12.3v-12.3Zm0 14.7h12.3V243h-12.3v-12.2Zm0 14.4h12.3v12.2h-12.3v-12.2Zm26-72.3h12.3v12.2h-12.3V173Zm0 28.8h12.3V214h-12.3v-12.2Zm0 14.4h12.3v12.3h-12.3v-12.3Zm0 14.7h12.3V243h-12.3v-12.2Zm0 14.4h12.3v12.2h-12.3v-12.2Zm0 14.4h12.3v12.2h-12.3v-12.2Zm14.4-86.7h12.3v12.2h-12.3V173Zm0 28.8h12.3V214h-12.3v-12.2Zm0 14.4h12.3v12.3h-12.3v-12.3Zm0 14.7h12.3V243h-12.3v-12.2Zm0 14.4h12.3v12.2h-12.3v-12.2Zm0 14.4h12.3v12.2h-12.3v-12.2Zm25.8-57.9h12.2V214h-12.2v-12.2Zm14.5-28.8h12.2v12.2H379V173Zm0 14.4h12.2v12.2H379v-12.2Zm0 14.4h12.2V214H379v-12.2Zm0 14.4h12.2v12.3H379v-12.3Zm0 14.7h12.2V243H379v-12.2Zm0 14.4h12.2v12.2H379v-12.2Zm14.4-72.3h12.2v12.2h-12.2V173Zm0 14.4h12.2v12.2h-12.2v-12.2Zm0 14.4h12.2V214h-12.2v-12.2Zm0 14.4h12.2v12.3h-12.2v-12.3Zm0 14.7h12.2V243h-12.2v-12Zm0 14.4h12.2v12.2h-12.2v-12.2Zm0 14.4h12.2V272h-12.2v-12.2Zm14.4-57.9H420V214h-12v-12.2Zm0 58H420v12.1h-12v-12.2Zm14.6 0h12.3v12.1h-12.3v-12.2Zm26-14.5h12.3v12.2h-12.3v-12.2Zm14.4-43.5h12.3V214h-12.3v-12.2Zm0 29h12.3v12.3h-12.3v-12.2Zm0 14.5h12.3v12.2h-12.3v-12.2Zm0 14.4h12.3v12.2h-12.3v-12.2Zm14.5-58h12.2V214h-12.2v-12.2Zm0 29.2h12.2V243h-12.2v-12.2Zm0 28.8h12.2v12.2h-12.2v-12.2Zm14.4-58H504V214h-12.2v-12.2Zm0 29.2H504V243h-12.2v-12.2Zm0 28.8H504v12.2h-12.2v-12.2Zm14.6-58h12.3V214h-12.3v-12.2Zm0 29.2h12.3V243h-12.3v-12.2Zm0 28.8h12.3v12.2h-12.3v-12.2Zm14.4-58h12.3V214h-12.3v-12.2Zm0 14.5h12.3v12.2h-12.3v-12.2Zm0 14.7h12.3V243h-12.3v-12.2Zm0 14.4h12.3v12.2h-12.3v-12.2Zm0 14.4h12.3v12.2h-12.3v-12.2Zm14.5-43.5h12.2v12.2h-12.2v-12.2Zm0 14.7h12.2V243h-12.2v-12.2Zm0 14.4h12.2v12.2h-12.2v-12.2Zm0 14.4h12.2v12.2h-12.2v-12.2Zm38.2-86.7h-12.2v12.2h12.2V173Zm0 14.4h-12.2v12.2h12.2v-12.2Zm0 14.4h-12.2V214h12.2v-12.2Zm0 14.4h-12.2v12.3h12.2v-12.3Zm0 14.7h-12.2V243h12.2v-12.2Zm0 14.4h-12.2v12.2h12.2v-12.2Zm0 14.4h-12.2V272h12.2v-12.2ZM588 173h-12.3v12.2h12.2V173Zm0 14.4h-12.3v12.2h12.2v-12.2Zm0 14.4h-12.3V214h12.2v-12.2Zm0 14.4h-12.3v12.3h12.2v-12.3Zm0 14.7h-12.3V243h12.2v-12.2Zm0 14.4h-12.3v12.2h12.2v-12.2Z" />
  </g>
  <defs>
    <clipPath id="a">
      <path fill="#fff" d="M0 0h900v301H0z" />
    </clipPath>
  </defs>
</svg>