<svg xmlns="http://www.w3.org/2000/svg" width="1875" shape-rendering="optimizeSpeed" fill="none" viewBox="0 0 1875 432">
  <path fill="#292F33" d="M.4 327.2 1855.8 0l18.4 104.4L18.8 431.5z" />
  <g filter="url(#a)">
    <path fill="#fff"
      d="M37.7 389.9h-.4c-.3 1-.5 1.8-1 2.7a8.3 8.3 0 0 1-3.8 4.2c-1 .5-2 1-3.4 1.2a11 11 0 0 1-10.7-3.8 31.2 31.2 0 0 1-6-15c-1.2-7-.9-12.6 1-16.7 1.8-4.2 5.2-6.7 10.4-7.6 2-.3 3.8-.4 5.4 0a12 12 0 0 1 7.5 4.3c1 1 1.7 2.3 2.4 3.6l-5.6 3-1.5-2.3a8.7 8.7 0 0 0-1.9-2c-.7-.5-1.4-.9-2.3-1a6 6 0 0 0-3-.1c-2.9.5-4.8 2-5.7 4.5-.9 2.4-1 5.5-.3 9.3l1.2 6.6a22.8 22.8 0 0 0 3.3 9c1 .9 2 1.6 3 2 1.3.5 2.6.6 4 .3 2.5-.4 4.2-1.4 5.2-3 1-1.7 1.4-3.7 1-6l-.7-3.7-8 1.4-.8-5 14-2.4 3.7 21-6 1.1-1-5.6Zm15.5 3-7.3-41.2 25.8-4.5 1 5.5-19.2 3.4 2.1 12 18.5-3.2 1 5.5-18.5 3.3 2.2 12.6 19.2-3.4 1 5.5-25.8 4.6Zm44.5-44.6L104 384l-6.6 1.2-6.3-35.7-13 2.3-1-5.6 32.5-5.7 1 5.6-13 2.2Zm59.6 26.3-.8-5 9.6-1.7-5.5-31.2-9.6 1.7-1-5 26-4.6 1 5-9.7 1.7 5.5 31.2 9.7-1.7.8 5-26 4.6Zm35.1-38.9-.5.1 5.6 31.7-5.8 1-7.3-41.2 8.5-1.5 17.8 29.6h.5l-5.6-31.8 5.8-1 7.3 41.2-8.6 1.5-17.7-29.6Zm79.5-18 6.3 35.6-6.7 1.2-6.2-35.7-13 2.3-1-5.6 32.5-5.7 1 5.5-13 2.3Zm38 30.8a13.2 13.2 0 0 1-12.5-3.6 19.7 19.7 0 0 1-4-6.2 42.2 42.2 0 0 1-3.2-18c.2-2.8.7-5.2 1.6-7.2 1-2 2.2-3.7 4-5a15 15 0 0 1 6.5-2.7 13.5 13.5 0 0 1 12.5 3.6 19 19 0 0 1 4 6.2 42.2 42.2 0 0 1 3.2 18 19 19 0 0 1-1.7 7.2 13 13 0 0 1-4 5 15.1 15.1 0 0 1-6.5 2.7Zm-1-5.5c3-.5 4.8-2 5.6-4.4.9-2.5 1-5.6.3-9.5l-1.3-6.9a18 18 0 0 0-3.4-8.6c-1.6-2-3.9-2.8-6.8-2.3-3 .5-4.9 2-5.7 4.5-.8 2.4-1 5.5-.3 9.3l1.3 7c.6 3.7 1.8 6.6 3.4 8.7 1.6 2 3.9 2.7 6.9 2.2Zm21.3-41.4 4.5 25.4c.3 1.7.6 3.2 1 4.5.3 1.4.8 2.5 1.4 3.4a5 5 0 0 0 2.6 1.8c1 .4 2.3.4 4 .1 1.6-.3 2.9-.7 3.8-1.4a5 5 0 0 0 1.7-2.6c.3-1 .4-2.3.2-3.7l-.6-4.6-4.5-25.4 6.6-1.1 4.3 24.1c.5 3 .8 5.6.8 8a13 13 0 0 1-1 5.8c-.7 1.7-1.9 3-3.6 4a16 16 0 0 1-6.7 2.4 19 19 0 0 1-7.3.1 9.3 9.3 0 0 1-4.7-2.5c-1.2-1.4-2.2-3-3-5.2-.7-2.2-1.3-4.8-1.8-7.8l-4.3-24.1 6.6-1.2Zm50.5 34.4c-5.3.9-9.5-.3-12.7-3.5a28.3 28.3 0 0 1-6.6-15.1 28.3 28.3 0 0 1 1-16.5c2-4.1 5.5-6.7 10.8-7.6 2-.3 3.8-.4 5.3 0 1.6.2 3 .7 4.2 1.4a12 12 0 0 1 3.3 2.8c1 1.1 1.8 2.3 2.5 3.6l-5.6 3.1-1.6-2.5a6.8 6.8 0 0 0-7.3-3c-2.8.6-4.8 2.1-5.7 4.6-1 2.5-1.1 5.6-.4 9.3l1.2 7c.7 3.8 1.9 6.7 3.6 8.7 1.7 2 4 2.7 7 2.2 1.1-.2 2-.6 2.8-1a6.8 6.8 0 0 0 3-4.2l.6-2.9 6.3 1a21 21 0 0 1-1.1 4.3 12.3 12.3 0 0 1-5.6 6.6 16 16 0 0 1-5 1.7Zm37.2-26-13.7 2.4 3.2 18.1-6.7 1.2-7.2-41.2 6.6-1.2 3 17.5 13.8-2.4-3.1-17.5 6.6-1.2 7.3 41.3-6.6 1.1-3.2-18.1Z" />
  </g>
  <g filter="url(#b)">
    <path fill="#fff"
      d="M517.1 305.5h-.3a19 19 0 0 1-.8 2.6 8.1 8.1 0 0 1-3.8 4.1c-1 .6-2.2 1-3.6 1.2-4.5.8-8.2-.4-11-3.6a31.2 31.2 0 0 1-6-15 30 30 0 0 1 .8-16.8c1.7-4.1 5.1-6.6 10.1-7.5 2-.3 3.6-.4 5.2-.1a12.2 12.2 0 0 1 7 4c.8.9 1.6 1.9 2.2 2.9L513 280c-.5-.9-1-1.6-1.7-2.3a7.5 7.5 0 0 0-2-1.9c-.8-.5-1.6-.8-2.6-1-1-.2-2-.2-3.3 0-3.3.6-5.5 2.2-6.6 5a19 19 0 0 0-.6 10.3l1.1 6.4c.4 2.1.9 4 1.5 5.7.6 1.6 1.4 3 2.3 4.1 1 1.2 2.1 2 3.4 2.5 1.3.4 2.8.5 4.5.2a8.2 8.2 0 0 0 5.8-3.5 9 9 0 0 0 1.2-6.7l-.8-4.2-8.7 1.5-.7-4 13.3-2.3 3.6 20.4-4.6.8-1-5.5Zm15 3-7.3-41.2 25.4-4.5.7 4.3-20.4 3.6 2.4 14 19.8-3.5.7 4.3-19.7 3.4 2.5 14.5 20.5-3.6.7 4.3-25.4 4.5Zm43.1-45.6 6.6 36.9-5 .9-6.5-37-13.8 2.5-.7-4.4 32.5-5.7.7 4.3-13.8 2.5Zm61 27.3-.7-4 10.3-1.8-5.9-33.3-10.3 1.8-.7-4 25.5-4.5.7 4-10.2 1.8 5.8 33.3 10.3-1.8.7 4-25.5 4.5Zm33.3-41.9h-.4l6.2 35-4.5.8-7.3-41.3 7-1.2 20.2 32h.4l-6-34.5 4.4-.8 7.3 41.2-7 1.2-20.3-32.4Zm80-16.2 6.5 37-5 .8-6.5-36.9-13.8 2.4-.7-4.3 32.5-5.7.7 4.3-13.8 2.4Zm39 32c-2.6.4-4.8.3-6.8-.3-2-.7-3.7-1.8-5.2-3.4a19.7 19.7 0 0 1-3.8-6.2 45.1 45.1 0 0 1-3.2-18c0-2.8.6-5.2 1.4-7.2a12 12 0 0 1 3.8-5 14 14 0 0 1 6.2-2.6c2.5-.4 4.8-.3 6.8.3a12 12 0 0 1 5.2 3.4c1.5 1.6 2.8 3.7 3.8 6.3a44.8 44.8 0 0 1 3.2 18 19 19 0 0 1-1.5 7.1c-.8 2-2 3.7-3.7 5a14.1 14.1 0 0 1-6.3 2.6Zm-.8-4.3c1.6-.3 3-.9 4-1.7 1-.9 1.8-2 2.4-3.3.5-1.3.8-2.8.8-4.5 0-1.8-.1-3.7-.5-5.8l-1.2-6.7c-.3-2-.8-4-1.5-5.6-.6-1.6-1.4-3-2.3-4a8 8 0 0 0-7.7-2.5c-1.7.3-3 .9-4 1.8a8 8 0 0 0-2.4 3.2 15 15 0 0 0-.9 4.6c0 1.7.2 3.6.5 5.7l1.2 6.7c.4 2.1.9 4 1.5 5.6.6 1.6 1.4 3 2.4 4s2 1.8 3.3 2.3c1.3.4 2.7.5 4.4.2Zm20.1-42.4 4.4 24.8 1.1 5.3c.4 1.6 1 2.9 1.7 4 .7 1 1.6 1.6 2.8 2a9 9 0 0 0 4.7.1 9 9 0 0 0 4.4-1.7c1-.7 1.6-1.7 2-3 .2-1.2.3-2.6.2-4.2l-.8-5.4-4.4-24.7 5-1 4.1 23.7c.6 3 .9 5.7 1 8 .1 2.4-.2 4.4-.8 6.1a9.2 9.2 0 0 1-3.4 4.2c-1.5 1-3.7 1.8-6.5 2.3-2.8.5-5.2.6-7 .1a9.1 9.1 0 0 1-4.6-2.8 15.6 15.6 0 0 1-2.8-5.4 69 69 0 0 1-1.9-8l-4.1-23.5 5-.9Zm51.7 34.1c-5 1-9.2-.2-12.3-3.5a29 29 0 0 1-6.4-15.1 29 29 0 0 1 .8-16.5c1.9-4.1 5.3-6.6 10.4-7.5 1.8-.3 3.5-.4 5-.1a11.4 11.4 0 0 1 6.9 4c.9.9 1.6 1.9 2.4 2.9l-4 2.7a17 17 0 0 0-1.6-2.3 8.4 8.4 0 0 0-2.1-1.9c-.8-.5-1.6-.8-2.6-1-1-.2-2-.2-3.3 0a8.3 8.3 0 0 0-6.7 5 18.6 18.6 0 0 0-.6 10.4l1.2 6.7c.7 4.1 2.1 7.3 4.1 9.5 2 2.2 4.7 3 8 2.4 1.3-.2 2.3-.6 3.1-1a9.5 9.5 0 0 0 3.4-4.3l.8-2.8 4.6 1.2-1.2 3.6c-.5 1.2-1.1 2.3-2 3.3-.8 1-1.9 2-3.2 2.7-1.2.8-2.8 1.3-4.7 1.6Zm38-26.7-16 2.8 3.3 18.8-5 .8-7.2-41.2 5-.9 3.1 18.2 16.1-2.8-3.2-18.2 5-.9 7.2 41.2-5 1-3.2-18.8Z" />
  </g>
  <g filter="url(#c)">
    <path fill="#1313FE"
      d="M996.8 220.7h-.3a15 15 0 0 1-.8 2.8c-.4.8-1 1.6-1.6 2.3a9 9 0 0 1-2.5 1.9c-1 .5-2.2 1-3.7 1.2-4.5.8-8.2-.4-11-3.5a30 30 0 0 1-6.3-15.3 29 29 0 0 1 .8-16.8c1.8-4 5-6.4 9.9-7.2a15 15 0 0 1 4.7-.1 11.3 11.3 0 0 1 6.8 3.6c.9 1 1.6 2 2.3 3l-2.9 2a13.2 13.2 0 0 0-4.1-4.5 8 8 0 0 0-6.1-1c-3.7.7-6.2 2.5-7.5 5.5a21 21 0 0 0-.6 12l1 5.3a23 23 0 0 0 4.4 11c2.2 2.6 5.1 3.5 8.8 2.9a13 13 0 0 0 3.8-1.4 8 8 0 0 0 2.5-2.6c.7-1 1-2 1.3-3.3.2-1.3.2-2.6 0-4l-.9-5-9.4 1.7-.5-2.8 12.7-2.2 3.5 19.6-3.3.6-1-5.7Zm14.3 3.4-7.3-41.3 24.9-4.3.5 3-21.3 3.8 2.8 15.7 20.5-3.6.5 3-20.5 3.7 2.9 16.3 21.3-3.8.5 3.1-24.8 4.4Zm41.8-46.8 6.8 38.2-3.6.6-6.7-38.1-14.1 2.5-.6-3.1 31.8-5.6.6 3-14.2 2.5Zm62 28.5-.4-2.9 10.8-1.9-6.3-35.6-10.8 2-.5-2.9 25.2-4.4.5 2.8-10.8 2 6.3 35.5 10.8-2 .5 3-25.2 4.4Zm32-43.5h-.3l6.5 36.7-3.3.6-7.3-41.2 5-1 23.1 33.6h.3l-6.4-36.5 3.2-.6 7.3 41.3-5 .9-23.1-33.8Zm80.2-15.7 6.8 38.2-3.6.6-6.7-38.1-14.1 2.4-.6-3 31.8-5.6.5 3-14 2.5Zm40 33c-4.8 1-8.7-.2-11.6-3.4a30 30 0 0 1-6.3-15.4c-1.2-7-1-12.6.6-16.5 1.7-4 5-6.4 9.7-7.3 4.8-.8 8.6.3 11.6 3.5s5 8.3 6.3 15.4c1.2 7 1 12.6-.7 16.6-1.7 4-4.9 6.3-9.7 7.2Zm-.6-3c3.6-.6 6-2.4 7.1-5.4 1.2-3 1.3-7 .5-11.9l-1-5.5c-.9-5-2.4-8.6-4.5-11-2.1-2.4-5-3.3-8.5-2.7-3.6.6-6 2.4-7.1 5.4-1.2 3-1.3 7-.5 11.9l1 5.5c.9 5 2.4 8.6 4.5 11 2.1 2.5 5 3.3 8.5 2.7Zm19-43.4 4.3 24.9a60 60 0 0 0 1.4 6.2 13 13 0 0 0 2 4.1 6 6 0 0 0 3.2 2c1.3.4 3 .4 5 0 2-.3 3.5-.8 4.6-1.6a6 6 0 0 0 2.3-3c.4-1.3.5-2.8.4-4.6 0-1.8-.4-4-.8-6.3l-4.4-25 3.6-.5 4.2 24.1c.6 3.2.9 6 1 8.2 0 2.3-.3 4.2-1 5.9a8 8 0 0 1-3.3 3.8 17 17 0 0 1-6.1 2.1c-2.6.5-4.8.5-6.6.2a8.4 8.4 0 0 1-4.4-2.6c-1.1-1.3-2-3-2.8-5.1a61 61 0 0 1-2-8l-4.2-24.2 3.6-.6Zm52.7 34c-9.9 1.7-16-4.6-18.6-18.8-2.5-14.2 1.2-22.2 11-24 1.7-.2 3.3-.2 4.6 0a12 12 0 0 1 6.8 3.6c.9 1 1.7 2 2.3 3l-2.7 2c-.6-1-1.2-1.8-2-2.6a8.7 8.7 0 0 0-8.4-2.8c-3.7.6-6.3 2.5-7.6 5.5-1.3 3-1.6 7-.7 11.9l1 5.5c.9 5 2.4 8.6 4.7 11 2.3 2.4 5.3 3.2 9 2.6 1.3-.2 2.3-.6 3.2-1.1a9.3 9.3 0 0 0 3.8-4.4l1-3.2 3.2.9-1.2 3.6a11.1 11.1 0 0 1-5 5.7c-1.3.7-2.8 1.2-4.4 1.5Zm38.9-27.6-18.1 3.2 3.4 19.3-3.5.7-7.3-41.3 3.5-.6 3.4 18.8 18-3.2-3.3-18.8 3.6-.6 7.2 41.2-3.5.6-3.4-19.3Z" />
  </g>
  <g filter="url(#d)">
    <path fill="#fff"
      d="M1473.5 136.7h-.4a12.2 12.2 0 0 1-2.4 5.1c-.5.7-1.3 1.3-2.3 1.8a9 9 0 0 1-3.5 1.2c-4.2.7-7.8-.5-10.6-3.8a31.2 31.2 0 0 1-6-15c-1.2-7-1-12.6.9-16.7 1.8-4.1 5.3-6.7 10.4-7.6 2-.3 3.8-.3 5.4 0a12 12 0 0 1 7.5 4.3 20 20 0 0 1 2.5 3.6l-5.7 3c-.4-.8-1-1.6-1.5-2.3a8.7 8.7 0 0 0-1.8-2 7.2 7.2 0 0 0-5.3-1.1c-3 .5-4.8 2-5.7 4.5-.9 2.4-1 5.5-.3 9.3l1.1 6.6c.4 1.9.8 3.6 1.4 5.1.5 1.5 1.2 2.8 2 3.8a9 9 0 0 0 3 2.2c1.2.4 2.5.5 4 .3a7.9 7.9 0 0 0 5.2-3.1c1-1.7 1.3-3.7 1-6l-.7-3.7-8 1.4-.9-5 14-2.4 3.7 21.1-6 1-1-5.6Zm15.5 3.1-7.3-41.2 25.9-4.6 1 5.6-19.3 3.4 2.2 12 18.5-3.3 1 5.5-18.5 3.3 2.2 12.6 19.2-3.4 1 5.6-25.9 4.5Zm44.5-44.6 6.3 35.7-6.6 1.1-6.3-35.7-13 2.3-1-5.5 32.6-5.8 1 5.6-13 2.3Zm59.7 26.2-.9-5 9.7-1.7-5.5-31.2-9.7 1.7-.9-5 26-4.6.9 5-9.7 1.7 5.5 31.2 9.7-1.7.9 5-26 4.6Zm35-38.9-.5.1 5.6 31.8-5.7 1-7.3-41.3 8.5-1.5 17.7 29.6h.5l-5.6-31.8 5.8-1 7.3 41.2-8.5 1.5-17.7-29.6Zm79.5-18 6.3 35.6-6.6 1.2-6.3-35.7-13 2.3-1-5.6 32.6-5.7 1 5.6-13 2.2Zm38 30.8c-2.6.4-5 .4-7-.2a13 13 0 0 1-5.5-3.4 19.8 19.8 0 0 1-4-6.2 42.8 42.8 0 0 1-3.1-18c.1-2.8.6-5.2 1.5-7.2 1-2 2.3-3.7 4-5a15 15 0 0 1 6.6-2.7c2.5-.4 4.9-.3 7 .3 2 .6 3.9 1.7 5.4 3.3 1.6 1.6 2.9 3.7 4 6.3a42.3 42.3 0 0 1 3.1 18c0 2.7-.6 5.1-1.6 7.2-.9 2-2.2 3.7-4 5a15.2 15.2 0 0 1-6.4 2.6Zm-1-5.5c3-.5 4.8-2 5.7-4.4.8-2.5.9-5.6.2-9.4l-1.2-7a19 19 0 0 0-3.4-8.6c-1.6-2-4-2.8-6.9-2.3-3 .5-4.8 2-5.6 4.5-.9 2.4-1 5.5-.3 9.3l1.2 7c.7 3.8 1.8 6.7 3.4 8.7 1.7 2 4 2.7 6.9 2.2Zm21.4-41.4 4.5 25.4.9 4.6c.3 1.3.8 2.5 1.5 3.4a5 5 0 0 0 2.5 1.8c1 .3 2.4.3 4 0a7 7 0 0 0 3.8-1.4 5 5 0 0 0 1.8-2.6c.3-1 .3-2.3.2-3.7a57 57 0 0 0-.7-4.6l-4.5-25.3 6.7-1.2L1791 69c.5 3 .8 5.5.9 7.8 0 2.3-.3 4.3-1 6-.7 1.6-2 3-3.6 4-1.7 1-4 1.8-6.8 2.3a19 19 0 0 1-7.2.2 9.3 9.3 0 0 1-4.7-2.6c-1.3-1.3-2.3-3-3-5.2a79 79 0 0 1-1.9-7.7l-4.2-24.2 6.6-1.2Zm50.4 34.4c-5.2 1-9.4-.2-12.7-3.5a28.3 28.3 0 0 1-6.5-15.1 28.3 28.3 0 0 1 1-16.5c1.9-4.1 5.5-6.6 10.7-7.6 2-.3 3.8-.4 5.3 0a12 12 0 0 1 7.5 4.3c1 1 1.8 2.2 2.5 3.6l-5.6 3-1.5-2.4a7.7 7.7 0 0 0-1.9-2 6.7 6.7 0 0 0-5.4-1c-2.9.6-4.8 2-5.8 4.5s-1 5.6-.4 9.4l1.2 7c.7 3.7 1.9 6.6 3.6 8.6 1.8 2 4 2.7 7 2.2 1.2-.2 2.1-.5 2.9-1a6.8 6.8 0 0 0 3-4.2l.5-2.9 6.4 1a19.4 19.4 0 0 1-3.2 8c-1 1.1-2.1 2-3.5 3a16 16 0 0 1-5 1.6Zm37.2-26-13.7 2.4 3.2 18.2-6.6 1.1-7.3-41.2 6.6-1.2 3.1 17.6 13.7-2.5-3-17.5 6.6-1.2 7.2 41.3-6.6 1.1-3.2-18.1Z" />
  </g>
  <path fill="#fff" d="m18.4.2 1855.4 327.1-18.4 104.4L0 104.5z" />
  <g filter="url(#e)">
    <path fill="#1313FE"
      d="M33.9 72.1h-.3c-.5.8-1 1.5-1.7 2.2a8.9 8.9 0 0 1-5.3 2.6 13 13 0 0 1-3.9-.1c-4.4-.8-7.5-3.2-9.2-7a30 30 0 0 1-.6-16.6 29.4 29.4 0 0 1 6.4-15.5c3.1-3.1 7-4.3 11.9-3.4 1.6.3 3.1.8 4.4 1.5a11.3 11.3 0 0 1 5.1 5.7c.5 1.2 1 2.4 1.1 3.7l-3.3.8c-.4-2.1-1.2-4-2.3-5.6a8 8 0 0 0-5.5-3c-3.6-.7-6.6.2-8.8 2.6a21 21 0 0 0-4.7 11l-1 5.3a23 23 0 0 0 .5 12c1.2 3 3.6 5 7.3 5.6a9 9 0 0 0 4 0 8 8 0 0 0 3.3-1.5c.9-.7 1.7-1.6 2.3-2.7.7-1.1 1.1-2.4 1.4-3.8l.8-4.9-9.4-1.7.5-2.8 12.7 2.2-3.4 19.7-3.3-.6 1-5.7Zm12.2 8L53.4 39l24.9 4.4-.6 3.1-21.3-3.8-2.8 15.8L74.2 62l-.5 3L53 61.5l-2.9 16.3 21.3 3.8-.5 3L46 80.3Zm55.4-29.5-6.8 38.2-3.5-.7L97.9 50l-14.1-2.5.5-3.1 31.8 5.6-.5 3-14.1-2.4Zm48.6 48 .5-3 10.8 2 6.2-35.6-10.8-1.9.5-2.8 25.2 4.4-.5 2.8-10.8-1.9-6.3 35.6 10.8 2-.5 2.7-25.1-4.4Zm44.8-30h-.3l-6.5 36.6-3.2-.5 7.3-41.3 5 .9 10.2 39.4h.3l6.4-36.4 3.2.5-7.2 41.3-5-.9-10.2-39.6Zm80.8 12.7-6.8 38.2-3.5-.7 6.7-38.1-14.1-2.5.5-3 31.8 5.5-.5 3-14.1-2.4Zm26.2 44.7c-4.8-.8-8-3.2-9.7-7.2-1.7-4-1.9-9.5-.6-16.6 1.2-7 3.3-12.2 6.2-15.4 3-3.1 6.8-4.3 11.6-3.5 4.8.9 8 3.3 9.6 7.3 1.7 4 2 9.5.7 16.6-1.3 7-3.4 12.2-6.3 15.4-3 3.1-6.8 4.2-11.5 3.4Zm.5-3c3.6.6 6.4-.3 8.5-2.7 2.2-2.4 3.7-6.1 4.5-11l1-5.6c.9-4.9.7-8.8-.5-11.8-1.1-3-3.5-4.9-7-5.5-3.6-.6-6.4.3-8.6 2.7a23 23 0 0 0-4.5 11l-1 5.5c-.8 5-.7 9 .5 12s3.6 4.7 7.1 5.3Zm32.7-34.4-4.4 24.9c-.4 2.4-.7 4.5-.8 6.3-.1 1.8 0 3.3.4 4.6a6 6 0 0 0 2.3 3c1.1.8 2.6 1.3 4.7 1.7 2 .3 3.6.3 4.9 0a6 6 0 0 0 3.2-2c.8-1.1 1.5-2.5 2-4.2.5-1.8 1-3.8 1.4-6.2l4.3-25 3.6.7-4.3 24.2c-.5 3.1-1.2 5.8-2 8-.6 2.1-1.6 3.9-2.8 5.1a8 8 0 0 1-4.4 2.6 17 17 0 0 1-6.5-.1c-2.6-.5-4.7-1.2-6.2-2.2a8.4 8.4 0 0 1-3.3-3.8 15 15 0 0 1-.9-5.9c0-2.3.4-5 1-8.2l4.2-24.1 3.6.6Zm37.9 50c-9.9-1.8-13.6-9.8-11-24 2.5-14.2 8.6-20.5 18.5-18.7a12.2 12.2 0 0 1 7.5 4c.8 1 1.5 2 2 3.2.5 1.2.9 2.4 1.1 3.7l-3.2.8-1-3a8.8 8.8 0 0 0-3.7-4.5c-1-.6-2-1-3.3-1.1-3.7-.7-6.7.2-9 2.6-2.2 2.3-3.8 6-4.7 10.9l-1 5.6c-.8 4.9-.6 8.9.7 11.9 1.4 3 4 4.8 7.6 5.5a9.7 9.7 0 0 0 6.2-1c.9-.5 1.6-1.1 2.3-1.9.7-.7 1.3-1.6 2-2.5l2.7 1.8c-.7 1.1-1.5 2.2-2.4 3.1a11.3 11.3 0 0 1-6.7 3.6c-1.4.3-3 .2-4.6 0Zm46-12.7-18.1-3.1-3.4 19.3-3.6-.6 7.3-41.2 3.5.6-3.3 18.8 18.1 3.2 3.3-18.8 3.6.6-7.3 41.2-3.5-.6L419 126Z" />
  </g>
  <g filter="url(#f)">
    <path fill="#000005"
      d="M510.6 156.2h-.4l-1.8 2.2a8.3 8.3 0 0 1-5 2.6c-1 .2-2.3.1-3.6-.1a11 11 0 0 1-8.8-7.2c-1.5-4-1.6-9.4-.5-16.1 1.3-7 3.5-12.2 6.6-15.4 3.1-3.3 7.3-4.5 12.4-3.6 2 .4 3.7 1 5 1.8a12 12 0 0 1 5.7 6.6c.5 1.4.8 2.8 1 4.2l-6.3 1-.6-2.7c-.3-1-.6-1.8-1.1-2.5a6.2 6.2 0 0 0-4.6-2.8c-3-.6-5.2.2-6.9 2.2-1.6 2-2.8 4.9-3.5 8.6l-1.1 6.6c-.4 1.9-.5 3.7-.5 5.3 0 1.6.2 3 .6 4.3a7.8 7.8 0 0 0 2.1 3c1 .9 2.2 1.4 3.7 1.7 2.4.4 4.3 0 5.8-1.2a8 8 0 0 0 3-5.2l.6-3.7-8-1.4 1-5 14 2.5-3.8 21-6-1 1-5.7Zm13.5 8.3 7.3-41.3 25.8 4.6-1 5.5L537 130l-2.1 12 18.5 3.3-1 5.5-18.5-3.2-2.2 12.6 19.2 3.4-1 5.5-25.8-4.5Zm57-26.8-6.2 35.7-6.6-1.2 6.3-35.6-13-2.3 1-5.6 32.5 5.8-1 5.5-13-2.3Zm47.2 45.1.8-5 9.7 1.7 5.5-31.2-9.7-1.7 1-5 26 4.6-1 5-9.6-1.7-5.5 31.2 9.6 1.7-.8 5-26-4.6Zm46.2-24.5-.5-.1-5.6 31.7-5.8-1 7.3-41.3 8.5 1.5 6.5 34h.6l5.5-31.7 5.8 1-7.2 41.2-8.5-1.5-6.6-33.8Zm80.9 10.1-6.3 35.7-6.6-1.1 6.3-35.7-13-2.3 1-5.6 32.5 5.8-1 5.5-13-2.3Zm25 42c-2.5-.5-4.7-1.3-6.5-2.6a14 14 0 0 1-4-5c-.8-2-1.4-4.5-1.5-7.2a42.2 42.2 0 0 1 3.2-18c1-2.6 2.4-4.7 3.9-6.3 1.6-1.6 3.4-2.7 5.5-3.3a15 15 0 0 1 7-.3c2.6.5 4.8 1.4 6.5 2.7 1.7 1.3 3 3 4 5s1.5 4.4 1.6 7.2a42.3 42.3 0 0 1-3.2 18 19 19 0 0 1-4 6.2 12.6 12.6 0 0 1-5.4 3.4c-2 .6-4.4.7-7 .2Zm1-5.5c3 .5 5.3-.2 6.9-2.2 1.6-2 2.8-5 3.4-8.8l1.3-6.9a20 20 0 0 0-.3-9.3c-.8-2.5-2.7-4-5.7-4.5s-5.2.3-6.8 2.3c-1.6 2-2.8 4.9-3.4 8.7l-1.3 7c-.6 3.7-.5 6.8.3 9.3.8 2.4 2.7 3.9 5.7 4.4Zm34.3-31.5-4.5 25.3a83 83 0 0 0-.7 4.6c-.1 1.4 0 2.7.3 3.7a5 5 0 0 0 1.7 2.6c.9.7 2.1 1.2 3.8 1.4 1.7.3 3 .3 4 0a5 5 0 0 0 2.5-1.8c.7-1 1.2-2 1.5-3.4l1-4.6 4.5-25.4 6.6 1.2-4.3 24.2c-.5 3-1.1 5.5-1.9 7.7-.7 2.1-1.7 3.9-3 5.2a9.2 9.2 0 0 1-4.7 2.6c-2 .4-4.3.4-7.2-.2a19 19 0 0 1-6.8-2.3 9.3 9.3 0 0 1-3.6-4c-.7-1.7-1-3.7-1-6s.4-4.9 1-7.8l4.2-24.2 6.6 1.2Zm35.6 49.5c-5.2-1-8.8-3.5-10.7-7.6a28.3 28.3 0 0 1-1-16.5 28.3 28.3 0 0 1 6.6-15c3.2-3.3 7.4-4.5 12.7-3.6a15.4 15.4 0 0 1 8.5 4.6 12 12 0 0 1 2 3.8c.6 1.3 1 2.7 1.2 4.2l-6.3 1-.6-2.8a6.8 6.8 0 0 0-5.8-5.2c-3-.6-5.3.2-7 2.2-1.8 2-3 4.8-3.6 8.6l-1.3 7a18 18 0 0 0 .5 9.4c1 2.4 2.8 3.9 5.8 4.4a6.8 6.8 0 0 0 7.3-3l1.5-2.4 5.6 3a21 21 0 0 1-2.6 3.8c-.9 1-2 2-3.2 2.7a9.6 9.6 0 0 1-4.2 1.5 16 16 0 0 1-5.4-.1Zm43.9-11.7-13.7-2.4-3.2 18.1-6.6-1.2 7.2-41.2 6.6 1.2-3 17.5 13.7 2.4 3-17.5 6.7 1.2-7.3 41.2-6.6-1.2 3.2-18.1Z" />
  </g>
  <g filter="url(#g)">
    <path fill="#fff"
      d="m990 241-.3-.1-1.6 2a8.1 8.1 0 0 1-5 2.7c-1.2.1-2.4.1-3.8-.1a11 11 0 0 1-9.1-7.3c-1.5-4-1.7-9.4-.5-16.1a30 30 0 0 1 6.4-15.5c3-3.3 7.1-4.4 12.1-3.6 2 .4 3.6 1 4.9 1.7a12.2 12.2 0 0 1 5.3 6.1c.4 1.2.8 2.4 1 3.5l-4.6 1.2a17 17 0 0 0-.8-2.7c-.2-1-.7-1.7-1.2-2.4a6.7 6.7 0 0 0-2-2c-1-.4-2-.8-3.2-1-3.3-.6-6 .2-8 2.4a19 19 0 0 0-4 9.5l-1.1 6.4c-.4 2.1-.6 4-.6 5.8 0 1.8.3 3.3.8 4.7a8.7 8.7 0 0 0 2.3 3.5c1 .9 2.4 1.5 4.1 1.8 2.7.4 5 0 6.7-1.4a9 9 0 0 0 3.4-5.8l.7-4.3-8.7-1.5.7-4 13.3 2.4-3.6 20.4-4.6-.9 1-5.5Zm13 7.9 7.2-41.2 25.4 4.4-.7 4.3-20.5-3.6-2.4 14 19.7 3.4-.8 4.3-19.7-3.5-2.5 14.5 20.4 3.6-.7 4.3-25.5-4.5Zm56.2-28.2-6.5 37-5-1 6.5-36.8-13.7-2.5.7-4.3 32.5 5.7-.7 4.4-13.8-2.5Zm48 46.6.6-4 10.3 1.8 5.9-33.3-10.3-1.8.7-4 25.5 4.5-.7 4-10.3-1.8-5.9 33.3 10.3 1.8-.7 4-25.5-4.5Zm45.6-28h-.4l-6.2 34.9-4.5-.8 7.3-41.3 7 1.3 8 37h.4l6-34.5 4.6.8-7.3 41.2-7-1.2-8-37.4Zm80.6 12.1-6.5 37-5-.9 6.5-37-13.8-2.4.8-4.3 32.5 5.8-.8 4.3-13.7-2.5Zm25.7 43.4c-2.5-.4-4.6-1.3-6.3-2.6-1.6-1.3-2.8-3-3.7-5a19 19 0 0 1-1.4-7 45.4 45.4 0 0 1 3.2-18.1c1-2.6 2.3-4.7 3.8-6.3a12 12 0 0 1 5.2-3.3c2-.7 4.2-.8 6.7-.4 2.6.5 4.6 1.4 6.3 2.7a12 12 0 0 1 3.7 4.9c.9 2 1.4 4.4 1.4 7.2a44.6 44.6 0 0 1-3.1 18c-1 2.5-2.3 4.6-3.8 6.2a12.5 12.5 0 0 1-5.3 3.4c-2 .6-4.2.7-6.7.3Zm.8-4.3c1.6.3 3 .2 4.3-.2a8.4 8.4 0 0 0 3.3-2.3c1-1 1.8-2.4 2.4-4 .6-1.6 1.2-3.5 1.5-5.6l1.2-6.7c.4-2 .5-4 .5-5.7 0-1.7-.3-3.3-.9-4.6a7.8 7.8 0 0 0-2.3-3.2c-1-.9-2.4-1.5-4-1.8a8 8 0 0 0-7.7 2.5c-1 1-1.8 2.4-2.4 4-.6 1.7-1.1 3.5-1.5 5.6l-1.2 6.7c-.4 2.1-.5 4-.5 5.8 0 1.7.4 3.2.9 4.5a8.4 8.4 0 0 0 2.3 3.3c1 .8 2.4 1.4 4 1.7Zm33.4-33-4.4 24.8c-.3 2-.6 3.8-.7 5.4-.2 1.6-.1 3 .2 4.3.3 1.2 1 2.2 2 3 1 .7 2.4 1.3 4.3 1.6 2 .4 3.5.3 4.6 0a5.5 5.5 0 0 0 3-2.2c.6-1 1.2-2.3 1.6-3.9a75 75 0 0 0 1.1-5.3l4.4-24.8 5 .9-4.2 23.6a60 60 0 0 1-2 8c-.6 2.1-1.5 4-2.8 5.3a8.7 8.7 0 0 1-4.5 2.8c-1.9.5-4.2.4-7 0-2.8-.6-5-1.3-6.6-2.4a9.1 9.1 0 0 1-3.3-4.2c-.6-1.7-1-3.7-.8-6 .1-2.4.4-5 1-8.1l4.1-23.6 5 .9Zm36.8 49.8a13 13 0 0 1-10.3-7.5 29 29 0 0 1-.8-16.4 29 29 0 0 1 6.4-15.2c3.1-3.3 7.2-4.4 12.3-3.5 1.8.3 3.4.8 4.7 1.6a11.3 11.3 0 0 1 5.2 6 27 27 0 0 1 1.2 3.6l-4.6 1.2a17 17 0 0 0-.8-2.7c-.3-1-.8-1.7-1.4-2.4a6.6 6.6 0 0 0-2-2c-.8-.4-1.8-.8-3.1-1-3.3-.6-6 .2-8 2.4-2 2.2-3.4 5.4-4 9.5l-1.3 6.7c-.7 4.2-.5 7.6.6 10.4a8.3 8.3 0 0 0 6.7 5 9 9 0 0 0 3.3 0c1-.2 1.8-.5 2.5-1a10 10 0 0 0 2.1-1.8c.7-.7 1.2-1.5 1.7-2.4l4 2.7-2.4 3a11 11 0 0 1-7 3.9c-1.4.3-3 .3-5 0Zm45-12.1-16-2.8-3.4 18.7-5-.9 7.3-41.2 5 .9-3.2 18.2 16 2.8 3.3-18.2 5 .9-7.3 41.2-5-.9 3.3-18.7Z" />
  </g>
  <g filter="url(#h)">
    <path fill="#000005"
      d="M1467.8 325h-.4c-.5.7-1 1.4-1.7 2.1a8.4 8.4 0 0 1-5 2.6c-1.2.3-2.4.2-3.7 0-4.3-.8-7.2-3.2-8.7-7.2-1.5-4-1.7-9.4-.5-16.1a29 29 0 0 1 6.5-15.4c3.2-3.3 7.3-4.5 12.4-3.6 2 .4 3.7 1 5.1 1.8a11.8 11.8 0 0 1 5.6 6.6c.5 1.4.8 2.8 1 4.2l-6.3 1c-.1-1-.3-1.9-.6-2.8l-1-2.4a7.2 7.2 0 0 0-4.6-2.9c-3-.5-5.3.3-7 2.3a18 18 0 0 0-3.4 8.6l-1.2 6.6c-.3 1.9-.5 3.6-.5 5.3 0 1.6.2 3 .7 4.3a7.7 7.7 0 0 0 2 3c1 .8 2.2 1.4 3.7 1.6 2.4.5 4.4 0 5.9-1.1 1.5-1.2 2.5-3 2.9-5.2l.7-3.7-8-1.4.9-5 14 2.5-3.8 21-6-1 1-5.7Zm13.5 8.2 7.3-41.2 25.8 4.6-1 5.5-19.2-3.4-2 12 18.4 3.3-1 5.5-18.5-3.2-2.2 12.6 19.2 3.3-1 5.6-25.8-4.6Zm57.1-26.7-6.3 35.7-6.6-1.2 6.3-35.7-13-2.2 1-5.6 32.5 5.7-1 5.6-12.9-2.3Zm47 45.1 1-5 9.7 1.7 5.5-31.2-9.7-1.7.9-5 26 4.6-1 5-9.6-1.7-5.5 31.2 9.7 1.7-1 5-26-4.6Zm46.4-24.5-.6-.1-5.5 31.7-5.8-1 7.2-41.3 8.5 1.5 6.6 33.9h.5l5.6-31.6 5.8 1-7.3 41.2-8.5-1.5-6.5-33.8Zm80.8 10.1-6.3 35.7-6.6-1.1 6.3-35.7-13-2.3 1-5.6 32.5 5.8-1 5.5-12.9-2.3Zm25.1 42c-2.6-.5-4.8-1.3-6.5-2.6-1.7-1.3-3-3-4-5s-1.4-4.5-1.5-7.2c-.2-2.8 0-5.8.7-9.2.5-3.4 1.4-6.3 2.4-8.8a18 18 0 0 1 4-6.3c1.5-1.6 3.3-2.7 5.4-3.3a15 15 0 0 1 7-.3c2.6.5 4.8 1.4 6.5 2.7 1.8 1.3 3.1 3 4 5 1 2 1.5 4.4 1.6 7.2a42.3 42.3 0 0 1-3.2 18 17 17 0 0 1-4 6.2 12.6 12.6 0 0 1-5.4 3.4c-2 .6-4.4.6-7 .2Zm1-5.5c3 .5 5.2-.2 6.8-2.2 1.7-2 2.8-5 3.5-8.8l1.2-6.9c.7-3.8.6-6.9-.3-9.3-.8-2.5-2.7-4-5.6-4.5-3-.5-5.3.3-6.9 2.3a19 19 0 0 0-3.4 8.6l-1.2 7c-.7 3.8-.6 7 .2 9.4.8 2.4 2.7 3.9 5.7 4.4Zm34.2-31.6-4.4 25.4c-.3 1.7-.6 3.2-.7 4.6a11 11 0 0 0 .2 3.7 5 5 0 0 0 1.8 2.6c.8.7 2 1.1 3.7 1.4 1.7.3 3 .3 4 0a5 5 0 0 0 2.6-1.9c.6-.9 1.1-2 1.4-3.4.4-1.3.7-2.8 1-4.5l4.5-25.4 6.6 1.2-4.3 24.2c-.5 3-1.1 5.5-1.9 7.7-.7 2.1-1.6 3.8-2.9 5.2a9.2 9.2 0 0 1-4.8 2.5 22 22 0 0 1-14-2.4 9.3 9.3 0 0 1-3.5-4c-.8-1.7-1-3.7-1-6s.3-5 .8-7.9l4.3-24.1 6.6 1.1Zm35.7 49.6c-5.3-1-8.8-3.5-10.7-7.6a28.3 28.3 0 0 1-1-16.5 28.3 28.3 0 0 1 6.5-15c3.2-3.3 7.5-4.5 12.7-3.6a15.4 15.4 0 0 1 8.5 4.6 16 16 0 0 1 3.2 8l-6.3 1a13.6 13.6 0 0 0-1.6-5.2 6.7 6.7 0 0 0-4.8-2.9c-3-.5-5.3.2-7 2.2-1.7 2-3 4.9-3.6 8.7l-1.2 7c-.7 3.7-.5 6.9.4 9.3a7 7 0 0 0 5.8 4.5 6.9 6.9 0 0 0 7.3-3l1.5-2.4 5.6 3a20 20 0 0 1-2.5 3.7c-1 1.1-2 2-3.3 2.8a13 13 0 0 1-4.2 1.5 16 16 0 0 1-5.3-.1Zm43.8-11.7-13.7-2.4-3.2 18.1-6.6-1.2 7.3-41.2 6.6 1.2-3.1 17.5 13.7 2.4 3-17.5 6.7 1.1-7.3 41.3-6.6-1.2 3.2-18.1Z" />
  </g>
  <defs>
    <filter id="a" width="423.2" height="119.2" x="8.6" y="285" color-interpolation-filters="sRGB"
      filterUnits="userSpaceOnUse">
      <feFlood flood-opacity="0" result="BackgroundImageFix" />
      <feColorMatrix in="SourceAlpha" result="hardAlpha" values="0 0 0 0 0 0 0 0 0 0 0 0 0 0 0 0 0 0 127 0" />
      <feOffset dx="4" dy="4" />
      <feComposite in2="hardAlpha" operator="out" />
      <feColorMatrix values="0 0 0 0 1 0 0 0 0 1 0 0 0 0 1 0 0 0 0.4 0" />
      <feBlend in2="BackgroundImageFix" result="effect1_dropShadow_413_6781" />
      <feBlend in="SourceGraphic" in2="effect1_dropShadow_413_6781" result="shape" />
    </filter>
    <filter id="b" width="422.2" height="119.1" x="487.8" y="200.7" color-interpolation-filters="sRGB"
      filterUnits="userSpaceOnUse">
      <feFlood flood-opacity="0" result="BackgroundImageFix" />
      <feColorMatrix in="SourceAlpha" result="hardAlpha" values="0 0 0 0 0 0 0 0 0 0 0 0 0 0 0 0 0 0 127 0" />
      <feOffset dx="4" dy="4" />
      <feComposite in2="hardAlpha" operator="out" />
      <feColorMatrix values="0 0 0 0 0.0745098 0 0 0 0 0.0745098 0 0 0 0 0.996078 0 0 0 1 0" />
      <feBlend in2="BackgroundImageFix" result="effect1_dropShadow_413_6781" />
      <feBlend in="SourceGraphic" in2="effect1_dropShadow_413_6781" result="shape" />
    </filter>
    <filter id="c" width="419.3" height="116.9" x="966.8" y="116.4" color-interpolation-filters="sRGB"
      filterUnits="userSpaceOnUse">
      <feFlood flood-opacity="0" result="BackgroundImageFix" />
      <feColorMatrix in="SourceAlpha" result="hardAlpha" values="0 0 0 0 0 0 0 0 0 0 0 0 0 0 0 0 0 0 127 0" />
      <feOffset dx="2" dy="2" />
      <feComposite in2="hardAlpha" operator="out" />
      <feColorMatrix values="0 0 0 0 1 0 0 0 0 1 0 0 0 0 1 0 0 0 0.4 0" />
      <feBlend in2="BackgroundImageFix" result="effect1_dropShadow_413_6781" />
      <feBlend in="SourceGraphic" in2="effect1_dropShadow_413_6781" result="shape" />
    </filter>
    <filter id="d" width="423.2" height="119.2" x="1444.5" y="31.8" color-interpolation-filters="sRGB"
      filterUnits="userSpaceOnUse">
      <feFlood flood-opacity="0" result="BackgroundImageFix" />
      <feColorMatrix in="SourceAlpha" result="hardAlpha" values="0 0 0 0 0 0 0 0 0 0 0 0 0 0 0 0 0 0 127 0" />
      <feOffset dx="4" dy="4" />
      <feComposite in2="hardAlpha" operator="out" />
      <feColorMatrix values="0 0 0 0 1 0 0 0 0 1 0 0 0 0 1 0 0 0 0.4 0" />
      <feBlend in2="BackgroundImageFix" result="effect1_dropShadow_413_6781" />
      <feBlend in="SourceGraphic" in2="effect1_dropShadow_413_6781" result="shape" />
    </filter>
    <filter id="e" width="419.3" height="116.9" x="9.2" y="31.7" color-interpolation-filters="sRGB"
      filterUnits="userSpaceOnUse">
      <feFlood flood-opacity="0" result="BackgroundImageFix" />
      <feColorMatrix in="SourceAlpha" result="hardAlpha" values="0 0 0 0 0 0 0 0 0 0 0 0 0 0 0 0 0 0 127 0" />
      <feOffset dx="2" dy="2" />
      <feComposite in2="hardAlpha" operator="out" />
      <feColorMatrix values="0 0 0 0 0 0 0 0 0 0 0 0 0 0 0 0 0 0 0.4 0" />
      <feBlend in2="BackgroundImageFix" result="effect1_dropShadow_413_6781" />
      <feBlend in="SourceGraphic" in2="effect1_dropShadow_413_6781" result="shape" />
    </filter>
    <filter id="f" width="423.2" height="119.2" x="486.8" y="116" color-interpolation-filters="sRGB"
      filterUnits="userSpaceOnUse">
      <feFlood flood-opacity="0" result="BackgroundImageFix" />
      <feColorMatrix in="SourceAlpha" result="hardAlpha" values="0 0 0 0 0 0 0 0 0 0 0 0 0 0 0 0 0 0 127 0" />
      <feOffset dx="4" dy="4" />
      <feComposite in2="hardAlpha" operator="out" />
      <feColorMatrix values="0 0 0 0 0 0 0 0 0 0 0 0 0 0 0 0 0 0 0.4 0" />
      <feBlend in2="BackgroundImageFix" result="effect1_dropShadow_413_6781" />
      <feBlend in="SourceGraphic" in2="effect1_dropShadow_413_6781" result="shape" />
    </filter>
    <filter id="g" width="422.2" height="119.1" x="966" y="200.4" color-interpolation-filters="sRGB"
      filterUnits="userSpaceOnUse">
      <feFlood flood-opacity="0" result="BackgroundImageFix" />
      <feColorMatrix in="SourceAlpha" result="hardAlpha" values="0 0 0 0 0 0 0 0 0 0 0 0 0 0 0 0 0 0 127 0" />
      <feOffset dx="4" dy="4" />
      <feComposite in2="hardAlpha" operator="out" />
      <feColorMatrix values="0 0 0 0 0.0745098 0 0 0 0 0.0745098 0 0 0 0 0.996078 0 0 0 1 0" />
      <feBlend in2="BackgroundImageFix" result="effect1_dropShadow_413_6781" />
      <feBlend in="SourceGraphic" in2="effect1_dropShadow_413_6781" result="shape" />
    </filter>
    <filter id="h" width="423.2" height="119.2" x="1444.1" y="284.7" color-interpolation-filters="sRGB"
      filterUnits="userSpaceOnUse">
      <feFlood flood-opacity="0" result="BackgroundImageFix" />
      <feColorMatrix in="SourceAlpha" result="hardAlpha" values="0 0 0 0 0 0 0 0 0 0 0 0 0 0 0 0 0 0 127 0" />
      <feOffset dx="4" dy="4" />
      <feComposite in2="hardAlpha" operator="out" />
      <feColorMatrix values="0 0 0 0 0 0 0 0 0 0 0 0 0 0 0 0 0 0 0.4 0" />
      <feBlend in2="BackgroundImageFix" result="effect1_dropShadow_413_6781" />
      <feBlend in="SourceGraphic" in2="effect1_dropShadow_413_6781" result="shape" />
    </filter>
  </defs>
</svg>