<svg xmlns="http://www.w3.org/2000/svg" fill="none" viewBox="0 0 320 27"><g fill="#fff" clip-path="url(#a)"><path stroke="#fff" stroke-miterlimit="10" stroke-width=".1" d="M2.6 3H.1v2.6h2.5V3Zm0 3H.1v2.5h2.5V6Zm0 3H.1v2.5h2.5V9Zm0 3H.1v2.5h2.5V12Zm0 3H.1v2.4h2.5V15Zm0 2.9H.1v2.5h2.5v-2.5ZM5.6.1H3v2.5h2.5V.1Zm0 2.9H3v2.6h2.5V3Zm0 3H3v2.5h2.5V6Zm0 3H3v2.5h2.5V9Zm0 3H3v2.5h2.5V12Zm0 3H3v2.4h2.5V15Zm0 2.9H3v2.5h2.5v-2.5ZM8.5.1H6v2.5h2.5V.1Zm0 8.9H6v2.5h2.5V9Zm0 8.9H6v2.5h2.5v-2.5Zm3-17.8H9v2.5h2.5V.1Zm0 8.9H9v2.5h2.5V9Zm0 8.9H9v2.5h2.5v-2.5Zm3-17.8H12v2.5h2.5V.1Zm0 8.9H12v2.5h2.5V9Zm0 8.9H12v2.5h2.5v-2.5ZM17.4.1H15v2.5h2.5V.1Zm0 8.9H15v2.5h2.5V9Zm0 8.9H15v2.5h2.5v-2.5Zm3-17.8h-2.5v2.5h2.5V.1Zm0 17.8h-2.5v2.5h2.5v-2.5ZM23.2 6h2.5v2.5h-2.5V6Zm0 3h2.5v2.5h-2.5V9Zm0 3h2.5v2.5h-2.5V12Zm3-6h2.5v2.5h-2.5V6Zm0 3h2.5v2.5h-2.5V9Zm0 3h2.5v2.5h-2.5V12Zm0 3h2.5v2.4h-2.5V15Zm3 0h2.4v2.4h-2.5V15Zm0 2.9h2.4v2.5h-2.5v-2.5Zm2.9 0h2.5v2.5H32v-2.5Zm3-3h2.5v2.5H35V15Zm0 3h2.5v2.5H35v-2.5ZM38 6h2.4v2.5H38V6Zm0 3h2.4v2.5H38V9Zm0 3h2.4v2.5H38V12Zm0 3h2.4v2.4H38V15Zm3-9h2.5v2.5H41V6Zm0 3h2.5v2.5H41V9Zm0 3h2.5v2.5H41V12Zm5.4-3h2.5v2.5h-2.5V9Zm0 3h2.5v2.5h-2.5V12Zm0 3h2.5v2.4h-2.5V15Zm3-9h2.4v2.5h-2.5V6Zm0 3h2.4v2.5h-2.5V9Zm0 3h2.4v2.5h-2.5V12Zm0 3h2.4v2.4h-2.5V15Zm0 2.9h2.4v2.5h-2.5v-2.5ZM52.2 6h2.5v2.5h-2.5V6Zm0 6h2.5v2.5h-2.5V12Zm0 5.9h2.5v2.5h-2.5v-2.5Zm3-11.9h2.5v2.5h-2.6V6Zm0 6h2.5v2.5h-2.6V12Zm0 5.9h2.5v2.5h-2.6v-2.5Zm3-11.9h2.5v2.5h-2.6V6Zm0 6h2.5v2.5h-2.6V12Zm0 5.9h2.5v2.5h-2.6v-2.5ZM61.1 6h2.5v2.5h-2.5V6Zm0 3h2.5v2.5h-2.5V9Zm0 3h2.5v2.5h-2.5V12Zm0 5.9h2.5v2.5h-2.5v-2.5Zm3-9h2.5v2.6h-2.5V9Zm0 3h2.5v2.6h-2.5V12ZM69.5 6H72v2.6h-2.5V6Zm0 3H72v2.5h-2.5V9Zm0 3H72v2.5h-2.5V12Zm0 3H72v2.5h-2.5V15Zm0 3H72v2.4h-2.5V18Zm3-12h2.4v2.6h-2.5V6Zm0 3h2.4v2.5h-2.5V9Zm0 3h2.4v2.5h-2.5V12Zm0 3h2.4v2.5h-2.5V15Zm0 3h2.4v2.4h-2.5V18Zm2.9-9h2.5v2.5h-2.5V9Zm3-3h2.5v2.6h-2.6V6Zm3 0h2.5v2.6h-2.6V6Zm7.8 0h-2.5v2.5h2.5V6Zm0 3h-2.5v2.5h2.5V9Zm0 3h-2.5v2.5h2.5V12Zm0 5.9h-2.5v2.5h2.5v-2.5Zm3-11.9h-2.5v2.5h2.5V6Zm0 6h-2.5v2.5h2.5V12Zm0 5.9h-2.5v2.5h2.5v-2.5ZM95.1 6h-2.5v2.5h2.5V6Zm0 6h-2.5v2.5h2.5V12Zm0 5.9h-2.5v2.5h2.5v-2.5Zm3-11.9h-2.5v2.5h2.5V6Zm0 6h-2.5v2.5h2.5V12Zm0 5.9h-2.5v2.5h2.5v-2.5ZM101 6h-2.4v2.5h2.5V6Zm0 6h-2.4v2.5h2.5V12Zm0 3h-2.4v2.4h2.5V15Zm0 2.9h-2.4v2.5h2.5v-2.5Zm8.4 0h-2.5v2.5h2.5v-2.5ZM104 6h2.4v2.5H104V6Zm2.9-5.9h2.5v2.5H107V.1Zm0 3h2.5v2.5H107V3Zm0 3h2.5v2.4H107V6Zm0 2.9h2.5v2.5H107V9Zm0 3h2.5v2.5H107V12Zm0 3h2.5v2.4H107V15Zm3-14.9h2.5v2.5h-2.6V.1Zm0 3h2.5v2.5h-2.6V3Zm0 3h2.5v2.4h-2.6V6Zm0 2.9h2.5v2.5h-2.6V9Zm0 3h2.5v2.5h-2.6V12Zm0 3h2.5v2.4h-2.6V15Zm0 2.9h2.5v2.5h-2.6v-2.5Zm3-11.9h2.4v2.5h-2.5V6Zm0 11.9h2.4v2.5h-2.5v-2.5Zm2.9 0h2.5v2.5h-2.5v-2.5ZM123.5 6H121v2.5h2.5V6Zm0 6H121v2.5h2.5V12Zm0 3H121v2.4h2.5V15Zm0 2.9H121v2.5h2.5v-2.5Zm3-11.9H124v2.5h2.5V6Zm0 6H124v2.5h2.5V12Zm0 5.9H124v2.5h2.5v-2.5Zm3-11.9H127v2.5h2.5V6Zm0 6H127v2.5h2.5V12Zm0 5.9H127v2.5h2.5v-2.5Zm3-11.9h-2.6v2.5h2.6V6Zm0 6h-2.6v2.5h2.6V12Zm0 5.9h-2.6v2.5h2.6v-2.5ZM135.4 6H133v2.5h2.5V6Zm0 3H133v2.5h2.5V9Zm0 3H133v2.5h2.5V12Zm0 3H133v2.4h2.5V15Zm0 2.9H133v2.5h2.5v-2.5Zm3-8.9h-2.5v2.5h2.5V9Zm0 3h-2.5v2.5h2.5V12Zm0 3h-2.5v2.4h2.5V15Zm0 2.9h-2.5v2.5h2.5v-2.5ZM141.2.1h2.5v2.5h-2.5V.1Zm0 3h2.5v2.5h-2.5V3Zm0 3h2.5v2.4h-2.5V6Zm0 2.9h2.5v2.5h-2.5V9Zm0 3h2.5v2.5h-2.5V12Zm0 3h2.5v2.4h-2.5V15Zm0 2.9h2.5v2.5h-2.5v-2.5Zm3-17.8h2.4v2.5h-2.5V.1Zm0 3h2.4v2.5h-2.5V3Zm0 3h2.4v2.4h-2.5V6Zm0 2.9h2.4v2.5h-2.5V9Zm0 3h2.4v2.5h-2.5V12Zm0 3h2.4v2.4h-2.5V15Zm0 2.9h2.4v2.5h-2.5v-2.5Zm2.9-6h2.5v2.6H147V12Zm3-3h2.4v2.6H150V9Zm0 3h2.4v2.6H150V12Zm0 3h2.4v2.5H150V15Zm3-8.9h2.4v2.5H153V6Zm0 3h2.4v2.5H153V9Zm0 6h2.4v2.4H153V15Zm0 2.9h2.4v2.5H153v-2.5ZM156 6h2.5v2.5H156V6Zm0 11.9h2.5v2.5H156v-2.5Zm5.2-8.9h2.5v2.5h-2.5V9Zm0 3h2.5v2.5h-2.5V12Zm0 3h2.5v2.4h-2.5V15Zm3-9h2.5v2.5h-2.5V6Zm0 3h2.5v2.5h-2.5V9Zm0 3h2.5v2.5h-2.5V12Zm0 3h2.5v2.4h-2.5V15Zm0 2.9h2.5v2.5h-2.5v-2.5Zm3-11.9h2.4v2.5h-2.5V6Zm0 6h2.4v2.5h-2.5V12Zm0 5.9h2.4v2.5h-2.5v-2.5ZM170 6h2.5v2.5H170V6Zm0 6h2.5v2.5H170V12Zm0 5.9h2.5v2.5H170v-2.5ZM173 6h2.5v2.5H173V6Zm0 6h2.5v2.5H173V12Zm0 5.9h2.5v2.5H173v-2.5ZM176 6h2.4v2.5H176V6Zm0 3h2.4v2.5H176V9Zm0 3h2.4v2.5H176V12Zm0 5.9h2.4v2.5H176v-2.5Zm2.9-9h2.5v2.6H179V9Zm0 3h2.5v2.6H179V12Z"/><path fill-rule="evenodd" d="M199.5.1h2.5v2.5h-2.5V.1Zm8.3 0h-2.5v2.5h2.5V.1Zm-8.3 3h2.5v2.5h-2.5V3Zm2.9 0h2.5v2.5h-2.5V3Zm2.5 3h-2.5v2.4h2.5V6ZM202.4 9h2.5v2.5h-2.5V9Zm2.5 3h-2.5v2.5h2.5V12Zm-2.5 3h2.5v2.4h-2.5V15Zm3-12h2.4v2.6h-2.5V3Zm2.4 3h-2.5v2.5h2.5V6Zm-2.5 3h2.5v2.5h-2.5V9Zm2.5 3h-2.5v2.5h2.5V12Zm-2.5 3h2.5v2.4h-2.5V15Zm2.5 2.9h-2.5v2.5h2.5v-2.5Zm.5-17.8h2.5v2.5h-2.5V.1Zm2.5 17.8h-2.5v2.5h2.5v-2.5Zm.4-17.8h2.5v2.5h-2.5V.1Zm2.5 17.8h-2.5v2.5h2.5v-2.5Zm.5-17.8h2.5v2.5h-2.5V.1Zm2.5 17.8h-2.5v2.5h2.5v-2.5Zm.5-17.8h2.5v2.5h-2.5V.1Zm2.5 3h-2.5v2.5h2.5V3Zm-2.5 11.8h2.5v2.5h-2.5V15Zm2.5 3h-2.5v2.5h2.5v-2.5Z" clip-rule="evenodd"/><path d="M202 .1Zm-2.5 0Zm2.5 2.5Zm-2.5 0Zm5.8-2.5Zm2.5 0Zm-2.5 2.5Zm2.5 0Zm-5.8.5Zm-2.5 0Zm2.5 2.5Zm-2.5 0Zm5.4-2.5Zm-2.5 0Zm2.5 2.5Zm-2.5 0Zm0 .4Zm2.5 0Zm-2.5 2.5v.1Zm2.5 0v.1Zm0 .5Zm-2.5 0Zm2.5 2.5Zm-2.5 0Zm0 .5Zm2.5 0Zm-2.5 2.5Zm2.5 0Zm0 .4Zm-2.5 0Zm2.5 2.5v.1Zm-2.5 0v.1Zm5.4-14.3Zm-2.5 0Zm2.5 2.5Zm-2.5 0Zm0 .4Zm2.5 0Zm-2.5 2.5v.1Zm2.5 0v.1Zm0 .5Zm-2.5 0Zm2.5 2.5Zm-2.5 0Zm0 .5Zm2.5 0Zm-2.5 2.5Zm2.5 0Zm0 .4Zm-2.5 0Zm2.5 2.5v.1Zm-2.5 0v.1Zm0 .5Zm2.5 0Zm-2.5 2.5Zm2.5 0Zm3-20.3Zm-2.5 0Zm2.5 2.5Zm-2.5 0Zm0 15.3Zm2.5 0Zm-2.5 2.5Zm2.5 0Zm3-20.3Zm-2.6 0Zm2.5 2.5Zm-2.5 0Zm0 15.3Zm2.5 0Zm-2.5 2.5Zm2.5 0Zm3-20.3Zm-2.5 0Zm2.5 2.5Zm-2.5 0Zm0 15.3Zm2.5 0Zm-2.5 2.5Zm2.5 0Zm3-20.3Zm-2.5 0Zm2.5 2.5Zm-2.5 0Zm0 .5Zm2.5 0Zm-2.5 2.5Zm2.5 0Zm0 9.3Zm-2.5 0Zm2.5 2.5v.1Zm-2.5 0v.1Zm0 .5Zm2.5 0Zm-2.5 2.5Zm2.5 0ZM202 0h-2.5 2.5Zm0 2.5V.1v2.5Zm-2.5 0h2.5-2.5Zm0-2.5v2.5V.1Zm5.8 0h2.5-2.5Zm0 2.5V.1v2.5Zm2.5 0h-2.5 2.5Zm0-2.5v2.5V.1ZM202 3h-2.5 2.5Zm0 2.5V3v2.5Zm-2.5 0h2.5-2.5Zm0-2.5v2.5V3Zm5.4 0h-2.5 2.5Zm0 2.5V3v2.5Zm-2.5 0h2.5-2.5Zm0-2.5v2.5V3Zm0 3h2.5-2.5Zm0 2.4V6v2.5Zm2.5 0h-2.5v.1h2.5v-.1Zm0-2.5v2.5V6Zm0 3h-2.5 2.5Zm0 2.5V9v2.5Zm-2.5 0h2.5-2.5Zm0-2.5v2.5V9Zm0 3h2.5-2.5Zm0 2.5V12v2.5Zm2.5 0h-2.5 2.5Zm0-2.5v2.5V12Zm0 2.9h-2.5v.1h2.5v-.1Zm0 2.5V15v2.5Zm-2.5.1h2.5v-.1h-2.5v.1Zm0-2.6v2.5V15ZM207.7 3h-2.5v.1h2.5Zm0 2.6V3v2.5Zm-2.5 0h2.5-2.5Zm0-2.5v2.5V3Zm0 3h2.5V6h-2.5Zm0 2.4V6v2.5Zm2.5 0h-2.5v.1h2.5v-.1Zm0-2.5v2.5V6Zm0 3h-2.5 2.5Zm0 2.5V9v2.5Zm-2.5 0h2.5-2.5Zm0-2.5v2.5V9Zm0 3h2.5-2.5Zm0 2.5V12v2.5Zm2.5 0h-2.5 2.5Zm0-2.5v2.5V12Zm0 2.9h-2.5v.1h2.5v-.1Zm0 2.5V15v2.5Zm-2.5.1h2.5v-.1h-2.5v.1Zm0-2.6v2.5V15Zm0 3h2.5-2.5Zm0 2.5v-2.5 2.5Zm2.5 0h-2.5 2.5Zm0-2.5v2.5-2.5Zm3-17.8h-2.5 2.5Zm0 2.5V.1v2.5Zm-2.5 0h2.5-2.5Zm0-2.5v2.5V.1Zm0 17.8h2.5-2.5Zm0 2.5v-2.5 2.5Zm2.5 0h-2.5 2.5Zm0-2.5v2.5-2.5Zm3-17.8h-2.6 2.5Zm0 2.5V.1h-.1v2.5Zm-2.6 0h2.5-2.5Zm0-2.5v2.5V.1Zm0 17.8h2.5-2.5Zm0 2.5v-2.5 2.5Zm2.5 0h-2.5 2.5Zm0-2.5v2.5-2.5Zm3-17.8h-2.5 2.5Zm0 2.5V.1v2.5Zm-2.5 0h2.5-2.5Zm0-2.5v2.5V.1Zm0 17.8h2.5-2.5Zm0 2.5v-2.5 2.5Zm2.5 0h-2.5 2.5Zm0-2.5v2.5-2.5Zm3-17.8h-2.5 2.5Zm0 2.5V.1v2.5Zm-2.5 0h2.5-2.5Zm0-2.5v2.5V.1Zm0 3h2.5-2.5Zm0 2.5V3v2.5Zm2.5 0h-2.5 2.5Zm0-2.5v2.5V3Zm0 11.8h-2.5v.1h2.5v-.1Zm0 2.5V15v2.5Zm-2.5.1h2.5v-.1h-2.5v.1Zm0-2.6v2.5V15Zm0 3h2.5-2.5Zm0 2.5v-2.5 2.5Zm2.5 0h-2.5 2.5Zm0-2.5v2.5-2.5Z"/><path fill-rule="evenodd" d="M222.7 6h2.5v2.5h-2.5V6Zm0 6h2.5v2.5h-2.5V12Zm2.5 3h-2.5v2.4h2.5V15Zm-2.5 2.9h2.5v2.5h-2.5v-2.5ZM228.2 6h-2.5v2.5h2.5V6Zm-2.5 6h2.5v2.5h-2.5V12Zm2.5 5.9h-2.5v2.5h2.5v-2.5Zm.4-11.9h2.5v2.5h-2.5V6Zm2.5 6h-2.5v2.5h2.5V12Zm-2.5 5.9h2.5v2.5h-2.5v-2.5ZM234.1 6h-2.5v2.5h2.5V6Zm-2.5 6h2.5v2.5h-2.5V12Zm2.5 5.9h-2.5v2.5h2.5v-2.5Zm.5-11.9h2.5v2.5h-2.5V6Zm2.5 3h-2.5v2.5h2.5V9Zm-2.5 3h2.5v2.5h-2.5V12Zm2.5 3h-2.5v2.4h2.5V15Zm-2.5 2.9h2.5v2.5h-2.5v-2.5Zm5.4-9h-2.5v2.6h2.5V9Zm-2.5 3h2.5v2.6h-2.5V12Zm2.5 3h-2.5v2.5h2.5V15Zm-2.5 3h2.5v2.5h-2.5v-2.5Z" clip-rule="evenodd"/><path d="M225.2 6Zm-2.5 0Zm2.5 2.5v.1Zm-2.5 0v.1Zm2.5 3.5Zm-2.5 0Zm2.5 2.5Zm-2.5 0Zm0 .4Zm2.5 0Zm-2.5 2.5v.1Zm2.5 0v.1Zm0 .5Zm-2.5 0Zm2.5 2.5Zm-2.5 0Zm3-14.4h-.1Zm2.5 0Zm-2.5 2.5h-.1v.1Zm2.5 0v.1Zm0 3.5Zm-2.5 0h-.1Zm2.5 2.5Zm-2.5 0h-.1Zm0 3.4h-.1Zm2.5 0Zm-2.5 2.5h-.1Zm2.5 0Zm3-14.4Zm-2.6 0Zm2.5 2.5v.1Zm-2.5 0v.1Zm0 3.5Zm2.5 0Zm-2.5 2.5Zm2.5 0Zm0 3.4Zm-2.5 0Zm2.5 2.5Zm-2.5 0Zm3-14.4Zm2.5 0Zm-2.5 2.5v.1Zm2.5 0v.1Zm0 3.5Zm-2.5 0Zm2.5 2.5Zm-2.5 0Zm0 3.4Zm2.5 0Zm-2.5 2.5Zm2.5 0Zm3-14.4Zm-2.5 0h-.1Zm2.5 2.5v.1Zm-2.5 0h-.1v.1Zm0 .5h-.1Zm2.5 0Zm-2.5 2.5h-.1Zm2.5 0Zm0 .5Zm-2.5 0h-.1Zm2.5 2.5Zm-2.5 0h-.1Zm0 .4h-.1Zm2.5 0Zm-2.5 2.5h-.1v.1Zm2.5 0v.1Zm0 .5Zm-2.5 0h-.1Zm2.5 2.5Zm-2.5 0h-.1Zm3-11.4h-.2.1Zm2.4 0Zm-2.5 2.5Zm2.5 0Zm0 .5Zm-2.5 0Zm2.5 2.5Zm-2.5 0Zm0 .4Zm2.5 0Zm-2.5 2.5v.1Zm2.5 0v.1Zm0 .5Zm-2.5 0Zm2.5 2.5Zm-2.5 0ZM225.2 6h-2.5 2.5Zm0 2.5V6v2.5Zm-2.5.1h2.5v-.1h-2.5v.1Zm0-2.6v2.5V6Zm2.5 6h-2.5 2.5Zm0 2.5V12v2.5Zm-2.5 0h2.5-2.5Zm0-2.5v2.5V12Zm0 3h2.5v-.1h-2.5v.1Zm0 2.4V15v2.5Zm2.5 0h-2.5v.1h2.5v-.1Zm0-2.5v2.5V15Zm0 3h-2.5 2.5Zm0 2.5v-2.5 2.5Zm-2.5 0h2.5-2.5Zm0-2.5v2.5-2.5Zm3-11.8h2.5V6h-2.5Zm0 2.4V6h-.1v2.5h.1Zm2.5 0h-2.5v.1h2.5v-.1ZM228 6v2.5h.1V6h-.1Zm0 6h-2.4 2.5Zm.1 2.5V12h-.1v2.5h.1Zm-2.5 0h2.5-2.5Zm-.1-2.5v2.5h.1V12h-.1Zm0 6h2.6v-.2h-2.5v.1Zm.1 2.4v-2.5h-.1v2.5h.1Zm2.5 0h-2.5 2.5Zm-.1-2.5v2.5h.1v-2.5h-.1Zm3-12h-2.5v.2h2.5V6Zm0 2.6V6v2.5Zm-2.5.1h2.5v-.1h-2.5v.1Zm0-2.6v2.5V6Zm0 6h2.5-2.5Zm0 2.5V12v2.5Zm2.5 0h-2.5 2.5Zm0-2.5v2.5V12Zm0 5.8h-2.5v.1h2.5Zm0 2.6v-2.5 2.5Zm-2.5 0h2.5-2.5Zm0-2.5v2.5-2.5Zm3-11.8h2.5V6h-2.5Zm0 2.4V6v2.5Zm2.5 0h-2.5v.1h2.5v-.1Zm0-2.5v2.5V6Zm0 6h-2.5 2.5Zm0 2.5V12v2.5Zm-2.5 0h2.5-2.5Zm0-2.5v2.5V12Zm0 6h2.5v-.2h-2.5v.1Zm0 2.4v-2.5 2.5Zm2.5 0h-2.5 2.5Zm0-2.5v2.5-2.5Zm3-12h-2.5v.2h2.5V6Zm0 2.6V6h-.1v2.5h.1Zm-2.5.1h2.5v-.1h-2.5v.1Zm-.1-2.6v2.5h.1V6h-.1Zm0 3h2.6-2.5Zm.1 2.5V9h-.1v2.5h.1Zm2.5 0h-2.5 2.5Zm0-2.5v2.5h.1V9h-.1Zm0 3h-2.4 2.5Zm.1 2.5V12h-.1v2.5h.1Zm-2.5 0h2.5-2.5Zm-.1-2.5v2.5h.1V12h-.1Zm0 3h2.6v-.1h-2.5v.1Zm.1 2.4V15h-.1v2.5h.1Zm2.5 0h-2.5v.1h2.5v-.1Zm-.1-2.5v2.5h.1V15h-.1Zm0 3h-2.4 2.5Zm.1 2.5v-2.5h-.1v2.5h.1Zm-2.5 0h2.5-2.5Zm-.1-2.5v2.5h.1v-2.5h-.1Zm3-8.9h2.5-2.5Zm0 2.5V9v2.5Zm2.5 0h-2.5 2.5Zm0-2.5v2.5V9Zm0 3h-2.5 2.5Zm0 2.5V12v2.5Zm-2.5 0h2.5-2.5Zm0-2.5v2.5V12Zm0 3h2.5v-.1h-2.5v.1Zm0 2.4V15v2.5Zm2.5 0h-2.5v.1h2.5v-.1Zm0-2.5v2.5V15Zm0 3h-2.5 2.5Zm0 2.5v-2.5 2.5Zm-2.5 0h2.5-2.5Zm0-2.5v2.5-2.5Z"/><path stroke="#fff" stroke-miterlimit="10" stroke-width=".1" d="M242.8 6h2.5v2.5h-2.5V6Zm0 3h2.5v2.5h-2.5V9Zm0 3h2.5v2.5h-2.5V12Zm0 3h2.5v2.4h-2.5V15Zm0 2.9h2.5v2.5h-2.5v-2.5Zm0 3h2.5v2.4h-2.5v-2.5Zm0 3h2.5v2.4h-2.5v-2.5Zm3-17.9h2.5v2.5h-2.5V6Zm0 3h2.5v2.5h-2.5V9Zm0 3h2.5v2.5h-2.5V12Zm0 3h2.5v2.4h-2.5V15Zm0 2.9h2.5v2.5h-2.5v-2.5Zm0 3h2.5v2.4h-2.5v-2.5Zm0 3h2.5v2.4h-2.5v-2.5Zm3-17.9h2.4v2.5h-2.5V6Zm0 11.9h2.4v2.5h-2.5v-2.5ZM251.6 6h2.5v2.5h-2.5V6Zm0 11.9h2.5v2.5h-2.5v-2.5Zm3-11.9h2.5v2.5h-2.5V6Zm0 11.9h2.5v2.5h-2.5v-2.5Zm3-11.9h2.4v2.5h-2.5V6Zm0 3h2.4v2.5h-2.5V9Zm0 3h2.4v2.5h-2.5V12Zm0 3h2.4v2.4h-2.5V15Zm0 2.9h2.4v2.5h-2.5v-2.5Zm2.9-9h2.5v2.6h-2.5V9Zm0 3h2.5v2.6h-2.5V12Zm0 3h2.5v2.5h-2.5V15ZM266 .1h2.4v2.5H266V.1Zm0 6h2.4v2.4H266V6Zm0 2.9h2.4v2.5H266V9Zm0 3h2.4v2.5H266V12Zm0 3h2.4v2.4H266V15Zm0 2.9h2.4v2.5H266v-2.5ZM268.8 0h2.5v2.5h-2.5V.1Zm0 6h2.5v2.4h-2.5V6Zm0 2.9h2.5v2.5h-2.5V9Zm0 3h2.5v2.5h-2.5V12Zm0 3h2.5v2.4h-2.5V15Zm0 2.9h2.5v2.5h-2.5v-2.5ZM274.1 6h2.6v2.5H274V6Zm3-5.9h2.5v2.5h-2.5V.1Zm0 3h2.5v2.5h-2.5V3Zm0 3h2.5v2.4h-2.5V6Zm0 2.9h2.5v2.5h-2.5V9Zm0 3h2.5v2.5h-2.5V12Zm0 3h2.5v2.4h-2.5V15Zm3-14.9h2.5v2.5H280V.1Zm0 3h2.5v2.5H280V3Zm0 3h2.5v2.4H280V6Zm0 2.9h2.5v2.5H280V9Zm0 3h2.5v2.5H280V12Zm0 3h2.5v2.4H280V15Zm0 2.9h2.5v2.5H280v-2.5ZM283 6h2.4v2.5H283V6Zm0 11.9h2.4v2.5H283v-2.5Zm3 0h2.4v2.5H286v-2.5Zm5.3-2.9h2.5v2.4h-2.5V15Zm3-9h2.5v2.5h-2.5V6Zm0 6h2.5v2.5h-2.5V12Zm0 3h2.5v2.4h-2.5V15Zm0 2.9h2.5v2.5h-2.5v-2.5Zm3-11.9h2.4v2.5h-2.5V6Zm0 6h2.4v2.5h-2.5V12Zm0 5.9h2.4v2.5h-2.5v-2.5ZM300.1 6h2.5v2.5h-2.5V6Zm0 6h2.5v2.5h-2.5V12Zm0 5.9h2.5v2.5h-2.5v-2.5Zm3-11.9h2.5v2.5h-2.5V6Zm0 6h2.5v2.5h-2.5V12Zm0 5.9h2.5v2.5h-2.5v-2.5Zm3-11.9h2.4v2.5H306V6Zm0 3h2.4v2.5H306V9Zm0 3h2.4v2.5H306V12Zm0 3h2.4v2.4H306V15Zm0 2.9h2.4v2.5H306v-2.5Zm2.9-9h2.5v2.6H309V9Zm0 3h2.5v2.6H309V12Zm0 3h2.5v2.5H309V15Zm0 3h2.5v2.5H309v-2.5Z"/><path fill-rule="evenodd" d="M317 .1h-2.6v2.5h2.5V.1Zm0 3h-2.6v2.5h2.5V3Zm-2.6 3h2.5v2.4h-2.5V6ZM317 9h-2.5v2.5h2.5V9Zm-2.5 3h2.5v2.5h-2.5V12Zm2.5 3h-2.5v2.4h2.5V15Zm-2.5 2.9h2.5v2.5h-2.5v-2.5ZM320 0h-2.5v2.5h2.5V.1Zm-2.5 3h2.5v2.5h-2.5V3Zm2.5 3h-2.5v2.4h2.5V6Zm-2.6 3h2.5v2.5h-2.5V9Zm2.5 3h-2.5v2.5h2.5V12Zm-2.5 3h2.5v2.4h-2.5V15Z" clip-rule="evenodd"/><path d="M314.4.1Zm2.5 0Zm-2.5 2.5Zm2.5 0Zm-2.5.5Zm2.5 0Zm-2.5 2.5Zm2.5 0Zm0 .4Zm-2.5 0Zm2.5 2.5v.1Zm-2.5 0v.1Zm0 .5Zm2.5 0Zm-2.5 2.5Zm2.5 0Zm0 .5Zm-2.5 0Zm2.5 2.5Zm-2.5 0Zm0 .4Zm2.5 0Zm-2.5 2.5v.1Zm2.5 0v.1Zm0 .5Zm-2.5 0Zm2.5 2.5Zm-2.5 0Zm3-20.3Zm2.5 0Zm-2.5 2.5Zm2.5 0Zm0 .5Zm-2.5 0Zm2.5 2.5Zm-2.5 0Zm0 .4Zm2.5 0Zm-2.5 2.5v.1Zm2.5 0v.1Zm0 .5Zm-2.5 0Zm2.5 2.5Zm-2.5 0Zm0 .5Zm2.5 0Zm-2.5 2.5Zm2.5 0Zm0 .4Zm-2.5 0Zm2.5 2.5v.1Zm-2.5 0v.1Zm-3-17.2h2.5V0h-2.5Zm0 2.4V.1v2.5Zm2.5 0h-2.5 2.5Zm0-2.5v2.5V.1Zm-2.5 3h2.5-2.5Zm0 2.5V3v2.5Zm2.5 0h-2.5 2.5Zm0-2.5v2.5V3Zm0 2.9h-2.5 2.5Zm0 2.5V6v2.5Zm-2.5.1h2.5v-.1h-2.5v.1Zm0-2.6v2.5V6Zm0 3h2.5-2.5Zm0 2.5V9v2.5Zm2.5 0h-2.5 2.5Zm0-2.5v2.5V9Zm0 3h-2.5 2.5Zm0 2.5V12v2.5Zm-2.5 0h2.5-2.5Zm0-2.5v2.5V12Zm0 3h2.5v-.1h-2.5v.1Zm0 2.4V15v2.5Zm2.5 0h-2.5v.1h2.5v-.1Zm0-2.5v2.5V15Zm0 3h-2.5 2.5Zm0 2.5v-2.5 2.5Zm-2.5 0h2.5-2.5Zm0-2.5v2.5-2.5Zm3-17.7h2.5V0h-2.5Zm0 2.4V.1v2.5Zm2.5 0h-2.5 2.5Zm0-2.5v2.5V.1Zm0 3h-2.5 2.5Zm0 2.5V3v2.5Zm-2.5 0h2.5-2.5Zm0-2.5v2.5V3Zm0 3h2.5V6h-2.5Zm0 2.4V6v2.5Zm2.5 0h-2.5v.1h2.5v-.1Zm0-2.5v2.5V6Zm0 3h-2.5 2.5Zm0 2.5V9v2.5Zm-2.5 0h2.5-2.5Zm0-2.5v2.5V9Zm0 3h2.5-2.5Zm0 2.5V12v2.5Zm2.5 0h-2.5 2.5Zm0-2.5v2.5V12Zm0 2.9h-2.5v.1h2.5v-.1Zm0 2.5V15v2.5Zm-2.5.1h2.5v-.1h-2.5v.1Zm0-2.6v2.5V15Z"/></g><defs><clipPath id="a"><path fill="#fff" d="M0 0h320v26.4H0z"/></clipPath></defs></svg>