<svg xmlns="http://www.w3.org/2000/svg" fill="none" viewBox="0 0 172 79"><path fill="#1313FE" d="M0 43.5 162.3 0l9.3 35L9.4 78.5z"/><path fill="#fff" d="M20.4 65.2c-2 .5-3.7.2-5-1a11.6 11.6 0 0 1-3.1-5.8c-.7-2.7-.8-5-.3-6.6.6-1.7 2-2.8 3.9-3.3l2-.3a4.6 4.6 0 0 1 2.9 1.4l1 1-1.4 1.3-.8-.9a3.4 3.4 0 0 0-2-1l-1.2.1c-1.3.4-2.2 1.1-2.5 2.3a8 8 0 0 0 0 4.1l.8 2.7c.4 1.6 1 2.8 2 3.6.9.8 2 1 3.2.7a2.9 2.9 0 0 0 2-1.3l.4-1 .2-1.2 2 .3-.4 1.5-.7 1.4-1.2 1.2c-.5.3-1 .6-1.8.8Zm7.5-4 3.5-1-2.4-8.7-3.5.9-.4-1.6 5.3-1.4.8 3h.1c0-1 .3-1.9.8-2.6.6-.7 1.4-1.2 2.5-1.5l1.6-.5.5 1.9-2.2.6c-1 .3-1.9.8-2.4 1.6a4 4 0 0 0-.3 2.7l1.4 5.2 4.6-1.3.5 1.6-10 2.7-.4-1.6ZM47.2 58c-.8.2-1.6.3-2.4.2a5.1 5.1 0 0 1-3.6-2.5c-.5-.7-.9-1.5-1.1-2.5-.3-1-.4-1.8-.3-2.7a5 5 0 0 1 2-4 5.7 5.7 0 0 1 4.5-1.2c.7.1 1.3.4 2 .8.6.5 1.1 1 1.6 1.7.4.7.8 1.6 1 2.5.3 1 .4 1.9.4 2.7a6 6 0 0 1-.6 2.3c-.3.6-.8 1.2-1.4 1.7-.6.4-1.3.8-2.1 1Zm-.4-1.6c1-.3 1.7-.8 2.2-1.6.5-.8.5-1.8.2-3.1l-.5-1.7c-.3-1.3-.9-2.2-1.7-2.7-.8-.4-1.7-.5-2.7-.2-1 .3-1.8.8-2.3 1.6-.5.8-.5 1.8-.2 3.1l.5 1.7c.3 1.3 1 2.2 1.7 2.7.8.4 1.7.5 2.8.2ZM61 54.3a8 8 0 0 1-3.4.3c-1-.2-2-.6-2.8-1.1l1-1.5c.7.5 1.5.8 2.2 1 .8 0 1.7 0 2.6-.3a5 5 0 0 0 2.2-1 2 2 0 0 0 .4-1.9c0-.3-.2-.5-.3-.7l-.6-.4h-.8a6 6 0 0 0-.8 0l-2 .2h-2.9c-.4-.2-.9-.4-1.3-.8a3 3 0 0 1-.8-1.4c-.1-.6-.2-1.2 0-1.7 0-.5.3-1 .7-1.4.3-.4.8-.8 1.3-1 .6-.4 1.2-.6 1.9-.8 1-.3 2-.4 3-.2.8 0 1.6.4 2.4.8L62 44c-.1-.2-.3-.3-.6-.4a4.5 4.5 0 0 0-2-.4l-1.5.3c-.9.2-1.6.6-2 1-.4.5-.5 1-.4 1.7l.4.7.6.4h1.6l2-.2 1.4-.1c.5 0 1 0 1.5.2.4.1.8.3 1.2.7.4.3.7.8.8 1.4a3 3 0 0 1-.6 3.2c-.7.8-1.9 1.5-3.4 2Zm13.7-3.7a8 8 0 0 1-3.4.3c-1-.2-2-.6-2.8-1.1l1-1.4c.7.4 1.4.7 2.2.9.8 0 1.6 0 2.6-.2 1-.3 1.6-.6 2.1-1.1.5-.5.7-1.1.5-1.8 0-.3-.2-.6-.4-.7a.7.7 0 0 0-.6-.4l-.7-.1a6 6 0 0 0-.9 0l-2 .2-1.3.1-1.5-.1-1.3-.7a3 3 0 0 1-.8-1.5c-.2-.6-.2-1.2 0-1.6 0-.6.3-1 .7-1.4.3-.5.8-.8 1.3-1.1l1.9-.8c1-.3 2-.3 2.9-.2a5 5 0 0 1 2.4.9l-.9 1.4-.6-.3a4.5 4.5 0 0 0-2-.4c-.5 0-1 0-1.5.2-1 .3-1.6.6-2 1-.4.5-.6 1-.4 1.7 0 .3.2.6.4.7.1.2.4.3.6.4l.7.1h.9l2-.3h1.4l1.4.1c.5.1 1 .4 1.3.7.4.3.6.8.8 1.5.3 1.1.1 2.2-.6 3-.8 1-2 1.6-3.4 2Zm8.4-9-.5-2 6.7-1.8.6 2-6.8 1.8Zm19.2 1.6a5.1 5.1 0 0 1-4.5-.6c-.6-.4-1.1-1-1.6-1.7a9.2 9.2 0 0 1-1.3-5.1c0-.9.2-1.6.5-2.3.3-.7.8-1.2 1.3-1.7.6-.5 1.4-.8 2.2-1a5 5 0 0 1 3 0c.9.3 1.6.8 2.2 1.5l-1.3 1.2c-.4-.6-.9-1-1.5-1.2-.6-.2-1.2-.2-2 0L98 33a3 3 0 0 0-.8 1c-.2.4-.4.9-.4 1.4 0 .5 0 1 .2 1.5l.5 2 .6 1.4a3.2 3.2 0 0 0 2.3 1.5c.5 0 1 0 1.6-.2.8-.2 1.4-.5 1.8-1a4 4 0 0 0 .9-2l1.5.6c-.1 1-.5 1.7-1.1 2.5a5 5 0 0 1-2.7 1.5Zm3.9-19.7 1.8-.5 2 7.2c0-.4.2-.7.3-1a3 3 0 0 1 1.3-1.7l1.2-.5a4 4 0 0 1 3.4.4c1 .6 1.6 1.6 2 3l2 7.7-1.8.5-2-7.3c-.2-1.1-.7-1.9-1.3-2.3-.6-.4-1.4-.5-2.3-.2-.4 0-.8.2-1.1.4l-.8.7c-.3.2-.4.5-.5.9v1l2.2 8.4-1.8.5-4.6-17.2Zm27.4 11c-.7.2-1.3.2-1.7-.1a4 4 0 0 1-1-1.2c-.1.8-.4 1.4-.9 2-.4.5-1.1 1-2.1 1.2-1.3.3-2.4.3-3.3-.2-.9-.4-1.5-1.2-1.8-2.4-.3-1-.1-2 .5-2.8.7-.9 2-1.5 3.7-2l2.6-.7-.4-1.2c-.2-.9-.6-1.4-1.2-1.7-.6-.4-1.4-.4-2.3-.2-.8.3-1.4.6-1.9 1-.4.5-.7 1-.8 1.7l-1.5-.6a4.3 4.3 0 0 1 2.3-3 6 6 0 0 1 1.6-.7 5 5 0 0 1 3.6.2c1 .5 1.7 1.4 2 2.6l1.8 6.6 1.7-.4.4 1.6-1.3.3Zm-5.8.2a4.5 4.5 0 0 0 2.2-1.3c.2-.2.4-.5.4-.8v-1l-.5-1.9-2.5.7a5 5 0 0 0-2.3 1.1c-.5.4-.6 1-.4 1.5l.1.5c.2.7.5 1 1 1.3.6.2 1.2.2 2 0Zm11.8-17.4h-1.2c-.3-.2-.5-.5-.6-.8v-1.3c.2-.3.5-.5 1-.6.6-.2 1-.2 1.3 0 .3.2.5.4.6.7v.4c.2.4.1.7 0 1l-1 .6ZM138 31.7l4.3-1.1-2.4-8.8-4.3 1.1-.4-1.6 6.2-1.6L144 30l4-1.1.5 1.6-10.2 2.7-.4-1.6Zm13.8-2-3.2-12 1.8-.5.5 2h.1c0-.4.2-.7.3-1a3.1 3.1 0 0 1 1.3-1.7l1.3-.5a4 4 0 0 1 3.3.4c1 .6 1.6 1.6 2 3l2 7.7-1.8.5-2-7.3c-.2-1.1-.7-1.9-1.3-2.3-.6-.4-1.4-.5-2.3-.2-.4.1-.8.2-1 .4l-1 .7-.4.9v1l2.2 8.4-1.8.5Z"/></svg>