<svg xmlns="http://www.w3.org/2000/svg" fill="none" viewBox="0 0 137 115"><path fill="#1313FE" d="M0 60.8 105.4 0l30.7 53.2L30.7 114z"/><path fill="#fff" d="m17.5 67.1 7.4-4.3c3.3-1.8 6.3-2.1 9.2-.8 3 1.3 5.6 4.2 8.2 8.6 2.5 4.3 3.6 8.1 3.3 11.3-.3 3.1-2 5.7-5.3 7.5l-7.5 4.3-15.3-26.6Zm21 19.6c2.2-1.2 3.3-2.8 3.5-5a12 12 0 0 0-2-7.1l-2.3-4.1a12 12 0 0 0-5.2-5.3c-2-1-4-.7-6.1.5l-4.1 2.4 12.1 21 4.1-2.4Zm25.2-10.2a9.7 9.7 0 0 1-12-1c-1.2-1-2.2-2.4-3.1-4a12 12 0 0 1-1.8-4.6 10.4 10.4 0 0 1 1.6-8c.8-1.1 2-2 3.3-2.9a10 10 0 0 1 4-1.3 9.2 9.2 0 0 1 7.4 2.4c1 1 2 2.1 2.8 3.5l.9 1.5-14.6 8.4.5.9c.5.8 1.1 1.6 1.8 2.1a9 9 0 0 0 2.3 1.3 6.7 6.7 0 0 0 5.4-1 6.8 6.8 0 0 0 3.7-6.7l3.1.3a9 9 0 0 1-1 5c-.9 1.6-2.3 3-4.3 4.1Zm-10.6-18a6.7 6.7 0 0 0-3.2 4.2 7 7 0 0 0 .8 5.2l.2.3 11.3-6.5-.3-.5a7.4 7.4 0 0 0-4-3.3 5 5 0 0 0-2.3-.2c-.9.1-1.7.4-2.5.9Zm24.5 9.4L62.2 41.3 79 31.6l1.6 2.8L67 42.2l5.2 9L84.6 44l1.6 2.8L73.8 54l7 12-3.2 1.9Zm17.8-42.3c-.9.5-1.6.7-2.2.5-.5-.1-1-.5-1.3-1l-.4-.7a2 2 0 0 1-.2-1.7c.1-.5.6-1 1.5-1.6 1-.5 1.6-.7 2.2-.5.6.1 1 .5 1.3 1l.4.7c.3.5.4 1.1.3 1.7-.2.5-.7 1-1.6 1.6ZM99.2 52l7-4.1L98 33.4l-7 4.1-1.6-2.6 10.2-5.8 9.8 17 6.6-3.8 1.5 2.6-16.7 9.7-1.5-2.6Z"/></svg>