<svg xmlns="http://www.w3.org/2000/svg" fill="none" viewBox="0 0 139 109"><path fill="#1313FE" d="m25.7 0 113 65.3-25.2 43.7L.5 43.7z"/><path fill="#fff" d="m28.5 39.7-.2-.1-1.2.8-1.4.4c-.5.1-1 0-1.6 0-.6-.1-1.2-.4-1.8-.7-2-1.2-3-3-3-5.2-.1-2.3.8-5 2.6-8.2a16 16 0 0 1 6-6.5c2.3-1.1 4.5-1 7 .4.9.6 1.6 1.2 2.2 1.9a6.4 6.4 0 0 1 1.6 4.3 9 9 0 0 1-.3 2.3l-3.3-.7.2-1.5-.1-1.4a3 3 0 0 0-.6-1.2 3 3 0 0 0-1.2-1c-1.4-.8-2.7-.9-3.9-.2-1.2.7-2.3 2-3.3 3.7L24.4 30l-1.2 2.5a7 7 0 0 0-.4 2.3c0 .7.1 1.4.4 2 .4.5.9 1 1.6 1.4 1.1.7 2.2.8 3.1.5 1-.3 1.9-1 2.5-2l1-1.8-3.8-2.2 1.4-2.3 6.5 3.8-5.7 9.9-2.8-1.6 1.5-2.7ZM45 52.8a3.2 3.2 0 0 1-1.5-1.8c-.2-.7-.1-1.4.2-2.2l-.1-.1c-.8.7-1.7 1-2.7 1.1-1 .1-2-.2-3.2-.8a6 6 0 0 1-2.8-3.2c-.5-1.3-.3-2.6.5-4 .8-1.3 2-2 3.3-2.2 1.5-.1 3.3.4 5.4 1.6l2.8 1.6.6-1.1c1.1-2 .7-3.5-1.4-4.7a4.7 4.7 0 0 0-4.8-.1l-1-2.6c.9-.5 2-.8 3.2-.8 1.3 0 2.7.4 4.2 1.3 1.9 1 3 2.3 3.6 3.8.5 1.5.3 3-.7 4.6l-4.1 7.2 1.8 1-1.4 2.5-1.8-1.1Zm-5.2-5.6c1 .6 2 .9 2.8.8 1-.1 1.6-.5 2-1.2l1.2-2-2.7-1.6c-2.2-1.3-3.7-1.3-4.4 0l-.4.6a2 2 0 0 0-.1 1.9c.3.6.8 1 1.6 1.5ZM49 55l8.2-14.3 2.6 1.5-1 1.9a5 5 0 0 1 2-1c.6-.1 1.3 0 2 .5.8.4 1.3 1 1.5 1.6.2.7.1 1.4-.2 2.2h.1c.6-.5 1.3-.8 2-1a3 3 0 0 1 2.4.5c1.1.6 1.7 1.4 1.7 2.5a8 8 0 0 1-1.3 3.8l-5.9 10-2.5-1.5 5.5-9.6c.6-1 .9-1.8.9-2.3 0-.5-.3-1-.9-1.3a2 2 0 0 0-1.5-.2 3 3 0 0 0-1.3 1.2l-6 10.4-2.5-1.5 5.6-9.7a6 6 0 0 0 .8-2.2c0-.6-.3-1-.8-1.3a2 2 0 0 0-1.6-.2c-.4.1-.9.5-1.3 1.2l-6 10.3L49 55Zm23.5 14a9 9 0 0 1-2.5-2 6.8 6.8 0 0 1-1.3-2.8c-.2-1-.3-2 0-3.1a11 11 0 0 1 1.3-3.4 11 11 0 0 1 2.2-2.8 8 8 0 0 1 2.8-1.6c1-.3 2-.4 3-.3 1 .1 2 .5 3 1 1 .7 1.8 1.4 2.5 2.2a6.8 6.8 0 0 1 1.2 5.6c-.2 1-.6 2.1-1.2 3.2l-.6 1.1-10.3-6-.3.6a4.4 4.4 0 0 0-.5 3.3c.3 1.2 1 2 2.3 2.8a6 6 0 0 0 2.7.8c.9 0 1.7-.3 2.5-.7l1 2.7c-1 .6-2.2.9-3.5.9-1.3 0-2.7-.5-4.2-1.3Zm7.1-12.7c-.5-.3-1-.5-1.6-.6l-1.7.1c-.5.2-1 .4-1.4.8-.5.3-.8.8-1.2 1.4v.2l7.1 4.1.2-.3c.6-1.1.8-2.2.5-3.2-.2-1-.8-1.9-1.9-2.5Zm3.2 18.3L94 55.2l12.4 7.2L105 65l-9.3-5.4-3.3 5.7 8.5 4.9-1.5 2.6-8.5-5-4.9 8.6-3-1.8Zm32.9-3.6c-.7-.4-1.2-.9-1.3-1.4-.1-.5 0-1 .2-1.4l.3-.6c.3-.4.7-.7 1.2-.9.5-.1 1 0 1.8.5.8.4 1.3.9 1.4 1.4.1.5 0 1-.2 1.4l-.4.6c-.2.5-.6.8-1.1.9-.5.1-1.1 0-1.9-.5ZM101 81.8l4.9 2.8 5.4-9.4-4.9-2.8 1.4-2.4 8 4.5-7 11.9 4.7 2.6-1.4 2.5-12.5-7.2 1.4-2.5Z"/></svg>