<svg xmlns="http://www.w3.org/2000/svg" fill="none" viewBox="0 0 210 111"><path fill="#1313FE" d="m15.8 0 193.4 51.8-15.8 59L0 59z"/><path fill="#fff" d="M26.1 49.4a9.6 9.6 0 0 1-4.4-2.2c-1.1-1-2-2.4-2.4-4a14 14 0 0 1-.6-5.2 33.1 33.1 0 0 1 3.5-13c.9-1.8 2-3.3 3.1-4.3a8.6 8.6 0 0 1 4-2.1 10 10 0 0 1 5 .2 10 10 0 0 1 4.4 2.3 8 8 0 0 1 2.4 3.8c.5 1.5.7 3.3.6 5.4a32.9 32.9 0 0 1-3.5 13c-.9 1.7-2 3.1-3.1 4.2a9.2 9.2 0 0 1-4 2.2c-1.5.3-3.2.2-5-.3Zm.8-3c1.2.3 2.3.3 3.2 0 1-.2 1.8-.7 2.6-1.4a9 9 0 0 0 2-2.7c.6-1.2 1-2.5 1.5-4l1.3-4.9c.3-1.4.6-2.8.6-4.1a9 9 0 0 0-.3-3.4 5.8 5.8 0 0 0-4.3-4 5.8 5.8 0 0 0-5.8 1.3c-.7.7-1.4 1.6-2 2.8a23 23 0 0 0-1.4 4L23 34.7c-.4 1.5-.7 2.8-.8 4.1a9 9 0 0 0 .4 3.4 5.8 5.8 0 0 0 4.3 4Zm15.7 3.8L49 52l4.3-16.1L47 34l.8-3 9.8 2.7-1.5 5.5h.2a9 9 0 0 1 3.7-3.3 8 8 0 0 1 5.2-.2l3 .9-.8 3.4-4.4-1a7 7 0 0 0-5.2.4 6 6 0 0 0-3 4l-2.5 9.4 8.5 2.3-.8 3-18.3-5 .8-2.9Zm42 14.4c-1.3-.4-2.1-1-2.5-1.8-.4-.8-.5-1.8-.4-2.8l-.2-.1c-.8 1.1-1.9 2-3.2 2.4-1.2.4-2.7.4-4.5 0-2.3-.7-4-1.8-5-3.3a6.4 6.4 0 0 1-.7-5.5c.5-2 1.7-3.4 3.4-4.1 1.8-.7 4.4-.6 7.7.3l4.7 1.2.6-2.1c.4-1.6.3-3-.4-4s-1.9-1.8-3.6-2.3a6.9 6.9 0 0 0-3.8 0c-1.1.3-2 .8-2.9 1.7L72 41.9a7.9 7.9 0 0 1 6.4-2.6c1 0 2 0 3.1.4 2.6.7 4.5 1.9 5.6 3.6a7 7 0 0 1 .9 6l-3.3 12.1 3 .8-.7 3-2.4-.6Zm-9.4-5 2.4.3c.8 0 1.5-.2 2.2-.4a3 3 0 0 0 1.5-1c.5-.3.8-.8 1-1.4l.9-3.6-4.7-1.3c-2-.5-3.6-.6-4.7-.3-1 .3-1.7 1-2 2l-.3 1c-.3 1.1-.1 2 .5 2.9a6 6 0 0 0 3.2 1.7ZM102 69.8c-1.5-.4-2.9-1-4-2-1-.9-1.9-2-2.5-3.1-.6-1.3-.9-2.6-1-4.2a17 17 0 0 1 2.6-9.4 9.5 9.5 0 0 1 3-3 8.7 8.7 0 0 1 3.7-1.6c1.3-.2 2.8 0 4.4.3 2 .6 3.7 1.5 4.8 2.8 1 1.3 1.7 2.8 2 4.5l-3.2.7c0-1.3-.5-2.3-1.3-3.2a6 6 0 0 0-3.1-1.8 7 7 0 0 0-2.8-.3c-.9.2-1.7.4-2.4.9-.7.4-1.3 1-1.8 1.8-.4.7-.8 1.6-1 2.6l-1 3.7c-.3 1-.4 1.9-.4 2.8 0 .9.3 1.7.7 2.4a5 5 0 0 0 1.6 2 9 9 0 0 0 2.6 1.2c1.4.4 2.8.3 3.9 0a7.3 7.3 0 0 0 3-2.3l2 2.3a9 9 0 0 1-4 2.9c-1.6.6-3.5.6-5.8 0Zm15.9.6 7.6 2 7-25.6-7.7-2 .8-3 11 3-7.7 28.5 7.7 2.1-.8 2.9-18.7-5 .8-3Zm33.9 12.7c-1.6-.4-3-1-4.1-2a9.7 9.7 0 0 1-3.7-7.3c0-1.5 0-3.1.6-4.9.4-1.7 1-3.3 2-4.5.8-1.3 1.9-2.3 3-3.1a9.1 9.1 0 0 1 3.8-1.5c1.4-.2 2.8-.1 4.3.3A9.7 9.7 0 0 1 164 65a10 10 0 0 1 1 4c.2 1.4 0 2.9-.4 4.4L164 75l-16-4.3-.3 1c-.2 1-.3 1.9-.2 2.8 0 1 .3 1.7.7 2.5a6.7 6.7 0 0 0 4.5 3.2 6.8 6.8 0 0 0 7.3-2.1l2 2.3a8.5 8.5 0 0 1-4.2 2.8c-1.8.5-3.7.5-6 0ZM157 63a6.7 6.7 0 0 0-5.2.7 7 7 0 0 0-3.1 4.2l-.1.3 12.6 3.4.1-.5a7.4 7.4 0 0 0-.4-5 5 5 0 0 0-1.6-2c-.6-.5-1.4-.8-2.3-1Zm19.7 26.8c-2.3-.6-4.2-1.5-5.6-2.8a13.8 13.8 0 0 1-3.4-4.2l2.8-1.4a14 14 0 0 0 2.8 3.5c1 .9 2.5 1.6 4.3 2 1.7.5 3.1.6 4.4.3 1.2-.3 2-1.2 2.4-2.5.1-.5.2-1 0-1.4 0-.5-.3-.9-.6-1.2l-1-.9-1.4-.7-3.3-1.4-2.4-1.2a9 9 0 0 1-2.2-1.5c-.6-.7-1-1.4-1.4-2.3-.3-.9-.2-2 0-3.1a7 7 0 0 1 1.5-2.7 6 6 0 0 1 2.4-1.5c1-.4 2-.5 3.1-.5 1.2 0 2.4.2 3.7.5 2 .5 3.6 1.3 4.9 2.3 1.3 1 2.3 2.3 3 3.6l-2.7 1.5-.7-1.2-1.2-1.2c-.5-.5-1-.9-1.7-1.2-.7-.4-1.6-.7-2.5-1a7.7 7.7 0 0 0-4.3-.1 3 3 0 0 0-2 2.2 2 2 0 0 0 0 1.5c0 .4.3.8.6 1.1l1 1 1.4.6 3.3 1.4 2.4 1.2c.8.4 1.5 1 2.2 1.6.6.6 1 1.4 1.3 2.2.3 1 .3 2 0 3.1a6 6 0 0 1-3.9 4.4c-2 .7-4.4.7-7.2 0Z"/></svg>