<svg xmlns="http://www.w3.org/2000/svg" fill="none" viewBox="0 0 193 99"><path fill="#1313FE" d="M0 47.9 178.6 0l13.5 50.3L13.5 98.2z"/><path fill="#fff" d="m18.9 79.7-5.8-21.5 8-2.2c2.1-.6 3.9-.4 5.2.5 1.4.8 2.4 2.3 3 4.3a7 7 0 0 1-.4 5.2 6.8 6.8 0 0 1-4.2 3L20 70.2l2.3 8.6-3.5 1Zm.4-12.4 4-1c2.2-.6 3-1.9 2.5-3.9l-.4-1.3c-.5-2-1.8-2.7-4-2l-4 1 1.9 7.2Zm16.8 4.9 5.3-1.4-4.7-17.4-5.3 1.4-.7-2.7 8.7-2.4L44.8 70l5.3-1.4.7 2.7-14 3.7-.7-2.7ZM68 66.6c-1 .3-1.8.2-2.4-.2a3 3 0 0 1-1.4-1.7H64c0 1.1-.4 2-1 2.8-.7.7-1.7 1.3-3 1.6a6 6 0 0 1-4.2-.2c-1.2-.6-2-1.7-2.4-3.2-.4-1.5-.2-2.9.8-4 .9-1 2.6-2 5-2.6l3-.8-.3-1.3c-.6-2.1-2-3-4.4-2.3A4.7 4.7 0 0 0 54 58l-2.4-1.1c.2-1 .8-2 1.7-2.8.9-1 2.2-1.7 3.9-2.1 2-.5 3.7-.5 5.1.2 1.4.6 2.4 1.9 2.9 3.7l2.1 8 2-.5.7 2.6-2 .6Zm-7.7-.2c1.1-.3 2-.8 2.5-1.5.6-.7.8-1.4.6-2.2l-.6-2.3-3 .8c-2.5.7-3.5 1.7-3.1 3.2l.2.6a2 2 0 0 0 1.2 1.4 4 4 0 0 0 2.2 0Zm20.3-20.3 3.4-1-2.6 21.2c-.1 1.1-.5 2-1 2.8a5 5 0 0 1-2.7 1.5l-2.7.7-.7-2.7 3.8-1 .5-4-10.7-14 3.5-1 4.4 6 3.4 5 .2-.1.5-6 .7-7.4ZM106 56.4l-14.9 4-.8-3.3 5.4-8a16 16 0 0 0 1.8-3.6c.4-1 .4-2 .1-3V42c-.4-1.1-.9-1.9-1.7-2.3-.8-.5-1.7-.5-3-.2a4 4 0 0 0-2.4 1.7c-.5.8-.7 1.7-.8 2.8l-3.3-.3a8.2 8.2 0 0 1 1.4-4.3c.5-.7 1.1-1.3 1.8-1.8.8-.5 1.7-.9 2.8-1.2 1.1-.3 2.2-.4 3.1-.3 1 0 1.9.3 2.6.7.8.4 1.4 1 2 1.7.4.6.8 1.4 1 2.4.3.8.4 1.7.3 2.5 0 .8-.2 1.6-.5 2.4l-1.1 2.3-1.7 2.5-4 5.7 11.2-3 .7 3Zm4-1.1-5.7-21.6 13.5-3.6.8 3-10 2.6 1.6 6.3 9.7-2.6.8 2.9-9.7 2.6 1.8 6.6 10-2.7.8 2.9-13.5 3.6Zm30.9-8.3c-1 .3-1.8.3-2.4 0-.6-.5-1.1-1-1.4-1.8h-.2c0 1-.4 2-1 2.7-.7.8-1.7 1.3-3 1.7a6 6 0 0 1-4.2-.2 5 5 0 0 1-2.4-3.2c-.4-1.6-.2-2.9.8-4 .9-1.1 2.6-2 5-2.6l3-.9-.4-1.2c-.5-2.2-2-3-4.3-2.3a4.7 4.7 0 0 0-3.5 3.3l-2.4-1.1c.2-1 .8-2 1.7-2.9a8 8 0 0 1 3.9-2c2-.6 3.7-.5 5.1.1 1.4.7 2.4 2 2.9 3.8l2.1 8 2-.6.7 2.7-2 .6Zm-7.7-.2c1.1-.2 2-.7 2.5-1.4.6-.7.8-1.4.6-2.2l-.6-2.3-3 .8c-2.5.6-3.5 1.7-3.1 3.1l.2.7a2 2 0 0 0 1.2 1.4 4 4 0 0 0 2.2 0Zm12.3-3.9 4.2-1.1-2.8-10.5-4.2 1-.8-2.6 7.7-2 1 4.2h.3c0-.7 0-1.3.2-1.9a4.8 4.8 0 0 1 1.9-2.9c.5-.4 1.2-.7 2-1l2-.4.8 3.2-3.2.8c-1.2.4-2.1 1-2.7 2a4 4 0 0 0-.4 3.2l1.6 6 5.8-1.6.7 2.7-13.4 3.6-.7-2.7Zm19.2-2.2-4.3-16 3.4-.9.7 2.7h.2c0-.5.1-.9.3-1.3.1-.5.4-1 .7-1.3l1-1c.5-.3 1-.6 1.8-.7a5 5 0 0 1 4.3.5c1.2.8 2.1 2.2 2.7 4l2.7 10.4-3.4.9-2.6-9.8c-.7-2.5-2.1-3.5-4.3-3a4.5 4.5 0 0 0-2.2 1.4c-.3.3-.5.7-.6 1V29l3 10.8-3.4.9Z"/></svg>