<svg xmlns="http://www.w3.org/2000/svg" fill="none" viewBox="0 0 158 86"><path fill="#1313FE" d="m12.4 0 145.1 38.9-12.4 46.4L0 46.5z"/><path fill="#fff" d="m14.4 37.5 4.2-22 3 .8L19.2 29 18 34.7h.3L24 22.5l3.4 1-1 13.5h.3l1.8-5.4 4.1-12.3 3 .7-7.4 21.2-4.6-1.2 1.1-13.1h-.2L19 38.6l-4.6-1.2Zm25.4 7.2a9 9 0 0 1-3-1.5 6.8 6.8 0 0 1-2-2.3c-.5-1-.8-2-.9-3 0-1.1 0-2.3.4-3.6a11 11 0 0 1 1.5-3.3 6.7 6.7 0 0 1 5-3.3c1-.2 2.1 0 3.3.2a8.3 8.3 0 0 1 4.8 3.6 9.7 9.7 0 0 1 .4 6.2l-.4 1.4L37.5 36l-.2.5c-.3 1.3-.2 2.4.4 3.4.6 1 1.5 1.7 3 2 1 .3 1.9.4 2.7.1.9-.2 1.6-.7 2.3-1.3l1.6 2.4c-.8.8-1.8 1.4-3.1 1.7-1.3.4-2.7.3-4.4-.1Zm3.6-14.2c-.6-.2-1.2-.2-1.8-.2l-1.5.6c-.5.3-.9.6-1.2 1.1-.4.5-.6 1-.8 1.6v.2l8 2.2v-.3c.4-1.3.3-2.4-.2-3.3-.5-1-1.4-1.6-2.5-2Zm13.7-6.1 3.4.9-2.6 9.6h.2c.7-.8 1.5-1.3 2.5-1.7.9-.3 2-.3 3.1 0 2 .5 3.2 1.6 4 3.3.7 1.7.7 4 0 6.7-.8 2.7-2 4.7-3.4 5.8a5.6 5.6 0 0 1-5 .9 6 6 0 0 1-2.8-1.6c-.6-.8-1-1.7-1.2-2.8H55l-.7 2.7-3.4-1L57 24.5Zm1.5 22.4c1.3.3 2.4.2 3.3-.4.9-.6 1.5-1.6 1.8-2.9l.7-2.6c.4-1.3.3-2.4-.2-3.4-.4-1-1.3-1.6-2.6-2l-1.4-.1c-.5 0-1 0-1.3.2a3 3 0 0 0-1 .7c-.4.3-.6.7-.7 1.2L55.8 43a3 3 0 0 0 0 1.3c0 .4.2.8.5 1.1.2.4.6.7 1 .9l1.3.6Zm38.2-.8c1.3.3 2.4.3 3.3-.1a3 3 0 0 0 1.6-2v-.2c.3-1 .2-1.8-.4-2.5a4 4 0 0 0-2.3-1.5 5 5 0 0 0-3 0c-.8.3-1.5.8-2.3 1.5L92 38.5l1.5-1c.6-.3 1.2-.6 1.8-.7l2.1-.3 2.6.3c1 .3 1.9.7 2.7 1.2.8.4 1.4 1 2 1.7a5 5 0 0 1 .9 4.6 5 5 0 0 1-3.8 3.7c-.6.1-1.2.2-1.8.1v.2a6.9 6.9 0 0 1 2.8 2.5 5.6 5.6 0 0 1 .4 4 5.9 5.9 0 0 1-3.4 4c-.8.4-1.8.6-2.8.7a11.8 11.8 0 0 1-6-1.5c-.7-.4-1.3-.9-1.8-1.4a9 9 0 0 1-2-3.4l3.1-1.3a7 7 0 0 0 1.3 2.6c.6.8 1.5 1.3 2.8 1.7 1.4.3 2.5.3 3.4-.1.9-.5 1.5-1.3 1.8-2.4v-.2c.3-1.1.2-2-.4-2.9a5.3 5.3 0 0 0-3-1.7l-2.3-.6.7-3 2.3.6Zm15.6 18c-1-.2-1.6-.6-2-1.1-.2-.5-.3-1.1-.1-1.7l.2-.8c.2-.6.5-1 1-1.4.5-.3 1.3-.3 2.3 0 1 .3 1.6.6 1.9 1.2.3.5.3 1 .2 1.6l-.2.8c-.2.6-.5 1-1 1.4-.6.3-1.3.3-2.3 0Zm18.2 5c-1.3-.4-2.5-1-3.3-1.7a7 7 0 0 1-2-2.9c-.3-1-.5-2.4-.4-3.8a22.5 22.5 0 0 1 2.5-9.5 9.3 9.3 0 0 1 2.4-3 6 6 0 0 1 3-1.6 8 8 0 0 1 3.8.2c1.4.3 2.5 1 3.3 1.7.9.8 1.5 1.7 1.9 2.8.4 1.2.6 2.5.5 4a24.6 24.6 0 0 1-2.5 9.4 9.3 9.3 0 0 1-2.4 3c-.9.8-2 1.4-3 1.6a8 8 0 0 1-3.8-.2Zm.8-2.8c1.5.4 2.8.1 3.8-.9s1.7-2.5 2.3-4.4l1-3.7c.5-2 .6-3.7.2-5-.3-1.4-1.3-2.3-2.9-2.7-.8-.2-1.5-.2-2.1 0-.6 0-1.2.4-1.7.9-.5.4-1 1-1.3 1.8l-1 2.6-1 3.7a16 16 0 0 0-.5 2.8c0 .8 0 1.6.3 2.2.2.7.5 1.2 1 1.7.5.4 1 .7 1.9 1Zm1.7-6.5c-.7-.2-1.2-.5-1.4-.9-.2-.3-.2-.7-.1-1.1l.2-.7c0-.4.3-.7.7-1 .3-.2.9-.2 1.6 0 .7.2 1.2.5 1.4.8.2.4.2.8.1 1.2l-.2.7c0 .4-.3.7-.7 1-.3.1-.9.2-1.6 0Z"/></svg>