<svg xmlns="http://www.w3.org/2000/svg" width="227" fill="none" viewBox="0 0 227 44">
  <g clip-path="url(#a)">
    <path fill="#2D374B"
      d="m24.3 20.6 3.2-5.4 8.7 13.3v2.6-17.7c0-.4-.3-.8-.7-1L20 3.5a1.4 1.4 0 0 0-1.4 0v.1L3.5 12.3c-.2 0-.2.1-.3.2a1.3 1.3 0 0 0-.6 1v14.3l8.1-12.3c1-1.7 3.2-2.2 5.3-2.2h2.4L4.2 36 6 37l14.3-23.5h6.4l-14.3 24 6 3.5.6.4h1l15.8-9-3 1.7-8.4-13.4ZM25.5 38l-6-9.4 3.7-6.2L31 34.9 25.5 38Z" />
    <path fill="#28A0F0"
      d="m19.5 28.7 6 9.4 5.6-3.2-8-12.4-3.6 6.2ZM36.2 31v-2.5l-8.7-13.3-3.2 5.4L32.7 34l3-1.8c.3-.2.5-.6.5-1v-.1Z" />
    <path fill="#fff"
      d="M0 33.5 4.2 36l14.2-22.5H16c-2-.1-4.3.4-5.3 2l-8 12.4L0 32v1.5Zm26.6-20.1h-6.4L6 36.9l5 2.9 1.4-2.3 14.3-24.1Z" />
    <path fill="#96BEDC"
      d="M38.8 13.3a4 4 0 0 0-1.9-3.2l-15.7-9a4.1 4.1 0 0 0-3.6 0 12257.7 12257.7 0 0 0-16 9.2 4 4 0 0 0-1.6 3V32l2.7-4.2V13.3c0-.3.2-.6.5-.8l15.6-9c.3-.2.8-.2 1.2 0l15.5 8.9c.4.2.6.6.6 1v17.9c0 .3-.1.7-.4 1l-3 1.7-1.6.9-5.6 3.2-5.6 3.2h-1l-6.6-3.8-1.4 2.3 6 3.4a121.7 121.7 0 0 0 1 .5 4 4 0 0 0 3 0l16.4-9.4a4 4 0 0 0 1.5-3v-18Z" />
    <path fill="#fff"
      d="M55.8 15.8c.4 0 .8 0 1.2.2.3.2.6.6 1 1.2l6 11c.1.2.2.3.1.4l-.2.1h-2.4c-.2 0-.4 0-.4-.2L59.7 26H51l-1.3 2.4-.4.2h-2.5l-.3-.1.1-.3 6.1-11.1c.3-.6.6-1 1-1.2l1-.2h1Zm-3.6 8.1h6.4l-3-5.4-.2-.1h-.1l-.2.1-3 5.4Zm31.5-8.1c1.4 0 2.4.3 3 1 .7.6 1 1.5 1 2.8v1c0 1-.2 2-.7 2.5-.4.7-1.1 1-2.1 1.2l3.2 4v.2c0 .2 0 .2-.3.2h-2.7l-.2-.2-3-3.9h-6v3.7c0 .3 0 .4-.4.4h-2c-.3 0-.4-.1-.4-.4v-12c0-.4.2-.5.6-.5h10Zm-7.8 6.6h7.2c.6 0 1-.2 1.3-.4.3-.3.4-.7.4-1.3V20c0-.5-.1-1-.4-1.2-.2-.3-.7-.4-1.3-.4h-7s-.2 0-.2.2v3.9Zm32.6-6.6c1.3 0 2.2.2 2.8.7.5.5.8 1.3.8 2.3v.9c0 1-.4 1.8-1.2 2.4.8.4 1.3 1.2 1.3 2.3v1.1c0 .5 0 1-.2 1.3l-.5 1-1 .7-1.6.2H97.8c-.4 0-.6-.2-.6-.5V16.3c0-.4.2-.5.6-.5h10.7Zm-8.4 5.3h7.6c.7 0 1 0 1.3-.2.2-.2.3-.5.3-.8v-.7c0-.4 0-.6-.3-.8-.2-.2-.6-.3-1-.3h-7.7c-.1 0-.2 0-.2.3V21Zm0 2V26c0 .2 0 .3.2.3h7.7c.5 0 .8-.1 1-.3.2-.2.4-.5.4-.9v-.7c0-.4-.2-.6-.4-.8-.2-.2-.6-.3-1.3-.3h-7.6Zm23.9-7.3c.3 0 .4.1.4.4v12.1c0 .3-.1.4-.4.4h-2c-.3 0-.4-.1-.4-.4V16.2c0-.3.1-.4.4-.4h2Zm24.4 0c.3 0 .5.1.5.4V18c0 .3-.2.4-.5.4h-5.8v10c0 .2-.2.3-.4.3h-2c-.3 0-.5-.1-.5-.4v-9.9H134c-.3 0-.5-.1-.5-.4v-1.8c0-.3.2-.4.5-.4h14.5Zm20 0c1.5 0 2.5.3 3.1 1 .6.6 1 1.5 1 2.8v1c0 1-.3 2-.7 2.5-.5.7-1.2 1-2.1 1.2l3.1 4 .1.2c0 .2-.1.2-.3.2H170l-.2-.2-3-3.9h-6v3.7c0 .3-.1.4-.4.4h-2c-.3 0-.4-.1-.4-.4v-12c0-.4.1-.5.5-.5h10Zm-7.7 6.6h7.1c.7 0 1.1-.2 1.4-.4.3-.3.4-.7.4-1.3V20c0-.5-.1-1-.4-1.2-.3-.3-.7-.4-1.4-.4H161c-.1 0-.2 0-.2.2v3.9Zm23.5-6.6c.2 0 .4.1.4.4v8.6l.5.8.7.4h7.6l.8-.4.4-.8v-8.6c0-.3.2-.4.5-.4h2c.3 0 .4.1.4.4v7.6a8 8 0 0 1-.2 2.3 3.7 3.7 0 0 1-2.5 2.4l-2.5.2H187c-1 0-1.7 0-2.4-.2-.6-.2-1.2-.5-1.6-.9-.4-.4-.7-.9-.9-1.5-.2-.6-.3-1.4-.3-2.3v-7.6c0-.3.2-.4.4-.4h2Zm26.6 0h.7l.5.2.4.5c.2.1.3.4.4.7l3.9 8.9.2.1h.3l.2-.1 4-9 .3-.6c0-.2.2-.4.4-.5l.5-.2h2.7c.6 0 1 .1 1.3.4.2.3.3.8.3 1.5v10.6c0 .3-.1.4-.4.4h-2c-.2 0-.3-.1-.3-.4v-9.7l-.2-.1h-.1l-.3.1L220 27l-.5.8-.5.6-.6.3-.8.1h-1.7l-.7-.4-.5-.6-.4-.8-3.8-8.3-.2-.1h-.2l-.1.1v9.7c0 .3-.2.4-.4.4h-2c-.2 0-.4-.1-.4-.4V17.7c0-.7.1-1.2.4-1.5.2-.3.6-.4 1.3-.4h2Z" />
  </g>
  <defs>
    <clipPath id="a">
      <path fill="#fff" d="M0 0h227v44H0z" />
    </clipPath>
  </defs>
</svg>