<svg xmlns="http://www.w3.org/2000/svg" width="143" fill="none" viewBox="0 0 143 40">
  <path fill="#fff"
    d="M49.69 32.8c-7.52 0-12.23-5.32-12.23-12.45 0-7.08 4.76-12.46 12.27-12.46 6.06 0 9.62 3.13 11.1 7.83h-4.05c-1.28-2.9-3.37-4.38-7.05-4.38-5.14 0-8.2 4-8.2 9.05 0 5.05 3.06 9.05 8.2 9.05 3.94 0 6.06-1.75 7.05-4.38h4.04c-1.13 4.42-5.09 7.75-11.13 7.75Zm28.27-.41h-4c-.13-.78-.2-1.56-.17-2.32v-.5h-.02c-.61 1.6-2.19 3.28-5.54 3.28-3.91 0-6.14-2.44-6.14-5.2 0-5.05 5.93-5.2 8.44-5.6 2.3-.38 3.24-.7 3.24-2.14 0-1.46-1.24-2.4-3.37-2.4-1.9 0-3.24 1.05-3.32 2.8h-3.81c.16-2.87 2.44-5.84 7.07-5.84 5.79 0 7.28 3.48 7.28 7.22v6.72c0 1.28.04 3.07.34 3.98Zm-4.09-9.85c-.4 1.05-1.39 1.85-4.25 2.35-2.4.45-3.64 1.12-3.64 2.68 0 1.39 1.22 2.4 3.24 2.4 2.4 0 4.65-1.7 4.65-5.6v-1.83Zm12.63-5.1c-1.51 0-2.84.9-2.84 2.15 0 1.68 2.02 2.15 4.95 2.84 3.07.67 5.3 2.13 5.3 4.93 0 3.47-3.34 5.5-7.2 5.5-3.57 0-6.94-1.63-7.34-5.82h3.87c.34 1.92 1.52 2.8 3.54 2.8 1.66 0 3.2-.67 3.2-2.3 0-1.7-1.7-2-4.53-2.67-2.8-.63-5.6-1.95-5.6-5.13 0-3.18 3.1-5.3 6.67-5.3 3.77 0 6.61 1.9 7.01 5.7h-3.68c-.23-1.88-1.75-2.7-3.35-2.7Zm27.03 6.17c0 5.43-3.3 9.28-7.91 9.28-3.01 0-4.97-1.6-5.67-3.68h-.02v9.9h-4V14.95h4.04v3.16c.64-1.9 2.68-3.65 5.67-3.65 4.59 0 7.9 3.75 7.9 9.14Zm-3.96 0c0-3.3-1.9-5.94-4.94-5.94-3.01 0-4.87 2.32-5 5.56v.38c0 3.45 1.6 6.04 5 6.04 3.13 0 4.94-2.67 4.94-6.04Zm22.3 1.12h-13.43c.27 3.15 2.29 4.98 5 4.98 2 0 3.65-.73 4.3-2.48h3.87c-1.05 3.54-4.04 5.62-8.16 5.62-5.23 0-8.8-3.75-8.8-9.24 0-5.3 3.7-9.14 8.8-9.14 5.93 0 8.35 4.6 8.4 9.52l.02.74Zm-3.88-2.85c-.27-2.73-1.85-4.37-4.54-4.37-2.7 0-4.53 1.7-4.93 4.37h9.47Zm9.87 2.24v8.27h-3.91V14.96h3.85v3.7h.06a5.23 5.23 0 0 1 5.14-4.04v3.92c-3.3.02-5.14 2.14-5.14 5.58Z" />
  <path fill="#FF473E"
    d="M31.42 30.39c-.9 0-1.69.63-1.88 1.51l-7.26-.33c.02-.15.04-.28.04-.42 0-.26-.04-.51-.1-.74l2.63-1.52c.65.8 1.83.97 2.67.36a1.94 1.94 0 0 0-2.1-3.26c-.9.5-1.24 1.64-.78 2.57l-2.57 1.47a2.66 2.66 0 0 0-3.43-1.33 2.7 2.7 0 0 0-1.51 3.37l-4.76 1.16a2.55 2.55 0 0 0-.76-1.73l.86-1.18c.97.34 2.05-.14 2.42-1.11a1.96 1.96 0 0 0-.96-2.48 1.93 1.93 0 0 0-1.83 3.39l-.78 1.09a2.69 2.69 0 0 0-1.96-.5l-.82-4.66a2.7 2.7 0 0 0 2.04-2.04 2.67 2.67 0 0 0-3.85-2.93l-2.07-4.02c.45-.23.8-.56 1.08-.99l1.7.47c-.02.1-.02.19-.02.27 0 .99.76 1.83 1.75 1.94a1.93 1.93 0 0 0 .7-3.79 1.93 1.93 0 0 0-2.34 1.18l-1.62-.42c.23-.53.25-1.12.12-1.67l4.78-2.19a2.65 2.65 0 0 0 3.64.51 2.64 2.64 0 0 0 .7-3.6L18.2 5.8c.38.23.8.38 1.22.42v1.3a1.93 1.93 0 0 0 .21 3.85 1.91 1.91 0 0 0 1.92-1.82 1.9 1.9 0 0 0-1.7-2.02v-1.3c.37-.03.73-.15 1.06-.32l3.33 3.8a2.67 2.67 0 0 0 3.5 3.92 2.7 2.7 0 0 0 1.15-3.2l1.03-.59c.68.78 1.81.9 2.63.3a1.92 1.92 0 0 0-2.13-3.18 1.95 1.95 0 0 0-.7 2.55l-1 .54a2.68 2.68 0 0 0-4.19-.63L21.27 5.7c.32-.26.6-.6.76-.95l2.86.46a1.93 1.93 0 0 0 3.8-.63 1.9 1.9 0 0 0-2-1.7 1.94 1.94 0 0 0-1.84 1.91l-2.65-.44a2.69 2.69 0 0 0-4.8-2.25 2.66 2.66 0 0 0 .46 3.47L14.9 8.4a2.64 2.64 0 0 0-1.79-.9V5.47a1.9 1.9 0 0 0 1.71-2.03 1.9 1.9 0 0 0-1.92-1.8 1.9 1.9 0 0 0-1.91 1.83 1.93 1.93 0 0 0 1.7 2.02v2c-.9.06-1.72.6-2.14 1.4a2.7 2.7 0 0 0 .04 2.6L5.93 13.6a2.8 2.8 0 0 0-.76-1.03l1.81-3.26a1.93 1.93 0 1 0-1.33-2.57 2 2 0 0 0 .9 2.4l-1.74 3.18a2.68 2.68 0 0 0-3.64 3.7 2.7 2.7 0 0 0 3.1 1.16l2.08 4.08c-.53.38-.9.97-1.03 1.6l-1.52-.44a1.93 1.93 0 1 0-3.75-.9c-.23.94.3 1.91 1.23 2.25a1.9 1.9 0 0 0 2.37-.95l1.62.46v.13c0 .9.47 1.75 1.23 2.23L5.46 27a1.92 1.92 0 0 0-2.7 2.74c.7.75 1.84.84 2.64.18.8-.65.95-1.78.34-2.63l1.11-1.47c.34.15.7.23 1.08.23.06 0 .1 0 .17-.02l.82 4.7A2.7 2.7 0 0 0 7 33.2a2.7 2.7 0 0 0 1.8 2.6c1.1.4 2.32.02 3.01-.9l3.87 1.72c-.02.15-.06.3-.06.42a1.93 1.93 0 0 0 3.81.44 1.93 1.93 0 0 0-3.62-1.26l-3.77-1.69c.17-.29.28-.63.3-.98l4.92-1.2a2.7 2.7 0 0 0 1.81 1.34 2.7 2.7 0 0 0 2.2-.52l1.82 1.6c-.42.94-.06 2.04.87 2.52a1.93 1.93 0 1 0-.64-2.88l-1.74-1.52a3 3 0 0 0 .59-.99l7.3.36a1.93 1.93 0 0 0 3.85 0c.04-1-.82-1.87-1.9-1.87Z" />
</svg>