<svg xmlns="http://www.w3.org/2000/svg" width="160" fill="none" viewBox="0 0 161 30">
  <g fill="#fff" fill-rule="evenodd" clip-path="url(#a)" clip-rule="evenodd">
    <path
      d="m18.3 21.7-2.2-2.2a12 12 0 0 1-2.5 1.8 6 6 0 0 1-3 .7 6 6 0 0 1-4.7-2 7.7 7.7 0 0 1 0-9.8 6.4 6.4 0 0 1 7.6-1.4c.9.5 1.7 1 2.5 1.8L18.2 8A13.2 13.2 0 0 0 15 5.9l-2-.7a12.3 12.3 0 0 0-6.5.6 9.7 9.7 0 0 0-5.2 5.4 10.4 10.4 0 0 0 0 7.9 9.8 9.8 0 0 0 5.2 5.3 12.1 12.1 0 0 0 6.4.5 9 9 0 0 0 3.8-1.8l1.6-1.4Zm44.1-11.2c0-.6.3-1.2.8-1.6.6-.5 1.3-.7 2.3-.7a7 7 0 0 1 2.6.5c1 .4 1.8.8 2.7 1.5l1.8-2.6a11 11 0 0 0-9.7-2 5.4 5.4 0 0 0-3.4 3 5.5 5.5 0 0 0 0 4.6c.2.6.6 1.1 1.2 1.5a7 7 0 0 0 2 1.1l2.8.9 2.2.6 1.3.6.7.8.1 1a2 2 0 0 1-.9 1.7c-.6.5-1.4.7-2.5.7-1.2 0-2.3-.2-3.3-.6-1-.5-1.9-1.1-2.8-2l-2 2.5A11.7 11.7 0 0 0 69 24.7c.9-.2 1.6-.6 2.2-1a5.3 5.3 0 0 0 1.9-4.4 4.6 4.6 0 0 0-1.6-3.7c-.5-.4-1.1-.8-2-1.1-.7-.4-1.6-.6-2.6-.9l-2.3-.6-1.4-.7a2 2 0 0 1-.7-.8c-.2-.3-.2-.6-.2-1Zm37.8.3v13.9h3.4V5.3h-3.7L94 14.5l-5.8-9.2h-3.7v19.4H88V10.9l6 9h.2l6-9.1Zm31.8 4.3a7.4 7.4 0 0 1-2 4.9 6.3 6.3 0 0 1-4.7 2 6.3 6.3 0 0 1-4.8-2c-.6-.7-1-1.4-1.3-2.3a7.4 7.4 0 0 1 0-5.3 6.3 6.3 0 0 1 6-4.2 6.3 6.3 0 0 1 4.8 2 7.4 7.4 0 0 1 1.8 4.9Zm3.5 0a10.2 10.2 0 0 0-2.8-7.1 9.7 9.7 0 0 0-7.3-3 10.2 10.2 0 0 0-7.3 3 9.8 9.8 0 0 0-2.9 7.1 10.2 10.2 0 0 0 2.8 7 9.7 9.7 0 0 0 7.3 3 10.2 10.2 0 0 0 7.4-3 9.8 9.8 0 0 0 2.8-7Zm14.2-4.6c0-.6.3-1.2.8-1.6.6-.5 1.3-.7 2.3-.7a7 7 0 0 1 2.7.5c.8.4 1.7.8 2.6 1.5l1.8-2.6a11 11 0 0 0-9.7-2 5.5 5.5 0 0 0-3.4 3 5.5 5.5 0 0 0 0 4.6c.2.6.7 1.1 1.2 1.5a7 7 0 0 0 2 1.1l2.8.9 2.2.6 1.3.6.7.8.2 1a2 2 0 0 1-1 1.7c-.6.5-1.4.7-2.5.7a8 8 0 0 1-3.2-.6c-1-.5-2-1.1-2.9-2l-2 2.5a11.7 11.7 0 0 0 10.8 2.7c.9-.2 1.6-.6 2.2-1a5.2 5.2 0 0 0 2-4.4c0-.8-.2-1.5-.5-2.1-.2-.6-.6-1.1-1.2-1.6-.5-.4-1.1-.8-2-1.1-.7-.4-1.6-.6-2.6-.9L152 13l-1.4-.7a2 2 0 0 1-.7-.8l-.2-1ZM41.5 9.2l-9.3 9.2a7.3 7.3 0 0 1 1-8.2 6.3 6.3 0 0 1 4.7-2 6.4 6.4 0 0 1 3.6 1Zm-.9 12.2a6.4 6.4 0 0 1-6.2-.5l9.3-9.2a7.2 7.2 0 0 1 .8 3.4 7.4 7.4 0 0 1-1.8 4.9c-.6.6-1.3 1-2 1.4Zm1.4 2.9a10.1 10.1 0 0 0 5.4-5.4 10.1 10.1 0 0 0 0-7.7 10 10 0 0 0-1.1-2l6-6L49.9.8l-6 6a10.2 10.2 0 0 0-6-1.7 10.2 10.2 0 0 0-7.2 3 9.7 9.7 0 0 0-2.9 7 10.1 10.1 0 0 0 1.9 5.9l-6 6 2.3 2.4 6-6a10.2 10.2 0 0 0 6 1.7c1.4 0 2.8-.3 4-.8Z" />
  </g>
  <defs>
    <clipPath id="a">
      <path fill="#fff" d="M0 0h160v30H0z" transform="translate(.5)" />
    </clipPath>
  </defs>
</svg>