<svg xmlns="http://www.w3.org/2000/svg" width="192" fill="none" viewBox="0 0 193 40">
  <g clip-path="url(#a)">
    <path fill="#fff"
      d="M54.4 19.5a.6.6 0 0 1-.7.6H42c.3 3 2.4 5.6 5.5 5.6 2.1 0 3.7-.8 4.9-2.5a.6.6 0 0 1 .5-.3.6.6 0 0 1 .6.6l-.1.3c-1.2 2-3.6 3-5.9 3-4 0-6.8-3.5-6.8-7.3s2.9-7.3 6.8-7.3c4 0 6.8 3.5 6.9 7.3Zm-1.3-.6c-.3-2.9-2.5-5.5-5.6-5.5-3 0-5.2 2.6-5.5 5.5h11Zm15.6-6.4a.6.6 0 0 1 .5.6.6.6 0 0 1-.5.6h-3.2V26a.6.6 0 0 1-.6.5.6.6 0 0 1-.6-.5V13.7h-3a.6.6 0 0 1-.6-.6.6.6 0 0 1 .6-.6h3V8a.6.6 0 0 1 .6-.7.6.6 0 0 1 .6.6v4.6h3.2Zm19.2 6V26a.6.6 0 0 1-.8.5.6.6 0 0 1-.4-.5v-7.5c0-2.6-1.4-5-4.2-5-3.6 0-5.2 3-5 6.3V26a.6.6 0 0 1-.5.6.6.6 0 0 1-.6-.6V1.3a.6.6 0 0 1 .5-.6.6.6 0 0 1 .6.6v14c1-1.8 2.8-3 5-3 3.4 0 5.4 3 5.4 6.2Zm21.1 1a.6.6 0 0 1-.6.6H96.6c.3 3 2.5 5.6 5.6 5.6 2.1 0 3.7-.8 4.8-2.5a.6.6 0 0 1 .6-.3.6.6 0 0 1 .5.6v.3c-1.2 2-3.6 3-5.9 3-4 0-6.8-3.5-6.8-7.3s2.8-7.3 6.8-7.3 6.8 3.5 6.8 7.3Zm-1.3-.6c-.2-2.9-2.4-5.5-5.5-5.5s-5.3 2.6-5.6 5.5h11.1Zm15.8-5.9a.6.6 0 0 1-.6.7c-3.4.5-5 3.3-5 6.6v5.6a.6.6 0 0 1-.5.6.6.6 0 0 1-.7-.6V13.1a.6.6 0 0 1 .6-.6.6.6 0 0 1 .6.6v2.6c1-1.7 3-3.2 5-3.2.2 0 .6.2.6.5Zm19.3 6.5a.6.6 0 0 1-.6.6h-11.8c.3 3 2.5 5.6 5.6 5.6 2.1 0 3.7-.8 4.8-2.5a.6.6 0 0 1 .5-.3.6.6 0 0 1 .6.6v.3c-1.2 2-3.6 3-6 3-3.9 0-6.7-3.5-6.7-7.3s2.8-7.3 6.8-7.3 6.8 3.5 6.8 7.3Zm-1.2-.6c-.3-2.9-2.5-5.5-5.6-5.5-3.1 0-5.3 2.6-5.6 5.5h11.2Zm20.2-5.7V26a.6.6 0 0 1-.8.5.6.6 0 0 1-.3-.5v-2.5c-1 2-2.7 3.3-5 3.3-3.4 0-5.4-3-5.4-6.2v-7.5a.6.6 0 0 1 .6-.6.6.6 0 0 1 .6.6v7.5c0 2.5 1.4 5 4.3 5 4 0 4.9-3.7 4.9-7.8V13a.6.6 0 0 1 .2-.4.6.6 0 0 1 .6-.1.6.6 0 0 1 .3.6Zm29.8 5.2V26a.6.6 0 0 1-.6.6.6.6 0 0 1-.6-.6v-7.6c0-2.5-1.4-5-4.2-5-3.6 0-5 3.8-5 6.7v6.3l-.5.2a.6.6 0 0 1-.6-.6v-7.6c0-2.5-1.4-5-4.2-5-3.6 0-5 2.8-5 6.6v5.9a.6.6 0 0 1-.5.7.6.6 0 0 1-.7-.6V13a.6.6 0 0 1 .6-.6.6.6 0 0 1 .6.6v2.1c1-1.8 2.9-3 5-3 2.4 0 4.2 1.6 5 3.8 1-2.2 2.9-3.8 5.3-3.8 3.4 0 5.4 3 5.4 6.2Z" />
    <path fill="#8892B5" d="m2.5 20.4 12.3 7.2V0L2.5 20.4Z" />
    <path fill="#606791" d="M14.8 0v27.6L27 20.4 14.8 0Z" />
    <path fill="#8893B3" d="M2.5 22.7 14.8 40V30L2.5 22.6Z" />
    <path fill="#606791" d="M14.8 30v10L27 22.7 14.8 30Z" />
    <path fill="#606791" d="M14.8 14.8 2.5 20.4l12.3 7.2L27 20.4l-12.2-5.6Z" opacity=".6" />
    <path fill="#434A76" d="M14.8 14.8v12.8L27 20.4l-12.2-5.6Z" opacity=".6" />
  </g>
  <defs>
    <clipPath id="a">
      <path fill="#fff" d="M0 0h192v40H0z" />
    </clipPath>
  </defs>
</svg>