<svg xmlns="http://www.w3.org/2000/svg" width="178" fill="none" viewBox="0 0 178 24">
  <path fill="#fff"
    d="M9 24c-2.7 0-4.8-.6-6.5-1.9A6.4 6.4 0 0 1 0 16.7c0-.5 0-1 .2-1.8l1.2-5.7C2.9 3 6.8 0 13.1 0c1.7 0 3.2.3 4.6.9A6.8 6.8 0 0 1 22 7.4l-.2 1.8-1.2 5.7c-.8 3-2.1 5.4-4 6.9-2 1.5-4.5 2.2-7.7 2.2Zm.5-4.8c1.2 0 2.3-.4 3.1-1.1a7 7 0 0 0 2-3.4 81.3 81.3 0 0 0 1.2-6.9c0-2-1-3-3.2-3-1.2 0-2.3.4-3.1 1.1-1 .7-1.5 1.9-2 3.4A72.6 72.6 0 0 0 6.4 16c0 2 1 3.1 3.2 3.1Zm15.9 4.5-.6-.3a.8.8 0 0 1 0-.6l4.5-21.6c0-.3.2-.5.4-.6l.6-.3h8.9c2.5 0 4.4.5 6 1.6a5 5 0 0 1 2.2 4.4 8 8 0 0 1-.2 1.7 9 9 0 0 1-3.4 5.7c-1.6 1.2-4 1.8-6.8 1.8h-4.5l-1.6 7.3c0 .3-.1.5-.3.6a1 1 0 0 1-.7.3h-4.5Zm11.8-12.8a4 4 0 0 0 2.4-.7c.7-.5 1.2-1.3 1.4-2.2l.1-1c0-.7-.2-1.2-.5-1.5-.4-.4-1-.5-2-.5h-4l-1.2 6h3.8Zm17.7 12.8c-.3 0-.4-.1-.6-.3-.1-.1-.2-.3-.1-.6l3.7-17.2h-6a.5.5 0 0 1-.5-.3.8.8 0 0 1-.1-.6l.8-3.5c0-.3.1-.5.3-.6.2-.2.4-.3.7-.3H71c.2 0 .4.1.5.3l.2.4v.2l-.8 3.5c0 .3-.2.5-.4.6a1 1 0 0 1-.6.3h-6l-3.6 17.2c0 .3-.2.5-.4.6a1 1 0 0 1-.6.3h-4.4Zm17.6 0-.6-.3a.7.7 0 0 1 0-.6l4.5-21.6c0-.3.2-.5.4-.6l.6-.3H82c.3 0 .5.1.6.3l.1.4v.2L78 22.8c0 .3-.2.5-.4.6a1 1 0 0 1-.6.3h-4.5Zm12.7 0c-.3 0-.4-.1-.6-.3-.1-.1-.2-.3-.1-.6L89 1.2c0-.3.1-.5.3-.6.2-.2.5-.3.7-.3h3.6c.5 0 .9.3 1 .8l3.7 10.5 8-10.5.5-.5c.2-.2.5-.3.8-.3h3.7c.2 0 .4.1.5.3l.2.4v.2l-4.7 21.6c0 .3-.1.5-.3.6a1 1 0 0 1-.7.3h-4l-.6-.3a.8.8 0 0 1 0-.6l2.5-12.3-5 6.8-.7.6-.7.2h-1.7c-.5 0-.8-.3-1-.8l-2.4-7-2.6 12.5c0 .3-.2.5-.4.6a1 1 0 0 1-.6.3h-4Zm29.4 0c-.3 0-.5-.1-.6-.3a.7.7 0 0 1-.1-.6l4.6-21.6c0-.3.2-.5.4-.6l.6-.3h4.5l.6.3v.6l-4.5 21.6c0 .3-.2.5-.4.6a1 1 0 0 1-.6.3h-4.5Zm20.9.3c-2 0-3.7-.3-5-.8a7.2 7.2 0 0 1-3.2-2.1 4.7 4.7 0 0 1-1-3.8c0-.2.2-.4.3-.5l.5-.2h4.3l.6.1.5.5c.1.6.5 1 1 1.4.6.4 1.4.6 2.4.6 1.3 0 2.3-.2 3-.6.8-.4 1.3-1 1.5-1.6v-.4c0-.6-.3-1-1-1.3-.7-.4-2-.8-3.8-1.2a13 13 0 0 1-5-2.1 4.7 4.7 0 0 1-1.6-3.7c0-.6 0-1.1.2-1.7.5-2 1.6-3.7 3.3-4.8a12 12 0 0 1 6.9-1.8c1.7 0 3.1.3 4.5.9a8 8 0 0 1 3 2.3 4.4 4.4 0 0 1 1 3.3c0 .2 0 .4-.2.5l-.5.2h-4.5c-.5 0-.8-.2-1-.6 0-.5-.3-1-.8-1.3a4 4 0 0 0-2-.5 5 5 0 0 0-2.4.5c-.7.4-1 1-1.2 1.6v.4c0 .6.3 1 .9 1.4.6.3 1.8.6 3.4 1 2.4.5 4.3 1.2 5.4 2.1 1.1 1 1.7 2.1 1.7 3.6 0 .5 0 1.1-.2 1.7a8 8 0 0 1-3.5 5.2 14.1 14.1 0 0 1-7.5 1.7Zm15.6-.3a.5.5 0 0 1-.5-.3c-.2-.1-.2-.3-.2-.6L155 1.2c0-.3.2-.5.4-.6.2-.2.4-.3.7-.3h3.6c.5 0 .8.3 1 .8l3.6 10.5L172.4 1l.5-.5c.2-.2.5-.3.8-.3h3.6l.6.3.1.4v.2l-4.6 21.6c0 .3-.2.5-.4.6a1 1 0 0 1-.6.3h-4c-.3 0-.5-.1-.6-.3a.8.8 0 0 1-.1-.6l2.6-12.3-5.1 6.8-.6.6-.7.2H162c-.4 0-.8-.3-1-.8l-2.3-7-2.7 12.5c0 .3-.1.5-.3.6a1 1 0 0 1-.7.3h-4Z" />
</svg>