<svg xmlns="http://www.w3.org/2000/svg" width="170" fill="none" viewBox="0 0 170 36">
  <g clip-path="url(#a)">
    <path fill="#fff"
      d="M53.3 5.4c-2 0-3.8.2-4.6.4-1.2.3-1.4.8-1.6 1.9l-4.5 20.6-.2 1.1c0 1 .7 1.7 1.8 1.7 1.2 0 1.7-.8 2-2l1.2-5.9c.9.1 2 .3 3.7.3 7.3 0 11.9-4 11.9-10 0-5.1-3.6-8.1-9.7-8.1ZM51 20c-1 0-2 0-2.8-.2l2.4-11 3-.2c3.8 0 5.8 1.9 5.8 4.9 0 3.9-2.8 6.5-8.4 6.5Zm117.6 4.3c-.7 0-1 .3-1.8 1.2-1.3 1.3-2.1 2-3.1 2s-1.4-.7-1.4-1.9l.3-2.4 1.3-6h4c1.1 0 1.9-.8 1.9-2 0-.8-.5-1.3-1.5-1.3h-3.7l.6-2.8.2-1.2c0-1-.7-1.7-1.8-1.7-1.2 0-1.7.8-2 2l-.8 3.7h-1.6c-1.3 0-2 .7-2 2 0 .7.5 1.2 1.5 1.2h1.5l-1.3 6c-.2.7-.4 1.8-.4 3 0 2.8 1.5 4.9 4.7 4.9 1.9 0 3.5-1 4.7-2 1.2-1 2.1-2.4 2.1-3.2 0-.8-.6-1.5-1.4-1.5ZM87.2 7.4c0-1-.7-1.6-1.8-1.6s-1.7.7-2 2l-4.3 20.4c-.2.4-.2.7-.2 1 0 1.1.7 1.8 1.7 1.8 1.2 0 1.8-.8 2-2L87 8.6l.2-1.2Zm63.1 6.2c-5.6 0-9.5 5.6-9.5 10.9v.3c-.9 1.3-2 2.7-2.8 2.7-.5 0-.7-.5-.7-1.3 0-1 .2-2.7.6-4.1l2.9-13.5.1-1.2c0-1-.6-1.6-1.7-1.6-1.2 0-1.7.7-2 2l-1.6 7.2c-.8-.8-2-1.4-4-1.4-3.7 0-7.5 2.8-9 7.3-1.6 4.1-3 6.6-4.2 6.6-.4 0-.6-.4-.6-1 0-1.7 1-6 1.4-8l.2-1.6c0-1.6-2.6-3.4-6-3.4-3.8 0-7.3 2.4-9.1 6-2.6 4.7-5 8-6.2 8-.6 0-.7-.7-.9-1.3l-.9-4.9 5.5-4.4c.4-.4 1-1 1-1.7 0-1-.6-1.6-1.5-1.6-.7 0-1.3.4-2 .9l-8 6.7L94 8.6l.2-1.2c0-1-.8-1.6-1.9-1.6-1.1 0-1.6.7-1.9 2L86 28.1l-.2 1c0 1.1.7 1.8 1.8 1.8 1.2 0 1.7-.8 2-2l.5-2.6 3.3-2.7.9 4c.3 1.7 1.1 3.3 3.3 3.3 2.2 0 4-2 5.6-4.7.6 2.8 2.6 4.7 5.3 4.7 2.8 0 4.8-1.7 6-3.9 0 2.4 1.2 3.9 3.2 3.9 1.9 0 3.4-1.1 4.8-3.5.8 2 2.5 3.5 5 3.5 2.8 0 4.8-1.7 6.2-4.1v.2c0 2.5 1.2 3.9 3.3 3.9 1.9 0 3.4-1 4.8-2.8 1 1.7 2.8 2.8 5.3 2.8 5.6 0 9.5-5.6 9.5-11 0-3.7-2.3-6.4-6.3-6.4Zm-35.2 7.1c-1 4.4-3.2 6.9-5.7 6.9-1.7 0-2.6-1.3-2.6-3.2 0-3.7 2.7-7.7 6.4-7.7 1 0 2 .3 2.7.8l-.8 3.2Zm19.7-1.9c-1.2 5.2-3.7 8.8-6.6 8.8-1.5 0-2.4-1.2-2.4-3.2 0-3.7 2.6-7.6 6-7.6a5 5 0 0 1 3.2 1l-.2 1Zm12.7 8.8c-2 0-3-1.5-3-3.3 0-3.5 2.4-7.4 5.4-7.4 2 0 3 1.5 3 3.4 0 3.4-2.5 7.3-5.4 7.3Zm-75.7-14c-5.7 0-9.5 5.6-9.5 10.9 0 3.8 2.3 6.5 6.2 6.5 5.7 0 9.5-5.6 9.5-11 0-3.7-2.3-6.4-6.2-6.4Zm-2.9 14c-2 0-2.9-1.5-2.9-3.3 0-3.5 2.4-7.4 5.4-7.4 2 0 2.9 1.5 2.9 3.4 0 3.4-2.4 7.3-5.4 7.3Z" />
    <path fill="#E6007A"
      d="M17.8 7.6c3.6 0 6.5-1.7 6.5-3.8 0-2.1-2.9-3.8-6.5-3.8s-6.5 1.7-6.5 3.8c0 2 3 3.8 6.5 3.8Zm0 28.4c3.6 0 6.5-1.7 6.5-3.8 0-2-2.9-3.8-6.5-3.8s-6.5 1.7-6.5 3.8c0 2.1 3 3.8 6.5 3.8ZM8.7 12.8c1.8-3.1 1.8-6.5 0-7.5S3.9 5.9 2 9C.2 12.1.3 15.5 2 16.5c1.9 1 4.8-.6 6.6-3.7ZM33.5 27c1.8-3.1 1.8-6.5 0-7.5-1.9-1-4.8.6-6.6 3.7-1.8 3.1-1.8 6.5 0 7.5s4.8-.6 6.6-3.7ZM8.7 30.7c1.8-1 1.8-4.4 0-7.5-1.8-3-4.7-4.8-6.5-3.7-1.8 1-1.9 4.4 0 7.5 1.7 3.1 4.7 4.8 6.5 3.7Zm24.8-14.2c1.8-1 1.8-4.4 0-7.5-1.8-3.1-4.8-4.8-6.6-3.7-1.8 1-1.8 4.4 0 7.5 1.8 3 4.7 4.8 6.6 3.7Z" />
  </g>
  <defs>
    <clipPath id="a">
      <path fill="#fff" d="M0 0h169.2v36H0z" transform="translate(.8)" />
    </clipPath>
  </defs>
</svg>