<svg xmlns="http://www.w3.org/2000/svg" width="160" fill="none" viewBox="0 0 161 34">
  <g clip-path="url(#a)">
    <path fill="#7B3FE4"
      d="M29 10.8a2.3 2.3 0 0 0-2.4 0L21.2 14l-3.6 2.1-5.4 3.2a2.3 2.3 0 0 1-2.3 0l-4.3-2.5a2.4 2.4 0 0 1-1.2-2v-5a2.3 2.3 0 0 1 1.2-2l4.2-2.4a2.3 2.3 0 0 1 2.3 0l4.2 2.4a2.4 2.4 0 0 1 1.2 2v3.3l3.7-2.2V7.7a2.3 2.3 0 0 0-1.2-2L12.2 1A2.3 2.3 0 0 0 10 1L2 5.6a2.3 2.3 0 0 0-1.1 2v9.2a2.3 2.3 0 0 0 1.1 2l8 4.7a2.3 2.3 0 0 0 2.3 0l5.4-3.2 3.6-2.1 5.4-3.2a2.3 2.3 0 0 1 2.3 0l4.2 2.5a2.4 2.4 0 0 1 1.2 2v5a2.3 2.3 0 0 1-1.2 2L29 29a2.3 2.3 0 0 1-2.3 0l-4.2-2.5a2.4 2.4 0 0 1-1.2-2v-3.2l-3.6 2.2v3.2a2.3 2.3 0 0 0 1.1 2l8 4.6a2.3 2.3 0 0 0 2.3 0l8-4.6a2.4 2.4 0 0 0 1.1-2v-9.3a2.3 2.3 0 0 0-1.2-2l-8-4.7Z" />
    <path fill="#fff"
      d="M52.6 30.7V23a5.2 5.2 0 0 0 4.2 1.7c4.5 0 7.5-3.2 7.5-8 0-4.9-2.8-8-7.2-8a5.5 5.5 0 0 0-4.5 1.9V8.9h-4.3v21.8h4.3Zm3.6-9.7c-2.3 0-3.8-1.8-3.8-4.3 0-2.7 1.5-4.4 3.8-4.4s3.9 1.7 3.9 4.4c0 2.5-1.6 4.3-3.9 4.3Zm17.9 3.7a8 8 0 1 0-8.2-8 7.9 7.9 0 0 0 8.2 8Zm0-3.7c-2.3 0-3.9-1.8-3.9-4.3 0-2.6 1.6-4.4 4-4.4 2.3 0 3.9 1.8 3.9 4.4 0 2.5-1.6 4.3-4 4.3Zm15.3 3.4V2.1H85v22.3h4.4Zm12.9-15.5-3.2 10-3.3-10h-4.4L97 24.3l-2.3 6.4h4.1l2.2-6.3 5.7-15.5h-4.5Zm16.7 1.5a5.5 5.5 0 0 0-4.4-1.8c-4.6 0-7.3 3.2-7.3 8 0 4.9 2.7 8 7.4 8a5.2 5.2 0 0 0 4.3-1.8v2a2.3 2.3 0 0 1-1.4 2.4l-.9.2h-7.2v3.3h7.9c3.5 0 5.9-2.1 5.9-5.4V9h-4.4v1.5ZM115.3 21c-2.3 0-3.9-1.7-3.9-4.3 0-2.7 1.6-4.4 3.9-4.4s3.8 1.7 3.8 4.4c0 2.6-1.5 4.3-3.8 4.3Zm18.9 3.7a8 8 0 1 0-8.3-8 7.9 7.9 0 0 0 8.3 8Zm0-3.7c-2.3 0-4-1.8-4-4.3 0-2.6 1.7-4.4 4-4.4s4 1.8 4 4.4c0 2.5-1.7 4.3-4 4.3Zm15 3.4V16a3.2 3.2 0 0 1 4.4-3.2 3 3 0 0 1 1.8 3v8.7h4.4v-9.7c0-3.5-2.3-6-5.9-6a5.3 5.3 0 0 0-4.7 2.3V9h-4.4v15.5h4.4Z" />
  </g>
  <defs>
    <clipPath id="a">
      <path fill="#fff" d="M0 0h160v33.4H0z" transform="translate(.3 .3)" />
    </clipPath>
  </defs>
</svg>