<svg xmlns="http://www.w3.org/2000/svg" width="160" fill="none" viewBox="0 0 160 24">
  <g clip-path="url(#a)">
    <path fill="url(#b)"
      d="m26.9 18.9-4.4 4.7a1 1 0 0 1-.8.3H1a.5.5 0 0 1-.3-.9L5 18.3a1 1 0 0 1 .7-.3h20.8a.5.5 0 0 1 .4.9Zm-4.4-9.5a1 1 0 0 0-.8-.3H1a.5.5 0 0 0-.3.8L5 14.6a1 1 0 0 0 .7.3h20.8a.5.5 0 0 0 .4-.8l-4.4-4.7ZM.9 6h20.8a1 1 0 0 0 .8-.3L26.9 1a.5.5 0 0 0-.4-.9H5.7a1 1 0 0 0-.7.3L.6 5.1a.5.5 0 0 0 .3.9Z" />
    <path fill="#fff"
      d="M52.2 10.2h-11V6.5h14V2.8H41a3.7 3.7 0 0 0-3.7 3.7v3.7a3.7 3.7 0 0 0 3.7 3.6h11.1v3.7H37.7v3.7h14.5a3.7 3.7 0 0 0 3.7-3.7v-3.7a3.7 3.7 0 0 0-3.7-3.6Zm21.6-7.4H62.6A3.7 3.7 0 0 0 59 6.5v11a3.7 3.7 0 0 0 3.7 3.7h11.2a3.7 3.7 0 0 0 3.7-3.7v-11a3.7 3.7 0 0 0-3.7-3.7Zm0 14.7H62.7v-11h11v11ZM113 2.8h-11a3.7 3.7 0 0 0-3.6 3.7v14.7h3.7v-6h10.8v6h3.7V6.5a3.7 3.7 0 0 0-2.3-3.4c-.4-.2-.9-.3-1.4-.3Zm0 8.7h-11v-5h11v5Zm43.3-8.7h-10.9a3.7 3.7 0 0 0-3.7 3.7v14.7h3.8v-6h10.8v6h3.7V6.5a3.7 3.7 0 0 0-3.7-3.7Zm0 8.7h-10.9v-5h10.9v5Zm-21.6 6h-1.4l-5.4-13.1a2.5 2.5 0 0 0-2.2-1.6h-3.3a2.4 2.4 0 0 0-2.5 2.5v15.9h3.7V6.5h1.5l5.3 13.1a2.5 2.5 0 0 0 2.3 1.6h3.3a2.4 2.4 0 0 0 2.5-2.5V2.8h-3.8v14.7ZM84.5 2.8h-3.7v14.7a3.7 3.7 0 0 0 3.7 3.7h11.1v-3.7H84.5V2.8Z" />
  </g>
  <defs>
    <linearGradient id="b" x1="2.7" x2="24.5" y1="24.5" y2="-.1" gradientUnits="userSpaceOnUse">
      <stop offset=".1" stop-color="#9945FF" />
      <stop offset=".3" stop-color="#8752F3" />
      <stop offset=".5" stop-color="#5497D5" />
      <stop offset=".6" stop-color="#43B4CA" />
      <stop offset=".7" stop-color="#28E0B9" />
      <stop offset="1" stop-color="#19FB9B" />
    </linearGradient>
    <clipPath id="a">
      <path fill="#fff" d="M0 0h160v23.8H0z" transform="translate(0 .1)" />
    </clipPath>
  </defs>
</svg>