<svg xmlns="http://www.w3.org/2000/svg" width="120" fill="none" viewBox="0 0 121 30">
  <g clip-path="url(#a)">
    <path fill="#0E3CA5" fill-rule="evenodd"
      d="M14.7 24c.8 3.2 3.8 5.6 5.3 5.5 0 0 5.8-1 8.9-6.5 2.4-4.1 1.6-8.2-1.7-8.2-1.2 0-14.1 3.1-12.5 9.2Zm2.8-24a14.8 14.8 0 0 0-7 1.7c-.1.2-.4.3-.6.4L8.5 3.6c-4.2 5.6 10 9.7 17.7 9.8 3.5 2.5 4.5-7.2 1-9.8A14.7 14.7 0 0 0 17.6 0Z"
      clip-rule="evenodd" />
    <path fill="#fff" fill-rule="evenodd"
      d="M87.4 8.9h-1a6.8 6.8 0 0 0-5.3 2.4v-2h-5.6v18.2h5.6V20c0-.9 0-1.7.2-2.5 0-.7.3-1.3.6-1.9.4-.5.8-1 1.5-1.2a7.7 7.7 0 0 1 5 0V8.9l-1-.1Zm14.8 0h-1a6.8 6.8 0 0 0-5.3 2.4v-2h-5.6v18.2h5.6V20l.1-2.5c.1-.7.3-1.3.7-1.9.3-.5.8-1 1.4-1.2a7.7 7.7 0 0 1 5 0V8.9l-1-.1ZM43.6 8h-7.4V3h20.6v5h-7.4v18.6h-5.8V8ZM68 16.2a3.1 3.1 0 0 0-1-2.4 3 3 0 0 0-2.4-1 4.3 4.3 0 0 0-3 1 3.3 3.3 0 0 0-1 2.4H68Zm4.8 7.8a9 9 0 0 1-3.4 2.6c-1.4.6-2.8 1-4.3 1-1.4 0-2.7-.3-4-.7-1.2-.4-2.3-1-3.2-2a8.9 8.9 0 0 1-3-6.7 9.2 9.2 0 0 1 3-6.8 10.4 10.4 0 0 1 7.2-2.5c1.3 0 2.5.2 3.5.6 1.1.5 2 1 2.7 1.9.8.8 1.3 1.8 1.7 3 .4 1.1.6 2.4.6 3.8v1.7h-13c.2 1 .7 2 1.5 2.5.7.7 1.6 1 2.7 1 1 0 1.7-.2 2.4-.6.6-.5 1.2-1 1.6-1.6l4 2.8Zm43.2-3.2v-.3a1 1 0 0 0-.6-.9c-.9-.2-1.8-.4-2.7-.4-2.2 0-3.6.9-3.6 2.5 0 1.5 1.2 2.3 2.8 2.3 2.4 0 4-1.3 4-3.2ZM104 22c0-4 3-5.9 7.4-5.9 1.8 0 3.1.3 4.4.8v-.3c0-2.2-1.3-3.3-3.9-3.3-2 0-3.4.3-5 1l-1.3-4c2-.9 4-1.4 7-1.4 2.9 0 4.9.7 6.2 2 1.3 1.3 2 3.3 2 5.8v10.5h-5v-2a7 7 0 0 1-5.5 2.3c-3.4 0-6.3-2-6.3-5.5Z"
      clip-rule="evenodd" />
    <path fill="#5493F7" fill-rule="evenodd"
      d="M12.2 3.3c-2 2.8-8.4 4.8-9.5 4.5l.2-.2a15.3 15.3 0 0 1 5.8-6c.9-.6 1.8-.6 2.1-.6 2.9 0 1.4 2.3 1.4 2.3"
      clip-rule="evenodd" />
    <mask id="b" width="11" height="21" x="0" y="9" maskUnits="userSpaceOnUse" style="mask-type:alpha">
      <path fill="#fff" d="M.8 9.8h9.8v19.7H.8V9.8Z" />
    </mask>
    <g mask="url(#b)">
      <path fill="#5493F7" fill-rule="evenodd"
        d="M10.5 24.6c.2 1 0 4.6-.2 5-.1 0-.5 0-1.5-.6a16 16 0 0 1-8-13.7c0-1.9.3-3.7 1-5.5l3.6 4.4 2.8 4.4c1.9 3.1 2.2 5 2.3 6Z"
        clip-rule="evenodd" />
    </g>
    <path fill="#5493F7" fill-rule="evenodd"
      d="M32.2 15.5c0 2-.3 3.9-1 5.7-1.9 2-14.2-3-14.3-3-1.7-.7-6.8-3-7.3-6.5-.6-5 9.7-8.6 14.2-8.7.5 0 2.2 0 3.1.8a15.5 15.5 0 0 1 5.3 11.7ZM21.5 28c.7-2.6 7.1-5.2 8.6-5.4.1 0 .2.1.1.3a16 16 0 0 1-6.3 6.3c-1.3.7-2.8.2-2.4-1.2Z"
      clip-rule="evenodd" />
  </g>
  <defs>
    <clipPath id="a">
      <path fill="#fff" d="M0 0h120v30H0z" transform="translate(.8)" />
    </clipPath>
  </defs>
</svg>