<svg xmlns="http://www.w3.org/2000/svg" fill="none" viewBox="0 0 320 270">
  <g clip-path="url(#a)">
    <path fill="#fff" fill-rule="evenodd"
      d="M27.8358 18.9276C27.924 18.8001 27.93 18.6326 27.851 18.4991L22.9366 10.1939C22.8654 10.0737 22.7365 10 22.5972 10H19.1468C18.8418 10 18.652 10.3324 18.8062 10.5966L25.2628 21.6595C25.4085 21.9092 25.7631 21.9229 25.9276 21.6853L27.8358 18.9276ZM36.745 22.1946C37.0498 22.1946 37.2396 21.8626 37.0858 21.5984L30.4504 10.1964C30.3797 10.0748 30.2499 10 30.1096 10H26.6611C26.3561 10 26.1664 10.3324 26.3206 10.5966L32.9751 21.9986C33.0459 22.12 33.1755 22.1946 33.3156 22.1946H36.745ZM21.8681 21.4883C22.0241 21.7524 21.8345 22.0867 21.5286 22.0867H19.1626C18.9446 22.0867 18.7679 21.9093 18.7679 21.6905V17.6863C18.7679 17.2833 19.2973 17.1375 19.5021 17.4841L21.8681 21.4883ZM45.6463 22.1946H43.6152V10H45.6108L51.2409 19.6163L56.8533 10H58.8489V22.1946H56.8178V14.1287L52.0963 22.1946H50.368L45.6463 14.1287V22.1946ZM71.426 22.1946H63.5688V10H71.426V11.986H65.5999V15.1043H71.426V17.0903H65.5999V20.2086H71.426V22.1946ZM79.2008 22.1946H81.2319V11.986H85.9358V10H74.4791V11.986H79.2008V22.1946ZM100.303 22.1946H98.0755L97.06 20.0693H89.9686L88.971 22.1946H86.7439L92.5343 10H94.512L100.303 22.1946ZM93.5143 12.5957L90.9129 18.0833H96.1157L93.5143 12.5957ZM103.82 22.1946H105.851V18.362H108.47C110.965 18.362 112.764 16.6025 112.764 14.181C112.764 11.7769 110.965 10 108.47 10H103.82V22.1946ZM105.851 16.376V11.986H108.47C109.789 11.986 110.733 12.9093 110.733 14.181C110.733 15.4527 109.789 16.376 108.47 16.376H105.851ZM124.569 22.1946H116.605V10H118.636V20.2086H124.569V22.1946ZM128.137 22.1946H135.994V20.2086H130.168V17.0903H135.994V15.1043H130.168V11.986H135.994V10H128.137V22.1946ZM141.791 22.1946H139.172L144.214 16.0973L139.172 10H141.791L145.533 14.512L149.274 10H151.876L146.833 16.0973L151.876 22.1946H149.257L145.533 17.6826L141.791 22.1946Z"
      clip-rule="evenodd" />
  </g>
  <path fill="#fff" fill-rule="evenodd"
    d="M175.471 5.91191C175.547 5.8727 175.631 5.85198 175.717 5.85156L180.468 5.86514C180.554 5.86535 180.638 5.88597 180.714 5.9252C180.79 5.96442 180.854 6.02106 180.902 6.09015C180.95 6.15925 180.98 6.23871 180.989 6.32159C180.998 6.40447 180.986 6.48824 180.954 6.56559C178.327 13.0803 178.327 20.318 180.954 26.8327C180.986 26.91 180.998 26.9938 180.989 27.0767C180.98 27.1595 180.95 27.239 180.902 27.3081C180.854 27.3772 180.79 27.4338 180.714 27.4731C180.638 27.5123 180.554 27.5329 180.468 27.5331H175.717C175.631 27.5314 175.546 27.5091 175.471 27.4682C175.395 27.4274 175.331 27.3691 175.285 27.2987C175.238 27.2282 175.209 27.1476 175.202 27.064C175.194 26.9804 175.208 26.8963 175.242 26.8191C176.536 23.5889 177.199 20.153 177.198 16.6869C177.195 13.2191 176.527 9.78222 175.228 6.55202C175.197 6.47443 175.185 6.3906 175.195 6.30777C175.204 6.22494 175.235 6.14561 175.283 6.07664C175.331 6.00767 175.396 5.95113 175.471 5.91191ZM176.341 16.6871C176.346 13.2974 174.984 10.0404 172.548 7.61377C172.459 7.52715 172.339 7.47833 172.213 7.47803H169.088C168.965 7.47803 168.846 7.5258 168.758 7.61082C168.671 7.69585 168.622 7.81118 168.622 7.93142V11.0509C168.62 11.1681 168.664 11.2815 168.746 11.3678C168.828 11.4541 168.94 11.5068 169.06 11.5152C170.402 11.6186 171.655 12.2095 172.568 13.17C173.482 14.1306 173.989 15.3903 173.989 16.698C173.989 18.0057 173.482 19.2654 172.568 20.2259C171.655 21.1865 170.402 21.7774 169.06 21.8808C168.944 21.8882 168.835 21.9373 168.754 22.0185C168.673 22.0998 168.626 22.2075 168.622 22.3206V25.4401C168.621 25.5005 168.632 25.5604 168.655 25.6165C168.678 25.6726 168.712 25.7238 168.755 25.7669C168.799 25.8101 168.85 25.8445 168.908 25.8681C168.965 25.8917 169.026 25.904 169.088 25.9044H172.213C172.275 25.9045 172.337 25.8923 172.395 25.8685C172.453 25.8447 172.505 25.8098 172.548 25.7659C174.986 23.3381 176.348 20.0788 176.341 16.6871ZM187.581 22.3206C187.58 22.2056 187.534 22.0953 187.452 22.0117C187.371 21.9281 187.26 21.8775 187.142 21.87C185.8 21.7665 184.548 21.1756 183.634 20.2151C182.721 19.2545 182.213 17.9948 182.213 16.6871C182.213 15.3794 182.721 14.1197 183.634 13.1592C184.548 12.1986 185.8 11.6077 187.142 11.5043C187.26 11.4961 187.371 11.4449 187.453 11.3609C187.534 11.2769 187.58 11.1662 187.581 11.0509V7.93142C187.581 7.81118 187.532 7.69585 187.444 7.61082C187.356 7.5258 187.238 7.47803 187.114 7.47803H183.99C183.864 7.47833 183.743 7.52715 183.654 7.61377C181.223 10.0429 179.862 13.2975 179.862 16.6858C179.862 20.074 181.223 23.3287 183.654 25.7578C183.698 25.8016 183.75 25.8365 183.807 25.8603C183.865 25.8841 183.927 25.8963 183.99 25.8962H187.114C187.238 25.8955 187.357 25.8471 187.444 25.7617C187.532 25.6762 187.581 25.5606 187.581 25.4401V22.3206Z"
    clip-rule="evenodd" />
  <path fill="#fff"
    d="M201.4 21.8 203.3 12.8H205.6L207.8 21.8H206.4L204.2 12.8H204.7L202.8 21.8H201.4ZM200.6 21.8V20.5H202.5V21.8H200.6ZM200.2 21.8 197.5 12.4H199.2L201.7 21.8H200.2ZM206.7 21.8V20.5H208.7V21.8H206.7ZM207.5 21.8 209.8 12.4H211.3L209 21.8H207.5ZM220 22.1C219.2 22.1 218.4 22 217.8 21.7 217.2 21.4 216.7 21 216.3 20.6 215.8 20.1 215.5 19.6 215.3 19 215.1 18.5 215 17.9 215 17.3V17C215 16.4 215.1 15.8 215.3 15.2 215.5 14.6 215.9 14.1 216.3 13.6 216.7 13.2 217.2 12.8 217.9 12.5 218.5 12.3 219.2 12.1 220 12.1 220.8 12.1 221.5 12.3 222.1 12.5 222.7 12.8 223.3 13.2 223.7 13.6 224.1 14.1 224.4 14.6 224.7 15.2 224.9 15.8 225 16.4 225 17V17.3C225 17.9 224.9 18.5 224.7 19 224.5 19.6 224.1 20.1 223.7 20.6 223.3 21 222.8 21.4 222.1 21.7 221.5 22 220.8 22.1 220 22.1ZM220 20.6C220.7 20.6 221.3 20.5 221.8 20.2 222.3 19.8 222.7 19.4 222.9 18.9 223.2 18.4 223.3 17.8 223.3 17.1 223.3 16.5 223.2 15.9 222.9 15.3 222.6 14.8 222.3 14.4 221.8 14.1 221.3 13.8 220.7 13.6 220 13.6 219.3 13.6 218.7 13.8 218.2 14.1 217.7 14.4 217.3 14.8 217.1 15.3 216.8 15.9 216.7 16.5 216.7 17.1 216.7 17.8 216.8 18.4 217 18.9 217.3 19.4 217.7 19.8 218.2 20.2 218.7 20.5 219.3 20.6 220 20.6ZM229.8 21.8V12.4H231.1V16.3H231.1C231.1 14.9 231.4 13.9 232 13.3 232.6 12.7 233.5 12.3 234.7 12.3H235V13.8H234.4C233.5 13.8 232.7 14.1 232.2 14.6 231.7 15.1 231.5 15.8 231.5 16.7V21.8H229.8ZM239.3 21.8V12.4H240.6V16.5H240.4C240.4 15.5 240.5 14.8 240.7 14.1 241 13.5 241.3 13 241.8 12.7 242.3 12.3 242.9 12.2 243.6 12.2H243.7C244.5 12.2 245.1 12.3 245.5 12.7 246 13 246.4 13.5 246.6 14.1 246.9 14.8 247 15.5 247 16.5H246.5C246.5 15.5 246.6 14.8 246.9 14.1 247.1 13.5 247.5 13 247.9 12.7 248.4 12.3 249 12.2 249.8 12.2H249.9C250.6 12.2 251.2 12.3 251.7 12.7 252.2 13 252.5 13.5 252.8 14.1 253 14.8 253.1 15.5 253.1 16.5V21.8H251.5V16.1C251.5 15.3 251.3 14.7 250.9 14.3 250.5 13.9 250 13.7 249.3 13.7 248.7 13.7 248.1 13.9 247.7 14.4 247.3 14.8 247 15.4 247 16.2V21.8H245.4V16.1C245.4 15.3 245.2 14.7 244.8 14.3 244.4 13.9 243.9 13.7 243.2 13.7 242.6 13.7 242 13.9 241.6 14.4 241.2 14.8 240.9 15.4 240.9 16.2V21.8H239.3ZM258.5 21.8V9H260.2V16.6H259.8C259.8 15.7 259.9 14.9 260.1 14.3 260.4 13.6 260.7 13.1 261.2 12.7 261.7 12.3 262.4 12.2 263.2 12.2H263.2C264.4 12.2 265.2 12.5 265.8 13.3 266.4 14 266.6 15.1 266.6 16.5V21.8H265V16.1C265 15.3 264.7 14.8 264.3 14.3 263.9 13.9 263.3 13.7 262.7 13.7 261.9 13.7 261.3 14 260.9 14.5 260.4 14.9 260.2 15.6 260.2 16.4V21.8H258.5ZM276.3 22.1C275.5 22.1 274.8 22 274.2 21.7 273.5 21.4 273 21 272.6 20.6 272.2 20.1 271.8 19.6 271.6 19 271.4 18.5 271.3 17.9 271.3 17.3V17C271.3 16.4 271.4 15.8 271.6 15.2 271.9 14.6 272.2 14.1 272.6 13.6 273 13.2 273.6 12.8 274.2 12.5 274.8 12.3 275.5 12.1 276.3 12.1 277.1 12.1 277.8 12.3 278.4 12.5 279.1 12.8 279.6 13.2 280 13.6 280.4 14.1 280.8 14.6 281 15.2 281.2 15.8 281.3 16.4 281.3 17V17.3C281.3 17.9 281.2 18.5 281 19 280.8 19.6 280.5 20.1 280 20.6 279.6 21 279.1 21.4 278.5 21.7 277.9 22 277.1 22.1 276.3 22.1ZM276.3 20.6C277 20.6 277.6 20.5 278.1 20.2 278.6 19.8 279 19.4 279.2 18.9 279.5 18.4 279.6 17.8 279.6 17.1 279.6 16.5 279.5 15.9 279.2 15.3 279 14.8 278.6 14.4 278.1 14.1 277.6 13.8 277 13.6 276.3 13.6 275.6 13.6 275 13.8 274.5 14.1 274 14.4 273.7 14.8 273.4 15.3 273.1 15.9 273 16.5 273 17.1 273 17.8 273.1 18.4 273.4 18.9 273.6 19.4 274 19.8 274.5 20.2 275 20.5 275.6 20.6 276.3 20.6ZM286.2 21.8V9H287.9V21.8H286.2ZM284.9 10.3V9H287.9V10.3H284.9ZM297.4 22.1C296.6 22.1 295.9 22 295.3 21.7 294.7 21.4 294.2 21 293.8 20.6 293.5 20.1 293.2 19.6 293 19 292.8 18.5 292.7 17.9 292.7 17.3V17C292.7 16.4 292.8 15.8 293 15.2 293.2 14.6 293.5 14.1 293.8 13.6 294.2 13.2 294.7 12.8 295.2 12.5 295.8 12.3 296.5 12.1 297.3 12.1 298.3 12.1 299.1 12.3 299.8 12.8 300.5 13.2 301 13.8 301.3 14.5 301.6 15.2 301.8 15.9 301.8 16.7V17.4H293.5V16.2H300.5L300.2 16.9C300.2 16.2 300 15.6 299.8 15.1 299.6 14.6 299.3 14.3 298.9 14 298.5 13.7 297.9 13.6 297.3 13.6 296.6 13.6 296.1 13.7 295.6 14.1 295.2 14.4 294.9 14.8 294.6 15.3 294.4 15.8 294.3 16.4 294.3 17.1 294.3 17.8 294.4 18.4 294.6 18.9 294.9 19.4 295.2 19.9 295.7 20.2 296.1 20.5 296.7 20.6 297.4 20.6 298.1 20.6 298.7 20.5 299.2 20.2 299.7 19.8 299.9 19.4 300 19H301.6C301.5 19.7 301.2 20.2 300.8 20.7 300.5 21.1 300 21.5 299.4 21.7 298.8 22 298.1 22.1 297.4 22.1Z" />
  <g clip-path="url(#b)">
    <path fill="#fff" fill-rule="evenodd"
      d="M60.2087 55.5508H65.1224C65.5563 55.5508 65.9057 55.1698 65.8523 54.7257C65.8076 54.3532 65.4781 54.08 65.1029 54.08H58.9943C58.5899 54.08 58.259 54.4109 58.259 54.8155V62.1691C58.259 62.5737 58.5899 62.9045 58.9943 62.9045H65.1224C65.5563 62.9045 65.9057 62.5234 65.8523 62.0794C65.8076 61.707 65.4781 61.4338 65.1029 61.4338H60.2087C59.9441 61.4338 59.7296 61.2193 59.7296 60.9547V59.7065C59.7296 59.4421 59.9441 59.2276 60.2087 59.2276H63.8968C64.3307 59.2276 64.68 58.8466 64.6267 58.4027C64.5819 58.03 64.2525 57.7568 63.8774 57.7568H60.2087C59.9441 57.7568 59.7296 57.5425 59.7296 57.2779V56.0297C59.7296 55.7652 59.9441 55.5508 60.2087 55.5508ZM51.7534 55.5508C52.5746 55.5508 53.2609 55.845 53.8247 56.4209C53.9595 56.5558 54.1434 56.6294 54.3517 56.6294C54.7561 56.6294 55.0871 56.2984 55.0871 55.8939C55.0871 55.6856 54.9891 55.4895 54.7806 55.3057C53.9104 54.4845 52.8932 54.08 51.7534 54.08C50.54 54.08 49.4982 54.5091 48.628 55.3793C47.7702 56.2371 47.3412 57.2789 47.3412 58.4923C47.3412 59.7056 47.7702 60.7474 48.628 61.6176C49.4982 62.4755 50.54 62.9045 51.7534 62.9045C52.9668 62.9045 54.0085 62.4755 54.8665 61.6176C55.1606 61.3234 55.1606 60.8577 54.8665 60.5758C54.5845 60.2817 54.1189 60.2817 53.8247 60.5758C53.2487 61.1519 52.5624 61.4338 51.7534 61.4338C50.9445 61.4338 50.2459 61.1519 49.6698 60.5758C49.0937 59.9998 48.812 59.3012 48.812 58.4923C48.812 57.6834 49.0937 56.997 49.6698 56.4209C50.2459 55.845 50.9445 55.5508 51.7534 55.5508ZM75.7167 61.4338H70.8234C70.5584 61.4338 70.3436 61.2189 70.3436 60.954V54.8347C70.3436 54.4595 70.0703 54.13 69.6977 54.0854C69.2537 54.0322 68.8728 54.3815 68.8728 54.8155V62.1691C68.8728 62.5737 69.2037 62.9045 69.6082 62.9045H75.7362C76.1703 62.9045 76.5196 62.5234 76.4663 62.0794C76.4214 61.707 76.092 61.4338 75.7167 61.4338ZM106.66 54.08H99.3261C98.892 54.08 98.5428 54.4611 98.5961 54.9051C98.6409 55.2776 98.9703 55.5508 99.3454 55.5508H101.789C102.053 55.5508 102.268 55.7652 102.268 56.0298V62.1691C102.268 62.6032 102.649 62.9525 103.093 62.8992C103.465 62.8543 103.738 62.5248 103.738 62.1496V56.0298C103.738 55.7652 103.953 55.5508 104.217 55.5508H106.68C107.114 55.5508 107.463 55.1698 107.41 54.7257C107.365 54.3532 107.036 54.08 106.66 54.08ZM110.546 54.08C110.142 54.08 109.811 54.4109 109.811 54.8155V62.1691C109.811 62.5737 110.142 62.9045 110.546 62.9045C110.951 62.9045 111.282 62.5737 111.282 62.1691V54.8155C111.282 54.4109 110.951 54.08 110.546 54.08ZM95.8323 58.4065C95.1581 57.9775 94.2513 57.7568 93.1114 57.7568C91.604 57.7568 90.8441 57.3892 90.8441 56.6537C90.8441 55.9184 91.604 55.5508 93.1114 55.5508C93.9448 55.5508 94.7415 55.7101 95.5014 56.0165C95.9426 56.1514 96.2491 55.992 96.4206 55.5631C96.5676 55.1831 96.3716 54.8155 95.9672 54.6316C95.1215 54.2639 94.1777 54.08 93.1114 54.08C91.996 54.08 91.1015 54.313 90.4028 54.7664C89.7165 55.2199 89.3733 55.8572 89.3733 56.6537C89.3733 57.4996 89.7165 58.1491 90.3907 58.578C91.0647 59.007 91.9717 59.2276 93.1114 59.2276C94.619 59.2276 95.3789 59.5952 95.3789 60.3307C95.3789 61.066 94.619 61.4338 93.1114 61.4338H92.7438C91.984 61.4338 91.1873 61.2744 90.3659 60.9679C89.9862 60.8332 89.594 61.0047 89.4346 61.4093C89.2874 61.7893 89.5081 62.2304 89.888 62.3652C90.7338 62.7206 91.6775 62.9045 92.7438 62.9045H93.1114C94.2268 62.9045 95.1215 62.6716 95.8078 62.2181C96.5065 61.7646 96.8496 61.1273 96.8496 60.3307C96.8496 59.485 96.5065 58.8355 95.8323 58.4065ZM80.8097 55.5508H85.7246C86.1587 55.5508 86.508 55.1698 86.4546 54.7257C86.4099 54.3532 86.0805 54.08 85.7052 54.08H79.5966C79.192 54.08 78.8612 54.4109 78.8612 54.8155V62.1691C78.8612 62.5737 79.192 62.9045 79.5966 62.9045H85.7246C86.1587 62.9045 86.508 62.5234 86.4546 62.0794C86.4098 61.707 86.0805 61.4338 85.7052 61.4338H80.8097C80.5459 61.4338 80.3319 61.2198 80.3319 60.956V59.7055C80.3319 59.4415 80.5459 59.2276 80.8097 59.2276H84.4991C84.9331 59.2276 85.2822 58.8466 85.229 58.4027C85.1843 58.03 84.8548 57.7568 84.4796 57.7568H80.8097C80.5459 57.7568 80.3319 57.543 80.3319 57.2791V56.0286C80.3319 55.7646 80.5459 55.5508 80.8097 55.5508ZM39.3223 58.6425C39.3196 58.7308 39.1993 58.7542 39.1646 58.6728C39.1497 58.6377 39.1345 58.6024 39.119 58.5671C39.0906 58.5027 39.0986 58.4277 39.1409 58.3713C39.1496 58.3597 39.1674 58.3364 39.1887 58.3086C39.2459 58.2338 39.3283 58.245 39.3283 58.3279C39.3283 58.4368 39.3257 58.531 39.3223 58.6425ZM38.6895 56.9145C38.5921 57.09 38.3422 57.0981 38.2341 56.9288C38.2173 56.9027 38.2003 56.8765 38.1833 56.8503C37.7933 56.2515 37.3445 55.6637 36.8433 55.0925C36.7202 54.9522 36.8209 54.7321 37.0075 54.732H37.012C38.1833 54.732 38.7973 55.0213 38.9847 55.3746C39.1411 55.6701 39.0932 56.1869 38.6895 56.9145ZM38.4277 63.0398C38.3649 63.1996 38.2992 63.3585 38.2301 63.5158C38.2193 63.5374 38.2092 63.5593 38.198 63.5809C37.7669 64.4107 37.0435 65.0641 36.0768 65.5188C35.8599 65.6207 35.6226 65.4222 35.6873 65.1915C36.0082 64.0426 36.2512 62.7967 36.4086 61.4906C36.4379 61.247 36.5581 61.0234 36.7437 60.8629C37.1412 60.519 37.5125 60.1756 37.854 59.8346L37.8577 59.8307C38.0257 59.6631 38.3124 59.7352 38.3808 59.9626C38.7182 61.0842 38.7369 62.1288 38.4277 63.0398ZM35.8001 67.1876C35.7017 67.2927 35.6014 67.3965 35.4991 67.4988C35.3209 67.6768 35.1385 67.8489 34.9521 68.0152C34.8345 68.1199 34.6567 67.9889 34.7232 67.8461C34.7422 67.8053 34.7611 67.7643 34.7798 67.7229C34.8581 67.5502 34.9337 67.3731 35.0073 67.1926C35.0248 67.15 35.0614 67.1182 35.106 67.1068C35.2914 67.0598 35.4721 67.0078 35.6482 66.9511C35.7908 66.9052 35.9026 67.0781 35.8001 67.1876ZM33.8704 66.1505C33.4802 66.207 33.0698 66.2436 32.6405 66.2587C31.593 66.2954 30.4855 66.205 29.3478 65.9955C29.209 65.97 29.1824 65.7825 29.3081 65.7189C29.5563 65.5932 29.8046 65.4648 30.0528 65.3333C31.7937 64.4105 33.418 63.4019 34.8399 62.3678C34.9466 62.2902 35.0935 62.3818 35.0718 62.5119C34.8746 63.697 34.6016 64.8127 34.2587 65.8254C34.2002 65.9979 34.0507 66.1243 33.8704 66.1505ZM33.468 67.7294C32.5346 69.5652 31.3851 70.5958 30.2709 70.5751C29.0598 70.5535 27.8523 69.2924 26.958 67.1153L26.957 67.1128C26.9002 66.9746 26.9654 66.8165 27.1023 66.757C27.1118 66.7527 27.1213 66.7486 27.1308 66.7444C27.1895 66.7189 27.2554 66.7143 27.3172 66.7317C28.99 67.2012 30.6381 67.4461 32.1823 67.4461C32.3501 67.4461 32.5168 67.4433 32.682 67.4375C32.8755 67.4306 33.0658 67.4197 33.2529 67.4049C33.4263 67.3911 33.547 67.5743 33.468 67.7294ZM27.9408 71.2204C27.3859 71.2917 26.8227 71.3282 26.2541 71.3282C23.7128 71.3282 21.2821 70.608 19.1953 69.2642C19.0517 69.1716 19.1127 68.9488 19.2834 68.941C19.3187 68.9393 19.3518 68.9375 19.3809 68.9357C19.9113 68.9012 20.4927 68.8236 21.1228 68.7022C22.4631 68.4444 23.9529 68.0021 25.5129 67.4065C25.6527 67.3532 25.8089 67.4226 25.8658 67.561C25.8662 67.5619 25.8664 67.5627 25.8668 67.5634C26.4714 69.0353 27.2154 70.1475 28.0508 70.855C28.1889 70.9721 28.1203 71.1973 27.9408 71.2204ZM20.3802 62.0597C21.5322 61.1216 22.8821 60.1856 24.3629 59.2994C24.3947 61.1933 24.6023 63.0116 24.9699 64.654C24.4207 64.4198 23.8732 64.1618 23.3304 63.88C22.2791 63.3336 21.29 62.7216 20.3802 62.0597ZM16.7973 67.1344C16.5225 66.6158 16.8777 65.4147 18.6823 63.5891L18.6832 63.5882C18.8716 63.3978 18.8535 63.0854 18.6432 62.9197C18.5709 62.8629 18.4991 62.8054 18.4278 62.748C18.2481 62.6028 17.988 62.6161 17.8248 62.7795C17.789 62.8153 17.7624 62.8422 17.7545 62.8503C16.8525 63.7762 16.2211 64.6333 15.8674 65.4043C15.7672 65.6227 15.4644 65.6463 15.3318 65.4458C13.9318 63.3295 13.1799 60.8496 13.1799 58.2538C13.1799 57.3259 13.2763 56.4126 13.4638 55.5255C13.4921 55.3913 13.6815 55.3827 13.7212 55.514C13.9925 56.4095 14.434 57.3359 15.044 58.2726C15.8652 59.5337 16.9482 60.746 18.2315 61.8581C18.6696 62.2377 19.1322 62.6048 19.6147 62.959C20.5929 63.6768 21.6557 64.3391 22.7865 64.9266C23.2877 65.1871 23.7759 65.4357 24.2758 65.6608C24.5541 65.786 24.8709 65.7958 25.155 65.6843C25.3907 65.592 25.6281 65.4959 25.8669 65.3961C26.1267 65.2878 26.2675 65.0046 26.1987 64.7317C26.1901 64.6976 26.1833 64.6701 26.1795 64.654C25.7858 62.9972 25.567 61.1321 25.5412 59.1786L25.5404 59.179C25.5402 59.1558 25.5403 59.1322 25.5401 59.1088C25.5389 59.002 25.5395 58.8944 25.5376 58.7879C25.537 58.7539 25.538 58.6964 25.5384 58.6623C25.5386 58.6487 25.5384 58.6352 25.5384 58.6218C25.5385 58.6218 25.5388 58.6216 25.5389 58.6216C25.5395 58.4993 25.5404 58.3772 25.5426 58.2545C25.5486 57.9194 25.5607 57.5867 25.578 57.2568C25.5777 57.2569 25.5776 57.257 25.5774 57.2571C25.6988 54.8998 26.0985 52.6848 26.7344 50.8215C26.7933 50.6491 26.7013 50.4619 26.5289 50.4031C26.3609 50.3457 26.1929 50.2908 26.0253 50.2382C25.8557 50.185 25.6744 50.2766 25.6171 50.4449C24.9278 52.4684 24.5025 54.8691 24.389 57.4094C24.3745 57.7317 24.1992 58.025 23.9216 58.1895C22.417 59.0812 21.0352 60.0265 19.8415 60.9793C19.5928 61.1779 19.2376 61.1703 18.9971 60.9618C17.8007 59.9244 16.7937 58.7978 16.0325 57.6288C14.5367 55.3318 14.1812 53.1679 15.0319 51.5368C15.0342 51.533 15.0362 51.529 15.0384 51.5253C15.1469 51.3453 15.2597 51.1678 15.3771 50.9926C16.3546 49.6988 18.1739 48.949 20.5867 48.8643C20.7394 48.8589 20.8931 48.8562 21.0482 48.8562C22.5282 48.8562 24.1165 49.1004 25.7318 49.5665L25.7322 49.5661C25.7676 49.5764 25.803 49.587 25.8384 49.5974C25.8657 49.6055 25.893 49.613 25.9203 49.6212C25.9201 49.6214 25.9201 49.6214 25.9201 49.6215C26.2934 49.733 26.6679 49.8565 27.0427 49.9913C27.0429 49.9912 27.0429 49.9912 27.0429 49.9911C27.0516 49.9941 27.0603 49.9976 27.069 50.0007C27.1667 50.0359 27.2642 50.0721 27.3618 50.1089C27.3923 50.1204 27.4229 50.1321 27.4535 50.1439C27.4828 50.1552 27.5122 50.1661 27.5416 50.1775L27.5413 50.178C28.3302 50.4833 29.1184 50.8384 29.8968 51.243C31.4034 52.0257 32.7825 52.9433 33.9827 53.95C31.6923 54.4747 29.03 55.4869 26.3532 56.8517C26.2297 56.9147 26.1485 57.0388 26.1406 57.1773C26.1313 57.3432 26.119 57.6767 26.1101 57.9418C26.1046 58.1082 26.2806 58.2185 26.428 58.141L26.4296 58.1401C29.0798 56.7485 31.7248 55.7083 33.9963 55.1586C34.4208 55.056 34.6957 54.6482 34.6361 54.2155C34.5943 53.9132 34.5472 53.6157 34.4952 53.3234C34.4298 52.9563 34.2288 52.628 33.9322 52.4021C32.8683 51.5917 31.6959 50.8483 30.4407 50.1961C29.5949 49.7566 28.7367 49.3715 27.8766 49.0431C27.6927 48.9728 27.6138 48.7554 27.7098 48.5835C28.5959 46.9984 29.6498 46.1107 30.6765 46.1107C30.6871 46.1107 30.6977 46.1107 30.7084 46.1109C31.9194 46.1326 33.127 47.3936 34.0213 49.5707C34.4739 50.6728 34.8246 51.9437 35.0644 53.3248C35.0631 53.3237 35.0618 53.3227 35.0606 53.3215C35.1629 53.9109 35.2454 54.5201 35.3065 55.145C35.3013 55.1484 35.2956 55.1513 35.2904 55.1547C35.2975 55.162 35.3051 55.1693 35.3124 55.1767C35.4138 56.2253 35.4566 57.3173 35.4366 58.4315C35.4241 59.1363 35.3865 59.8314 35.3257 60.5114C33.7055 61.8208 31.7023 63.1239 29.5003 64.2908C28.7767 64.6744 28.0531 65.0314 27.3367 65.3601C27.3255 65.3652 27.3145 65.3702 27.3033 65.3753C27.2486 65.4003 27.1937 65.4257 27.139 65.4504C27.1385 65.4503 27.1381 65.4502 27.1377 65.4501C26.5441 65.7186 25.956 65.9671 25.3778 66.194C25.3779 66.1941 25.3779 66.1943 25.378 66.1945C25.3453 66.2073 25.3129 66.2196 25.2803 66.2323C25.2397 66.2482 25.1991 66.2638 25.1586 66.2795C25.0615 66.3166 24.9649 66.3533 24.8685 66.3893C24.8419 66.3992 24.8153 66.4096 24.7887 66.4193C24.6717 66.4628 24.5553 66.5049 24.4393 66.5465C24.4248 66.5516 24.4103 66.5571 24.3959 66.5623C24.3957 66.5621 24.3956 66.5621 24.3954 66.562C23.1562 67.0034 21.9757 67.3368 20.8999 67.5438C18.3003 68.0443 17.0762 67.6603 16.7973 67.1344ZM18.6645 47.6054C20.8647 46.0298 23.494 45.1796 26.2541 45.1796C26.9826 45.1796 27.7018 45.2392 28.4064 45.3555C28.5951 45.3867 28.6585 45.6275 28.508 45.7456C27.8251 46.2809 27.1907 47.073 26.6292 48.1002C26.4921 48.3509 26.2015 48.4734 25.9267 48.396C24.0665 47.8723 22.2363 47.6259 20.5453 47.6853C19.9215 47.7072 19.3308 47.7704 18.7759 47.8727C18.62 47.9014 18.5356 47.6976 18.6645 47.6054ZM36.6111 57.134C36.6073 56.9841 36.7996 56.9201 36.8865 57.0422C36.9933 57.192 37.0962 57.3427 37.1948 57.494C37.3258 57.6953 37.4477 57.8954 37.561 58.0942C37.6317 58.2182 37.6148 58.3737 37.5186 58.4791C37.3659 58.6468 37.2003 58.8201 37.0205 58.9998C36.9548 59.0653 36.8879 59.1309 36.8197 59.1967C36.7351 59.2785 36.5932 59.2162 36.5978 59.0985C36.6061 58.884 36.6123 58.6688 36.6161 58.4525C36.6241 58.0095 36.6222 57.5697 36.6111 57.134ZM35.2552 48.7715C35.3374 48.8494 35.4187 48.9286 35.4991 49.009C36.7589 50.2689 37.7294 51.741 38.3783 53.3443C38.4438 53.506 38.3065 53.6752 38.1348 53.6443C37.7594 53.5769 37.3368 53.5467 36.8691 53.5546C36.5449 53.5599 36.2631 53.3328 36.2062 53.0136C35.952 51.5882 35.5844 50.2716 35.1124 49.1224C35.0855 49.0569 35.0583 48.9922 35.0308 48.9281C34.9708 48.7882 35.1449 48.6666 35.2552 48.7715ZM40.2001 55.2893C39.6369 52.613 38.3124 50.154 36.3331 48.1747C33.6409 45.4825 30.0615 44 26.2541 44C22.4468 44 18.8673 45.4825 16.1751 48.1747C15.5203 48.8295 14.9379 49.537 14.4301 50.2872C14.2791 50.4882 14.1439 50.7005 14.0236 50.9226C12.7047 53.1144 12.0002 55.63 12.0002 58.2538C12.0002 62.0613 13.4829 65.6407 16.1751 68.3328C18.8673 71.025 22.4468 72.5078 26.2541 72.5078C30.0615 72.5078 33.6409 71.025 36.3331 68.3328C37.6037 67.0623 38.6045 65.594 39.3075 63.9975C39.3934 63.8206 39.4684 63.6395 39.5329 63.4547C40.1728 61.8195 40.5081 60.0625 40.5081 58.2538C40.5081 57.2583 40.4058 56.2788 40.208 55.3262C40.2053 55.3139 40.2028 55.3016 40.2001 55.2893ZM120.043 59.5952H117.347C117.093 59.5952 116.935 59.3208 117.062 59.1013L118.414 56.7669C118.541 56.5477 118.858 56.5482 118.984 56.7677L120.328 59.1022C120.454 59.3216 120.296 59.5952 120.043 59.5952ZM123.59 61.8137L119.337 54.4355C119.031 53.9575 118.369 53.9575 118.063 54.4355L113.81 61.8137C113.758 61.9062 113.733 61.9986 113.726 62.1056C113.699 62.5223 114.023 62.8947 114.44 62.9043C114.731 62.9111 114.958 62.7643 115.134 62.4511L115.791 61.3079C115.877 61.1583 116.036 61.066 116.209 61.066H121.179C121.351 61.066 121.511 61.1583 121.597 61.3079L122.254 62.4511C122.42 62.7478 122.644 62.8952 122.914 62.904C123.327 62.9177 123.676 62.5821 123.676 62.1691C123.676 62.0589 123.652 61.9485 123.59 61.8137Z"
      clip-rule="evenodd" />
  </g>
  <g fill="#fff" clip-path="url(#c)">
    <path
      d="M145.6 64.1 150.3 51.6H152.8L157.3 64.1H155.4L152.4 55.8C152.2 55.3 152.1 54.8 152 54.3 151.9 53.8 151.9 53.3 151.9 52.8H151.1C151.1 53.3 151.1 53.8 151 54.3 150.8 54.8 150.7 55.3 150.5 55.8L147.6 64.1H145.6ZM148.1 60.8 148.7 59.1H154.2L154.8 60.8H148.1ZM162.2 64.3C161.6 64.3 161 64.2 160.4 64.1 159.9 63.9 159.4 63.6 159 63.2 158.6 62.8 158.4 62.3 158.3 61.8L159.9 61.3C159.9 61.6 160.1 61.9 160.3 62.1 160.5 62.4 160.7 62.6 161 62.7 161.4 62.9 161.8 63 162.2 63 162.7 63 163.2 62.9 163.6 62.6 163.7 62.6 163.9 62.4 163.9 62.3 164 62.1 164.1 61.9 164.1 61.7 164.1 61.6 164 61.4 164 61.3 163.9 61.1 163.8 61 163.7 60.9 163.3 60.7 162.9 60.5 162.5 60.4L161.4 60.3C160.9 60.2 160.4 60 160 59.8 159.6 59.6 159.2 59.3 159 59 158.7 58.6 158.6 58.1 158.6 57.7 158.6 57.2 158.8 56.7 159.1 56.3 159.4 55.9 159.8 55.5 160.3 55.3 160.9 55.1 161.7 55 162.4 55 163.1 55.1 163.8 55.3 164.4 55.6 164.9 56 165.3 56.6 165.6 57.2L164.1 57.8C164 57.6 163.9 57.3 163.7 57.1 163.5 56.9 163.3 56.7 163 56.6 162.7 56.4 162.3 56.3 161.9 56.3 161.5 56.3 161 56.4 160.7 56.7 160.5 56.8 160.4 56.9 160.4 57 160.3 57.2 160.2 57.3 160.2 57.5 160.2 57.6 160.3 57.8 160.3 57.9 160.4 58 160.4 58.1 160.6 58.2 160.9 58.5 161.3 58.6 161.7 58.7L162.8 58.8C163.5 59 164.2 59.3 164.8 59.7 165.1 59.9 165.4 60.2 165.6 60.5 165.7 60.9 165.8 61.2 165.8 61.6 165.8 62.1 165.6 62.6 165.3 63.1 165 63.5 164.6 63.8 164.1 64 163.5 64.2 162.8 64.4 162.2 64.3ZM170.9 64.1C170.5 64.1 170.1 64 169.7 63.9 169.3 63.7 169.1 63.4 168.9 63.1 168.7 62.7 168.7 62.3 168.7 61.9V56.6H166.7V55.2H168.7V52.5H170.3V54.6C170.3 54.8 170.4 54.9 170.5 55.1 170.7 55.2 170.8 55.2 171 55.2H172.7V56.6H170.3V61.8C170.3 61.9 170.3 62 170.4 62.1 170.4 62.2 170.5 62.3 170.6 62.4 170.6 62.5 170.7 62.6 170.9 62.6 171 62.7 171.1 62.7 171.2 62.6H173.1V64.1H170.9ZM174.9 64.1V55.2H176.6C176.6 55.7 176.5 56.1 176.3 56.5 176.1 56.9 175.9 57.4 175.6 57.8H176.6C176.7 57 177.1 56.4 177.6 55.8 177.8 55.6 178.1 55.4 178.5 55.3 178.8 55.1 179.1 55.1 179.5 55.1 179.8 55.1 180 55.1 180.3 55.2V56.9C180 56.9 179.7 56.8 179.4 56.8 178.8 56.8 178.3 57 177.8 57.2 177.4 57.5 177.1 57.9 176.9 58.3 176.7 58.9 176.6 59.5 176.6 60.1V64.1H174.9ZM185.2 64.3C184.5 64.3 183.7 64.1 183.1 63.7 182.4 63.3 181.9 62.7 181.6 62.1 181.2 61.3 181 60.5 181 59.7 181 58.8 181.2 58 181.6 57.3 181.9 56.6 182.4 56 183.1 55.6 183.7 55.2 184.5 55 185.2 55 186 55 186.7 55.2 187.4 55.6 188 56 188.5 56.6 188.9 57.3 189.2 58 189.4 58.8 189.4 59.7 189.4 60.5 189.2 61.3 188.9 62.1 188.5 62.7 188 63.3 187.4 63.7 186.7 64.1 186 64.4 185.2 64.3ZM185.2 62.9C185.7 62.9 186.1 62.8 186.5 62.5 186.9 62.3 187.2 61.9 187.4 61.5 187.6 60.9 187.7 60.3 187.7 59.7 187.7 59.1 187.6 58.5 187.4 57.9 187.2 57.5 186.9 57.1 186.5 56.8 186.1 56.6 185.7 56.4 185.2 56.4 184.8 56.4 184.3 56.6 183.9 56.8 183.5 57.1 183.2 57.5 183.1 57.9 182.9 58.5 182.7 59.1 182.8 59.7 182.7 60.3 182.9 60.9 183.1 61.5 183.2 61.9 183.5 62.3 183.9 62.5 184.3 62.8 184.8 62.9 185.2 62.9ZM190.8 67.6V55.2H192.3C192.3 55.6 192.2 55.9 192 56.2 191.9 56.5 191.7 56.9 191.5 57.2H192.4C192.6 56.8 192.8 56.5 193 56.1 193.2 55.8 193.5 55.5 193.9 55.3 194.3 55.1 194.8 55 195.3 55 196 55 196.6 55.2 197.1 55.6 197.7 56 198.1 56.5 198.4 57.2 198.7 58 198.9 58.8 198.9 59.7 198.9 60.5 198.7 61.4 198.4 62.2 198.1 62.8 197.7 63.4 197.1 63.8 196.6 64.2 196 64.4 195.3 64.3 194.6 64.4 194 64.2 193.4 63.7 193 63.3 192.6 62.8 192.4 62.2H191.5C191.8 62.7 192 63.2 192.2 63.7 192.4 64.3 192.5 65 192.5 65.7V67.6L190.8 67.6ZM194.8 62.9C195.2 62.9 195.6 62.8 196 62.6 196.4 62.4 196.7 62 196.8 61.6 197.1 61 197.2 60.3 197.1 59.7 197.2 59 197.1 58.4 196.8 57.8 196.7 57.4 196.4 57 196 56.7 195.6 56.5 195.2 56.4 194.8 56.4 194.3 56.4 193.9 56.5 193.5 56.8 193.1 57.1 192.8 57.5 192.7 57.9 192.5 58.5 192.3 59.1 192.4 59.7 192.3 60.3 192.5 60.9 192.7 61.5 192.8 61.9 193.1 62.3 193.5 62.5 193.9 62.8 194.3 62.9 194.8 62.9L194.8 62.9ZM204.4 64.3C203.7 64.3 202.9 64.1 202.3 63.7 201.6 63.3 201.1 62.7 200.8 62.1 200.4 61.3 200.2 60.5 200.2 59.7 200.2 58.8 200.4 58 200.8 57.3 201.1 56.6 201.6 56 202.3 55.6 202.9 55.2 203.7 55 204.4 55 205.2 55 205.9 55.2 206.6 55.6 207.2 56 207.7 56.6 208.1 57.3 208.4 58 208.6 58.8 208.6 59.7 208.6 60.5 208.4 61.3 208.1 62.1 207.7 62.7 207.2 63.3 206.5 63.7 205.9 64.1 205.2 64.3 204.4 64.3ZM204.4 62.9C204.9 62.9 205.3 62.8 205.7 62.5 206.1 62.3 206.4 61.9 206.5 61.5 206.8 60.9 206.9 60.3 206.9 59.7 206.9 59.1 206.8 58.5 206.5 57.9 206.4 57.5 206.1 57.1 205.7 56.8 205.3 56.6 204.9 56.4 204.4 56.4 204 56.4 203.5 56.6 203.2 56.8 202.8 57.1 202.5 57.4 202.3 57.9 202.1 58.5 202 59.1 202 59.7 202 60.3 202.1 60.9 202.3 61.5 202.5 61.9 202.8 62.3 203.2 62.5 203.5 62.8 204 62.9 204.4 62.9ZM210 64.1V55.2H211.6C211.6 55.7 211.5 56.1 211.3 56.5 211.1 56.9 210.9 57.4 210.7 57.8H211.6C211.8 57 212.1 56.4 212.6 55.8 212.9 55.6 213.2 55.4 213.5 55.3 213.8 55.1 214.2 55.1 214.5 55.1 214.8 55.1 215.1 55.1 215.4 55.2V56.9C215 56.9 214.7 56.8 214.4 56.8 213.9 56.8 213.3 57 212.8 57.2 212.4 57.5 212.1 57.9 211.9 58.3 211.7 58.9 211.6 59.5 211.6 60.1V64.1H210ZM220.5 64.1C220.1 64.1 219.6 64 219.3 63.9 218.9 63.7 218.7 63.4 218.5 63.1 218.3 62.7 218.2 62.3 218.3 61.9V56.6H216.2V55.2H218.3V52.5H219.9V54.6C219.9 54.8 220 54.9 220.1 55.1 220.2 55.2 220.4 55.2 220.6 55.2H222.3V56.6H219.9V61.8C219.9 61.9 219.9 62 220 62.1 220 62.2 220.1 62.3 220.1 62.4 220.2 62.5 220.3 62.6 220.4 62.6 220.6 62.7 220.7 62.7 220.8 62.6H222.7V64.1H220.5ZM143.6 45H141.1 139.8V46.3 48.8H141.1V46.3H143.6V45ZM141.1 70.9V68.3H139.8V70.9 72.1H141.1 143.6V70.9H141.1ZM227.4 45H224.9V46.3H227.4V48.8H228.7V46.3 45H227.4ZM227.4 68.3V70.9H224.9V72.1H227.4 228.7V70.9 68.3H227.4Z" />
  </g>
  <g fill="#fff" clip-path="url(#d)">
    <path
      d="M282.1 54.6C282.1 54.6 282 54.5 282 54.5 281.5 54.5 281.1 54.5 280.6 54.5 280.5 54.5 280.5 54.6 280.5 54.6 280.5 54.8 280.5 54.9 280.5 55.1 280.1 54.7 279.8 54.6 279.5 54.5 278.6 54.3 277.8 54.5 277.1 55.1 276.3 55.9 276 56.9 276.3 58 276.5 59.2 277.7 60.2 279.1 60.1 279.6 60 280 59.9 280.4 59.5 280.4 59.5 280.4 59.4 280.5 59.4 280.5 59.8 280.5 60.1 280.5 60.4 280.3 60.9 280 61.3 279.4 61.3 278.8 61.4 278.3 61.2 278 60.7 277.9 60.5 277.9 60.5 277.7 60.5 277.4 60.5 277.1 60.5 276.8 60.5 276.7 60.5 276.6 60.5 276.4 60.5 276.4 60.6 276.4 60.7 276.5 60.8 276.7 61.6 277.2 62.2 278 62.4 278.7 62.7 279.5 62.7 280.2 62.5 281.1 62.2 281.7 61.6 281.9 60.7 282 60.4 282 60.1 282 59.8 282 58.1 282 56.4 282 54.8 282.1 54.7 282.1 54.7 282.1 54.6ZM279.2 58.7C278.3 58.7 277.8 58 277.8 57.3 277.8 56.4 278.4 55.8 279.2 55.8 280 55.8 280.6 56.4 280.6 57.3 280.6 58.1 280 58.7 279.2 58.7ZM300.4 55.1C299.4 54.2 297.9 54.2 297.1 55.1 297.1 55.1 297.1 55.1 297 55.1 297 54.9 297 54.8 297 54.7 297 54.6 297 54.5 296.9 54.5 296.5 54.5 296.1 54.5 295.7 54.5 295.4 54.5 295.5 54.5 295.5 54.8 295.5 57.3 295.5 59.8 295.5 62.3 295.5 62.3 295.5 62.3 295.5 62.4 295.5 62.5 295.5 62.5 295.7 62.5 296.1 62.5 296.5 62.5 296.9 62.5 297 62.5 297 62.5 297 62.4 297 61.5 297 60.7 297 59.9V59.6C297.3 59.8 297.5 60 297.8 60.1 298.8 60.5 299.8 60.2 300.5 59.5 301 59 301.2 58.4 301.3 57.8 301.4 56.8 301.2 55.8 300.4 55.1ZM299.7 57.9C299.5 58.5 299 58.9 298.4 58.9 297.6 58.9 297.1 58.4 296.9 57.7 296.9 57.4 296.9 57.1 297 56.8 297.2 56.2 297.7 55.8 298.4 55.8 299.1 55.8 299.6 56.3 299.7 57 299.8 57.3 299.8 57.6 299.7 57.9ZM283.2 47.4C283.8 46.7 284.5 46.5 285.3 46.7 286.2 46.9 286.7 47.4 286.9 48.3 286.9 48.6 287 48.8 287 49.1 287 50.1 287 51.2 287 52.2 287 52.2 287 52.2 287 52.3 287 52.4 286.9 52.4 286.8 52.4 286.8 52.4 286.8 52.4 286.8 52.4 286.4 52.4 286 52.4 285.6 52.4 285.4 52.4 285.4 52.4 285.4 52.2 285.4 52 285.4 51.7 285.4 51.5 285.4 50.8 285.4 50.1 285.4 49.4 285.4 49.2 285.4 49.1 285.4 48.9 285.2 48.2 284.6 47.9 283.9 48.1 283.6 48.3 283.5 48.5 283.3 48.7 283.2 49 283.2 49.4 283.2 49.7 283.2 50.5 283.2 51.3 283.2 52.1 283.2 52.1 283.2 52.2 283.2 52.2 283.2 52.4 283.2 52.4 283 52.4 282.6 52.4 282.2 52.4 281.8 52.4 281.8 52.4 281.8 52.4 281.8 52.4 281.6 52.4 281.6 52.4 281.6 52.2 281.6 52.2 281.6 52.2 281.6 52.1 281.6 49.5 281.6 46.8 281.6 44.2 281.6 44.2 281.6 44.1 281.6 44.1 281.6 43.9 281.7 43.9 281.8 43.9 282.2 43.9 282.6 43.9 283 43.9 283.2 43.9 283.2 43.9 283.2 44.1 283.2 45.1 283.2 46.1 283.2 47.1 283.2 47.2 283.2 47.2 283.2 47.4ZM304.3 55.1C305 54.4 305.8 54.2 306.7 54.5 307.5 54.8 307.8 55.4 308 56.2 308 56.4 308.1 56.7 308.1 56.9 308.1 57.9 308.1 58.9 308.1 59.9 308.1 60 308.1 60 308.1 60.1 308.1 60.1 308 60.2 308 60.2 307.5 60.2 307.1 60.2 306.6 60.2 306.5 60.2 306.5 60.2 306.5 60.1 306.5 60 306.5 60 306.5 59.9 306.5 59 306.5 58.1 306.5 57.2 306.5 57 306.5 56.8 306.4 56.6 306.4 56.3 306.2 56 305.8 55.9 305.4 55.7 305 55.8 304.7 56.1 304.4 56.4 304.3 56.8 304.3 57.2 304.3 57.3 304.3 57.5 304.3 57.7 304.3 58.4 304.3 59.2 304.3 60 304.3 60.2 304.3 60.2 304.1 60.2 303.7 60.2 303.3 60.2 302.9 60.2 302.7 60.2 302.7 60.2 302.7 60 302.7 60 302.7 59.9 302.7 59.9 302.7 57.2 302.7 54.6 302.7 52 302.7 51.6 302.7 51.7 303 51.7 303.3 51.7 303.7 51.7 304 51.7 304.3 51.7 304.3 51.7 304.3 51.9 304.3 52.9 304.3 53.9 304.3 54.8 304.3 54.9 304.2 55 304.3 55.1ZM293.6 54.5C293.2 54.5 292.8 54.5 292.3 54.5 292.2 54.5 292.2 54.6 292.2 54.7 292.2 54.8 292.2 54.9 292.2 55.1 292.1 55.1 292.1 55 292.1 55 291.7 54.6 291.1 54.4 290.5 54.4 289.7 54.4 289.1 54.8 288.6 55.4 287.9 56.2 287.8 57.1 288 58.1 288.2 58.9 288.6 59.6 289.4 60 290.3 60.5 291.5 60.4 292.1 59.6 292.1 59.6 292.2 59.6 292.2 59.7 292.2 59.8 292.2 59.9 292.2 60 292.2 60.1 292.2 60.2 292.3 60.2 292.7 60.2 293.1 60.2 293.5 60.2 293.8 60.2 293.7 60.2 293.7 59.9 293.7 58.2 293.7 56.5 293.7 54.8 293.7 54.7 293.7 54.7 293.7 54.6 293.8 54.6 293.7 54.5 293.6 54.5ZM292.2 57.9C292.1 58.5 291.5 58.9 290.9 58.9 290.2 58.9 289.7 58.4 289.5 57.8 289.5 57.5 289.5 57.1 289.6 56.8 289.8 56.2 290.3 55.8 291 55.8 291.6 55.8 292.1 56.3 292.3 56.9 292.3 57 292.3 57.2 292.3 57.3 292.3 57.5 292.3 57.7 292.2 57.9ZM294.1 48.9C293.9 47.9 293.2 47.1 292.2 46.8 291.8 46.6 291.3 46.6 290.8 46.7 289.7 46.8 288.9 47.4 288.5 48.4 288.2 49 288.2 49.5 288.3 50.2 288.5 51.1 289 51.8 289.8 52.2 290.9 52.7 292 52.7 293.1 52 293.5 51.7 293.8 51.3 294 50.8 294.1 50.8 294.1 50.7 294.1 50.6 293.6 50.6 293.1 50.6 292.6 50.6 292.5 50.6 292.5 50.6 292.5 50.7 292.4 50.8 292.2 50.9 292.1 51 291.8 51.2 291.4 51.2 291.1 51.2 290.4 51.1 289.9 50.7 289.8 50 289.9 49.9 290 50 290.1 50 291.1 50 292.2 50 293.2 50 293.5 50 293.8 50 294 50 294.2 50 294.2 50 294.2 49.8 294.2 49.5 294.2 49.2 294.1 48.9ZM289.9 48.9C289.9 48.3 290.5 47.9 291.2 47.9 291.9 47.9 292.4 48.4 292.5 48.9H289.9ZM280.3 51C280.3 51.4 280.3 51.8 280.3 52.3 280.3 52.4 280.2 52.4 280.1 52.4 279.9 52.5 279.6 52.5 279.3 52.5 279 52.5 278.6 52.4 278.2 52.3 277.6 52 277.3 51.5 277.2 50.9 277.1 50.7 277.1 50.5 277.1 50.4 277.1 49.7 277.1 49 277.1 48.3 277.1 48.1 277.1 48.1 276.9 48.1 276.7 48.1 276.4 48.1 276.1 48.1 276 48.1 276 48.1 276 48 276 47.6 276 47.2 276 46.9 276 46.8 276 46.8 276.1 46.8 276.4 46.8 276.7 46.7 277 46.8 277.1 46.8 277.1 46.7 277.1 46.6 277.1 46.2 277.1 45.8 277.1 45.4 277.1 45.2 277.1 45.2 277.3 45.2 277.7 45.2 278.1 45.2 278.5 45.2 278.6 45.2 278.7 45.2 278.7 45.3 278.7 45.7 278.7 46.1 278.7 46.5 278.7 46.8 278.7 46.8 278.9 46.8 279.3 46.8 279.7 46.8 280.1 46.8 280.2 46.8 280.3 46.8 280.3 46.9 280.3 47.3 280.3 47.6 280.3 48 280.3 48.1 280.2 48.1 280.1 48.1 279.7 48.1 279.3 48.1 278.9 48.1 278.7 48.1 278.7 48.1 278.7 48.3 278.7 48.9 278.7 49.5 278.7 50.1 278.7 50.2 278.7 50.4 278.7 50.5 278.8 50.8 279 51 279.3 51.1 279.6 51.1 279.9 51.1 280.1 51 280.2 51 280.2 51 280.3 51ZM285.3 55.3C285.4 55.3 285.4 55.2 285.5 55.1 285.8 54.6 286.4 54.4 287.1 54.5 287.2 54.5 287.3 54.5 287.3 54.6 287.3 55.1 287.3 55.6 287.3 56.1 287.1 56.1 287 56 286.9 56 286.1 55.8 285.5 56.3 285.4 57.1 285.3 57.2 285.3 57.4 285.3 57.5 285.3 58.3 285.3 59.1 285.3 59.9 285.3 59.9 285.3 60 285.3 60 285.3 60.1 285.3 60.2 285.2 60.2 284.8 60.2 284.3 60.2 283.9 60.2 283.8 60.2 283.8 60.2 283.8 60 283.8 58.2 283.8 56.5 283.8 54.7 283.8 54.6 283.8 54.5 283.9 54.5 284.3 54.5 284.8 54.5 285.2 54.5 285.3 54.5 285.3 54.6 285.3 54.7 285.3 54.9 285.3 55.1 285.3 55.3ZM256.9 64.5C255.3 64.5 253.8 64.2 252.4 63.6 251 63 249.7 62.2 248.6 61.1 247.6 60.1 246.7 58.8 246.1 57.4 245.5 56 245.2 54.5 245.2 52.9 245.2 51.3 245.5 49.8 246.1 48.4 246.7 47 247.6 45.7 248.6 44.7 249.7 43.6 251 42.8 252.4 42.2 253.8 41.6 255.3 41.3 256.9 41.3 258.5 41.3 260 41.6 261.4 42.2 262.8 42.8 264.1 43.6 265.2 44.7 266.2 45.7 267.1 47 267.7 48.4 268.3 49.8 268.6 51.3 268.6 52.9 268.6 54.5 268.3 56 267.7 57.4 267.1 58.8 266.2 60.1 265.2 61.1 264.1 62.2 262.8 63 261.4 63.6 260 64.2 258.5 64.5 256.9 64.5ZM256.9 45C252.5 45 249 48.5 249 52.9 249 57.2 252.5 60.8 256.9 60.8 261.3 60.8 264.8 57.2 264.8 52.9 264.8 48.5 261.3 45 256.9 45ZM270.5 45C271.5 45 272.4 44.1 272.4 43.1 272.4 42.1 271.5 41.3 270.5 41.3 269.5 41.3 268.7 42.1 268.7 43.1 268.7 44.1 269.5 45 270.5 45ZM258.8 76.2C258.3 76.2 257.9 76 257.5 75.6 256.8 74.9 256.8 73.7 257.5 72.9L265.4 65.1C266.1 64.4 267.3 64.4 268 65.1 268.8 65.8 268.8 67 268 67.8L260.2 75.6C259.8 76 259.3 76.2 258.8 76.2Z" />
  </g>
  <g fill="#fff" clip-path="url(#e)">
    <path
      d="M40.5203 222.674C40.3103 222.674 40.1843 222.507 40.1843 222.339V205.626C40.1423 204.914 40.2263 202.316 42.2424 200.222C42.8724 199.552 44.6366 198.044 47.3247 198.002C49.9289 197.96 51.735 199.342 52.3651 199.929C53.0371 200.557 54.5912 202.275 54.6752 204.997C54.7592 207.762 53.2051 209.563 52.5751 210.233C50.7269 212.118 48.4588 212.328 47.5768 212.37C47.4087 212.37 47.2407 212.202 47.2407 212.035C47.2407 211.825 47.3667 211.7 47.5768 211.7C48.3748 211.7 50.4329 211.448 52.113 209.773C52.5751 209.312 54.0871 207.594 54.0452 205.039C54.0032 202.526 52.4491 200.892 51.945 200.473C51.483 200.054 49.8869 198.756 47.4927 198.756C47.4507 198.756 47.4087 198.756 47.3667 198.756C44.9306 198.798 43.3345 200.18 42.7464 200.767C40.8983 202.61 40.8563 204.955 40.8563 205.626V222.339C40.8563 222.549 40.7303 222.674 40.5203 222.674Z" />
    <path
      d="M47.4 207.7C46 207.7 44.9 206.6 44.9 205.2 44.9 203.9 46 202.8 47.4 202.8 48.7 202.8 49.8 203.9 49.8 205.2 49.8 206.6 48.7 207.7 47.4 207.7ZM47.4 203.4C46.4 203.4 45.6 204.2 45.6 205.2 45.6 206.2 46.4 207 47.4 207 48.3 207 49.1 206.2 49.1 205.2 49.1 204.2 48.3 203.4 47.4 203.4ZM42.8 216.8C42.6 216.8 42.5 216.6 42.5 216.5V205.6C42.5 205.4 42.6 205.3 42.8 205.3 43 205.3 43.1 205.5 43.1 205.6V216.5C43.1 216.6 43 216.8 42.8 216.8ZM45.2 220.2C45 220.2 44.9 220 44.9 219.9V214.1C44.9 213.9 45.1 213.8 45.2 213.8 45.4 213.8 45.6 213.9 45.6 214.1V219.9C45.6 220 45.4 220.2 45.2 220.2ZM38.3 217.5C38.1 217.5 38 217.3 38 217.1V209.8C38 209.6 38.2 209.4 38.3 209.4 38.5 209.4 38.7 209.6 38.7 209.8V217.1C38.7 217.4 38.5 217.5 38.3 217.5Z" />
    <path
      d="M47.4 210.1C44.6 210.1 42.5 207.9 42.5 205.2 42.5 202.5 44.6 200.3 47.4 200.3 50.1 200.3 52.3 202.5 52.3 205.2 52.3 207.9 50.1 210.1 47.4 210.1ZM47.4 201C45 201 43.1 202.9 43.1 205.2 43.1 207.6 45 209.4 47.4 209.4 49.7 209.4 51.6 207.6 51.6 205.2 51.6 202.9 49.7 201 47.4 201ZM82.6 204.7H81.2C81.1 204.7 81.1 204.8 81 204.8L78.4 208.1C78.3 208.3 78.2 208.6 78 208.7 77.9 208.6 77.8 208.3 77.6 208.1L75 204.8C75 204.8 74.9 204.7 74.8 204.7H73.5C73.4 204.7 73.3 204.8 73.3 204.9 73.2 205 73.2 205 73.3 205.1L77.2 210.2V214.8C77.2 214.9 77.3 215 77.4 215H78.7C78.8 215 78.9 214.9 78.9 214.8V210.1L82.8 205C82.8 205 82.8 204.9 82.8 204.8 82.8 204.8 82.7 204.7 82.6 204.7ZM93.9 204.7H85.4C85.3 204.7 85.2 204.8 85.2 205V206C85.2 206.1 85.3 206.2 85.4 206.2H88.9V214.8C88.9 214.9 88.9 215 89.1 215H90.3C90.4 215 90.5 214.9 90.5 214.8V206.3H93.9C94.1 206.3 94.2 206.2 94.2 206V205C94.2 204.9 94.1 204.7 93.9 204.7ZM66.3 204.7H62.2C62.1 204.7 62 204.8 62 205V214.8C62 214.9 62.1 215 62.2 215H63.5C63.6 215 63.7 214.9 63.7 214.8V213.1 212.5 211 210.8 206.2H66.4C67.9 206.2 69 207.2 69 208.6 69 210 67.9 211 66.4 211H65.9C65.9 211 65.8 211 65.8 211.1 65.7 211.2 65.7 211.2 65.7 211.2 65.7 211.6 65.7 212 65.7 212.3 65.7 212.3 65.7 212.4 65.8 212.5 65.8 212.5 65.9 212.5 65.9 212.5 66 212.5 66.1 212.5 66.2 212.5 66.4 212.5 68.5 212.6 69.8 211 70.6 210 70.6 208.9 70.6 208.6 70.7 206.3 68.9 204.7 66.3 204.7ZM99.2 208.8V205C99.2 204.8 99.1 204.7 98.9 204.7H97.7C97.6 204.7 97.5 204.8 97.5 205V214.8C97.5 214.9 97.6 215 97.7 215H98.9C99.1 215 99.2 214.9 99.2 214.8V210.3M105.9 204.7H104.7C104.5 204.7 104.4 204.8 104.4 205V208.8H101.1C101 208.8 101 208.9 101 209V210.1C101 210.2 101 210.3 101.1 210.3H104.4V214.8C104.4 214.9 104.5 215 104.7 215H105.9C106 215 106.1 214.9 106.1 214.8V205C106.1 204.9 106 204.7 105.9 204.7Z" />
  </g>
  <g fill="#fff" fill-rule="evenodd" clip-path="url(#f)" clip-rule="evenodd">
    <path
      d="M221.753 195.22L230.577 203.97C230.797 204.188 230.797 204.542 230.577 204.76C230.467 204.869 230.323 204.923 230.179 204.923V204.923H221.352C221.041 204.923 220.789 204.673 220.789 204.365V195.611C220.789 195.303 221.041 195.053 221.352 195.053C221.509 195.053 221.651 195.117 221.753 195.22ZM228.82 203.807L221.915 196.958V203.807H228.82Z" />
    <path
      d="M238.605 213.51L229.781 204.759C229.561 204.542 229.561 204.188 229.781 203.97C229.891 203.861 230.035 203.807 230.179 203.807V203.807H239.006C239.317 203.807 239.569 204.057 239.569 204.365V213.119C239.569 213.427 239.317 213.677 239.006 213.677C238.849 213.677 238.707 213.613 238.605 213.51ZM231.538 204.923L238.443 211.772V204.923H231.538Z" />
    <path
      d="M221.915 211.772L228.82 204.923H221.915V211.772ZM230.577 204.759L221.753 213.51C221.651 213.613 221.509 213.677 221.352 213.677C221.041 213.677 220.789 213.427 220.789 213.119V204.365C220.789 204.057 221.041 203.807 221.352 203.807H230.179V203.807C230.323 203.807 230.467 203.861 230.577 203.97C230.797 204.188 230.797 204.542 230.577 204.759Z" />
    <path
      d="M229.616 205.712L222.711 212.561H229.616V205.712ZM220.954 212.724L229.777 203.974C229.879 203.871 230.022 203.807 230.179 203.807C230.49 203.807 230.742 204.057 230.742 204.365V213.119C230.742 213.427 230.49 213.677 230.179 213.677H221.352V213.677C221.208 213.677 221.064 213.623 220.954 213.514C220.734 213.296 220.734 212.942 220.954 212.724Z" />
    <path
      d="M238.443 196.958L231.538 203.807H238.443V196.958ZM229.781 203.97L238.605 195.22C238.707 195.117 238.849 195.053 239.006 195.053C239.317 195.053 239.569 195.303 239.569 195.611V204.365C239.569 204.673 239.317 204.923 239.006 204.923H230.179V204.923C230.035 204.923 229.891 204.869 229.781 204.76C229.561 204.542 229.561 204.188 229.781 203.97Z" />
    <path
      d="M230.7 203 237.6 196.2H230.7V203ZM239.4 196 230.6 204.8C230.5 204.9 230.3 204.9 230.2 204.9 229.9 204.9 229.6 204.7 229.6 204.4V195.6C229.6 195.3 229.9 195.1 230.2 195.1H239V195.1C239.2 195.1 239.3 195.1 239.4 195.2 239.6 195.4 239.6 195.8 239.4 196ZM244.9 216.5C243.6 216.5 242.5 217.1 241.8 218H241.8V216.8H239.6V226.1H241.8V221.4C241.8 219.8 242.9 218.7 244.3 218.7 245.7 218.7 246.6 219.6 246.6 221.1V226.1H248.7V220.8C248.7 218.1 247.2 216.5 244.9 216.5ZM255.2 216.5C252.3 216.5 250.3 218.7 250.3 221.5 250.3 224.1 252.1 226.4 255.2 226.4 257.4 226.4 259.2 225.2 259.8 223.2H257.6C257.2 224 256.3 224.4 255.2 224.4 253.7 224.4 252.7 223.4 252.6 222.2H260C260.3 219 258.3 216.5 255.2 216.5ZM255.1 218.5C256.5 218.5 257.5 219.3 257.7 220.5H252.6C252.9 219.3 253.8 218.5 255.1 218.5ZM266.3 226.4C269.3 226.4 271.3 224.2 271.3 221.5 271.3 218.7 269.3 216.5 266.3 216.5 263.2 216.5 261.2 218.7 261.2 221.5 261.2 224.2 263.2 226.4 266.3 226.4ZM266.3 224.3C264.6 224.3 263.4 223.1 263.4 221.5 263.4 219.9 264.5 218.6 266.3 218.6 268 218.6 269.1 219.9 269.1 221.5 269.1 223 268 224.3 266.3 224.3ZM278.2 216.5C277 216.5 275.9 217.1 275.2 218H275.1V216.8H273V226.1H275.2V221.4C275.2 219.8 276.2 218.7 277.7 218.7 279 218.7 279.9 219.6 279.9 221.1V226.1H282.1V220.8C282.1 218.1 280.6 216.5 278.2 216.5Z" />
  </g>
  <g fill="#fff" clip-path="url(#g)">
    <path
      d="M15 124V144.3H33.8V142H17.3V126.3H33.8V124H15ZM47.4 133.1 50.5 128.1H53.2L49.4 134V134.3L53.4 140.2H50.7L47.4 135.3V133.1ZM60.9 135.3H63.9L62.5 129.2H62.2L60.9 135.3ZM64.4 137.5H60.4L59.8 140.2H57.4L60.3 128.1H64.5L67.4 140.2H65L64.4 137.5ZM73.3 128.1H75.6V138H81V140.2H73.3V128.1Z" />
    <path
      d="M35.7 131.8C35.7 131.3 35.5 130.9 35.1 130.6 34.8 130.2 34.2 130 33.6 130 33 130 32.5 130.1 32.2 130.4 31.9 130.6 31.7 130.9 31.7 131.3 31.7 131.5 31.8 131.7 31.8 131.9 31.9 132.1 32.1 132.2 32.2 132.3 32.4 132.5 32.7 132.6 33 132.7 33.4 132.8 33.8 132.9 34.3 133 35.5 133.2 36.5 133.6 37.2 134.2 37.8 134.7 38.1 135.5 38.1 136.6V136.8C38.1 137.3 38 137.8 37.8 138.3 37.6 138.7 37.4 139.1 37 139.5 36.6 139.8 36.2 140 35.6 140.2 35.1 140.4 34.5 140.5 33.8 140.5 33 140.5 32.3 140.4 31.7 140.1 31.1 139.9 30.6 139.6 30.2 139.2 29.8 138.8 29.5 138.3 29.3 137.8 29.1 137.3 29 136.7 29 136.1V135.9H31.3C31.3 136.7 31.5 137.2 31.9 137.7 32.3 138.1 32.9 138.3 33.8 138.3 34.5 138.3 35 138.2 35.4 137.9 35.7 137.6 35.9 137.2 35.9 136.8 35.9 136.6 35.8 136.4 35.7 136.3 35.7 136.1 35.6 135.9 35.4 135.8 35.2 135.6 35 135.5 34.7 135.4 34.4 135.3 34 135.2 33.5 135.1 32.9 135 32.4 134.8 31.9 134.7 31.4 134.5 31 134.3 30.6 134 30.2 133.7 29.9 133.4 29.7 133 29.5 132.6 29.4 132.1 29.4 131.5V131.3C29.4 130.9 29.5 130.4 29.7 130 29.9 129.6 30.2 129.2 30.5 128.9 30.9 128.6 31.3 128.3 31.8 128.1 32.4 128 32.9 127.9 33.5 127.9 34.3 127.9 34.9 128 35.4 128.2 36 128.4 36.4 128.7 36.8 129 37.2 129.4 37.4 129.8 37.6 130.2 37.9 130.7 37.9 131.8 37.9 131.8L35.7 131.8ZM86.3 128.1V140.2H94.1V138H88.6V130.3H94.1V128.1H86.3ZM45.8 128.1H43.5V140.2H45.8V128.1Z" />
    <path d="M92.3348 133.07H90.1748V135.254H92.3348V133.07Z" />
  </g>
  <g fill="#fff" clip-path="url(#h)">
    <path fill-rule="evenodd"
      d="M126.745 133.949C129.789 133.949 132.258 131.484 132.258 128.446C132.258 125.465 129.789 123 126.745 123C123.702 123 121.29 125.465 121.233 128.446C121.233 125.465 118.764 123 115.72 123C112.734 123 110.265 125.465 110.265 128.503C110.265 131.541 112.734 133.949 115.72 134.006C112.677 134.006 110.265 136.471 110.265 139.51C110.265 142.548 112.734 145.013 115.778 145.013C118.821 145.013 121.29 142.548 121.29 139.51C121.29 136.471 118.821 134.064 115.835 134.006C118.821 134.006 121.29 131.541 121.29 128.561C121.29 131.541 123.702 133.949 126.745 133.949Z"
      clip-rule="evenodd" />
    <path
      d="M126.7 145C129.8 145 132.3 142.5 132.3 139.5 132.3 136.4 129.8 133.9 126.7 133.9 123.7 133.9 121.2 136.4 121.2 139.5 121.2 142.5 123.7 145 126.7 145ZM153.9 125.5H151.6V139.6H153.9V125.5Z" />
    <path fill-rule="evenodd"
      d="M143.3 132.7C143.9 132.2 144.5 131.9 145.2 131.9 145.9 131.9 146.3 132.1 146.7 132.4 147.1 132.7 147.4 133.1 147.5 133.7L149.5 132.9C149.3 132.1 148.8 131.3 148 130.7 147.2 130.1 146.3 129.8 145.1 129.8 143.7 129.8 142.6 130.3 141.6 131.3 140.7 132.2 140.2 133.4 140.2 134.9 140.2 136.3 140.7 137.5 141.6 138.5 142.6 139.5 143.7 139.9 145.1 139.9 146.3 139.9 147.2 139.6 148 139 148.7 138.4 149.3 137.7 149.5 136.8L147.6 136.1C147.5 136.5 147.2 136.9 146.8 137.3 146.4 137.6 145.9 137.8 145.2 137.8 144.4 137.8 143.8 137.5 143.3 137 142.8 136.5 142.5 135.7 142.5 134.8 142.6 133.9 142.8 133.2 143.3 132.7ZM159.1 137C159.6 137.6 160.3 137.8 161 137.8 161.8 137.8 162.4 137.6 162.9 137 163.4 136.5 163.7 135.8 163.7 134.8 163.7 133.9 163.4 133.1 162.9 132.6 162.4 132.1 161.8 131.8 161 131.8 160.3 131.8 159.6 132.1 159.1 132.6 158.6 133.1 158.4 133.9 158.4 134.8 158.3 135.8 158.6 136.5 159.1 137ZM161 129.8C162.5 129.8 163.7 130.3 164.6 131.3 165.5 132.2 166 133.4 166 134.9 166 136.4 165.6 137.6 164.6 138.5 163.7 139.5 162.5 139.9 161.1 139.9 159.6 139.9 158.5 139.5 157.5 138.5 156.6 137.5 156.1 136.3 156.1 134.9 156.1 133.4 156.6 132.2 157.5 131.3 158.4 130.3 159.6 129.8 161 129.8ZM172.7 139.6 176.5 130.1H174.1L171.6 136.8 169.1 130.1H166.6L170.4 139.6H172.7ZM179.4 133.8H184.1C184.1 133.2 183.8 132.7 183.4 132.3 183 131.9 182.4 131.7 181.7 131.7 181 131.7 180.5 131.9 180 132.3 179.7 132.7 179.5 133.3 179.4 133.8ZM184.3 136.3 186.2 136.9C185.9 137.8 185.4 138.5 184.7 139.1 183.9 139.7 183 140 181.9 140 180.6 140 179.4 139.5 178.5 138.6 177.6 137.7 177.1 136.4 177.1 134.9 177.1 133.4 177.6 132.2 178.5 131.3 179.4 130.3 180.5 129.9 181.8 129.9 183.2 129.9 184.3 130.3 185.1 131.2 185.9 132.1 186.4 133.3 186.4 134.8 186.4 135.2 186.4 135.4 186.4 135.6H179.4C179.4 136.2 179.7 136.9 180.2 137.3 180.7 137.8 181.3 138 182 138 183.2 137.9 184 137.4 184.3 136.3ZM194.1 132.3V130.1C193.9 130 193.7 130 193.5 130 192.8 130 192.3 130.2 191.8 130.5 191.3 130.7 190.9 131.1 190.7 131.7V130.1H188.5V139.6H190.8V135.1C190.8 133.3 191.6 132.3 193.3 132.3 193.6 132.3 193.9 132.3 194.1 132.3Z"
      clip-rule="evenodd" />
  </g>
  <path fill="#fff"
    d="M264.1 133.7C264.1 134.7 263.9 135.7 263.6 136.6 263.2 137.5 262.6 138.3 261.9 139 260.5 140.4 258.6 141.2 256.6 141.2 254.6 141.2 252.7 140.4 251.3 139 250.5 138.3 250 137.5 249.6 136.6 249.2 135.7 249 134.7 249.1 133.7 249 132.7 249.2 131.7 249.6 130.8 250 129.8 250.6 129 251.3 128.3 252 127.6 252.8 127.1 253.7 126.7 255.6 125.9 257.6 125.9 259.5 126.7 260.4 127.1 261.2 127.6 261.9 128.3 262.6 129 263.2 129.8 263.6 130.8 263.9 131.7 264.1 132.7 264.1 133.7ZM256.6 139.6C257.3 139.6 258.1 139.5 258.8 139.2 259.5 138.9 260.1 138.4 260.7 137.9 261.2 137.3 261.6 136.7 261.9 136 262.2 135.2 262.4 134.5 262.4 133.7 262.4 132.9 262.2 132.1 261.9 131.4 261.6 130.7 261.2 130 260.7 129.5 259.8 128.6 258.8 128.1 257.7 127.8 256.6 127.6 255.4 127.7 254.4 128.2 253.7 128.5 253 128.9 252.5 129.5 252 130 251.5 130.7 251.2 131.4 250.9 132.1 250.8 132.9 250.8 133.7 250.8 134.5 250.9 135.2 251.2 136 251.8 137.4 253 138.6 254.4 139.2 255.1 139.5 255.8 139.6 256.6 139.6ZM266.8 140.8V126.5H269.8C270.5 126.4 271.3 126.5 272.1 126.6 272.5 126.7 273 126.9 273.3 127.2 273.8 127.5 274.1 128 274.4 128.5 274.6 129 274.7 129.6 274.7 130.3 274.8 130.9 274.6 131.6 274.2 132.2 273.8 132.7 273.3 133.1 272.6 133.2 273.4 133.3 274.1 133.8 274.6 134.4 275.1 135.1 275.4 135.9 275.3 136.8 275.4 137.3 275.2 137.9 275 138.4 274.8 138.9 274.6 139.4 274.2 139.8 273.8 140.2 273.3 140.5 272.7 140.6 272.1 140.8 271.2 140.9 269.8 140.9L266.8 140.8ZM268.5 127.9V132.8H269.8C271 132.8 271.8 132.6 272.3 132.2 272.8 131.9 273 131.3 273 130.4 273 129.5 272.8 128.9 272.4 128.5 271.9 128.1 271.1 127.9 269.8 127.9H268.5ZM268.5 134.1V139.4H269.8C270.4 139.4 271.1 139.3 271.7 139.2 272.1 139.2 272.4 139.1 272.7 138.9 273 138.7 273.2 138.4 273.3 138 273.5 137.6 273.6 137.2 273.6 136.8 273.6 136.3 273.5 135.8 273.3 135.4 273.1 135 272.8 134.7 272.4 134.5 272.2 134.4 271.9 134.3 271.6 134.2 271.2 134.1 270.7 134.1 270.3 134.1H268.5V134.1ZM292.3 133.7C292.3 134.7 292.2 135.7 291.8 136.6 291.4 137.5 290.9 138.3 290.2 139 288.7 140.4 286.8 141.2 284.8 141.2 282.8 141.2 280.9 140.4 279.5 139 278.4 138 277.7 136.6 277.4 135.1 277.1 133.7 277.3 132.1 277.8 130.8 278.2 129.8 278.8 129 279.5 128.3 280.2 127.6 281 127.1 281.9 126.7 283.8 125.9 285.8 125.9 287.7 126.7 288.6 127.1 289.4 127.6 290.2 128.3 290.9 129 291.4 129.8 291.8 130.8 292.2 131.7 292.3 132.7 292.3 133.7ZM284.8 139.6C285.6 139.6 286.3 139.5 287 139.2 287.7 138.9 288.4 138.4 288.9 137.9 289.4 137.3 289.9 136.7 290.2 136 290.4 135.2 290.6 134.5 290.6 133.7 290.6 132.9 290.4 132.1 290.1 131.4 289.7 130.3 289 129.4 288 128.7 287.1 128.1 285.9 127.7 284.8 127.7 284 127.7 283.3 127.9 282.6 128.2 281.9 128.5 281.2 128.9 280.7 129.5 280.2 130 279.7 130.7 279.5 131.4 279.2 132.1 279 132.9 279 133.7 279 134.5 279.2 135.2 279.4 136 279.7 136.7 280.2 137.3 280.7 137.9 281.3 138.4 281.9 138.9 282.6 139.2 283.3 139.5 284.1 139.6 284.8 139.6ZM295.1 140.8V126.5H296.7V139.2H302.1V140.8H295.1Z" />
  <path stroke="#fff" stroke-miterlimit="10" stroke-width="1.5"
    d="M241.623 133.102C241.623 141.297 235.121 143.906 227.099 138.936C219.076 133.965 212.757 132.564 212.98 135.803C213.202 139.042 219.718 136.433 227.51 129.97C235.301 123.507 241.623 124.913 241.623 133.102Z" />
  <g fill="#fff" clip-path="url(#i)">
    <path
      d="M56.4 170.2H54.7V176.5H52.3V170.2H51.1V168.1H52.3V167.3C52.3 165.3 53.6 164.2 55.6 164.2 55.9 164.2 56.2 164.3 56.5 164.3V166.7C56.2 166.6 55.9 166.6 55.7 166.6 55.5 166.6 55.4 166.6 55.3 166.6 55.2 166.7 55.1 166.7 55 166.8 54.9 166.9 54.8 167 54.8 167.1 54.7 167.2 54.7 167.4 54.7 167.5V168.1H56.4L56.4 170.2ZM60 176.5H57.6V164.4H60V176.5ZM65.4 167.6C66.3 167.6 67.1 167.9 67.9 168.4 68.6 168.9 69.2 169.6 69.6 170.4 69.9 171.3 70 172.2 69.8 173.1 69.7 173.9 69.2 174.8 68.6 175.4 68 176 67.1 176.5 66.3 176.6 65.4 176.8 64.4 176.7 63.6 176.4 62.8 176 62.1 175.4 61.6 174.7 61.1 173.9 60.8 173.1 60.8 172.2 60.8 171.6 60.9 171 61.1 170.4 61.4 169.9 61.7 169.4 62.1 168.9 62.5 168.5 63 168.2 63.6 167.9 64.2 167.7 64.8 167.6 65.4 167.6ZM65.4 174.4C66.6 174.4 67.5 173.4 67.5 172.2 67.5 171.9 67.4 171.6 67.3 171.3 67.2 171.1 67.1 170.8 66.9 170.6 66.7 170.4 66.5 170.2 66.2 170.1 65.9 170 65.6 170 65.4 170 64.8 170 64.2 170.2 63.8 170.6 63.4 171 63.2 171.6 63.2 172.2 63.2 172.7 63.4 173.3 63.8 173.7 64.2 174.1 64.8 174.4 65.4 174.4ZM72.4 167.8 74 173.6 75.5 169 75.1 167.8H77.5L79.5 173.6 81 167.8H83.5L80.9 176.5H78.4L76.7 171.7 75 176.5H72.5L69.9 167.8H72.4Z" />
    <path fill-rule="evenodd"
      d="M46.4571 170.211C46.4571 177.507 40.5345 183.422 33.2286 183.422C25.9226 183.422 20 177.507 20 170.211C20 162.915 25.9226 157 33.2286 157C40.5345 157 46.4571 162.915 46.4571 170.211ZM36.6997 166.279H40.9011V162.548H36.6997C35.3381 162.549 34.0328 163.09 33.07 164.052C32.1072 165.013 31.5658 166.317 31.5644 167.676V168.144H35.2975V167.676C35.2982 167.305 35.4462 166.95 35.7091 166.688C35.972 166.426 36.3282 166.279 36.6997 166.279ZM31.328 174.051C31.4821 173.82 31.5643 173.55 31.5643 173.273V171.872H35.2974V168.144H39.0331V171.875H35.2974V173.273C35.2974 174.287 34.9962 175.278 34.432 176.122C33.8677 176.965 33.0657 177.622 32.1273 178.011C31.1889 178.399 30.1564 178.5 29.1602 178.302C28.1641 178.105 27.2491 177.616 26.5309 176.899C25.8127 176.182 25.3236 175.268 25.1254 174.273C24.9273 173.278 25.029 172.247 25.4177 171.31C25.8063 170.373 26.4646 169.572 27.3091 169.008C28.1536 168.445 29.1464 168.144 30.1621 168.144H31.5643V171.872H30.1621C29.8848 171.872 29.6137 171.954 29.3831 172.108C29.1525 172.262 28.9727 172.481 28.8666 172.737C28.7605 172.993 28.7327 173.274 28.7868 173.546C28.8409 173.817 28.9745 174.067 29.1706 174.263C29.3667 174.459 29.6165 174.592 29.8885 174.646C30.1605 174.7 30.4425 174.672 30.6987 174.566C30.9549 174.46 31.1739 174.281 31.328 174.051Z"
      clip-rule="evenodd" />
    <path d="M31.5645 171.873H35.2976V168.145H31.5645V171.873Z" />
  </g>
  <g fill="#fff" clip-path="url(#j)">
    <path
      d="M130.8 169.68C130.8 172.911 133.203 175.411 136.555 175.411C139.908 175.411 142.326 172.911 142.326 169.68C142.326 166.448 139.908 163.948 136.555 163.948C133.203 163.948 130.8 166.448 130.8 169.68ZM132.989 169.68C132.989 167.652 134.474 166.098 136.555 166.098C138.653 166.098 140.122 167.652 140.122 169.68C140.122 171.707 138.653 173.262 136.555 173.262C134.474 173.262 132.989 171.707 132.989 169.68ZM151.349 175.243H153.569L149.925 164.116H147.675L144.002 175.243H146.175L146.696 173.658H150.829L151.349 175.243ZM147.385 171.555L148.762 167.332L150.14 171.555H147.385ZM161.549 167.363H163.738C163.738 165.335 162.039 163.948 159.743 163.948C157.401 163.948 155.778 165.427 155.778 167.454C155.778 168.872 156.574 169.985 158.044 170.396C159.039 170.671 160.217 170.594 160.937 170.853C161.381 171.006 161.733 171.356 161.733 171.905C161.733 172.713 161.044 173.338 159.865 173.338C158.717 173.338 157.86 172.744 157.86 171.859H155.687C155.687 173.963 157.462 175.411 159.835 175.411C162.284 175.411 163.906 173.887 163.906 171.783C163.906 170.289 163.034 169.207 161.61 168.78C160.539 168.46 159.452 168.597 158.733 168.338C158.258 168.171 157.952 167.82 157.952 167.347C157.952 166.601 158.625 166.021 159.712 166.021C160.784 166.021 161.519 166.555 161.549 167.363ZM166.953 175.243H169.142V164.116H166.953V175.243ZM178.094 167.363H180.283C180.283 165.335 178.584 163.948 176.288 163.948C173.946 163.948 172.324 165.427 172.324 167.454C172.324 168.872 173.12 169.985 174.589 170.396C175.584 170.671 176.763 170.594 177.482 170.853C177.926 171.006 178.278 171.356 178.278 171.905C178.278 172.713 177.589 173.338 176.411 173.338C175.263 173.338 174.405 172.744 174.405 171.859H172.232C172.232 173.963 174.007 175.411 176.38 175.411C178.829 175.411 180.452 173.887 180.452 171.783C180.452 170.289 179.579 169.207 178.156 168.78C177.084 168.46 175.997 168.597 175.278 168.338C174.803 168.171 174.497 167.82 174.497 167.347C174.497 166.601 175.171 166.021 176.258 166.021C177.329 166.021 178.064 166.555 178.094 167.363Z" />
    <path fill-rule="evenodd"
      d="M117.836 164.026C116.291 162.057 114.023 160.811 111.515 160.811C106.665 160.811 103.117 165.3 103.117 170.162C103.117 173.552 105.376 176.088 107.889 176.088C108.123 176.088 108.356 176.067 108.586 176.025C106.903 174.803 105.826 172.577 105.826 170.162C105.826 166.318 108.438 163.322 111.515 163.322C114.872 163.322 117.206 166.641 117.206 170.162C117.197 172.763 116.266 175.348 114.628 177.256C113.198 178.921 111.346 179.977 109.31 180.312C109.31 180.312 109.48 180.324 109.702 180.324C115.338 180.324 119.906 175.775 119.906 170.162C119.906 167.856 119.135 165.731 117.836 164.026ZM116.287 170.162C116.287 166.772 114.028 164.236 111.515 164.236C111.28 164.236 111.047 164.257 110.818 164.299C112.501 165.521 113.577 167.748 113.577 170.162C113.577 174.007 110.966 177.003 107.889 177.003C104.532 177.003 102.198 173.683 102.198 170.162C102.206 167.562 103.138 164.976 104.775 163.069C106.206 161.404 108.057 160.347 110.093 160.012C110.093 160.012 109.924 160 109.702 160C104.066 160 99.4971 164.55 99.4971 170.162C99.4971 172.468 100.269 174.594 101.568 176.299C103.113 178.267 105.381 179.513 107.889 179.513C112.739 179.513 116.287 175.025 116.287 170.162Z"
      clip-rule="evenodd" />
  </g>
  <g fill="#fff" clip-path="url(#k)">
    <path
      d="M187.4 105.1C182.9 105.1 180.1 101.9 180.1 97.6 180.1 93.3 182.9 90.1 187.4 90.1 191.1 90.1 193.2 91.9 194.1 94.8H191.6C190.9 93 189.6 92.1 187.4 92.1 184.4 92.1 182.6 94.5 182.6 97.6 182.6 100.6 184.4 103 187.4 103 189.8 103 191.1 101.9 191.6 100.4H194.1C193.4 103.1 191 105.1 187.4 105.1ZM204.3 104.8H201.9C201.8 104.4 201.8 103.9 201.8 103.4V103.1H201.8C201.4 104.1 200.4 105.1 198.5 105.1 196.1 105.1 194.8 103.6 194.8 102 194.8 98.9 198.3 98.8 199.8 98.6 201.2 98.4 201.8 98.2 201.8 97.3 201.8 96.4 201 95.8 199.8 95.8 198.6 95.8 197.8 96.5 197.8 97.5H195.5C195.6 95.8 196.9 94 199.7 94 203.2 94 204.1 96.1 204.1 98.3V102.4C204.1 103.2 204.1 104.2 204.3 104.8ZM201.8 98.9C201.6 99.5 201 100 199.3 100.3 197.9 100.6 197.1 101 197.1 101.9 197.1 102.7 197.9 103.4 199.1 103.4 200.5 103.4 201.8 102.3 201.8 100V98.9ZM209.4 95.8C208.5 95.8 207.7 96.4 207.7 97.1 207.7 98.1 208.9 98.4 210.7 98.8 212.5 99.2 213.8 100.1 213.8 101.8 213.8 103.9 211.8 105.1 209.5 105.1 207.4 105.1 205.4 104.1 205.1 101.6H207.4C207.6 102.7 208.3 103.2 209.6 103.2 210.5 103.2 211.5 102.8 211.5 101.9 211.5 100.8 210.4 100.7 208.8 100.3 207.1 99.9 205.4 99.1 205.4 97.2 205.4 95.3 207.3 94 209.4 94 211.7 94 213.4 95.2 213.6 97.4H211.4C211.2 96.3 210.3 95.8 209.4 95.8ZM225.5 99.5C225.5 102.8 223.5 105.1 220.8 105.1 219 105.1 217.8 104.2 217.4 102.9H217.4V108.9H215V94.3H217.4V96.2C217.8 95.1 219 94 220.8 94 223.5 94 225.5 96.3 225.5 99.5ZM223.1 99.5C223.1 97.5 222 96 220.2 96 218.4 96 217.3 97.4 217.2 99.3V99.5C217.2 101.6 218.2 103.2 220.2 103.2 222 103.2 223.1 101.6 223.1 99.5ZM236.5 100.2H228.4C228.6 102.1 229.8 103.2 231.4 103.2 232.6 103.2 233.6 102.7 234 101.7H236.3C235.7 103.8 233.9 105.1 231.5 105.1 228.3 105.1 226.2 102.8 226.2 99.5 226.2 96.4 228.4 94 231.5 94 235 94 236.5 96.8 236.5 99.7V100.2H236.5ZM234.1 98.5C234 96.8 233 95.9 231.4 95.9 229.8 95.9 228.7 96.9 228.5 98.5H234.1ZM240 99.8V104.8H237.7V94.3H240V96.5H240C240.4 95.1 241.4 94.2 243.1 94.1V96.5C241.1 96.5 240 97.8 240 99.8ZM254.1 102.7V104.8H244.9V90.3H247.4V102.7H254.1ZM264.1 104.8H261.7C261.6 104.4 261.6 103.9 261.6 103.4V103.1H261.5C261.2 104.1 260.2 105.1 258.2 105.1 255.9 105.1 254.6 103.6 254.6 102 254.6 98.9 258.1 98.8 259.6 98.6 261 98.4 261.5 98.2 261.5 97.3 261.5 96.4 260.8 95.8 259.5 95.8 258.4 95.8 257.6 96.5 257.5 97.5H255.2C255.3 95.8 256.7 94 259.5 94 263 94 263.9 96.1 263.9 98.4V102.4C263.9 103.2 263.9 104.3 264.1 104.8ZM261.6 98.9C261.4 99.5 260.8 100 259.1 100.3 257.6 100.6 256.9 101 256.9 101.9 256.9 102.7 257.6 103.4 258.8 103.4 260.3 103.4 261.6 102.3 261.6 100V98.9ZM276.2 99.5C276.2 102.9 274.3 105.1 271.5 105.1 269.8 105.1 268.5 104.1 268.1 102.9H268.1V104.8H265.7V90.3H268.1V96.2C268.5 95.1 269.8 94 271.5 94 274.3 94 276.2 96.2 276.2 99.5ZM273.9 99.5C273.9 97.4 272.7 95.9 270.9 95.9 269.1 95.9 268 97.3 267.9 99.3V99.5C267.9 101.6 269 103.1 270.9 103.1 272.7 103.2 273.9 101.7 273.9 99.5ZM281.1 95.8C280.2 95.8 279.4 96.4 279.4 97.1 279.4 98.1 280.6 98.4 282.4 98.8 284.2 99.2 285.6 100.1 285.6 101.8 285.6 103.9 283.6 105.1 281.3 105.1 279.1 105.1 277.1 104.1 276.9 101.6H279.2C279.4 102.8 280.1 103.3 281.3 103.3 282.3 103.3 283.2 102.9 283.2 101.9 283.2 100.9 282.2 100.7 280.5 100.3 278.8 99.9 277.2 99.2 277.2 97.2 277.2 95.3 279 94 281.2 94 283.5 94 285.1 95.2 285.4 97.5H283.2C282.9 96.3 282 95.8 281.1 95.8ZM174.9 104.9 169.8 95.7V89.9H170.2C170.7 89.9 171.1 89.5 171.1 89 171.1 88.5 170.7 88.1 170.2 88.1H169.7L169.9 87.8C170 87.4 169.7 87 169.3 87H166.5C166.1 87 165.8 87.4 165.9 87.8L166.2 88.1H165.6C165.1 88.1 164.7 88.5 164.7 89 164.7 89.5 165.1 89.9 165.6 89.9H166.1V95.7L160.9 104.9C160.4 105.7 160.4 106.7 160.9 107.5 161.4 108.3 162.2 108.8 163.1 108.8H172.7C173.6 108.8 174.5 108.3 174.9 107.5 175.4 106.7 175.4 105.7 174.9 104.9ZM174.6 107.3C174.2 108 173.5 108.4 172.7 108.4H163.1C162.3 108.4 161.6 108 161.2 107.3 160.8 106.6 160.8 105.8 161.2 105.1L166.4 95.8V89.6H165.6C165.3 89.6 165 89.3 165 89 165 88.7 165.3 88.5 165.6 88.5H170.2C170.5 88.5 170.7 88.7 170.7 89 170.7 89.3 170.5 89.6 170.2 89.6H169.4V95.8L174.6 105.1C175 105.8 175 106.6 174.6 107.3Z" />
    <path
      d="M171.9 102.8C170.6 103.3 169.1 103.5 167.6 102.6 166.4 101.9 165.3 101.7 164.4 101.8L162.2 105.7C162 106.1 162.2 106.5 162.2 106.7 162.3 106.8 162.6 107.2 163.1 107.2H172.7C173.2 107.2 173.4 106.8 173.5 106.7 173.6 106.5 173.7 106.1 173.5 105.7L171.9 102.8ZM167 99.8C167 99.8 167 99.8 167 99.8L167.9 100.7C167.9 100.8 167.9 100.9 167.9 101 167.9 101.3 168.1 101.6 168.4 101.6 168.8 101.6 169 101.3 169 101 169 100.7 168.8 100.4 168.4 100.4 168.3 100.4 168.2 100.4 168.1 100.5L167.3 99.5C167.3 99.5 167.3 99.5 167.3 99.5L168.1 99.1C168.2 99.3 168.5 99.4 168.8 99.4 169.2 99.4 169.6 99.1 169.6 98.6 169.6 98.1 169.2 97.7 168.8 97.7 168.3 97.7 167.9 98.1 167.9 98.6 167.9 98.7 167.9 98.7 167.9 98.8L167.1 99.2C167.1 99.1 167 99.1 166.9 99.1 166.7 99.1 166.6 99.2 166.6 99.4 166.6 99.6 166.8 99.8 167 99.8Z" />
  </g>
  <g fill="#fff" clip-path="url(#l)">
    <path
      d="M200.7 176.4H196.3V159.6H199.7C202.2 159.6 203.3 159.8 204.3 160.5 205.5 161.2 206.2 162.6 206.2 164.1 206.2 165.7 205.6 166.6 204.3 167.3 206.4 168.1 207.2 169.4 207.2 171.4 207.2 174.5 205.1 176.4 200.7 176.4ZM200.7 162.7H199.4V166.1H200.4C202.3 166.1 203.1 165.6 203.1 164.4 203.1 163.2 202.3 162.7 200.7 162.7ZM200.9 169.1H199.4V173.4H200.9C203.1 173.4 204 172.8 204 171.3 204 169.8 203 169.1 200.9 169.1ZM208.4 176.4V163.8H211.4V176.4H208.4ZM208.4 162V159H211.4V162H208.4ZM219.4 176.7C215.7 176.7 212.7 173.8 212.7 170.1 212.7 166.4 215.6 163.5 219.3 163.5 222.2 163.5 224.7 165.2 225.6 168H222.2C221.6 166.9 220.7 166.3 219.3 166.3 217.2 166.3 215.7 167.9 215.7 170.1 215.7 172.3 217.3 173.9 219.4 173.9 220.6 173.9 221.5 173.4 222.3 172.3H225.7C224.6 175.1 222.3 176.7 219.4 176.7ZM233.2 176.7C229.5 176.7 226.5 173.7 226.5 170.1 226.5 166.5 229.5 163.5 233.1 163.5 236.9 163.5 239.8 166.5 239.8 170.2 239.8 173.7 236.8 176.7 233.2 176.7ZM233.2 166.3C231.2 166.3 229.5 168 229.5 170.1 229.5 172.2 231.1 173.9 233.2 173.9 235.2 173.9 236.8 172.2 236.8 170.1 236.8 168 235.2 166.3 233.2 166.3ZM249.2 176.4V170.3C249.2 166.9 248.3 166.3 246.8 166.3 245.8 166.3 245 166.7 244.6 167.5 244.2 168.1 244.1 168.8 244.1 170.5V176.4H241V163.8H243.8V165C244.9 164 245.9 163.5 247.4 163.5 249.1 163.5 250.5 164.2 251.3 165.4 252 166.3 252.2 167.4 252.2 169.7V176.4H249.2ZM260 176.7C256.4 176.7 253.4 173.7 253.4 170.1 253.4 166.5 256.4 163.5 260 163.5 263.8 163.5 266.7 166.5 266.7 170.2 266.7 173.7 263.7 176.7 260 176.7ZM260 166.3C258.1 166.3 256.4 168 256.4 170.1 256.4 172.2 258 173.9 260.1 173.9 262.1 173.9 263.7 172.2 263.7 170.1 263.7 168 262.1 166.3 260 166.3ZM283.7 176.4V169.5C283.7 167 282.8 166.3 281.4 166.3 279.7 166.3 278.9 167.2 278.9 170.2V176.4H275.8V169.5C275.8 167 275 166.3 273.4 166.3 271.6 166.3 270.9 167.2 270.9 170.2V176.4H267.9V163.8H270.7V165C271.6 163.9 272.5 163.5 273.9 163.5 275.7 163.5 276.8 164.1 277.6 165.5 278.7 164.1 279.9 163.5 281.7 163.5 285 163.5 286.8 165.4 286.8 169.1V176.4H283.7ZM292.2 180.6H289L291.4 175.2 286.8 163.8H290.2L293 172 296 163.8H299.5L292.2 180.6Z" />
  </g>
  <g fill="#fff" clip-path="url(#m)">
    <path
      d="M143.3 254.6C142 254.6 140.8 254.6 139.6 254.6 139.2 254.6 138.8 254.5 138.5 254.4 138.2 254.3 138 254.1 137.9 253.7 137.8 253.4 137.7 253 137.7 252.7 137.7 250.9 137.7 249.2 137.7 247.5 137.7 247.2 137.7 246.9 137.8 246.6 137.9 246.2 138.2 246 138.5 245.8 138.7 245.7 139 245.7 139.2 245.6 139.4 245.6 139.6 245.6 139.9 245.6 142.2 245.6 144.5 245.6 146.9 245.6 147.2 245.6 147.5 245.6 147.8 245.7 148.2 245.8 148.6 246.1 148.7 246.6 148.8 246.9 148.9 247.2 148.9 247.6 148.9 249.3 148.9 250.9 148.9 252.6 148.9 253 148.8 253.3 148.7 253.6 148.6 254.1 148.2 254.4 147.8 254.5 147.5 254.6 147.2 254.6 146.8 254.6 145.6 254.6 144.5 254.6 143.3 254.6ZM143.3 247.2C142.2 247.2 141.1 247.2 140 247.2 140 247.2 139.9 247.2 139.9 247.2 139.8 247.2 139.8 247.2 139.8 247.3 139.8 247.3 139.8 247.4 139.8 247.4 139.8 249.2 139.8 251 139.8 252.8 139.8 252.9 139.8 252.9 140 252.9 142.2 252.9 144.4 252.9 146.6 252.9 146.8 252.9 146.8 252.9 146.8 252.8 146.8 252.7 146.8 252.7 146.8 252.7 146.8 251 146.8 249.2 146.8 247.4 146.8 247.4 146.8 247.4 146.8 247.3 146.8 247.3 146.7 247.2 146.7 247.2 146.6 247.2 146.6 247.2 146.6 247.2 145.5 247.2 144.4 247.2 143.3 247.2ZM131.5 251.2C132.9 252.3 134.2 253.5 135.6 254.6 135.5 254.6 135.5 254.6 135.5 254.6 134.6 254.6 133.7 254.6 132.8 254.6 132.7 254.6 132.6 254.6 132.6 254.5 130.8 252.9 129.1 251.4 127.4 249.8 127.4 249.8 127.4 249.7 127.3 249.7 127.4 249.7 127.5 249.7 127.6 249.7 129 249.7 130.4 249.7 131.8 249.7 132.1 249.7 132.3 249.6 132.5 249.5 132.6 249.4 132.6 249.3 132.6 249.1 132.6 248.6 132.6 248.2 132.6 247.7 132.6 247.6 132.6 247.5 132.5 247.4 132.3 247.3 132.1 247.2 131.9 247.2 130.3 247.2 128.7 247.2 127.1 247.2 127 247.2 127 247.2 127 247.3 127 247.3 127 247.4 127 247.4 127 249.8 127 252.1 127 254.4 127 254.7 127 254.6 126.8 254.6 126.2 254.6 125.6 254.6 125.1 254.6 124.9 254.6 124.9 254.6 124.9 254.4 124.9 251.9 124.9 249.4 124.9 246.9 124.9 246.5 124.9 246.1 124.9 245.7 124.9 245.6 124.9 245.6 125 245.6 125 245.6 125.1 245.6 125.1 245.6 127.7 245.6 130.2 245.6 132.8 245.6 133.1 245.6 133.4 245.7 133.7 245.7 133.9 245.8 134 245.8 134.1 245.9 134.4 246.2 134.7 246.6 134.7 247.2 134.7 248 134.7 248.8 134.7 249.6 134.7 249.8 134.6 250 134.6 250.2 134.4 250.7 134 251 133.5 251.1 133.3 251.2 133.1 251.2 132.9 251.2 132.5 251.2 132 251.2 131.6 251.2 131.6 251.2 131.6 251.2 131.5 251.2ZM104.8 254.6C104.8 254.6 104.7 254.6 104.7 254.6 104.1 254.6 103.5 254.6 102.9 254.6 102.7 254.6 102.7 254.6 102.7 254.4 102.7 253.3 102.7 252.1 102.7 251 102.7 250.7 102.7 250.7 102.5 250.7 100.4 250.7 98.4 250.7 96.3 250.7 96.1 250.7 96.1 250.7 96.1 250.9 96.1 252.1 96.1 253.2 96.1 254.4 96.1 254.4 96.1 254.4 96.1 254.5 96.1 254.6 96.1 254.6 95.9 254.6 95.4 254.6 94.7 254.6 94.1 254.6 94 254.6 94 254.6 94 254.5 94 253.7 94 252.9 94 252.1 94 250.1 94 248 94 245.9 94 245.8 94 245.8 94 245.7 94 245.6 94 245.6 94.1 245.6 94.7 245.6 95.4 245.6 96 245.6 96.1 245.6 96.1 245.6 96.1 245.7 96.1 246 96.1 246.3 96.1 246.6 96.1 247.4 96.1 248.1 96.1 248.9 96.1 249 96.1 249 96.1 249 96.1 249.1 96.1 249.1 96.2 249.1 96.2 249.1 96.3 249.1 96.3 249.1 98.4 249.1 100.4 249.1 102.5 249.1 102.5 249.1 102.5 249.1 102.5 249.1 102.7 249.1 102.7 249.1 102.7 249 102.7 248 102.7 247 102.7 246.1 102.7 246 102.7 245.8 102.7 245.7 102.7 245.6 102.7 245.6 102.8 245.6 103.4 245.6 104.1 245.6 104.7 245.6 104.8 245.6 104.8 245.6 104.8 245.7 104.8 245.8 104.8 245.8 104.8 245.8 104.8 248.7 104.8 251.6 104.8 254.4 104.8 254.5 104.8 254.5 104.8 254.6Z" />
    <path
      d="M105.2 259.1C104.9 259.4 104.7 259.7 104.4 260 103.5 261 102.5 262.1 101.6 263.2 101.6 263.2 101.6 263.2 101.5 263.2 101.7 262.9 102 262.7 102.1 262.4 102.1 262.4 102.1 262.4 102 262.5 102 262.5 101.9 262.6 101.9 262.6 102.5 261.6 103.2 260.5 103.9 259.4 105.7 256.3 107.6 253.3 109.5 250.3 109.6 250.1 109.6 250 109.5 249.9 108.4 248.2 107.3 246.5 106.1 244.8 106.1 244.6 106.1 244.6 106.1 244.4 106.2 244.2 106.3 243.9 106.4 243.7 106.5 243.7 106.5 243.7 106.5 243.8 107.7 245.8 108.8 247.9 110 250 110.1 250.1 110 250.2 110 250.2 108.6 252.4 107.2 254.5 105.8 256.6 104.6 258.5 103.4 260.3 102.3 262.1 102.2 262.2 102.2 262.2 102.2 262.3 102.1 262.3 102.1 262.4 102.1 262.4 102.2 262.5 102.2 262.4 102.2 262.3 102.5 262 102.7 261.7 102.9 261.4 105.8 257.6 108.7 253.8 111.6 249.9 111.6 249.9 111.6 249.9 111.6 249.8 111.7 249.8 111.7 249.7 111.6 249.6 111.6 249.6 111.6 249.6 111.5 249.5 110.3 247.4 109.1 245.3 107.9 243.2 107.9 243.2 107.8 243.1 107.8 243.1 107.9 243 107.9 243 107.9 243 109.9 243 111.8 243 113.8 243 113.9 243 114 243.1 114 243.2 114.5 244.1 115 245 115.5 245.8 115.6 245.9 115.6 245.9 115.6 246 117 244.8 118.3 243.6 119.7 242.3L119.7 242.3C118.2 244.1 116.6 245.9 115.1 247.7 115 247.7 115 247.6 115 247.6 114.4 246.6 113.8 245.6 113.2 244.6 113.2 244.5 113.1 244.4 113 244.4 112.1 244.4 111.3 244.4 110.4 244.4 110.4 244.4 110.3 244.4 110.3 244.4 110.2 244.5 110.3 244.5 110.3 244.6 111.3 246.3 112.2 247.9 113.2 249.5 113.3 249.8 113.3 249.7 113.2 249.9 110.9 252.4 108.7 255 106.5 257.6 106.5 257.6 106.4 257.7 106.4 257.7 106.2 257.9 105.9 258.2 105.7 258.5 105.6 258.6 105.4 258.8 105.2 259.1ZM125 240.4C125.3 240.1 125.6 239.8 125.8 239.4 126.4 238.7 127 238.1 127.6 237.4 127.7 237.3 127.7 237.3 127.7 237.3 127.7 237.3 127.7 237.3 127.8 237.3 127.8 237.4 127.7 237.4 127.7 237.5 127.6 237.5 127.6 237.5 127.6 237.6 127.5 237.7 127.5 237.7 127.5 237.8 127.4 237.8 127.4 237.9 127.3 237.9 127 238.4 126.6 238.8 126.3 239.3 123.6 242.9 120.9 246.5 118.2 250 118.1 250.2 118.1 250.2 118.2 250.4 119.5 252.6 120.8 254.8 122 257 122.1 257.1 122.1 257.1 122.1 257.2 122 257.2 122 257.2 121.9 257.2 120 257.2 118.1 257.2 116.1 257.2 116 257.2 115.9 257.2 115.9 257 115.3 256.1 114.8 255.3 114.3 254.4 114.3 254.3 114.3 254.3 114.2 254.2 114.2 254.3 114.1 254.3 114.1 254.4 112.7 255.5 111.4 256.6 110.1 257.8 110 257.8 109.9 257.9 109.9 257.9 109.8 257.9 109.9 257.8 109.9 257.8 111.5 256 113.1 254.2 114.7 252.4 114.7 252.3 114.7 252.3 114.7 252.3 114.8 252.3 114.8 252.4 114.9 252.4 115.5 253.5 116.1 254.6 116.7 255.6 116.8 255.8 116.8 255.8 117 255.8 117.8 255.8 118.7 255.8 119.5 255.8 119.6 255.8 119.6 255.8 119.7 255.8 119.7 255.7 119.7 255.7 119.6 255.6 118.6 253.9 117.6 252.1 116.6 250.4 116.6 250.4 116.6 250.4 116.6 250.4 116.5 250.2 116.5 250.2 116.6 250.1 117.1 249.5 117.6 249 118.1 248.4 120 246.2 121.9 244 123.8 241.8 123.8 241.8 123.8 241.8 123.8 241.8 123.9 241.7 123.9 241.7 123.9 241.7 124.3 241.3 124.6 240.9 124.9 240.5 124.9 240.5 125 240.4 125 240.4Z" />
    <path
      d="M125 240.4C125 240.4 124.9 240.5 124.9 240.5 124.6 240.9 124.2 241.3 123.9 241.7 123.9 241.7 123.8 241.7 123.8 241.8 122.9 240.8 121.9 239.9 120.8 239.2 119.4 238.3 118 237.6 116.4 237.2 115.4 237 114.5 236.9 113.5 237 110.8 237.1 108.3 238 106.1 239.7 106 239.8 105.8 239.9 105.6 240 105.6 240.1 105.5 240.1 105.4 240.2 105.6 240.1 105.6 240 105.7 239.9 107.1 238.5 108.8 237.4 110.7 236.7 112.3 236.2 113.8 235.9 115.5 236 117.1 236.1 118.7 236.5 120.2 237.1 121.8 237.7 123.2 238.6 124.5 239.8 124.7 240 124.8 240.2 125 240.4ZM105.2 259.1C105.4 258.8 105.6 258.6 105.7 258.4 105.9 258.2 106.1 257.9 106.4 257.7 108 259.5 109.9 260.9 112.2 261.7 113 262.1 113.9 262.3 114.8 262.4 115.6 262.5 116.3 262.5 117.1 262.5 118.7 262.4 120.2 262 121.6 261.3 122.6 260.9 123.4 260.3 124.2 259.7 124.3 259.7 124.3 259.6 124.4 259.6 124.4 259.7 124.3 259.7 124.3 259.8 123.8 260.2 123.4 260.6 122.8 261 121.3 262.1 119.5 262.9 117.6 263.3 116.7 263.4 115.9 263.5 115 263.5 113.2 263.4 111.6 263 110 262.4 108.6 261.8 107.3 261 106.1 260 105.8 259.7 105.5 259.4 105.2 259.1ZM127.4 237.8C127.5 237.8 127.5 237.8 127.5 237.8 127.5 237.9 127.5 237.9 127.4 238 125.3 241.5 123.1 245 120.9 248.5 120.7 249 120.3 249.5 120.1 250 120 250.1 120 250.2 120.1 250.3 121.2 252.1 122.3 253.9 123.5 255.7 123.6 255.8 123.6 255.9 123.5 256 123.5 256.2 123.4 256.4 123.4 256.6 123.4 256.7 123.4 256.7 123.3 256.7 123.3 256.7 123.3 256.6 123.2 256.6 122 254.4 120.8 252.3 119.5 250.2 119.5 250.1 119.5 250 119.6 249.9 121.5 246.9 123.5 243.9 125.5 240.9 126.1 239.9 126.8 238.9 127.4 237.9 127.4 237.9 127.5 237.9 127.4 237.8 127.5 237.8 127.4 237.8 127.4 237.8ZM124.4 259.5C124.4 259.5 124.5 259.4 124.6 259.4 124.5 259.5 124.5 259.5 124.4 259.6 124.4 259.6 124.4 259.5 124.4 259.5ZM127.6 237.7C127.6 237.6 127.6 237.6 127.6 237.6 127.6 237.6 127.6 237.6 127.7 237.5 127.7 237.6 127.6 237.6 127.6 237.7ZM101.9 262.6C101.9 262.7 101.9 262.7 101.8 262.7 101.8 262.7 101.9 262.7 101.9 262.6 101.9 262.6 101.9 262.6 101.9 262.6ZM127.8 237.2C127.8 237.2 127.8 237.2 127.8 237.2 127.8 237.2 127.8 237.2 127.8 237.3 127.8 237.3 127.8 237.3 127.8 237.2ZM127.7 237.5C127.7 237.5 127.7 237.5 127.7 237.5 127.7 237.5 127.7 237.5 127.7 237.5 127.7 237.5 127.7 237.5 127.7 237.5ZM127.6 237.7C127.6 237.7 127.6 237.7 127.6 237.7 127.6 237.7 127.6 237.7 127.6 237.7ZM127.7 237.3C127.7 237.3 127.7 237.3 127.8 237.2L127.8 237.3C127.8 237.3 127.8 237.3 127.7 237.3 127.7 237.3 127.7 237.3 127.7 237.3ZM127.7 237.4V237.4 237.4C127.7 237.4 127.7 237.4 127.7 237.4Z" />
    <path
      d="M127.7 237.5C127.7 237.5 127.7 237.4 127.7 237.4 127.7 237.5 127.7 237.5 127.7 237.5ZM127.6 237.7C127.6 237.7 127.6 237.7 127.5 237.8L127.5 237.7C127.5 237.7 127.6 237.7 127.6 237.7ZM109.8 257.9C109.8 257.9 109.8 258 109.8 258 109.8 257.9 109.8 257.9 109.8 257.9ZM124.4 259.6C124.4 259.6 124.4 259.6 124.4 259.6 124.4 259.6 124.4 259.6 124.4 259.5 124.4 259.5 124.4 259.6 124.4 259.6ZM102.2 262.3C102.2 262.4 102.2 262.4 102.1 262.4 102.1 262.4 102.1 262.3 102.2 262.3 102.2 262.3 102.2 262.3 102.2 262.3ZM127.7 237.5C127.7 237.5 127.7 237.5 127.7 237.5 127.6 237.5 127.6 237.6 127.6 237.6 127.6 237.5 127.6 237.5 127.7 237.5Z" />
  </g>
  <g fill="#fff" clip-path="url(#n)">
    <path fill-rule="evenodd"
      d="M132.251 201H132.252C137.865 201 142.416 205.538 142.416 211.135C142.416 216.733 137.865 221.271 132.252 221.271H132.251C131.642 221.271 131.045 221.217 130.465 221.115V216.628H132.427C133.487 216.628 134.375 216.437 135.091 216.056C135.806 215.674 136.337 215.176 136.682 214.561C137.028 213.934 137.2 213.245 137.2 212.495C137.2 211.683 137.021 210.963 136.664 210.336C136.306 209.709 135.769 209.217 135.054 208.86C134.338 208.504 133.463 208.325 132.427 208.325H127.301V219.99C124.19 218.257 122.086 214.941 122.086 211.135C122.086 205.538 126.637 201 132.251 201ZM137.265 205.044H127.301V207.128H137.265V205.044ZM132.186 214.118C132.79 214.118 133.241 213.977 133.537 213.694C133.833 213.411 133.981 213.011 133.981 212.495C133.981 211.978 133.833 211.578 133.537 211.296C133.241 211.013 132.79 210.871 132.186 210.871H130.465V214.118H132.186Z"
      clip-rule="evenodd" />
    <path
      d="M151 219.1C150.1 219.1 149.2 219 148.4 218.6 147.7 218.3 147 217.9 146.6 217.3 146.1 216.6 145.9 215.9 145.9 215H149.3C149.3 215.5 149.5 215.9 149.8 216.2 150.1 216.4 150.5 216.5 150.9 216.5 151.4 216.5 151.8 216.4 152.1 216.2 152.3 216 152.5 215.7 152.5 215.3 152.5 215 152.4 214.7 152.1 214.5 151.9 214.3 151.6 214.1 151.3 214 151 213.8 150.6 213.7 150 213.5 149.1 213.2 148.4 213 147.9 212.7 147.3 212.5 146.9 212.1 146.5 211.6 146.1 211 145.9 210.4 145.9 209.5 145.9 208.3 146.3 207.4 147.2 206.7 148.1 206 149.3 205.6 150.7 205.6 152.2 205.6 153.3 206 154.2 206.7 155.1 207.4 155.6 208.3 155.7 209.6H152.2C152.2 209.1 152 208.8 151.7 208.6 151.4 208.3 151.1 208.2 150.6 208.2 150.2 208.2 149.9 208.3 149.7 208.5 149.4 208.7 149.3 209 149.3 209.4 149.3 209.8 149.5 210.2 149.9 210.4 150.3 210.6 150.9 210.9 151.8 211.2 152.6 211.4 153.3 211.7 153.9 212 154.4 212.2 154.9 212.6 155.3 213.1 155.6 213.6 155.8 214.3 155.8 215.1 155.8 215.8 155.6 216.5 155.3 217.1 154.9 217.7 154.3 218.2 153.6 218.6 152.9 218.9 152 219.1 151 219.1ZM167.3 205.8V208.4H163.8V219H160.6V208.4H157.1V205.8H167.3ZM177.2 216.7H172.2L171.4 219H168.1L172.8 205.8H176.6L181.3 219H177.9L177.2 216.7ZM176.3 214.2 174.7 209.4 173.1 214.2H176.3ZM190.5 219 186 213.2V219H182.8V205.8H186V211.6L190.4 205.8H194.2L189.1 212.3 194.4 219H190.5ZM199.1 208.4V211H203.4V213.5H199.1V216.4H204V219H195.9V205.8H204V208.4H199.1Z" />
  </g>
  <path fill="#fff" fill-opacity=".9" fill-rule="evenodd"
    d="M179.708 241L173.562 258.276H170.949L164.876 241H167.344L172.28 255.977H172.328L177.312 241H179.708ZM181.554 258.276V241H193.483V242.936H183.853V248.428H192.83V250.364H183.853V256.34H193.555V258.276H181.554ZM215.88 251.138L218.807 243.081H218.856L221.735 251.138H215.88ZM217.597 241L210.871 258.276H213.218L215.154 253.074H222.461L224.348 258.276H226.889L220.138 241H217.597ZM207.207 241.024V243.299H198.11V241.024H207.207ZM207.207 243.299H209.482V246.227H207.207V243.299ZM195.836 243.299H198.11V256.002H195.836V243.299ZM207.207 256.002V258.276H198.11V256.002H207.207ZM207.207 256.002V251.937H202.659V249.662H209.482V256.002H207.207Z"
    clip-rule="evenodd" />
  <path fill="#fff"
    d="M66.2 104.4H69.5L70.3 102.3H74.6L75.5 104.4H78.8L74 92.8H71L66.2 104.4ZM71.2 99.8 72.5 96.6 73.7 99.8H71.2ZM80.1 104.4H83.1V98.1L87.9 104.4H90.7V92.9H87.6V98.9L83 92.9H80.1V104.4ZM98.2 104.6C100.7 104.6 102.2 103.5 103.2 102L100.9 100.3C100.2 101.1 99.5 101.7 98.3 101.7 96.8 101.7 95.7 100.3 95.7 98.6 95.7 96.9 96.8 95.5 98.3 95.5 99.4 95.5 100.2 96.1 100.8 96.9L103.1 95.1C102.1 93.7 100.7 92.6 98.4 92.6 95 92.6 92.4 95.3 92.4 98.6 92.4 102.1 95 104.6 98.2 104.6ZM104.7 104.4H107.8V100H111.8V104.4H115V92.9H111.8V97.2H107.8V92.9H104.7V104.4ZM122.8 104.6C126.2 104.6 128.8 101.9 128.8 98.6 128.8 95.3 126.3 92.6 122.8 92.6 119.3 92.6 116.7 95.3 116.7 98.6 116.7 102 119.3 104.6 122.8 104.6ZM122.8 101.7C121.1 101.7 119.9 100.3 119.9 98.6 119.9 96.9 121.1 95.5 122.8 95.5 124.5 95.5 125.6 97 125.6 98.6 125.6 100.3 124.5 101.7 122.8 101.7ZM130.6 104.4H133.7V100.9H135.1L137.4 104.4H141L138.3 100.4C139.7 99.8 140.6 98.6 140.6 96.8 140.6 95.7 140.2 94.8 139.6 94.1 138.8 93.3 137.6 92.9 135.9 92.9H130.6V104.4ZM133.7 98.4V95.6H135.8C136.8 95.6 137.5 96.1 137.5 97 137.5 97.9 136.8 98.4 135.8 98.4H133.7Z" />
  <rect width="23.1" height="7.1" fill="#fff" rx="3.5" transform="matrix(.49145 .8709 -.861 .5086 48.7 87)" />
  <rect width="23.1" height="7.1" fill="#fff" rx="3.5" transform="matrix(-.49145 .8709 -.861 -.5086 52 90.5)" />
  <defs>
    <clipPath id="a">
      <path fill="#fff" d="M0 0H133.1V12.2H0z" transform="translate(18.8 10)" />
    </clipPath>
    <clipPath id="b">
      <path fill="#fff" d="M0 0H111.8V29H0z" transform="translate(12 44)" />
    </clipPath>
    <clipPath id="c">
      <path fill="#fff" d="M0 0H88.9V27.4H0z" transform="translate(139.8 45)" />
    </clipPath>
    <clipPath id="d">
      <path fill="#fff" d="M0 0H64V37.1H0z" transform="translate(244.7 40)" />
    </clipPath>
    <clipPath id="e">
      <path fill="#fff" d="M0 0H68.1V24.9H0z" transform="translate(38 198)" />
    </clipPath>
    <clipPath id="f">
      <path fill="#fff" d="M0 0H61.9V31.5H0z" transform="translate(220.4 195)" />
    </clipPath>
    <clipPath id="g">
      <path fill="#fff" d="M0 0H79.3V20.3H0z" transform="translate(15 124)" />
    </clipPath>
    <clipPath id="h">
      <path fill="#fff" d="M0 0H83.8V22.4H0z" transform="translate(110.3 123)" />
    </clipPath>
    <clipPath id="i">
      <path fill="#fff" d="M0 0H63.5V26.4H0z" transform="translate(20 157)" />
    </clipPath>
    <clipPath id="j">
      <path fill="#fff" d="M0 0H80.8V20.3H0z" transform="translate(99.5 160)" />
    </clipPath>
    <clipPath id="k">
      <path fill="#fff" d="M0 0H125V21.8H0z" transform="translate(160.5 87)" />
    </clipPath>
    <clipPath id="l">
      <path fill="#fff" d="M0 0H103.7V21.6H0z" transform="translate(196.3 159)" />
    </clipPath>
    <clipPath id="m">
      <path fill="#fff" d="M0 0H54.9V27.4H0z" transform="translate(94 236)" />
    </clipPath>
    <clipPath id="n">
      <path fill="#fff" d="M0 0H82.3V20.3H0z" transform="translate(122 201)" />
    </clipPath>
  </defs>
</svg>