<svg xmlns="http://www.w3.org/2000/svg" fill="none" viewBox="0 0 904 370"><g clip-path="url(#a)"><path fill="#fff" fill-rule="evenodd" d="M48.88 37.57a.78.78 0 0 0 .03-.84l-9.67-16.35a.78.78 0 0 0-.67-.38h-6.8c-.6 0-.97.65-.66 1.17l12.7 21.78c.3.49.99.52 1.31.05l3.76-5.43ZM66.4 44c.6 0 .98-.65.67-1.17L54.02 20.39a.78.78 0 0 0-.67-.39h-6.78c-.6 0-.98.65-.67 1.17L59 43.61c.13.24.39.39.66.39h6.75Zm-29.28-1.39a.78.78 0 0 1-.66 1.18H31.8a.78.78 0 0 1-.78-.78v-7.88c0-.8 1.04-1.08 1.45-.4l4.65 7.88ZM83.93 44h-4V20h3.93l11.08 18.93L106 20h3.93v24h-4V28.13L96.62 44h-3.4l-9.29-15.87V44Zm50.74 0H119.2V20h15.47v3.9H123.2v6.15h11.47v3.9H123.2v6.14h11.47V44Zm15.3 0h4V23.9h9.25V20h-22.54v3.9h9.29V44Zm41.53 0h-4.38l-2-4.18h-13.96L169.2 44h-4.38l11.4-24h3.88l11.4 24Zm-13.36-18.9-5.12 10.8h10.24l-5.12-10.8ZM198.42 44h4v-7.54h5.15c4.91 0 8.46-3.47 8.46-8.23 0-4.73-3.55-8.23-8.46-8.23h-9.15v24Zm4-11.45V23.9h5.15c2.6 0 4.46 1.82 4.46 4.32s-1.86 4.32-4.46 4.32h-5.15ZM239.26 44h-15.68V20h4v20.1h11.68V44Zm7.02 0h15.46v-3.9h-11.46v-6.15h11.46v-3.9h-11.46V23.9h11.46V20h-15.46v24Zm26.87 0H268l9.92-12L268 20h5.15l7.37 8.88 7.36-8.88H293l-9.92 12L293 44h-5.15l-7.33-8.88-7.37 8.88Z" clip-rule="evenodd"/></g><path fill="#fff" fill-rule="evenodd" d="M355.95 10.8a1 1 0 0 1 .48-.12l9.35.02a1.06 1.06 0 0 1 .86.45.98.98 0 0 1 .1.93 53.22 53.22 0 0 0 0 39.89.99.99 0 0 1-.47 1.26c-.15.08-.32.12-.49.12h-9.35a1.06 1.06 0 0 1-.85-.46.99.99 0 0 1-.08-.95 53.57 53.57 0 0 0-.03-39.88.99.99 0 0 1 .48-1.26Zm1.71 21.2a25.15 25.15 0 0 0-7.46-17.85.95.95 0 0 0-.66-.27h-6.15c-.25 0-.48.1-.65.26a.88.88 0 0 0-.27.63v6.14c0 .23.08.45.24.62.16.17.39.28.62.3 2.64.2 5.1 1.36 6.9 3.25 1.8 1.9 2.8 4.37 2.8 6.94 0 2.58-1 5.06-2.8 6.95a10.66 10.66 0 0 1-6.9 3.25.94.94 0 0 0-.6.27.88.88 0 0 0-.26.6v6.14c0 .12.02.24.06.35a.9.9 0 0 0 .5.5c.11.04.24.06.36.06h6.15a.94.94 0 0 0 .66-.27A25.14 25.14 0 0 0 357.66 32Zm22.12 11.09c0-.23-.1-.44-.25-.6a.94.94 0 0 0-.61-.29c-2.64-.2-5.1-1.36-6.9-3.25-1.8-1.9-2.8-4.37-2.8-6.95 0-2.57 1-5.05 2.8-6.94a10.66 10.66 0 0 1 6.9-3.26.94.94 0 0 0 .6-.28.89.89 0 0 0 .26-.61v-6.14c0-.24-.1-.46-.27-.63a.93.93 0 0 0-.65-.26h-6.15c-.24 0-.48.1-.66.27A25.23 25.23 0 0 0 364.6 32c0 6.67 2.68 13.07 7.46 17.85a.91.91 0 0 0 .66.28h6.15c.25 0 .48-.1.65-.27.18-.17.27-.4.27-.63v-6.14Z" clip-rule="evenodd"/><path fill="#fff" d="m407.06 42.06 3.72-17.8h4.49l4.34 17.8h-2.82l-4.35-17.73h1.1l-3.76 17.73h-2.72Zm-1.7 0v-2.62h3.83v2.62h-3.82Zm-.75 0-5.21-18.42h3.17l5.07 18.42h-3.03Zm12.87 0v-2.62h3.82v2.62h-3.82Zm1.55 0 4.41-18.42h3l-4.51 18.42h-2.9Zm24.52.62a9.79 9.79 0 0 1-7.35-3 9.92 9.92 0 0 1-1.9-3.07 9.93 9.93 0 0 1-.61-3.45v-.62a9.47 9.47 0 0 1 2.58-6.52 9.1 9.1 0 0 1 3.1-2.17 9.97 9.97 0 0 1 4.18-.83 9.9 9.9 0 0 1 4.18.83 9.1 9.1 0 0 1 3.1 2.17 9.47 9.47 0 0 1 2.59 6.52v.62c0 1.17-.22 2.32-.66 3.45a9.13 9.13 0 0 1-4.96 5.25 10.2 10.2 0 0 1-4.25.82Zm0-2.96a5.99 5.99 0 0 0 5.76-3.38c.53-1.04.8-2.2.8-3.49 0-1.31-.27-2.48-.8-3.52a6 6 0 0 0-2.27-2.45 6.5 6.5 0 0 0-3.49-.9c-1.33 0-2.5.3-3.48.9a6 6 0 0 0-2.28 2.45 7.62 7.62 0 0 0-.8 3.52c0 1.29.26 2.45.77 3.49a6.32 6.32 0 0 0 2.24 2.48c.99.6 2.17.9 3.55.9Zm19.32 2.34V23.64h2.62v7.59h-.14c0-2.7.59-4.66 1.76-5.9 1.2-1.26 2.98-1.9 5.35-1.9h.62v2.97h-1.18c-1.83 0-3.25.5-4.24 1.48-.99.97-1.48 2.37-1.48 4.21v9.97h-3.31Zm18.63 0V23.64h2.62v7.9h-.41c0-1.8.23-3.31.69-4.55a6.09 6.09 0 0 1 2.14-2.9c.94-.67 2.14-1 3.59-1h.13a6.1 6.1 0 0 1 3.6 1 5.8 5.8 0 0 1 2.13 2.9c.46 1.24.7 2.76.7 4.55h-.98c0-1.8.25-3.31.73-4.55a6.09 6.09 0 0 1 2.14-2.9 6.2 6.2 0 0 1 3.62-1h.14c1.45 0 2.66.33 3.62 1a5.8 5.8 0 0 1 2.14 2.9c.48 1.24.72 2.76.72 4.55v10.52h-3.3V30.82c0-1.5-.38-2.65-1.11-3.45a3.9 3.9 0 0 0-3.07-1.25 4.3 4.3 0 0 0-3.28 1.31 4.93 4.93 0 0 0-1.24 3.6v11.03h-3.31V30.82c0-1.5-.37-2.65-1.1-3.45a3.9 3.9 0 0 0-3.08-1.25 4.3 4.3 0 0 0-3.27 1.31 4.93 4.93 0 0 0-1.25 3.6v11.03h-3.3Zm37.87 0V16.88h3.32v15.04h-.83c0-1.82.23-3.38.69-4.7a6.3 6.3 0 0 1 2.2-3.06 6.33 6.33 0 0 1 3.8-1.07h.14c2.2 0 3.88.73 5 2.2 1.13 1.45 1.7 3.54 1.7 6.25v10.52h-3.32V30.85c0-1.5-.43-2.66-1.28-3.48a4.39 4.39 0 0 0-3.24-1.25c-1.47 0-2.66.5-3.55 1.49a5.49 5.49 0 0 0-1.31 3.83v10.62h-3.32Zm35.04.62a9.79 9.79 0 0 1-7.35-3 9.92 9.92 0 0 1-1.9-3.07 9.93 9.93 0 0 1-.61-3.45v-.62a9.47 9.47 0 0 1 2.59-6.52 9.1 9.1 0 0 1 3.1-2.17 9.89 9.89 0 0 1 4.17-.83 9.9 9.9 0 0 1 4.18.83 9.1 9.1 0 0 1 3.1 2.17 9.47 9.47 0 0 1 2.59 6.52v.62c0 1.17-.22 2.32-.65 3.45a9.13 9.13 0 0 1-4.97 5.25 10.2 10.2 0 0 1-4.25.82Zm0-2.96a5.99 5.99 0 0 0 5.76-3.38c.54-1.04.8-2.2.8-3.49 0-1.31-.26-2.48-.8-3.52a6 6 0 0 0-2.27-2.45 6.5 6.5 0 0 0-3.49-.9c-1.33 0-2.5.3-3.48.9a6 6 0 0 0-2.28 2.45 7.62 7.62 0 0 0-.8 3.52c0 1.29.26 2.45.77 3.49a6.32 6.32 0 0 0 2.24 2.48c.99.6 2.17.9 3.55.9Zm19.52 2.34V16.88h3.32v25.18h-3.32Zm-2.55-22.56v-2.62h5.87v2.62h-5.87Zm24.53 23.18c-1.6 0-3-.27-4.17-.82a8.08 8.08 0 0 1-2.86-2.18 9.69 9.69 0 0 1-1.66-3.07 11.72 11.72 0 0 1-.52-3.45v-.62c0-1.2.18-2.36.52-3.48a9.28 9.28 0 0 1 1.66-3.04 7.71 7.71 0 0 1 2.8-2.17 9.24 9.24 0 0 1 4.03-.83c2 0 3.64.44 4.93 1.31a7.73 7.73 0 0 1 2.9 3.31c.64 1.36.97 2.8.97 4.35v1.48h-16.36V31h13.94l-.76 1.34c0-1.3-.2-2.43-.62-3.38a4.85 4.85 0 0 0-1.86-2.24 5.73 5.73 0 0 0-3.14-.8c-1.31 0-2.4.3-3.28.9-.85.6-1.5 1.42-1.93 2.45a9.61 9.61 0 0 0-.62 3.6c0 1.3.2 2.49.62 3.54a5.6 5.6 0 0 0 2 2.49 6 6 0 0 0 3.41.9 5.9 5.9 0 0 0 3.52-.97 3.74 3.74 0 0 0 1.66-2.24h3.1a7.3 7.3 0 0 1-1.51 3.27 7.32 7.32 0 0 1-2.87 2.1 9.98 9.98 0 0 1-3.9.73Z"/><g clip-path="url(#b)"><path fill="#fff" fill-rule="evenodd" d="M748.38 25.73h9.67c.85 0 1.54-.75 1.44-1.62a1.47 1.47 0 0 0-1.48-1.27H746c-.8 0-1.45.65-1.45 1.45v14.47c0 .8.65 1.45 1.45 1.45h12.06c.85 0 1.54-.75 1.44-1.63a1.47 1.47 0 0 0-1.48-1.27h-9.63a.94.94 0 0 1-.94-.94V33.9c0-.52.42-.94.94-.94h7.26c.85 0 1.54-.75 1.43-1.62a1.47 1.47 0 0 0-1.47-1.28h-7.22a.94.94 0 0 1-.94-.94v-2.45c0-.52.42-.95.94-.95Zm-16.64 0c1.61 0 2.97.58 4.07 1.72.27.26.63.4 1.04.4.8 0 1.45-.65 1.45-1.44 0-.41-.2-.8-.6-1.16a8.43 8.43 0 0 0-5.96-2.41c-2.39 0-4.44.84-6.15 2.56a8.36 8.36 0 0 0-2.54 6.12c0 2.39.85 4.44 2.54 6.15a8.45 8.45 0 0 0 6.15 2.54c2.39 0 4.44-.85 6.13-2.54.57-.58.57-1.5 0-2.05a1.43 1.43 0 0 0-2.06 0 5.53 5.53 0 0 1-4.07 1.7 5.6 5.6 0 0 1-4.1-1.7 5.59 5.59 0 0 1-1.7-4.1 5.5 5.5 0 0 1 1.7-4.07 5.61 5.61 0 0 1 4.1-1.72Zm47.16 11.58h-9.63a.94.94 0 0 1-.94-.94V24.32c0-.73-.54-1.38-1.28-1.47-.87-.1-1.62.58-1.62 1.44v14.47c0 .8.65 1.45 1.45 1.45h12.06c.85 0 1.54-.75 1.43-1.63a1.47 1.47 0 0 0-1.47-1.27Zm60.9-14.47h-14.43c-.86 0-1.55.75-1.44 1.62.09.74.74 1.27 1.47 1.27h4.81c.52 0 .94.43.94.95v12.08c0 .85.75 1.54 1.63 1.44a1.47 1.47 0 0 0 1.27-1.48V26.68c0-.52.42-.95.94-.95h4.85c.85 0 1.54-.75 1.43-1.62a1.47 1.47 0 0 0-1.47-1.27Zm7.65 0c-.8 0-1.45.65-1.45 1.45v14.47a1.45 1.45 0 0 0 2.9 0V24.29c0-.8-.66-1.45-1.45-1.45Zm-28.96 8.51c-1.33-.84-3.11-1.28-5.36-1.28-2.96 0-4.46-.72-4.46-2.17 0-1.44 1.5-2.17 4.46-2.17 1.64 0 3.21.32 4.7.92.88.26 1.48-.05 1.82-.9.29-.74-.1-1.46-.9-1.83a13.9 13.9 0 0 0-5.62-1.08 9.6 9.6 0 0 0-5.33 1.35 4.24 4.24 0 0 0-2.02 3.71c0 1.67.67 2.95 2 3.8 1.33.83 3.11 1.27 5.35 1.27 2.97 0 4.47.72 4.47 2.17s-1.5 2.17-4.47 2.17h-.72c-1.5 0-3.06-.31-4.68-.92a1.41 1.41 0 0 0-1.83.87c-.3.75.14 1.62.89 1.88 1.67.7 3.52 1.07 5.62 1.07h.72c2.2 0 3.96-.46 5.31-1.36a4.2 4.2 0 0 0 2.05-3.71c0-1.66-.67-2.94-2-3.79Zm-29.57-5.62h9.68c.85 0 1.54-.75 1.43-1.62a1.47 1.47 0 0 0-1.47-1.27h-12.02c-.8 0-1.45.65-1.45 1.45v14.47c0 .8.65 1.45 1.45 1.45h12.06c.85 0 1.54-.75 1.43-1.63a1.47 1.47 0 0 0-1.47-1.27h-9.64a.94.94 0 0 1-.94-.94v-2.46c0-.52.42-.94.94-.94h7.26c.86 0 1.55-.75 1.44-1.62a1.47 1.47 0 0 0-1.47-1.28h-7.23a.94.94 0 0 1-.94-.94v-2.46c0-.52.42-.94.94-.94Zm-81.65 6.09c0 .17-.24.22-.3.06a9.74 9.74 0 0 0-.1-.21.38.38 0 0 1 .04-.39l.1-.12c.11-.15.27-.12.27.04v.62Zm-1.24-3.4a.52.52 0 0 1-.9.03l-.1-.16a30.5 30.5 0 0 0-2.64-3.46.43.43 0 0 1 .33-.7c2.31 0 3.52.56 3.89 1.26.3.58.21 1.6-.58 3.03Zm-.52 12.05c-.12.32-.25.63-.39.94l-.06.13a8.72 8.72 0 0 1-4.17 3.81.55.55 0 0 1-.77-.64 48.95 48.95 0 0 0 1.42-7.29c.06-.48.3-.92.66-1.23.78-.68 1.51-1.36 2.18-2.03h.01a.62.62 0 0 1 1.03.26c.66 2.2.7 4.26.1 6.05Zm-5.17 8.17a25.09 25.09 0 0 1-1.67 1.62c-.23.21-.58-.05-.45-.33a43.77 43.77 0 0 0 .56-1.28c.03-.09.1-.15.2-.17.36-.1.72-.2 1.06-.31.28-.1.5.25.3.47Zm-3.8-2.05c-.77.12-1.57.19-2.42.22-2.06.07-4.24-.1-6.48-.52a.29.29 0 0 1-.08-.55c.5-.24.98-.5 1.47-.75a79.3 79.3 0 0 0 9.42-5.84c.21-.15.5.03.46.28a41.94 41.94 0 0 1-1.6 6.52.95.95 0 0 1-.77.64Zm-.79 3.11c-1.84 3.61-4.1 5.64-6.3 5.6-2.38-.04-4.75-2.52-6.51-6.8v-.01a.54.54 0 0 1 .28-.7l.06-.03a.55.55 0 0 1 .37-.02 35.72 35.72 0 0 0 10.55 1.39l1.13-.07c.34-.02.58.34.42.64Zm-10.88 6.87a25.55 25.55 0 0 1-17.21-3.85c-.28-.18-.16-.62.17-.63l.2-.01c1.04-.07 2.18-.23 3.42-.46a52.87 52.87 0 0 0 8.64-2.55.54.54 0 0 1 .7.3c1.2 2.9 2.66 5.1 4.3 6.48.27.23.14.68-.22.72ZM670 38.54a66.98 66.98 0 0 1 7.84-5.43c.06 3.73.47 7.3 1.2 10.54a47.19 47.19 0 0 1-9.04-5.1Zm-7.05 9.99c-.54-1.02.16-3.38 3.71-6.98a.88.88 0 0 0-.08-1.31l-.42-.34a.89.89 0 0 0-1.19.06l-.13.14a18.88 18.88 0 0 0-3.72 5.03.6.6 0 0 1-1.05.08 25.88 25.88 0 0 1-3.68-19.52c.06-.27.43-.29.5-.03a21.4 21.4 0 0 0 2.61 5.43 34.1 34.1 0 0 0 6.27 7.06 47.9 47.9 0 0 0 8.96 6.04c1 .5 1.96 1 2.94 1.44.55.25 1.17.27 1.73.05l1.4-.57c.51-.21.79-.77.65-1.3l-.03-.16a49.96 49.96 0 0 1-1.26-10.78v-1.82c.01-.66.04-1.31.07-1.96.24-4.64 1.03-9 2.28-12.66a.65.65 0 0 0-.4-.83l-1-.32a.65.65 0 0 0-.8.4 50.15 50.15 0 0 0-2.42 13.71 1.88 1.88 0 0 1-.92 1.54 71.02 71.02 0 0 0-8.03 5.49 1.3 1.3 0 0 1-1.66-.04 31.74 31.74 0 0 1-5.83-6.56c-2.95-4.52-3.65-8.78-1.97-11.99v-.02c.22-.35.44-.7.68-1.05 1.92-2.54 5.5-4.02 10.25-4.19l.9-.01c2.92 0 6.05.48 9.23 1.4.07.01.13.04.2.06l.17.04c.73.22 1.47.47 2.2.73l.06.02a43.23 43.23 0 0 1 .75.28l.18.07a46.27 46.27 0 0 1 12.67 7.42 67.48 67.48 0 0 0-15.01 5.71.77.77 0 0 0-.42.64l-.06 1.5c-.01.34.34.55.63.4a67.33 67.33 0 0 1 14.89-5.87c.84-.2 1.38-1 1.26-1.86-.08-.59-.17-1.18-.28-1.75a2.92 2.92 0 0 0-1.1-1.81 47.53 47.53 0 0 0-11.92-6.61.64.64 0 0 1-.33-.9c1.74-3.13 3.82-4.88 5.84-4.88h.06c2.38.05 4.76 2.53 6.52 6.81a35.5 35.5 0 0 1 2.05 7.4v-.01c.2 1.16.36 2.35.48 3.58l-.03.02.04.05a56.23 56.23 0 0 1 .03 10.5 72.6 72.6 0 0 1-11.47 7.43 83 83 0 0 1-4.26 2.1l-.06.04-.33.15a73.83 73.83 0 0 1-3.46 1.46l-.2.08a47.03 47.03 0 0 1-.8.3l-.16.06-.69.25-.08.03a47.6 47.6 0 0 1-6.88 1.94c-5.12.98-7.53.23-8.08-.81Zm3.68-38.43a25.54 25.54 0 0 1 19.17-4.43c.37.06.5.53.2.77a14.88 14.88 0 0 0-3.7 4.63c-.27.5-.84.73-1.38.58a34.94 34.94 0 0 0-10.6-1.4c-1.22.05-2.38.17-3.47.37-.31.06-.48-.34-.22-.52Zm35.32 18.75c-.01-.3.37-.42.54-.18a24.57 24.57 0 0 1 1.33 2.07c.14.24.1.55-.09.76a29.57 29.57 0 0 1-1.37 1.4.26.26 0 0 1-.44-.18 53.4 53.4 0 0 0 .03-3.87Zm-2.67-16.46.48.47a25.68 25.68 0 0 1 5.66 8.53.43.43 0 0 1-.48.6 12.6 12.6 0 0 0-2.49-.19 1.3 1.3 0 0 1-1.3-1.06 37.71 37.71 0 0 0-2.31-8.04c-.12-.28.22-.52.44-.3ZM709 25.22a27.86 27.86 0 0 0-7.61-14A27.87 27.87 0 0 0 681.55 3a27.86 27.86 0 0 0-19.83 8.22 28.38 28.38 0 0 0-4.24 5.4 27.88 27.88 0 0 0-3.98 14.43c0 7.5 2.92 14.54 8.22 19.84a27.87 27.87 0 0 0 19.83 8.22c7.5 0 14.54-2.92 19.84-8.22a28.02 28.02 0 0 0 7.63-25.6l-.02-.07Zm157.14 8.47h-5.3a.65.65 0 0 1-.57-.97l2.66-4.6a.65.65 0 0 1 1.12 0l2.65 4.6a.65.65 0 0 1-.56.97Zm6.98 4.37-8.37-14.52c-.6-.94-1.9-.94-2.51 0l-8.37 14.52a1.47 1.47 0 0 0 1.24 2.15c.57 0 1.02-.28 1.37-.9l1.29-2.25c.17-.3.48-.47.82-.47h9.78c.34 0 .66.18.83.47l1.29 2.25c.33.59.77.88 1.3.9a1.46 1.46 0 0 0 1.33-2.15Z" clip-rule="evenodd"/></g><path fill="#fff" d="m68.5 122.58 9.21-24.59h4.83l9.03 24.59h-3.92l-5.78-16.41a24.6 24.6 0 0 1-.84-2.9 16.4 16.4 0 0 1-.28-2.82h-1.47c0 .97-.1 1.94-.3 2.9-.2.96-.5 1.9-.85 2.82l-5.84 16.4H68.5Zm4.94-6.5 1.12-3.24h10.85l1.12 3.24H73.44Zm27.58 6.99c-1.18 0-2.35-.18-3.47-.57a6.9 6.9 0 0 1-2.7-1.68 5.5 5.5 0 0 1-1.44-2.74l3.12-1.02c.15.6.42 1.18.79 1.69.38.5.89.91 1.47 1.17.72.32 1.5.47 2.3.44.95.06 1.9-.15 2.74-.62a2.02 2.02 0 0 0 .96-1.8 2.1 2.1 0 0 0-.7-1.61 4.99 4.99 0 0 0-2.45-.93l-2.1-.39c-.98-.19-1.93-.49-2.85-.9a4.72 4.72 0 0 1-1.87-1.56 4.43 4.43 0 0 1-.71-2.6 4.5 4.5 0 0 1 .87-2.71 5.69 5.69 0 0 1 2.38-1.88 9 9 0 0 1 8 .6 6.07 6.07 0 0 1 2.35 3.13l-2.9 1.13a4.2 4.2 0 0 0-4.2-2.91 4 4 0 0 0-2.5.66 2.02 2.02 0 0 0-.86 1.65 1.74 1.74 0 0 0 .63 1.42c.7.45 1.5.74 2.32.83l2.07.38c1.45.3 2.82.88 4.05 1.7a4.16 4.16 0 0 1 1.8 3.72 4.89 4.89 0 0 1-3.28 4.74 9.9 9.9 0 0 1-3.82.66Zm17.21-.49a5.6 5.6 0 0 1-2.41-.48c-.64-.3-1.15-.8-1.47-1.42a5.21 5.21 0 0 1-.49-2.4v-10.41h-3.95v-2.72h3.95v-5.44h3.29v4.2a1.26 1.26 0 0 0 1.25 1.25h3.43v2.7h-4.68v10.15a1.51 1.51 0 0 0 1.01 1.67c.23.07.47.09.7.05h3.64v2.85h-4.27Zm7.97 0v-17.43h3.2a6.49 6.49 0 0 1-.57 2.42c-.35.9-.79 1.75-1.29 2.57h1.87c.33-1.44 1-2.77 1.98-3.86a5 5 0 0 1 3.75-1.37c.55-.02 1.1.04 1.64.17v3.37a16.8 16.8 0 0 0-1.87-.14 5.88 5.88 0 0 0-3.1.74 4.39 4.39 0 0 0-1.78 2.18 9.75 9.75 0 0 0-.58 3.58v7.77h-3.24Zm20.24.49a7.75 7.75 0 0 1-4.2-1.2 8.36 8.36 0 0 1-2.98-3.3 10.02 10.02 0 0 1-1.08-4.67c-.03-1.65.34-3.27 1.06-4.75a8.18 8.18 0 0 1 2.97-3.3 8.1 8.1 0 0 1 8.46 0 8.08 8.08 0 0 1 2.94 3.3 10.4 10.4 0 0 1 1.05 4.75c.03 1.62-.33 3.23-1.06 4.69a8.42 8.42 0 0 1-2.96 3.28 7.63 7.63 0 0 1-4.2 1.2Zm0-2.85a4.5 4.5 0 0 0 2.5-.7 4.45 4.45 0 0 0 1.68-2.11c.43-1.1.63-2.29.6-3.48a9.24 9.24 0 0 0-.6-3.55 4.6 4.6 0 0 0-1.68-2.15 4.4 4.4 0 0 0-2.5-.73c-.9-.02-1.8.23-2.56.73a4.6 4.6 0 0 0-1.67 2.15 9.22 9.22 0 0 0-.63 3.55 8.84 8.84 0 0 0 .63 3.47c.33.86.91 1.6 1.67 2.11.77.48 1.66.73 2.56.7Zm10.91 9.21v-24.28h2.97c-.03.66-.2 1.3-.48 1.88-.3.67-.66 1.3-1.1 1.89h1.88c.29-.7.65-1.38 1.06-2a5.33 5.33 0 0 1 4.57-2.26 6.1 6.1 0 0 1 3.63 1.13 7.42 7.42 0 0 1 2.5 3.21c.63 1.56.94 3.22.91 4.9.03 1.67-.28 3.33-.91 4.87a7.28 7.28 0 0 1-2.5 3.2 6.18 6.18 0 0 1-3.63 1.1 5.26 5.26 0 0 1-3.65-1.19 7.43 7.43 0 0 1-1.98-3.06h-1.92a15.6 15.6 0 0 1 1.43 2.95 12 12 0 0 1 .52 3.94v3.72h-3.3Zm7.87-9.17c.86.01 1.7-.2 2.45-.63a3.96 3.96 0 0 0 1.63-2.04c.42-1.19.62-2.45.58-3.7a9.76 9.76 0 0 0-.6-3.7 4.33 4.33 0 0 0-1.63-2.08 4.47 4.47 0 0 0-2.43-.63 4.36 4.36 0 0 0-2.47.71 4.8 4.8 0 0 0-1.65 2.19 9.1 9.1 0 0 0-.63 3.52 9.1 9.1 0 0 0 .63 3.52 4.27 4.27 0 0 0 4.16 2.84h-.04Zm19 2.81a7.72 7.72 0 0 1-4.2-1.2 8.26 8.26 0 0 1-2.98-3.3 10.08 10.08 0 0 1-1.08-4.67 10.3 10.3 0 0 1 1.07-4.75 8.14 8.14 0 0 1 2.95-3.3 8.1 8.1 0 0 1 8.47 0 8.05 8.05 0 0 1 2.94 3.3 10.4 10.4 0 0 1 1.05 4.75 10 10 0 0 1-1.08 4.69 8.42 8.42 0 0 1-2.96 3.28 7.64 7.64 0 0 1-4.18 1.2Zm0-2.85c.88.01 1.75-.23 2.5-.7a4.5 4.5 0 0 0 1.68-2.11 9 9 0 0 0 .6-3.48 9.38 9.38 0 0 0-.6-3.55 4.63 4.63 0 0 0-1.68-2.15 4.43 4.43 0 0 0-2.5-.73 4.49 4.49 0 0 0-2.5.73 4.64 4.64 0 0 0-1.71 2.15 9.39 9.39 0 0 0-.6 3.55 8.98 8.98 0 0 0 .6 3.47c.34.87.93 1.6 1.7 2.12.76.47 1.63.71 2.5.7Zm10.95 2.36v-17.43h3.18a6.47 6.47 0 0 1-.56 2.42c-.35.9-.79 1.75-1.3 2.57h1.88a8.7 8.7 0 0 1 1.98-3.86 5 5 0 0 1 3.75-1.37c.55-.02 1.1.04 1.64.17v3.37a16.8 16.8 0 0 0-1.87-.14 5.88 5.88 0 0 0-3.1.74 4.39 4.39 0 0 0-1.78 2.18 9.75 9.75 0 0 0-.58 3.58v7.77h-3.24Zm20.64 0a5.54 5.54 0 0 1-2.4-.48c-.64-.3-1.16-.8-1.48-1.42a5.14 5.14 0 0 1-.49-2.4v-10.41h-3.95v-2.72h3.95v-5.44h3.3v4.2a1.26 1.26 0 0 0 1.24 1.25h3.44v2.7h-4.69v10.15a1.51 1.51 0 0 0 1.02 1.67c.22.07.46.09.7.05h3.64v2.85h-4.28ZM64.5 85H57v7.53h2.5V87.5h5V85Zm-5 50.91v-5.01H57v7.52h7.5v-2.5h-5ZM229.5 85h-5v2.5h5v5.03h2.5V85h-2.5Zm0 45.9v5.01h-5v2.51h7.5v-7.52h-2.5Z"/><path fill="#fff" fill-rule="evenodd" d="M303.04 130.12s-1.24 2.13-2.95 3.92c-.53.67.17 1.27.73.78.55-.48 2.1-1.97 3.57-5.03 2.18-.54 4.74-1.25 6.74-2.63 4.05-2.79 4.68-7.55 5.42-9.22.68.33 1.14.94 1.44 1.3.09-2.04-.29-6.65-1.15-8.71-.97 1.95-1.31 3.9-3.54 7.15 1-.4 1.85-.3 1.93-.18-.17.42-1.04 3.53-3.68 5.92a9 9 0 0 1-5.73 2.42 20 20 0 0 0 .57-5.52c-.15-1.62-.94-4.88-4.3-7.98V98.96h4.33l2.87-2.97h-7.27v-.6s1.84-.91 1.84-3.03c0-2.12-1.9-3.37-3.33-3.37a3.35 3.35 0 0 0-3.36 3.39 1 1 0 0 0 .07.38s-2.01 1.2-2.75 3.24c-1.67 0-2.8-.05-2.8-.05l2.01 2.08s-1.03 4.01.5 7.1c1.51 3.1 2.06 3.54 4.76 5.97v8.6s.2 4.7-1.9 5.73c-2.11 1.04-4.77-.24-5.38-.56-.61-.32-4.16-1.88-5.87-7.33-.02-.1 0-.1 0-.1s1.18-.1 1.8.22c-.68-1.45-2.04-2.77-3.41-7.14a22.28 22.28 0 0 0-1.14 8.6 3.56 3.56 0 0 1 1.4-1.16c.13.89 1.2 6.3 5.64 9.36 2.84 1.95 8.27 2.75 10.39 3.6.58-.3 1.48-.54 2.55-.8Zm-1.02-16.18-.02 4.31s-.08 4.62.65 5.88a3.15 3.15 0 0 0 1.97 1.59c.23-.85.61-2.37.61-4.28 0-1.9-.4-3.22-1.11-4.77-.69-1.5-2.1-2.73-2.1-2.73Zm-7.3-14.93 4.24-.04v10.63s-3.37-2.71-4.11-5.92c-.74-3.2-.13-4.67-.13-4.67Z" clip-rule="evenodd"/><path fill="#fff" d="M341.95 97.73h5.45L358.68 127h-5.5l-2.75-7.75h-11.68L336 127h-5.29l11.24-29.27Zm-1.8 17.63h8.93l-4.39-12.6h-.12l-4.43 12.6Zm21.07-9.56h4.42v3.12l.09.08a7.66 7.66 0 0 1 6.6-3.77c2.32 0 4.15.6 5.5 1.8 1.33 1.2 2 3 2 5.41V127h-4.67v-13.33c-.06-1.66-.41-2.86-1.07-3.6-.65-.77-1.68-1.15-3.07-1.15a4.87 4.87 0 0 0-3.73 1.64c-.44.5-.78 1.08-1.03 1.76-.25.69-.37 1.4-.37 2.18V127h-4.67v-21.2Zm38.26 7.1a4.28 4.28 0 0 0-1.6-2.96 5 5 0 0 0-3.24-1.02c-.6 0-1.24.1-1.93.33a4.3 4.3 0 0 0-1.88 1.14 6.19 6.19 0 0 0-1.44 2.34c-.38.99-.57 2.28-.57 3.9 0 .87.1 1.75.29 2.62.21.88.54 1.65.98 2.34a5.75 5.75 0 0 0 1.76 1.68c.71.4 1.57.61 2.59.61 1.36 0 2.48-.42 3.36-1.27a5.85 5.85 0 0 0 1.68-3.56h4.67c-.44 2.76-1.49 4.88-3.15 6.35-1.64 1.45-3.83 2.17-6.56 2.17-1.67 0-3.15-.27-4.43-.82a9.77 9.77 0 0 1-3.2-2.3 10.2 10.2 0 0 1-2-3.48 13.9 13.9 0 0 1-.67-4.34c0-1.59.22-3.08.66-4.47.44-1.4 1.1-2.6 1.97-3.61a8.92 8.92 0 0 1 3.24-2.42c1.31-.6 2.84-.9 4.59-.9 1.23 0 2.4.16 3.48.5 1.13.3 2.1.76 2.96 1.38a7.43 7.43 0 0 1 2.13 2.38c.54.96.87 2.1.98 3.4h-4.67Zm8.88-15.17h4.68v10.86h.08a7.55 7.55 0 0 1 6.36-3.36c2.32 0 4.15.6 5.49 1.8 1.34 1.2 2 3 2 5.41V127h-4.67v-13.33c-.05-1.66-.4-2.86-1.06-3.6-.66-.77-1.69-1.15-3.08-1.15a4.88 4.88 0 0 0-4.76 3.4c-.24.69-.36 1.4-.36 2.18V127h-4.68V97.73Zm33.67 29.84c-1.7 0-3.21-.27-4.55-.82a10.17 10.17 0 0 1-3.36-2.33c-.9-.99-1.6-2.16-2.1-3.53a14.06 14.06 0 0 1-.69-4.5c0-1.62.23-3.11.7-4.48a10.32 10.32 0 0 1 2.09-3.52 9.67 9.67 0 0 1 3.36-2.3c1.34-.57 2.86-.86 4.55-.86 1.7 0 3.2.29 4.51.86a9.53 9.53 0 0 1 5.45 5.82c.5 1.37.74 2.86.74 4.47 0 1.64-.24 3.14-.74 4.51a9.54 9.54 0 0 1-5.45 5.86c-1.31.55-2.81.82-4.5.82Zm0-3.69a5.36 5.36 0 0 0 4.6-2.37c.49-.72.84-1.5 1.06-2.38a10.4 10.4 0 0 0 0-5.45c-.22-.9-.57-1.7-1.07-2.38a5.35 5.35 0 0 0-4.6-2.38 5.35 5.35 0 0 0-4.58 2.38c-.5.68-.86 1.47-1.1 2.38a11.43 11.43 0 0 0 0 5.45c.24.87.6 1.67 1.1 2.38a5.36 5.36 0 0 0 4.6 2.38Zm15-18.08h4.39v4.1h.08c.13-.57.4-1.13.78-1.68a8.1 8.1 0 0 1 3.32-2.58 5.57 5.57 0 0 1 2.09-.41c.55 0 .91.01 1.1.04l.66.08v4.51c-.33-.05-.67-.1-1.02-.12a5.31 5.31 0 0 0-5.04 1.8c-.53.6-.94 1.36-1.24 2.26-.3.9-.45 1.94-.45 3.11V127h-4.67v-21.2Zm134.48-2c0-.13-.04-.2-.17-.2h-2.7c-.13 0-.19.06-.19.19v.95a4.27 4.27 0 0 0-1.99-1.23 4.83 4.83 0 0 0-4.65 1.17 5.63 5.63 0 0 0-1.7 5.66 5.24 5.24 0 0 0 5.65 4.19c.91-.1 1.73-.45 2.4-1.1.07-.06.12-.18.28-.15-.02.61.04 1.22-.08 1.83a2.3 2.3 0 0 1-2.07 1.88c-1.14.14-2.21-.19-2.71-1.24-.15-.31-.31-.4-.62-.39-.58.03-1.15 0-1.73.02-.26 0-.51-.05-.78.03-.03.2 0 .38.05.56a4.41 4.41 0 0 0 2.96 3.18c1.47.55 2.97.56 4.46.1a4.62 4.62 0 0 0 3.36-3.49c.15-.57.2-1.15.2-1.75v-9.96c.03-.07.03-.16.03-.25Zm-5.62 8a2.78 2.78 0 0 1-2.84-2.84 2.78 2.78 0 0 1 2.8-2.84 2.75 2.75 0 0 1 2.82 2.85 2.74 2.74 0 0 1-2.78 2.84Zm41.74-7.07c-1.9-1.84-4.85-1.85-6.51-.08-.03.03-.06.03-.12 0v-.74c.02-.25-.09-.31-.32-.31h-2.23c-.59 0-.51-.06-.51.51v14.93c.01.3.01.32.34.32h2.37c.34 0 .35 0 .35-.37v-5.48c.5.55 1 .9 1.6 1.13 1.79.7 3.91.2 5.3-1.32a5.88 5.88 0 0 0 1.53-3.3 6.04 6.04 0 0 0-1.8-5.3Zm-1.43 5.5a2.66 2.66 0 0 1-2.6 1.92 2.72 2.72 0 0 1-2.77-2.32 3.5 3.5 0 0 1 .08-1.7 2.72 2.72 0 0 1 2.77-2c1.33.05 2.36.96 2.62 2.27.1.63.1 1.23-.1 1.84Zm-32.5-20.7a4.11 4.11 0 0 1 4.12-1.37c1.77.32 2.75 1.48 3.18 3.17.13.53.2 1.06.2 1.6v6.2c.02.22-.07.33-.29.3h-2.35c-.42 0-.42.03-.42-.4V93.5c0-.34-.03-.68-.1-1.02-.28-1.4-1.55-2.04-2.87-1.45-.53.23-.9.65-1.14 1.17a4.44 4.44 0 0 0-.33 1.85v4.98c0 .38 0 .38-.37.38h-2.37c-.31-.01-.31-.01-.33-.35v-15.8c0-.08.02-.17 0-.24-.03-.25.09-.3.33-.3h2.37c.37 0 .38 0 .38.37v5.83l-.01.6Zm41.54 15.17c1.37-1.42 3-1.67 4.76-1.07 1.5.51 2.24 1.72 2.56 3.21.1.47.12.96.12 1.43v6.21c0 .15-.04.24-.2.24h-2.66c-.13 0-.2-.06-.2-.2v-5.69c0-.37-.02-.74-.1-1.1-.18-.73-.53-1.31-1.29-1.52a2.16 2.16 0 0 0-2.15.53 2.9 2.9 0 0 0-.85 2.04c-.03.34-.02.68-.02 1.02v4.5c0 .4 0 .4-.4.4h-2.32c-.34 0-.34 0-.35-.37v-15.8c0-.6-.06-.51.51-.51h2.1c.5 0 .45-.03.45.44v5.74c.01.16-.02.32.04.5Zm-20.96-1.12c-.85 0-1.7.02-2.56 0-.22 0-.26.09-.25.28.02.27 0 .52 0 .87l-.19-.15a3.96 3.96 0 0 0-3.14-1.23 4.84 4.84 0 0 0-3.8 1.94 6.06 6.06 0 0 0-1.14 5.33 5.45 5.45 0 0 0 2.76 3.76c1.71.94 4.05.73 5.35-.7.03-.04.07-.07.15 0v.76c-.02.22.09.29.3.28.74-.02 1.5 0 2.23 0 .56 0 .53.08.53-.52v-10.37c.03-.19-.06-.25-.24-.25Zm-2.7 6.6a2.68 2.68 0 0 1-2.76 1.96 2.68 2.68 0 0 1-2.6-2.11c-.15-.66-.14-1.3.07-1.97a2.7 2.7 0 0 1 2.74-1.94 2.7 2.7 0 0 1 2.59 2.13c.07.28.12.58.1.87.02.37-.04.72-.14 1.06Zm3.65-17.66a5.41 5.41 0 0 0-3.74-4.17 5.84 5.84 0 0 0-2.71-.23 5.5 5.5 0 0 0-4.61 3.4 5.9 5.9 0 0 0-.36 3.46 5.23 5.23 0 0 0 3.02 4.08c2.18 1 4.33.84 6.37-.46a4.94 4.94 0 0 0 1.9-2.27c.05-.15.16-.3.13-.52h-2.96c-.15 0-.22.1-.28.2a2 2 0 0 1-.7.64 3.3 3.3 0 0 1-1.98.37c-1.43-.15-2.37-1.02-2.54-2.37.2-.07.37-.04.53-.04h7.81c.32 0 .32-.02.34-.33a8.8 8.8 0 0 0-.22-1.76Zm-8.34.03c.15-1.19 1.31-2.04 2.68-2.01 1.24.03 2.33.94 2.42 2.01h-5.1Zm-18.88 4.15v2.42c0 .22-.15.25-.3.28-.51.13-1.04.16-1.56.16-.75 0-1.48-.09-2.16-.41a3.54 3.54 0 0 1-2.1-2.75 5.86 5.86 0 0 1-.08-1.01v-4.03c0-.36 0-.38-.38-.38h-1.58c-.22 0-.3-.06-.3-.3.02-.7.02-1.42 0-2.12 0-.2.08-.27.27-.27.56.02 1.12-.01 1.67.02.25 0 .32-.08.32-.31-.01-.8 0-1.6 0-2.41 0-.35 0-.37.35-.37h2.42c.22 0 .3.06.3.3-.02.77 0 1.54 0 2.32 0 .53-.05.48.5.48h2.34c.22 0 .33.05.32.31v2.09c0 .26-.1.3-.32.29h-2.46c-.36 0-.37 0-.37.35v3.51c0 .25.03.5.07.74.12.63.49 1.01 1.1 1.16.58.13 1.14.09 1.7-.05.06-.04.13-.07.25-.03Zm9.94 8.43c.18-.1.2-.25.28-.36a3.11 3.11 0 0 1 3.27-1.25c.15.03.25.1.25.28v2.84c-.25.01-.44-.08-.65-.12-1.59-.34-2.78.47-3.08 2.07-.05.3-.07.57-.07.87v4.67c0 .09-.01.19 0 .28.03.25-.1.3-.32.3h-2.42c-.32 0-.32 0-.32-.33v-10.46c0-.23.06-.32.3-.32h2.47c.25 0 .3.1.3.32v1.2ZM542 123.3a22.97 22.97 0 0 1-22.98-22.91A22.92 22.92 0 0 1 542 77.47a22.99 22.99 0 0 1 22.98 22.91A22.92 22.92 0 0 1 542 123.3Zm0-38.43a15.53 15.53 0 0 0-15.54 15.5 15.55 15.55 0 0 0 31.1 0c0-8.55-6.99-15.5-15.56-15.5Zm26.83-.1a3.62 3.62 0 1 0 .01-7.24 3.62 3.62 0 0 0 0 7.24Zm-23.02 61.38a3.7 3.7 0 0 1-2.62-1.09 3.69 3.69 0 0 1 0-5.24l15.47-15.42a3.71 3.71 0 0 1 5.25 5.24l-15.46 15.42a3.72 3.72 0 0 1-2.64 1.09Z"/><g fill="#fff" clip-path="url(#c)"><path d="M702.7 287.56a.65.65 0 0 1-.66-.66V254c-.08-1.4.09-6.5 4.06-10.63a14.28 14.28 0 0 1 10-4.37 14.56 14.56 0 0 1 9.92 3.8 14.35 14.35 0 0 1 4.54 9.97c.17 5.44-2.89 8.98-4.13 10.3a14.55 14.55 0 0 1-9.84 4.2.71.71 0 0 1-.66-.65c0-.41.25-.66.66-.66 1.57 0 5.62-.5 8.93-3.8.91-.9 3.89-4.28 3.8-9.3a12.5 12.5 0 0 0-4.13-9c-.9-.82-4.05-3.37-8.76-3.37h-.25c-4.8.08-7.94 2.8-9.1 3.95-3.63 3.63-3.71 8.25-3.71 9.57v32.89c0 .41-.25.66-.66.66Z"/><path d="M716.18 258.05a4.8 4.8 0 1 1 0-9.59 4.8 4.8 0 0 1 0 9.59Zm0-8.33a3.49 3.49 0 0 0-3.47 3.46c0 1.9 1.57 3.46 3.47 3.46 1.9 0 3.47-1.56 3.47-3.46s-1.57-3.46-3.47-3.46Zm-9.01 26.3a.65.65 0 0 1-.66-.66V254c0-.42.33-.66.66-.66s.66.33.66.66v21.35c0 .33-.33.66-.66.66Zm4.79 6.68a.65.65 0 0 1-.66-.66v-11.38c0-.41.33-.66.66-.66s.66.33.66.66v11.38c.09.32-.24.65-.66.65Zm-13.56-5.36a.65.65 0 0 1-.65-.66v-14.51c0-.42.33-.66.66-.66s.66.33.66.66v14.5c0 .42-.25.67-.66.67Z"/><path d="M716.18 262.83a9.67 9.67 0 0 1-9.67-9.65 9.67 9.67 0 0 1 19.34 0 9.72 9.72 0 0 1-9.67 9.65Zm0-17.97a8.32 8.32 0 1 0 0 16.65 8.31 8.31 0 1 0 0-16.66Zm69.36 7.41h-2.81c-.17 0-.25.09-.34.17l-5.04 6.51c-.33.41-.58.83-.82 1.16-.17-.33-.5-.75-.83-1.16l-5.13-6.51c-.08-.08-.16-.17-.33-.17h-2.73c-.16 0-.33.09-.33.25-.08.17-.08.33.09.41l7.69 10.06v8.99c0 .25.16.41.4.41h2.4c.25 0 .42-.16.42-.41v-9.07l7.69-10.06c.08-.16.08-.33.08-.41-.08 0-.25-.17-.41-.17Zm22.32 0h-16.78a.4.4 0 0 0-.42.42v2.06c0 .25.17.41.42.41h6.77v16.82c0 .25.17.41.42.41h2.4c.24 0 .4-.16.4-.41v-16.74h6.79c.24 0 .4-.16.4-.41v-2.06c0-.25-.16-.5-.4-.5Zm-54.48 0h-7.94c-.24 0-.41.17-.41.42v19.29c0 .25.17.41.41.41h2.4c.25 0 .41-.16.41-.41v-16.9h5.38c2.97 0 5.12 1.98 5.12 4.78 0 2.8-2.15 4.78-5.2 4.78h-.83s-.25 0-.33.17c-.09.08-.09.24-.09.24v2.06s0 .17.09.33c.08.09.25.09.33.09h.58c.41 0 4.54.24 7.02-2.89a8.07 8.07 0 0 0 1.66-4.78c.16-4.45-3.4-7.59-8.6-7.59Zm64.72 8v-7.58c0-.25-.16-.41-.4-.41h-2.4c-.25 0-.42.16-.42.4v19.3c0 .25.17.41.42.41h2.4c.24 0 .4-.16.4-.41v-8.82m13.23-10.88h-2.4c-.24 0-.4.16-.4.4v7.6h-6.54a.35.35 0 0 0-.33.32v2.23c0 .16.17.33.33.33h6.53v8.9c0 .25.17.41.41.41h2.4c.25 0 .41-.16.41-.4v-19.38c0-.17-.16-.41-.4-.41Z"/></g><g fill="#fff" fill-rule="evenodd" clip-path="url(#d)" clip-rule="evenodd"><path d="m278.66 232.43 17.37 17.22a1.1 1.1 0 0 1 0 1.56c-.22.21-.5.32-.78.32h-17.38c-.6 0-1.1-.5-1.1-1.1V233.2a1.11 1.11 0 0 1 1.9-.77Zm13.91 16.9-13.59-13.48v13.48h13.6Z"/><path d="m311.83 268.43-17.37-17.22a1.1 1.1 0 0 1 0-1.56c.22-.21.5-.32.79-.32h17.37c.61 0 1.1.5 1.1 1.1v17.23c0 .6-.49 1.1-1.1 1.1-.31 0-.6-.13-.8-.33Zm-13.91-16.9 13.6 13.48v-13.48h-13.6Z"/><path d="m278.98 265 13.6-13.47h-13.6V265Zm17.05-13.8-17.37 17.23a1.11 1.11 0 0 1-1.9-.77v-17.23c0-.6.5-1.1 1.11-1.1h17.38c.28 0 .56.11.78.32a1.1 1.1 0 0 1 0 1.56Z"/><path d="m294.14 253.08-13.6 13.48h13.6v-13.48Zm-17.05 13.8 17.37-17.22a1.11 1.11 0 0 1 1.9.77v17.23c0 .6-.5 1.1-1.11 1.1h-17.38a1.1 1.1 0 0 1-.78-1.88Z"/><path d="m311.51 235.85-13.59 13.48h13.6v-13.48Zm-17.05 13.8 17.37-17.22a1.11 1.11 0 0 1 1.9.77v17.23c0 .6-.5 1.1-1.11 1.1h-17.37a1.1 1.1 0 0 1-.78-1.88Z"/><path d="m296.35 247.78 13.6-13.48h-13.6v13.48Zm17.05-13.8-17.36 17.22a1.11 1.11 0 0 1-1.9-.77V233.2c0-.6.5-1.1 1.1-1.1h17.38c.28 0 .57.11.78.33a1.1 1.1 0 0 1 0 1.55Zm10.78 40.42a7.43 7.43 0 0 0-6 2.88h-.15v-2.36h-4.2v18.37h4.28v-9.35c0-3.18 2.16-5.36 5-5.36 2.64 0 4.4 1.92 4.4 4.8v9.9h4.28v-10.56c0-5.18-2.98-8.32-7.6-8.32Zm20.28 0c-5.7 0-9.61 4.29-9.61 9.72 0 5.21 3.54 9.69 9.61 9.69 4.36 0 7.98-2.3 9.17-6.29h-4.43c-.75 1.48-2.57 2.4-4.66 2.37-2.91-.08-4.92-1.96-5.26-4.33h14.65c.56-6.32-3.32-11.16-9.47-11.16Zm-.07 3.92c2.6 0 4.55 1.48 5.1 3.77h-10.13c.52-2.26 2.46-3.77 5.03-3.77Zm21.95 15.49c5.93 0 9.88-4.3 9.88-9.73 0-5.43-3.91-9.68-9.88-9.68-6.07 0-10.02 4.25-10.02 9.68 0 5.44 3.99 9.73 10.02 9.73Zm0-4.07a5.49 5.49 0 0 1-5.7-5.62 5.45 5.45 0 0 1 5.7-5.62c3.36 0 5.6 2.48 5.6 5.62a5.46 5.46 0 0 1-5.6 5.62Zm23.49-15.34a7.43 7.43 0 0 0-6 2.88h-.15v-2.36h-4.21v18.37h4.28v-9.35c0-3.18 2.16-5.36 5-5.36 2.64 0 4.4 1.92 4.4 4.8v9.9h4.28v-10.56c0-5.18-2.98-8.32-7.6-8.32Z"/></g><path fill="#fff" d="M692 92v40h37.03v-4.48h-32.6V96.48h32.6V92H692Zm63.73 17.85 6.23-9.77h5.15l-7.4 11.61v.62l7.8 11.59h-5.35l-6.43-9.75v-4.3Zm26.57 4.3h5.92l-2.65-11.82h-.62l-2.66 11.82Zm6.92 4.48h-7.93l-1.18 5.27h-4.64l5.62-23.82h8.34l5.62 23.82h-4.64l-1.19-5.27Zm17.6-18.55h4.43v19.54h10.71v4.28h-15.14v-23.82Z"/><path fill="#fff" d="M732.71 107.37c0-.95-.37-1.78-1.1-2.48a4.28 4.28 0 0 0-3.09-1.05c-1.12 0-2 .23-2.65.7a2.2 2.2 0 0 0-.99 1.88c0 .41.09.79.25 1.12.16.33.43.62.82.89.39.26.9.5 1.55.7.63.2 1.45.4 2.43.58 2.48.45 4.36 1.22 5.66 2.27 1.31 1.07 1.97 2.64 1.97 4.73v.41c0 1.12-.2 2.11-.6 3.02a6.43 6.43 0 0 1-1.7 2.3 7.73 7.73 0 0 1-2.7 1.46c-1.05.33-2.24.52-3.57.52-1.55 0-2.9-.23-4.09-.66a7.64 7.64 0 0 1-4.72-4.59 9.48 9.48 0 0 1-.6-3.45v-.2H724c0 1.42.4 2.55 1.22 3.42.82.85 2.09 1.28 3.82 1.28 1.35 0 2.35-.29 3-.89.66-.6.99-1.3.99-2.1a3 3 0 0 0-.2-1.12 2.38 2.38 0 0 0-.72-.95 4.5 4.5 0 0 0-1.39-.76c-.6-.23-1.33-.42-2.23-.58a22.9 22.9 0 0 1-3.27-.8 9.44 9.44 0 0 1-2.57-1.3 5.47 5.47 0 0 1-1.7-2.05 6.68 6.68 0 0 1-.61-3v-.2a6.32 6.32 0 0 1 2.25-4.88 7.35 7.35 0 0 1 2.55-1.43c1-.33 2.1-.52 3.35-.52 1.4 0 2.62.21 3.7.6 1.08.4 1.98.93 2.72 1.62a7.8 7.8 0 0 1 1.66 2.35c.53 1.05.55 3.2.55 3.2l-4.42-.04Zm99.59-7.29v23.82h15.3v-4.28h-10.84v-15.24h10.83v-4.3h-15.28Zm-79.74 0h-4.44v23.82h4.44v-23.82Z"/><path fill="#fff" d="M844.2 109.85h-4.25v4.3h4.25v-4.3Z"/><path fill="#fff" fill-rule="evenodd" d="M346.44 188.55c5.99 0 10.84-4.85 10.84-10.83 0-5.87-4.85-10.72-10.84-10.72a10.9 10.9 0 0 0-10.85 10.72c0-5.87-4.86-10.72-10.85-10.72a10.82 10.82 0 0 0 0 21.66 10.84 10.84 0 1 0 10.96 10.83 10.9 10.9 0 0 0-10.74-10.83 10.8 10.8 0 0 0 10.74-10.72c0 5.87 4.75 10.6 10.74 10.6Z" clip-rule="evenodd"/><path fill="#fff" d="M346.44 210.21a10.84 10.84 0 1 0 0-21.68 10.84 10.84 0 0 0 0 21.68Zm53.45-38.36h-4.52v27.75h4.52v-27.75Z"/><path fill="#fff" fill-rule="evenodd" d="M379.1 186.07a5.06 5.06 0 0 1 3.61-1.58 4.33 4.33 0 0 1 4.52 3.5l3.96-1.47a7.43 7.43 0 0 0-2.94-4.29c-1.47-1.24-3.39-1.8-5.65-1.8a9.3 9.3 0 0 0-6.9 2.82 9.97 9.97 0 0 0-2.7 7.1c0 2.82.9 5.2 2.7 7.11a9.3 9.3 0 0 0 6.9 2.82c2.26 0 4.18-.56 5.65-1.8a9.43 9.43 0 0 0 3.05-4.29l-3.84-1.47a4.65 4.65 0 0 1-4.75 3.39 5.13 5.13 0 0 1-3.73-1.58c-1.01-1.02-1.47-2.48-1.47-4.29.12-1.7.57-3.16 1.59-4.17Zm31.08 8.57a5.13 5.13 0 0 0 3.72 1.58 5.1 5.1 0 0 0 3.73-1.58c1.02-1.01 1.59-2.48 1.59-4.4a5.9 5.9 0 0 0-1.59-4.29 5.13 5.13 0 0 0-3.73-1.58c-1.46 0-2.7.57-3.72 1.58-1.02 1.02-1.47 2.49-1.47 4.3a5.5 5.5 0 0 0 1.47 4.4Zm3.72-14.21c2.83 0 5.2.9 7.01 2.82a10.06 10.06 0 0 1 2.83 7.1c0 2.94-.9 5.3-2.72 7.11-1.8 1.92-4.18 2.82-7 2.82-2.83 0-5.09-.9-7.01-2.82a9.97 9.97 0 0 1-2.71-7.1c0-2.83.9-5.2 2.71-7.11 1.7-1.92 4.07-2.82 6.9-2.82Zm23.06 19.17 7.35-18.72h-4.75l-4.86 13.31-4.97-13.31h-4.86l7.57 18.72h4.52Zm13.11-11.39h9.15c0-1.13-.45-2.14-1.24-2.93a4.62 4.62 0 0 0-3.4-1.24c-1.35 0-2.36.45-3.27 1.24a6.1 6.1 0 0 0-1.24 2.93Zm9.72 4.97 3.73 1.24a8.88 8.88 0 0 1-3.05 4.28 8.64 8.64 0 0 1-5.43 1.7 9.2 9.2 0 0 1-6.78-2.71c-1.8-1.8-2.71-4.29-2.71-7.34 0-2.82.9-5.19 2.71-7.1a8.81 8.81 0 0 1 6.44-2.71c2.83 0 5.09.9 6.67 2.6 1.58 1.69 2.49 4.06 2.49 7.1 0 .8 0 1.24-.12 1.47h-13.67c0 1.35.56 2.6 1.58 3.5a5.14 5.14 0 0 0 3.62 1.35c2.26-.23 3.84-1.24 4.52-3.38Zm19.21-7.79v-4.51c-.34-.12-.8-.12-1.24-.12a6.2 6.2 0 0 0-3.28.9 4.86 4.86 0 0 0-2.15 2.38v-3.05h-4.3v18.73h4.42v-8.91c0-3.62 1.69-5.53 4.97-5.53.56 0 1.13 0 1.58.1Z" clip-rule="evenodd"/><path fill="#fff" d="M633.3 188.98c0 1.97-.37 3.91-1.11 5.73a14.9 14.9 0 0 1-13.7 9.14 14.9 14.9 0 0 1-13.73-9.16 14.7 14.7 0 0 1-1.1-5.7 15 15 0 0 1 1.1-5.75 14.69 14.69 0 0 1 8.05-8 14.95 14.95 0 0 1 16.19 3.2 14.34 14.34 0 0 1 3.2 4.79 15.12 15.12 0 0 1 1.1 5.75Zm-14.83 11.7a10.96 10.96 0 0 0 8.04-3.44 11.5 11.5 0 0 0 3.33-8.25 12 12 0 0 0-.87-4.52 11.4 11.4 0 0 0-8.3-6.98 11.2 11.2 0 0 0-6.59.65 11.64 11.64 0 0 0-7 10.88c0 1.52.29 3.03.85 4.44a11.88 11.88 0 0 0 6.2 6.35c1.37.58 2.85.88 4.34.87Zm20.21 2.42v-28.3h5.77c1.5-.05 3.02.06 4.5.31.9.18 1.75.56 2.5 1.1a6.71 6.71 0 0 1 2.02 2.58 8.1 8.1 0 0 1 .74 3.46 6.37 6.37 0 0 1-1.06 3.75 5.48 5.48 0 0 1-3.06 2.11 5.85 5.85 0 0 1 3.88 2.27 7.5 7.5 0 0 1 1.44 4.7 8.82 8.82 0 0 1-2.27 5.91 6.41 6.41 0 0 1-2.9 1.66c-1.15.33-3.08.49-5.8.49l-5.76-.04Zm3.22-25.4v9.47h2.55c2.35 0 4.01-.34 4.99-1.04.96-.7 1.43-1.87 1.43-3.52 0-1.82-.44-3.1-1.33-3.82-.88-.73-2.57-1.1-5.07-1.1h-2.57Zm0 12.13v10.33h2.55a23.5 23.5 0 0 0 3.8-.22c.67-.1 1.3-.34 1.87-.73a4.11 4.11 0 0 0 1.34-1.7c.34-.77.5-1.6.5-2.44a5.86 5.86 0 0 0-.6-2.69 4.28 4.28 0 0 0-1.7-1.78c-.47-.28-1-.47-1.53-.56-.9-.14-1.8-.2-2.71-.17h-3.52v-.04Zm46.95-.85c.01 1.97-.37 3.91-1.1 5.73a14.9 14.9 0 0 1-13.7 9.14 14.9 14.9 0 0 1-10.51-4.36 14.91 14.91 0 0 1-4.05-7.62c-.58-2.9-.3-5.9.82-8.63a14.65 14.65 0 0 1 8.05-8 14.95 14.95 0 0 1 16.18 3.2 14.34 14.34 0 0 1 3.2 4.79 15.14 15.14 0 0 1 1.11 5.75Zm-14.82 11.7a10.95 10.95 0 0 0 8.04-3.44 11.5 11.5 0 0 0 3.32-8.25 12 12 0 0 0-.86-4.52 11.5 11.5 0 0 0-4.18-5.25 11.13 11.13 0 0 0-6.35-1.96 10.89 10.89 0 0 0-8.04 3.4 11.64 11.64 0 0 0-3.33 8.35c0 1.53.28 3.04.84 4.45a11.86 11.86 0 0 0 6.2 6.36c1.38.59 2.87.88 4.36.86Zm20.2 2.42v-28.3h3.3v25.09H708v3.2h-13.77Z"/><path stroke="#fff" stroke-miterlimit="10" stroke-width="3" d="M589.03 187.85c0 16.13-12.8 21.26-28.58 11.48-15.79-9.78-28.23-12.54-27.79-6.16.44 6.37 13.26 1.24 28.6-11.48 15.33-12.72 27.77-9.96 27.77 6.16Z"/><g fill="#fff" clip-path="url(#e)"><path d="M831.69 188.94h-3.36v12.5h-4.69v-12.5h-2.42v-4.01h2.42v-1.56c0-4.04 2.53-6.12 6.37-6.12a8 8 0 0 1 1.76.21v4.68a4.5 4.5 0 0 0-1.59-.31 1.7 1.7 0 0 0-1.83 1.83v1.24h3.36l-.02 4.04Zm7.05 12.5h-4.73v-23.83h4.74v23.83Zm10.52-17.54a8.99 8.99 0 0 1 8.82 10.7 8.96 8.96 0 0 1-16.27 3.23 8.95 8.95 0 0 1-1.5-4.99 8.85 8.85 0 0 1 8.95-8.95Zm0 13.33c2.42 0 4.17-2 4.17-4.39a4.15 4.15 0 0 0-4.17-4.35 4.38 4.38 0 0 0 0 8.74Zm13.91-12.99 3.05 11.44 3.04-9.09-.83-2.34h4.69l4.01 11.44 2.97-11.44h4.87l-5.12 17.2h-4.92l-3.42-9.43-3.2 9.42h-4.95l-5.09-17.2h4.9Z"/><path fill-rule="evenodd" d="M812.07 189c0 14.36-11.66 26-26.04 26A26.02 26.02 0 0 1 760 189c0-14.36 11.66-26 26.03-26a26.02 26.02 0 0 1 26.04 26Zm-19.2-7.74h8.26v-7.34h-8.26a10.13 10.13 0 0 0-10.11 10.1v.91h7.35v-.92a2.75 2.75 0 0 1 2.76-2.75Zm-10.58 15.3c.3-.46.47-.99.47-1.53v-2.76h7.35v2.76a10.09 10.09 0 0 1-12.08 9.9 10.12 10.12 0 0 1-7.37-13.77 10.1 10.1 0 0 1 9.34-6.23h2.76v7.34H780a2.76 2.76 0 1 0 2.3 4.29Zm7.82-11.63h7.35v7.34h-7.35v-7.34Z" clip-rule="evenodd"/><path d="M782.76 192.27h7.35v-7.34h-7.35v7.34Z"/></g><g fill="#fff" clip-path="url(#f)"><path d="M130.6 262.05c0 6.36 4.74 11.28 11.33 11.28 6.6 0 11.36-4.92 11.36-11.28 0-6.36-4.76-11.28-11.36-11.28s-11.32 4.92-11.32 11.28Zm4.31 0a6.84 6.84 0 0 1 7.02-7.05 6.82 6.82 0 0 1 7.02 7.05 6.82 6.82 0 0 1-7.02 7.05 6.84 6.84 0 0 1-7.02-7.05ZM171.06 273h4.37l-7.17-21.9h-4.43L156.6 273h4.28l1.02-3.12h8.14l1.02 3.12Zm-7.8-7.26 2.7-8.31 2.72 8.31h-5.42Zm27.87-8.25h4.31c0-3.99-3.34-6.72-7.86-6.72-4.61 0-7.8 2.91-7.8 6.9a5.74 5.74 0 0 0 4.45 5.79c1.96.54 4.28.39 5.7.9.87.3 1.57.99 1.57 2.07 0 1.59-1.36 2.82-3.68 2.82-2.26 0-3.95-1.17-3.95-2.91h-4.27c0 4.14 3.49 6.99 8.16 6.99 4.82 0 8.01-3 8.01-7.14 0-2.94-1.71-5.07-4.52-5.91-2.1-.63-4.24-.36-5.66-.87-.93-.33-1.54-1.02-1.54-1.95 0-1.47 1.33-2.61 3.47-2.61 2.1 0 3.55 1.05 3.61 2.64ZM201.76 273h4.3v-21.9h-4.3V273Zm21.93-15.51h4.3c0-3.99-3.34-6.72-7.86-6.72-4.6 0-7.8 2.91-7.8 6.9a5.74 5.74 0 0 0 4.46 5.79c1.96.54 4.28.39 5.7.9.86.3 1.56.99 1.56 2.07 0 1.59-1.36 2.82-3.68 2.82-2.26 0-3.94-1.17-3.94-2.91h-4.28c0 4.14 3.5 6.99 8.16 6.99 4.82 0 8.02-3 8.02-7.14 0-2.94-1.72-5.07-4.52-5.91-2.11-.63-4.25-.36-5.67-.87-.93-.33-1.53-1.02-1.53-1.95 0-1.47 1.32-2.61 3.46-2.61 2.11 0 3.56 1.05 3.62 2.64Z"/><path fill-rule="evenodd" d="M105.1 250.92c-3.05-3.87-7.51-6.32-12.45-6.32-9.54 0-16.53 8.83-16.53 18.4 0 6.67 4.45 11.66 9.4 11.66.46 0 .92-.04 1.37-.12-3.31-2.4-5.43-6.79-5.43-11.54 0-7.57 5.14-13.46 11.2-13.46 6.6 0 11.2 6.53 11.2 13.46a21.79 21.79 0 0 1-5.08 13.96 17.5 17.5 0 0 1-10.47 6.02s.34.02.77.02c11.1 0 20.09-8.95 20.09-20 0-4.54-1.52-8.72-4.08-12.08ZM102.03 263c0-6.67-4.44-11.66-9.39-11.66-.46 0-.92.04-1.37.12 3.31 2.4 5.43 6.79 5.43 11.54 0 7.57-5.14 13.46-11.2 13.46-6.6 0-11.2-6.53-11.2-13.46a21.78 21.78 0 0 1 5.08-13.96 17.5 17.5 0 0 1 10.46-6.02s-.33-.02-.77-.02A20.04 20.04 0 0 0 69 263c0 4.54 1.52 8.72 4.08 12.08 3.04 3.87 7.5 6.32 12.44 6.32 9.54 0 16.52-8.83 16.52-18.4Z" clip-rule="evenodd"/></g><g fill="#fff" clip-path="url(#g)"><path d="M72.89 203.54c-8.84 0-14.36-6.3-14.36-14.77 0-8.37 5.57-14.77 14.4-14.77 7.12 0 11.3 3.73 13.03 9.25H81.2c-1.49-3.44-3.94-5.18-8.26-5.18-6 0-9.61 4.75-9.61 10.7 0 5.96 3.6 10.7 9.6 10.7 4.62 0 7.12-2.08 8.27-5.18h4.76c-1.35 5.33-6 9.25-13.07 9.25Zm33.14-.48h-4.65a16 16 0 0 1-.2-2.76v-.58h-.04c-.72 1.89-2.6 3.87-6.49 3.87-4.61 0-7.2-2.86-7.2-6.15 0-6 6.96-6.15 9.9-6.63 2.68-.44 3.79-.83 3.79-2.57 0-1.7-1.5-2.86-3.94-2.86-2.21 0-3.8 1.26-3.94 3.3h-4.47c.2-3.4 2.83-6.93 8.31-6.93 6.82 0 8.55 4.12 8.55 8.52v7.95c0 1.64.1 3.72.38 4.84Zm-4.75-11.67c-.48 1.26-1.63 2.18-5 2.8-2.83.54-4.27 1.31-4.27 3.15 0 1.65 1.44 2.86 3.8 2.86 2.83 0 5.47-2.03 5.47-6.63v-2.18Zm14.84-6.05c-1.77 0-3.31 1.06-3.31 2.56 0 1.99 2.35 2.57 5.81 3.34 3.6.78 6.2 2.52 6.2 5.81 0 4.12-3.94 6.5-8.46 6.5-4.18 0-8.16-1.94-8.64-6.88h4.56c.39 2.27 1.78 3.29 4.18 3.29 1.92 0 3.75-.78 3.75-2.71 0-2.04-2.02-2.38-5.29-3.15-3.26-.77-6.58-2.32-6.58-6.05s3.65-6.25 7.83-6.25c4.42 0 7.78 2.28 8.22 6.73H120c-.24-2.23-2.01-3.2-3.89-3.2Zm31.71 7.31c0 6.44-3.9 10.99-9.32 10.99-3.5 0-5.81-1.89-6.63-4.36h-.05V211h-4.7v-28.57h4.75v3.73c.77-2.23 3.12-4.31 6.63-4.31 5.43 0 9.32 4.4 9.32 10.8Zm-4.61 0c0-3.93-2.21-7.02-5.82-7.02-3.5 0-5.71 2.76-5.86 6.58v.44c0 4.06 1.88 7.16 5.86 7.16 3.66 0 5.82-3.14 5.82-7.16Zm26.18 1.3h-15.76c.34 3.73 2.7 5.91 5.9 5.91 2.36 0 4.28-.87 5.05-2.95h4.57c-1.25 4.21-4.76 6.68-9.56 6.68-6.15 0-10.33-4.45-10.33-10.94 0-6.25 4.37-10.8 10.33-10.8 6.96 0 9.8 5.42 9.84 11.23v.87h-.04Zm-4.57-3.34c-.33-3.24-2.2-5.18-5.38-5.18-3.17 0-5.28 2.04-5.76 5.18h11.14Zm11.58 2.67v9.78h-4.61v-20.68h4.51v4.4h.1a6.13 6.13 0 0 1 6-4.79v4.65c-3.84.05-6 2.52-6 6.64Zm27.81 5.72v4.06h-18.15v-28.57h4.8v24.5h13.35Zm19.51 4.06h-4.71a16 16 0 0 1-.2-2.76v-.58h-.04c-.72 1.89-2.6 3.87-6.53 3.87-4.62 0-7.2-2.9-7.2-6.15 0-6 7-6.15 9.93-6.63 2.7-.44 3.8-.83 3.8-2.57 0-1.74-1.49-2.86-3.99-2.86-2.2 0-3.8 1.26-3.94 3.34h-4.46c.19-3.38 2.88-6.92 8.35-6.92 6.82 0 8.6 4.12 8.6 8.57v8c0 1.5.1 3.62.39 4.69Zm-4.8-11.67c-.49 1.26-1.64 2.18-5 2.8-2.84.54-4.28 1.31-4.28 3.16 0 1.64 1.44 2.85 3.8 2.85 2.83 0 5.47-2.03 5.47-6.63v-2.18Zm28.77 1.26c0 6.58-3.8 10.99-9.27 10.99a7.18 7.18 0 0 1-6.78-4.36h-.04v3.78h-4.71v-28.57h4.75v11.67c.82-2.18 3.41-4.36 6.78-4.36 5.47 0 9.27 4.31 9.27 10.85Zm-4.66 0c0-4.22-2.35-7.07-5.86-7.07-3.56 0-5.72 2.76-5.86 6.58v.44c0 4.07 2.2 7.16 5.86 7.16 3.6.05 5.86-2.85 5.86-7.11Zm14.22-7.31c-1.78 0-3.32 1.06-3.32 2.56 0 1.99 2.4 2.57 5.86 3.34 3.6.83 6.25 2.52 6.25 5.86 0 4.12-3.94 6.54-8.46 6.54-4.22 0-8.16-1.94-8.64-6.88h4.56c.39 2.28 1.78 3.34 4.18 3.34 1.97 0 3.8-.82 3.8-2.7 0-2.04-2.02-2.38-5.34-3.16-3.31-.77-6.58-2.32-6.58-6.1 0-3.77 3.65-6.3 7.88-6.3 4.47 0 7.78 2.28 8.26 6.79h-4.37c-.43-2.33-2.2-3.3-4.08-3.3ZM48.3 203.25l-10.14-18.1v-11.48h.91c.96 0 1.73-.78 1.73-1.75s-.77-1.74-1.73-1.74h-1.1l.43-.63c.2-.78-.39-1.55-1.2-1.55h-5.43c-.82 0-1.4.78-1.2 1.6l.48.63h-1.1c-.97 0-1.74.77-1.74 1.74s.77 1.74 1.73 1.74h.92v11.48l-10.19 18.06a5.06 5.06 0 0 0 .05 5.09 4.95 4.95 0 0 0 4.37 2.51h18.88c1.83 0 3.46-.91 4.37-2.51.87-1.6.87-3.49-.05-5.09Zm-.58 4.75a4.39 4.39 0 0 1-3.8 2.18H25.04a4.33 4.33 0 0 1-3.8-2.18 4.38 4.38 0 0 1-.04-4.4l10.28-18.31v-12.25H29.9c-.58 0-1.06-.49-1.06-1.07 0-.58.48-1.06 1.06-1.06h9.12c.58 0 1.06.48 1.06 1.06 0 .58-.48 1.07-1.06 1.07h-1.58v12.25l10.28 18.3a4.27 4.27 0 0 1 0 4.4Z"/><path d="M42.34 199.04c-2.55 1.11-5.53 1.5-8.4-.24a10.42 10.42 0 0 0-6.25-1.65l-4.33 7.65a2.03 2.03 0 0 0 0 1.94c.15.29.68.97 1.64.97h18.88c1 0 1.48-.68 1.63-.97a1.9 1.9 0 0 0 0-1.94l-3.17-5.76Zm-9.71-5.91h.15l1.73 1.9c-.05.14-.1.28-.1.47 0 .63.53 1.17 1.15 1.17.63 0 1.16-.53 1.16-1.16 0-.63-.53-1.17-1.16-1.17-.24 0-.48.1-.67.2l-1.68-1.84c0-.05.05-.1.05-.15l1.58-.73c.3.44.82.68 1.35.68a1.7 1.7 0 0 0 1.68-1.7c0-.91-.77-1.69-1.68-1.69a1.7 1.7 0 0 0-1.63 2.08l-1.59.73a.54.54 0 0 0-.38-.14.66.66 0 0 0-.68.67c.1.4.39.68.72.68Z"/></g><g fill="#fff" clip-path="url(#h)"><path d="M454.52 276.23h-8.77v-32.96h6.76c4.9 0 6.97.37 8.92 1.62a8.27 8.27 0 0 1 3.74 7.19c0 3.09-1.02 4.81-3.65 6.2 4.19 1.73 5.63 4.25 5.63 8.16 0 6-4.13 9.8-12.63 9.8Zm-.17-26.98h-2.49v6.74h1.95c3.71 0 5.27-1.02 5.27-3.4 0-2.27-1.56-3.34-4.73-3.34Zm.4 12.71h-2.89v8.44h3.03c4.28 0 6.12-1.25 6.12-4.1 0-2.95-2.01-4.34-6.26-4.34Zm14.75 14.27v-24.72h5.95v24.72h-5.95Zm.06-28.28V242h5.94v5.95h-5.94Zm21.66 28.88c-7.3 0-13.2-5.75-13.2-12.94 0-7.28 5.72-12.94 13.03-12.94 5.63 0 10.53 3.17 12.46 8.83h-6.69a6.04 6.04 0 0 0-5.74-3.4c-4.1 0-7.05 3.12-7.05 7.45s3.08 7.53 7.19 7.53c2.46 0 4.16-.99 5.63-3.25h6.69c-2.1 5.54-6.55 8.72-12.32 8.72Zm27.1 0c-7.23 0-13.11-5.8-13.11-12.94 0-7.1 5.89-12.94 13.08-12.94 7.44 0 13.2 5.75 13.2 13.1-.04 6.97-6.01 12.78-13.17 12.78Zm0-20.44c-3.88 0-7.14 3.34-7.14 7.41 0 4.25 3.17 7.6 7.2 7.6 3.93 0 7.13-3.35 7.13-7.51-.03-4.1-3.23-7.5-7.2-7.5Zm31.51 19.84v-12.09c0-6.6-1.79-7.76-4.73-7.76-1.87 0-3.43.8-4.36 2.27-.76 1.22-1 2.63-1 5.95v11.63h-5.94v-24.72h5.5v2.38c2.18-2.1 4.16-2.94 6.96-2.94 3.43 0 6.12 1.24 7.73 3.56 1.33 1.93 1.78 4.05 1.78 8.47v13.25h-5.94Zm21.41.6c-7.23 0-13.11-5.8-13.11-12.94 0-7.11 5.88-12.94 13.08-12.94 7.44 0 13.2 5.75 13.2 13.1-.04 6.97-6.01 12.78-13.17 12.78Zm0-20.45c-3.88 0-7.14 3.35-7.14 7.42 0 4.25 3.17 7.59 7.2 7.59 3.93 0 7.13-3.34 7.13-7.5-.03-4.1-3.23-7.5-7.2-7.5Zm46.63 19.85v-13.56c0-4.96-1.87-6.29-4.64-6.29-3.32 0-4.99 1.79-4.99 7.68v12.17h-5.94v-13.56c0-4.87-1.7-6.29-4.82-6.29-3.42 0-4.81 1.84-4.81 7.68v12.17h-5.95v-24.72h5.44v2.33c1.73-2.1 3.51-2.9 6.43-2.9 3.4 0 5.57 1.17 7.27 3.86 2.01-2.7 4.48-3.85 7.93-3.85 6.51 0 10 3.62 10 11.01v14.27h-5.92Zm16.73 8.27h-6.37l4.64-10.56-9.06-22.4h6.77l5.5 16.03 5.97-16.03h6.82L634.6 284.5Z"/></g><g fill="#fff" clip-path="url(#i)"><path d="M488.96 350.63h-7.24c-.77 0-1.48-.14-2.17-.45-.6-.26-1-.65-1.2-1.28a6.5 6.5 0 0 1-.37-2.07v-10.2c0-.6.08-1.2.25-1.8a2.2 2.2 0 0 1 1.38-1.5c.45-.2.94-.29 1.43-.34.4-.06.8-.06 1.2-.06h13.81c.57 0 1.18.03 1.75.2.94.25 1.6.76 1.88 1.73.18.63.32 1.25.32 1.93v9.92a7.2 7.2 0 0 1-.31 2c-.26.93-.95 1.44-1.86 1.7-.6.17-1.2.25-1.83.25-2.35-.03-4.7-.03-7.04-.03Zm.06-14.52h-6.7c-.11 0-.14.03-.14.14v10.72c0 .31-.03.31.32.31h13c.32 0 .32.03.32-.31v-10.69c0-.08-.02-.14-.14-.14h-.26c-2.14-.03-4.29-.03-6.4-.03Zm-23.2 7.88c2.69 2.18 5.32 4.4 8 6.59-.05.11-.13.06-.22.06h-5.26c-.17 0-.32-.03-.46-.18l-10.1-9.35c-.02-.02-.08-.05-.17-.14.17-.08.32-.06.43-.06h8.41a2 2 0 0 0 1.26-.42c.23-.17.34-.4.34-.71v-2.7a.86.86 0 0 0-.31-.68 1.66 1.66 0 0 0-1.06-.43h-9.55c-.26 0-.26 0-.26.26v14.04c0 .45.06.4-.4.4h-3.32c-.4 0-.37.02-.37-.38v-17.13c0-.26 0-.26.26-.26h15.35c.63 0 1.24.11 1.84.29.22.05.42.17.6.3a3.16 3.16 0 0 1 1.25 2.48v4.83c0 .43-.08.83-.22 1.22-.38 1-1.15 1.51-2.15 1.74-.4.08-.83.14-1.23.14h-2.4c-.12.03-.17 0-.26.09Zm-52.52 6.59c-.1.08-.22.05-.34.05h-3.51c-.4 0-.35.03-.35-.34v-6.82c0-.51.03-.45-.43-.45h-12.1c-.45 0-.42-.09-.42.4v6.93c0 .31 0 .31-.32.31h-3.54c-.29 0-.32 0-.32-.31v-17.2c-.03-.2.06-.22.26-.22h3.69c.17 0 .23.06.23.22v6.51c0 .12.05.15.14.15h12.49c.32 0 .32 0 .32-.32v-6.34c0-.16.03-.22.23-.22h3.75c.17 0 .23.06.23.22v17.43Z"/><path d="M414.02 359.42c-.54.56-1.06 1.19-1.57 1.79l-5.43 6.25-.2.17c.28-.6.85-1 1.14-1.6-.09-.08-.11-.02-.17.04-.09.11-.15.28-.32.37 1.32-2.13 2.6-4.27 3.92-6.4l11.07-17.99c.14-.25.14-.43 0-.65-2.17-3.38-4.35-6.8-6.55-10.18-.14-.2-.17-.37-.06-.62.2-.49.38-1 .55-1.5.11.02.14.1.17.16 2.31 4.1 4.6 8.19 6.95 12.25.11.2.06.34-.06.51-2.72 4.18-5.46 8.36-8.18 12.56l-7.03 10.83-.18.32c-.05.08-.2.17-.08.25.11.09.14-.08.2-.17l1.37-1.79 17-22.62c.02-.06.05-.12.1-.14.15-.15.12-.26 0-.4l-.17-.29c-2.37-4.12-4.77-8.24-7.15-12.33-.05-.12-.14-.2-.17-.34.09-.09.17-.06.26-.06h11.52c.26 0 .38.09.5.31.96 1.74 1.97 3.47 2.94 5.2l.2.35c2.66-2.42 5.29-4.84 7.95-7.25l.03.03-9.13 10.51c-.11-.05-.14-.17-.2-.25-1.11-1.94-2.26-3.87-3.37-5.83-.14-.23-.29-.31-.55-.31-1.65.03-3.34 0-5 0h-.31c-.06.14.05.22.1.34 1.9 3.24 3.78 6.48 5.64 9.72.26.45.29.28-.05.68-4.38 5.03-8.73 10.06-13.1 15.12-.06.09-.15.17-.2.26-.46.48-.89 1-1.32 1.47-.34.37-.74.77-1.06 1.23Zm39.02-36.81c.57-.6 1.08-1.22 1.63-1.85 1.17-1.36 2.34-2.72 3.54-4.06l.17-.17.06.06c0 .14-.2.2-.17.34-.12.03-.17.08-.14.22-.23.15-.29.23-.29.43-.17-.06-.17.12-.23.17l-2.06 2.73c-5.29 7.05-10.58 14.1-15.87 21.12-.2.25-.2.42-.06.7l7.55 13.1c.06.1.12.15.12.3-.12.02-.23.02-.35.02H435.6c-.29 0-.46-.08-.57-.34l-3-5.26c-.03-.05-.06-.14-.18-.22a3 3 0 0 1-.31.25c-2.63 2.25-5.3 4.46-7.92 6.7-.12.12-.26.2-.4.32-.03-.11.08-.2.14-.25 3.09-3.59 6.2-7.14 9.3-10.72l.16-.2c.15.09.2.26.26.37l3.6 6.25c.15.26.3.34.58.34 1.66-.02 3.29 0 4.95 0h.37c0-.16-.09-.28-.14-.36-1.98-3.44-3.95-6.85-5.9-10.3 0-.02-.03-.02-.03-.05-.17-.31-.2-.25.06-.54.94-1.08 1.89-2.16 2.83-3.27l11.22-12.93c.02-.06.05-.08.1-.14l.18-.17 1.97-2.25c.03-.11.15-.2.18-.34Z"/><path d="M453.04 322.61c-.06.12-.15.2-.23.31-.66.77-1.32 1.51-1.98 2.25l-.17.17a31.36 31.36 0 0 0-5.86-5.12 25.65 25.65 0 0 0-8.81-3.83 21.5 21.5 0 0 0-5.55-.49 25.1 25.1 0 0 0-14.59 5.29l-.94.77c-.14.11-.37.11-.4.34.23-.14.34-.4.54-.6a25.45 25.45 0 0 1 19.2-7.67c3.23.14 6.31.88 9.29 2.1a27.51 27.51 0 0 1 8.4 5.37l1.1 1.11Zm-39.02 36.81c.32-.46.72-.86 1.06-1.25.43-.49.83-1.03 1.32-1.48a29.22 29.22 0 0 0 11.4 7.99 22.33 22.33 0 0 0 9.7 1.42 25.27 25.27 0 0 0 13.96-5.46c.09-.09.17-.17.32-.2.03.17-.12.23-.2.31a25.3 25.3 0 0 1-18.28 7.3c-3.43-.08-6.7-.82-9.87-2.13a28.63 28.63 0 0 1-7.6-4.66c-.6-.62-1.2-1.25-1.8-1.84Zm43.79-41.87c.03.06.14-.03.12.06a1.1 1.1 0 0 1-.15.25l-12.75 20.78-1.75 2.84c-.14.23-.14.37 0 .6l6.75 10.63c.15.23.17.4.12.65-.15.4-.23.83-.35 1.22-.03.06 0 .15-.08.18-.12-.06-.15-.18-.2-.29-2.4-4.18-4.84-8.33-7.24-12.5-.14-.23-.08-.37.06-.54l11.58-17.8c1.26-1.96 2.55-3.89 3.8-5.85.03-.03.15-.08.1-.23.02 0 0 0 0 0Zm-5.98 42.75a.92.92 0 0 1 .38-.29.9.9 0 0 1-.32.35c-.03 0-.03-.03-.06-.06Zm6.27-43.03c0-.06.03-.09 0-.14.08.02.08-.06.14-.09 0 .11-.03.2-.14.23Zm-50.63 49.17c0 .08 0 .14-.08.17a.24.24 0 0 0 .08-.17c.03 0 0 0 0 0Zm50.97-50c.03-.02.06-.1.09-.08.05.06 0 .08-.06.11 0 0-.03 0-.03-.03Zm-.11.46c0 .06 0 .11-.06.14v-.14c0 .03.03 0 .06 0Zm-.23.37c0 .05 0 .11-.06.14a.2.2 0 0 1 .06-.14Z"/><path d="m458.36 316.53.08-.09.03.03c0 .03-.03.09-.06.09 0 0-.03 0-.06-.03Zm.05.31v-.03.03c-.03 0 0 0 0 0Zm-.08.06c.03-.03.05-.06.08-.06-.03.03-.03.06-.08.06Zm-.29.51c0 .03 0 .03-.03.06l-.03-.03c.03 0 .06-.03.06-.03Zm-34.86 39.73c-.03.03-.06.06-.06.09 0-.06.03-.09.06-.09Zm28.72 3.22-.07.05c-.05-.03-.02-.06 0-.11.03.03.03.06.06.06Zm-43.71 5.42c-.06.09-.09.26-.2.17-.12-.08.03-.17.08-.25l.12.08Zm50.08-48.88v.14c-.06 0-.06.11-.14.09-.06-.12.03-.18.14-.23Z"/></g><path fill="#fff" fill-rule="evenodd" d="M202 321a19.98 19.98 0 0 1 20.01 19.95 19.98 19.98 0 0 1-20 19.94c-1.2 0-2.38-.1-3.52-.3v-8.83h3.86c2.09 0 3.84-.38 5.24-1.13a7.53 7.53 0 0 0 3.14-2.94 8.29 8.29 0 0 0 1.02-4.07c0-1.6-.36-3.01-1.06-4.25a7.25 7.25 0 0 0-3.17-2.9 11.5 11.5 0 0 0-5.17-1.05h-10.09v22.95a19.93 19.93 0 0 1 9.75-37.37Zm9.87 7.96h-19.6v4.1h19.6v-4.1Zm-10 17.86c1.2 0 2.08-.28 2.66-.84a3.1 3.1 0 0 0 .88-2.36c0-1.01-.3-1.8-.88-2.36-.58-.56-1.46-.83-2.65-.83h-3.39v6.39h3.39Z" clip-rule="evenodd"/><path fill="#fff" d="M238.94 356.64c-1.9 0-3.6-.3-5.11-.92a8.45 8.45 0 0 1-3.63-2.73 7.52 7.52 0 0 1-1.4-4.36h6.73c.1.96.43 1.7 1 2.22.57.49 1.3.73 2.22.73.94 0 1.68-.2 2.22-.62.55-.45.82-1.05.82-1.81 0-.64-.22-1.17-.67-1.59a4.96 4.96 0 0 0-1.59-1.03c-.62-.27-1.5-.58-2.67-.93a29.34 29.34 0 0 1-4.1-1.55 7.59 7.59 0 0 1-2.75-2.29 6.37 6.37 0 0 1-1.14-3.95c0-2.41.87-4.3 2.63-5.65 1.75-1.38 4.03-2.06 6.84-2.06 2.87 0 5.18.69 6.93 2.06a7.28 7.28 0 0 1 2.81 5.69h-6.85a2.6 2.6 0 0 0-.92-1.96 3.24 3.24 0 0 0-2.19-.74c-.76 0-1.38.21-1.85.63-.47.4-.7.97-.7 1.74 0 .83.4 1.49 1.18 1.95.8.47 2.03.98 3.7 1.52 1.69.56 3.04 1.1 4.08 1.62a7.72 7.72 0 0 1 2.74 2.25 6.01 6.01 0 0 1 1.15 3.8c0 1.48-.38 2.83-1.15 4.03a7.77 7.77 0 0 1-3.26 2.88 11.26 11.26 0 0 1-5.07 1.07Zm32.07-26.18v5.06h-6.88v20.87h-6.34v-20.87h-6.88v-5.06H271Zm19.36 21.34h-9.7l-1.55 4.58h-6.63l9.4-25.92h7.34l9.4 25.93h-6.7l-1.56-4.58Zm-1.63-4.87-3.22-9.49-3.18 9.5h6.4Zm27.82 9.45-8.74-11.44v11.44h-6.33v-25.92h6.33v11.38l8.67-11.38h7.44l-10.07 12.7 10.44 13.22h-7.74Zm17.08-20.86v5.25h8.48v4.87h-8.48v5.69h9.6v5.06H327.3v-25.93h15.92v5.06h-9.59Z"/><path fill="#fff" fill-opacity=".9" fill-rule="evenodd" d="m577.19 324-12.1 34h-5.14L548 324h4.86l9.71 29.48h.1l9.8-29.48h4.72Zm3.63 34v-34h23.48v3.81h-18.95v10.8h17.67v3.82h-17.67v11.76h19.1V358h-23.63Zm67.56-14.05 5.76-15.85h.1l5.66 15.85h-11.52Zm3.38-19.95-13.24 34h4.62l3.81-10.24h14.38l3.72 10.24h5l-13.29-34h-5Zm-20.45.05v4.47h-17.9v-4.47h17.9Zm0 4.47h4.48v5.77h-4.48v-5.77Zm-22.38 0h4.48v25h-4.48v-25Zm22.38 25V358h-17.9v-4.48h17.9Zm0 0v-8h-8.95v-4.47h13.43v12.47h-4.48Z" clip-rule="evenodd"/><defs><clipPath id="a"><path fill="#fff" d="M0 0h262v24H0z" transform="translate(31 20)"/></clipPath><clipPath id="b"><path fill="#fff" d="M0 0h220v57H0z" transform="translate(653.5 3)"/></clipPath><clipPath id="c"><path fill="#fff" d="M0 0h134v49H0z" transform="translate(697.75 239)"/></clipPath><clipPath id="d"><path fill="#fff" d="M0 0h121.75v62H0z" transform="translate(276 232)"/></clipPath><clipPath id="e"><path fill="#fff" d="M0 0h124.97v52H0z" transform="translate(760 163)"/></clipPath><clipPath id="f"><path fill="#fff" d="M0 0h159v40H0z" transform="translate(69 243)"/></clipPath><clipPath id="g"><path fill="#fff" d="M0 0h246v43H0z" transform="translate(20 168)"/></clipPath><clipPath id="h"><path fill="#fff" d="M0 0h204v42.5H0z" transform="translate(445.75 242)"/></clipPath><clipPath id="i"><path fill="#fff" d="M0 0h108v54H0z" transform="translate(392 314)"/></clipPath></defs></svg>