<svg xmlns="http://www.w3.org/2000/svg" fill="none" width="904" viewBox="0 0 904 370">
  <g clip-path="url(#a)">
    <path fill="#fff" fill-rule="evenodd"
      d="M48.8787 37.5702C49.0524 37.3193 49.0641 36.9896 48.9086 36.7269L39.2366 20.3816C39.0966 20.145 38.8428 20 38.5688 20H31.778C31.1778 20 30.8043 20.6543 31.1078 21.1742L43.8149 42.9469C44.1017 43.4383 44.7995 43.4654 45.1231 42.9976L48.8787 37.5702ZM66.4128 44C67.0126 44 67.3862 43.3465 67.0836 42.8267L54.0246 20.3865C53.8853 20.1471 53.6299 20 53.3538 20H46.5668C45.9666 20 45.5932 20.6543 45.8966 21.1742L58.9933 43.6143C59.1327 43.8532 59.3878 44 59.6635 44H66.4128ZM37.1337 42.6099C37.4409 43.1298 37.0677 43.7878 36.4656 43.7878H31.8091C31.3801 43.7878 31.0323 43.4386 31.0323 43.0079V35.1273C31.0323 34.3343 32.0742 34.0473 32.4773 34.7294L37.1337 42.6099ZM83.9313 44H79.9339V20H83.8614L94.9419 38.9257L105.988 20H109.915V44H105.918V28.1257L96.6255 44H93.2241L83.9313 28.1257V44ZM134.668 44H119.204V20H134.668V23.9086H123.202V30.0457H134.668V33.9543H123.202V40.0914H134.668V44ZM149.97 44H153.967V23.9086H163.224V20H140.677V23.9086H149.97V44ZM191.5 44H187.116L185.118 39.8172H171.161L169.198 44H164.815L176.211 20H180.103L191.5 44ZM178.14 25.1086L173.02 35.9086H183.259L178.14 25.1086ZM198.422 44H202.419V36.4571H207.574C212.484 36.4571 216.025 32.9943 216.025 28.2285C216.025 23.4971 212.484 20 207.574 20H198.422V44ZM202.419 32.5485V23.9086H207.574C210.169 23.9086 212.027 25.7257 212.027 28.2285C212.027 30.7315 210.169 32.5485 207.574 32.5485H202.419ZM239.258 44H223.584V20H227.581V40.0914H239.258V44ZM246.28 44H261.744V40.0914H250.277V33.9543H261.744V30.0457H250.277V23.9086H261.744V20H246.28V44ZM273.153 44H267.998L277.922 32L267.998 20H273.153L280.516 28.88L287.88 20H293L283.076 32L293 44H287.845L280.516 35.12L273.153 44Z"
      clip-rule="evenodd" />
  </g>
  <path fill="#fff" fill-rule="evenodd"
    d="M355.949 10.7955C356.098 10.7184 356.264 10.6776 356.433 10.6768L365.784 10.7035C365.952 10.7039 366.119 10.7445 366.268 10.8217C366.416 10.8989 366.544 11.0103 366.638 11.1463C366.733 11.2823 366.791 11.4387 366.809 11.6018C366.827 11.7649 366.803 11.9298 366.741 12.082C361.57 24.9035 361.57 39.1479 366.741 51.9694C366.803 52.1216 366.827 52.2865 366.809 52.4496C366.791 52.6127 366.733 52.7691 366.638 52.9051C366.544 53.0411 366.416 53.1525 366.268 53.2297C366.119 53.3069 365.952 53.3475 365.784 53.3479H356.433C356.263 53.3445 356.097 53.3007 355.948 53.2202C355.8 53.1398 355.674 53.0252 355.582 52.8865C355.489 52.7478 355.434 52.5892 355.419 52.4246C355.404 52.2601 355.432 52.0946 355.498 51.9426C358.044 45.5853 359.35 38.8232 359.348 32.0016C359.341 25.1767 358.027 18.4126 355.471 12.0553C355.409 11.9026 355.387 11.7376 355.405 11.5746C355.424 11.4116 355.483 11.2555 355.578 11.1197C355.673 10.984 355.8 10.8727 355.949 10.7955ZM357.66 32.0022C357.67 25.3309 354.991 18.9209 350.196 14.1451C350.021 13.9746 349.784 13.8785 349.536 13.8779H343.387C343.143 13.8779 342.91 13.9719 342.738 14.1393C342.565 14.3066 342.469 14.5336 342.469 14.7703V20.9096C342.465 21.1403 342.553 21.3634 342.713 21.5333C342.874 21.7032 343.095 21.807 343.332 21.8233C345.973 22.0269 348.438 23.1898 350.236 25.0803C352.033 26.9708 353.032 29.4499 353.032 32.0236C353.032 34.5973 352.033 37.0764 350.236 38.9669C348.438 40.8574 345.973 42.0203 343.332 42.2238C343.103 42.2383 342.888 42.3349 342.728 42.4949C342.569 42.6549 342.476 42.8668 342.469 43.0895V49.2288C342.466 49.3476 342.488 49.4656 342.534 49.5761C342.579 49.6865 342.646 49.7871 342.731 49.8721C342.817 49.9571 342.919 50.0247 343.031 50.0712C343.144 50.1176 343.265 50.1419 343.387 50.1425H349.536C349.659 50.1427 349.781 50.1187 349.895 50.0719C350.008 50.025 350.111 49.9564 350.196 49.87C354.994 45.0919 357.674 38.6773 357.66 32.0022ZM379.781 43.0895C379.779 42.8631 379.689 42.6459 379.529 42.4814C379.369 42.3169 379.15 42.2173 378.918 42.2025C376.277 41.9989 373.812 40.836 372.014 38.9455C370.217 37.055 369.218 34.5759 369.218 32.0022C369.218 29.4285 370.217 26.9494 372.014 25.0589C373.812 23.1685 376.277 22.0055 378.918 21.802C379.151 21.7859 379.369 21.6851 379.529 21.5198C379.689 21.3544 379.779 21.1366 379.781 20.9096V14.7703C379.781 14.5336 379.685 14.3066 379.512 14.1393C379.34 13.9719 379.107 13.8779 378.863 13.8779H372.714C372.466 13.8785 372.229 13.9746 372.054 14.1451C367.268 18.9257 364.591 25.3312 364.591 31.9995C364.591 38.6679 367.268 45.0733 372.054 49.854C372.139 49.9403 372.242 50.009 372.355 50.0558C372.469 50.1027 372.591 50.1267 372.714 50.1265H378.863C379.107 50.1251 379.341 50.0299 379.513 49.8617C379.685 49.6935 379.781 49.466 379.781 49.2288V43.0895Z"
    clip-rule="evenodd" />
  <path fill="#fff"
    d="M407.1 42.1 410.8 24.3H415.3L419.6 42.1H416.8L412.4 24.3H413.5L409.8 42.1H407.1ZM405.4 42.1V39.4H409.2V42.1H405.4ZM404.6 42.1 399.4 23.6H402.6L407.6 42.1H404.6ZM417.5 42.1V39.4H421.3V42.1H417.5ZM419 42.1 423.4 23.6H426.4L421.9 42.1H419ZM443.6 42.7C441.9 42.7 440.5 42.4 439.3 41.9 438.1 41.3 437.1 40.6 436.2 39.7 435.4 38.8 434.7 37.7 434.3 36.6 433.9 35.5 433.7 34.3 433.7 33.2V32.5C433.7 31.4 433.9 30.2 434.3 29.1 434.8 27.9 435.4 26.9 436.3 26 437.1 25.1 438.2 24.4 439.4 23.8 440.6 23.3 442 23 443.6 23 445.1 23 446.5 23.3 447.7 23.8 448.9 24.4 450 25.1 450.8 26 451.7 26.9 452.3 27.9 452.8 29.1 453.2 30.2 453.4 31.4 453.4 32.5V33.2C453.4 34.3 453.2 35.5 452.8 36.6 452.4 37.7 451.7 38.8 450.9 39.7 450 40.6 449 41.3 447.8 41.9 446.6 42.4 445.2 42.7 443.6 42.7ZM443.6 39.7C444.9 39.7 446.1 39.4 447.1 38.8 448.1 38.2 448.8 37.4 449.3 36.3 449.8 35.3 450.1 34.1 450.1 32.9 450.1 31.5 449.8 30.4 449.3 29.3 448.8 28.3 448 27.5 447 26.9 446.1 26.3 444.9 26 443.6 26 442.2 26 441.1 26.3 440.1 26.9 439.1 27.5 438.3 28.3 437.8 29.3 437.3 30.4 437 31.5 437 32.9 437 34.1 437.3 35.3 437.8 36.3 438.3 37.4 439 38.2 440 38.8 441 39.4 442.2 39.7 443.6 39.7ZM462.9 42.1V23.6H465.5V31.2H465.4C465.4 28.5 465.9 26.6 467.1 25.3 468.3 24.1 470.1 23.4 472.5 23.4H473.1V26.4H471.9C470.1 26.4 468.7 26.9 467.7 27.9 466.7 28.8 466.2 30.3 466.2 32.1V42.1H462.9ZM481.5 42.1V23.6H484.1V31.5H483.7C483.7 29.7 483.9 28.2 484.4 27 484.9 25.7 485.6 24.8 486.5 24.1 487.5 23.4 488.7 23.1 490.1 23.1H490.3C491.7 23.1 492.9 23.4 493.9 24.1 494.8 24.8 495.5 25.7 496 27 496.5 28.2 496.7 29.7 496.7 31.5H495.7C495.7 29.7 496 28.2 496.4 27 496.9 25.7 497.6 24.8 498.6 24.1 499.5 23.4 500.8 23.1 502.2 23.1H502.3C503.8 23.1 505 23.4 506 24.1 506.9 24.8 507.6 25.7 508.1 27 508.6 28.2 508.8 29.7 508.8 31.5V42.1H505.5V30.8C505.5 29.3 505.1 28.2 504.4 27.4 503.7 26.5 502.7 26.1 501.3 26.1 500 26.1 498.9 26.6 498.1 27.4 497.2 28.3 496.8 29.5 496.8 31V42.1H493.5V30.8C493.5 29.3 493.1 28.2 492.4 27.4 491.7 26.5 490.6 26.1 489.3 26.1 488 26.1 486.9 26.6 486.1 27.4 485.2 28.3 484.8 29.5 484.8 31V42.1H481.5ZM519.4 42.1V16.9H522.7V31.9H521.9C521.9 30.1 522.1 28.5 522.5 27.2 523 25.9 523.8 24.9 524.8 24.2 525.7 23.4 527 23.1 528.6 23.1H528.7C530.9 23.1 532.6 23.8 533.7 25.3 534.8 26.7 535.4 28.8 535.4 31.5V42.1H532.1V30.9C532.1 29.4 531.6 28.2 530.8 27.4 530 26.5 528.9 26.1 527.6 26.1 526.1 26.1 524.9 26.6 524 27.6 523.1 28.6 522.7 29.8 522.7 31.4V42.1H519.4ZM554.4 42.7C552.8 42.7 551.4 42.4 550.2 41.9 549 41.3 547.9 40.6 547.1 39.7 546.2 38.8 545.6 37.7 545.2 36.6 544.8 35.5 544.5 34.3 544.5 33.2V32.5C544.5 31.4 544.8 30.2 545.2 29.1 545.6 27.9 546.3 26.9 547.1 26 548 25.1 549 24.4 550.2 23.8 551.5 23.3 552.9 23 554.4 23 556 23 557.4 23.3 558.6 23.8 559.8 24.4 560.8 25.1 561.7 26 562.5 26.9 563.2 27.9 563.6 29.1 564.1 30.2 564.3 31.4 564.3 32.5V33.2C564.3 34.3 564.1 35.5 563.6 36.6 563.2 37.7 562.6 38.8 561.7 39.7 560.9 40.6 559.9 41.3 558.7 41.9 557.4 42.4 556 42.7 554.4 42.7ZM554.4 39.7C555.8 39.7 557 39.4 557.9 38.8 558.9 38.2 559.7 37.4 560.2 36.3 560.7 35.3 561 34.1 561 32.9 561 31.5 560.7 30.4 560.2 29.3 559.6 28.3 558.9 27.5 557.9 26.9 556.9 26.3 555.8 26 554.4 26 553.1 26 551.9 26.3 550.9 26.9 549.9 27.5 549.2 28.3 548.7 29.3 548.1 30.4 547.9 31.5 547.9 32.9 547.9 34.1 548.1 35.3 548.6 36.3 549.1 37.4 549.9 38.2 550.9 38.8 551.9 39.4 553 39.7 554.4 39.7ZM573.9 42.1V16.9H577.2V42.1H573.9ZM571.4 19.5V16.9H577.2V19.5H571.4ZM595.9 42.7C594.3 42.7 592.9 42.4 591.7 41.9 590.6 41.3 589.6 40.6 588.9 39.7 588.1 38.8 587.6 37.7 587.2 36.6 586.9 35.5 586.7 34.3 586.7 33.2V32.5C586.7 31.3 586.9 30.2 587.2 29.1 587.6 27.9 588.1 26.9 588.9 26 589.6 25.1 590.5 24.4 591.7 23.8 592.8 23.3 594.2 23 595.7 23 597.7 23 599.4 23.5 600.6 24.3 602 25.2 602.9 26.3 603.5 27.6 604.2 29 604.5 30.4 604.5 32V33.5H588.2V31H602.1L601.3 32.3C601.3 31 601.1 29.9 600.7 29 600.3 28 599.7 27.2 598.8 26.7 598 26.2 597 25.9 595.7 25.9 594.4 25.9 593.3 26.2 592.4 26.8 591.6 27.4 590.9 28.2 590.5 29.3 590.1 30.3 589.9 31.5 589.9 32.9 589.9 34.2 590.1 35.3 590.5 36.4 590.9 37.4 591.6 38.3 592.5 38.9 593.4 39.5 594.5 39.8 595.9 39.8 597.4 39.8 598.5 39.5 599.4 38.8 600.4 38.2 600.9 37.4 601.1 36.6H604.2C603.9 37.8 603.4 38.9 602.7 39.9 601.9 40.8 601 41.5 599.8 42 598.7 42.4 597.4 42.7 595.9 42.7Z" />
  <g fill="#fff" clip-path="url(#b)">
    <path
      d="M726.7 33.9H734.7C735.9 33.9 736.8 34.8 736.8 36 736.8 37.1 735.9 38 734.7 38H725C724.9 38 724.7 38.1 724.6 38.2L721.7 40.7C721.2 41.1 721.5 41.8 722.1 41.8H734.3C734.3 41.8 734.3 41.8 734.3 41.8 734.3 41.8 734.3 41.8 734.3 41.8 734.4 41.8 734.6 41.8 734.7 41.8 738 41.8 740.6 39.2 740.6 36 740.6 32.9 738.2 30.4 735.2 30.1 735.2 30.1 735.2 30.1 735.2 30.1 735.2 30.1 735.2 30.1 735.2 30.1H726.5C725.4 30.1 724.5 29.2 724.5 28 724.5 26.9 725.4 26 726.5 26H736.2C736.4 26 736.5 25.9 736.7 25.8L739.4 23.3C739.8 22.9 739.5 22.2 738.9 22.2H726.7C726.6 22.2 726.6 22.2 726.5 22.2 723.3 22.2 720.7 24.8 720.7 28 720.7 31.3 723.3 33.9 726.5 33.9 726.6 33.9 726.6 33.9 726.7 33.9ZM773.6 22.1C773.3 22.1 773 22.4 773 22.8V41.2C773 41.6 773.3 41.9 773.6 41.9H788.4C788.6 41.9 788.7 41.8 788.9 41.7L790.7 39.7C791.1 39.3 790.8 38.6 790.3 38.6H777.4C777 38.6 776.7 38.3 776.7 37.9V22.8C776.7 22.4 776.4 22.1 776.1 22.1H773.6V22.1Z" />
    <path fill-rule="evenodd"
      d="M750 22.1C750 22.2 750 22.2 750 22.1 748.1 22.2 746.6 23.7 746.5 25.6V38C746.5 38.1 746.5 38.1 746.5 38.2 746.5 40.1 748 41.8 750 41.8H763.4C765.3 41.7 766.9 40.1 766.9 38.2 766.9 38.1 766.9 38.1 766.9 38V25.6C766.8 23.8 765.3 22.2 763.4 22.2H750V22.1ZM752.5 25.6C752.5 25.6 752.5 25.6 752.5 25.6 751.3 25.7 750.4 26.7 750.3 27.8V35.6C750.3 35.7 750.3 35.7 750.3 35.7 750.3 37 751.3 38 752.5 38H760.9C762.1 38 763.1 37 763.1 35.7 763.1 35.7 763.1 35.7 763.1 35.6V27.8C763 26.7 762.1 25.7 760.9 25.6H752.5ZM812.2 41.2C812.2 41.6 812.5 41.9 812.8 41.9H815.3C815.7 41.9 816 41.6 816 41.2V26C816 25.9 816 25.9 816 25.8 816 23.8 814.4 22.2 812.5 22.2H799.7C799.6 22.2 799.5 22.2 799.5 22.2 797.5 22.2 795.9 23.8 795.9 25.8 795.9 25.9 795.9 25.9 795.9 26V41.2C795.9 41.6 796.2 41.9 796.5 41.9H799C799.4 41.9 799.7 41.6 799.7 41.2V34.9C799.7 34.5 799.9 34.2 800.3 34.2H811.6C811.9 34.2 812.2 34.5 812.2 34.9V41.2H812.2ZM799.6 30.7V27.5C799.6 26.3 800.6 25.3 801.8 25.3H810C811.2 25.3 812.2 26.3 812.2 27.5V30.7C812.2 31.1 811.9 31.4 811.6 31.4H800.3C799.9 31.4 799.6 31.1 799.6 30.7ZM865.1 41.9C864.7 41.9 864.4 41.6 864.4 41.2V34.9C864.4 34.5 864.1 34.2 863.8 34.2H852.4C852 34.2 851.7 34.5 851.7 34.9V41.2C851.7 41.6 851.4 41.9 851.1 41.9H848.6C848.2 41.9 847.9 41.6 847.9 41.2V26C847.9 25.9 847.9 25.9 847.9 25.8 847.9 23.8 849.6 22.2 851.6 22.2 851.6 22.2 851.7 22.2 851.7 22.2H864.7C866.7 22.2 868.2 23.8 868.2 25.8 868.2 25.8 868.2 25.9 868.2 26V41.2C868.2 41.6 867.9 41.8 867.6 41.8H865.1V41.9ZM851.7 27.5V30.7C851.7 31.1 852 31.4 852.4 31.4H863.8C864.1 31.4 864.4 31.1 864.4 30.7V27.5C864.4 26.3 863.4 25.3 862.2 25.3H854C852.7 25.3 851.7 26.3 851.7 27.5Z"
      clip-rule="evenodd" />
    <path
      d="M825.4 22.1C825.6 22.1 825.8 22.2 825.9 22.4L837.1 35.8C837.5 36.2 838.2 35.9 838.2 35.3V22.8C838.2 22.4 838.5 22.1 838.9 22.1H841.4C841.7 22.1 842 22.4 842 22.8V41.2C842 41.6 841.7 41.9 841.4 41.9H838.2C838.2 41.9 838.2 41.8 838.2 41.8 838.2 41.8 838.2 41.8 838.2 41.8L826.8 28.5C826.4 28.1 825.7 28.4 825.7 28.9V41.2C825.7 41.6 825.4 41.9 825 41.9H822.5C822.2 41.9 821.9 41.6 821.9 41.2V22.8C821.9 22.4 822.2 22.1 822.5 22.1H825.4ZM662.5 42.5C662.8 42.2 663.2 42 663.6 42H704.4C705.1 42 705.5 42.9 704.9 43.5L696.9 51.5C696.6 51.8 696.2 52 695.7 52H655C654.2 52 653.9 51.1 654.4 50.6L662.5 42.5ZM662.5 12.5C662.8 12.2 663.2 12 663.6 12H704.4C705.1 12 705.5 12.9 704.9 13.4L696.9 21.5C696.6 21.8 696.2 21.9 695.7 21.9H655C654.2 21.9 653.9 21 654.4 20.5L662.5 12.5ZM696.9 27.4C696.6 27.1 696.2 26.9 695.7 26.9H655C654.2 26.9 653.9 27.8 654.4 28.3L662.5 36.4C662.8 36.7 663.2 36.9 663.6 36.9H704.4C705.1 36.9 705.5 36 704.9 35.5L696.9 27.4Z" />
  </g>
  <path fill="#fff"
    d="M68.5 122.6 77.7 98H82.5L91.6 122.6H87.6L81.9 106.2C81.5 105.2 81.2 104.3 81 103.3 80.9 102.3 80.8 101.4 80.8 100.4H79.3C79.3 101.4 79.2 102.4 79 103.3 78.8 104.3 78.5 105.3 78.1 106.2L72.3 122.6H68.5ZM73.4 116.1 74.6 112.8H85.4L86.5 116.1H73.4ZM101 123.1C99.8 123.1 98.7 122.9 97.6 122.5 96.5 122.2 95.6 121.6 94.9 120.8 94.1 120.1 93.6 119.1 93.4 118.1L96.5 117.1C96.7 117.7 96.9 118.2 97.3 118.7 97.7 119.3 98.2 119.7 98.8 119.9 99.5 120.2 100.3 120.4 101.1 120.4 102 120.4 103 120.2 103.8 119.7 104.1 119.5 104.4 119.3 104.6 119 104.7 118.7 104.8 118.3 104.8 117.9 104.8 117.6 104.7 117.3 104.6 117.1 104.5 116.8 104.3 116.5 104.1 116.3 103.4 115.8 102.5 115.5 101.6 115.4L99.5 115C98.6 114.8 97.6 114.5 96.7 114.1 95.9 113.8 95.3 113.2 94.8 112.6 94.3 111.8 94.1 110.9 94.1 110 94.1 109 94.4 108 95 107.2 95.6 106.4 96.4 105.8 97.4 105.4 98.6 104.8 100 104.6 101.4 104.7 102.8 104.8 104.2 105.2 105.4 106 106.5 106.7 107.3 107.8 107.7 109.1L104.8 110.2C104.6 109.7 104.4 109.3 104.1 108.8 103.7 108.4 103.2 108 102.7 107.8 102.1 107.4 101.3 107.3 100.6 107.3 99.7 107.2 98.8 107.5 98.1 108 97.8 108.2 97.6 108.4 97.5 108.7 97.3 109 97.3 109.3 97.3 109.6 97.2 109.9 97.3 110.2 97.4 110.4 97.5 110.7 97.7 110.9 97.9 111 98.6 111.5 99.4 111.8 100.2 111.9L102.3 112.3C103.7 112.6 105.1 113.1 106.3 113.9 106.9 114.4 107.4 114.9 107.7 115.6 108 116.2 108.2 116.9 108.1 117.7 108.1 118.7 107.8 119.7 107.3 120.5 106.7 121.4 105.8 122 104.8 122.4 103.6 122.9 102.3 123.1 101 123.1ZM118.2 122.6C117.4 122.6 116.6 122.4 115.8 122.1 115.2 121.8 114.7 121.3 114.3 120.7 114 119.9 113.8 119.1 113.9 118.3V107.9H109.9V105.2H113.9V99.7H117.1V103.9C117.1 104.2 117.3 104.6 117.5 104.8 117.7 105 118.1 105.2 118.4 105.2H121.8V107.9H117.1V118C117.1 118.2 117.1 118.5 117.2 118.7 117.3 118.9 117.4 119.1 117.6 119.3 117.7 119.5 117.9 119.6 118.2 119.7 118.4 119.7 118.6 119.8 118.9 119.7H122.5V122.6H118.2ZM126.2 122.6V105.2H129.4C129.4 106 129.2 106.8 128.8 107.6 128.5 108.5 128 109.3 127.5 110.1H129.4C129.7 108.7 130.4 107.4 131.4 106.3 131.9 105.8 132.5 105.4 133.1 105.2 133.8 105 134.5 104.9 135.1 104.9 135.7 104.9 136.2 105 136.8 105.1V108.5C136.2 108.4 135.5 108.3 134.9 108.3 133.8 108.3 132.8 108.5 131.8 109 131 109.6 130.4 110.3 130 111.2 129.6 112.4 129.4 113.6 129.5 114.8V122.6H126.2ZM146.4 123.1C145 123.1 143.5 122.7 142.2 121.9 141 121.1 139.9 119.9 139.3 118.6 138.5 117.1 138.2 115.5 138.2 113.9 138.2 112.3 138.5 110.6 139.2 109.2 139.9 107.8 140.9 106.7 142.2 105.9 143.5 105.1 144.9 104.7 146.4 104.7 147.9 104.7 149.4 105.1 150.7 105.9 151.9 106.7 153 107.8 153.6 109.2 154.3 110.6 154.7 112.3 154.7 113.9 154.7 115.5 154.3 117.1 153.6 118.6 152.9 119.9 151.9 121.1 150.6 121.9 149.4 122.7 147.9 123.1 146.4 123.1ZM146.4 120.2C147.3 120.2 148.2 120 148.9 119.5 149.7 119 150.3 118.3 150.6 117.4 151 116.3 151.2 115.1 151.2 113.9 151.2 112.7 151 111.5 150.6 110.4 150.3 109.5 149.7 108.8 148.9 108.2 148.2 107.7 147.3 107.5 146.4 107.5 145.5 107.5 144.6 107.7 143.9 108.2 143.1 108.8 142.5 109.5 142.2 110.4 141.8 111.5 141.6 112.7 141.6 113.9 141.6 115.1 141.8 116.3 142.2 117.4 142.5 118.3 143.1 119 143.9 119.5 144.6 120 145.5 120.2 146.4 120.2ZM157.3 129.4V105.2H160.3C160.3 105.8 160.1 106.4 159.8 107 159.5 107.7 159.2 108.3 158.7 108.9H160.6C160.9 108.2 161.3 107.5 161.7 106.9 162.1 106.3 162.7 105.7 163.4 105.3 164.3 104.9 165.3 104.6 166.3 104.7 167.6 104.6 168.8 105 169.9 105.8 171 106.6 171.9 107.7 172.4 109 173 110.6 173.3 112.2 173.3 113.9 173.3 115.6 173 117.2 172.4 118.8 171.9 120.1 171 121.2 169.9 122 168.8 122.7 167.5 123.1 166.3 123.1 164.9 123.2 163.6 122.7 162.6 121.9 161.7 121 161 120 160.6 118.8H158.7C159.3 119.8 159.8 120.7 160.1 121.8 160.5 123 160.7 124.4 160.7 125.7V129.4L157.3 129.4ZM165.2 120.3C166.1 120.3 166.9 120.1 167.7 119.6 168.4 119.2 169 118.4 169.3 117.6 169.7 116.4 169.9 115.1 169.9 113.9 169.9 112.6 169.7 111.4 169.3 110.2 169 109.3 168.4 108.6 167.7 108.1 166.9 107.7 166.1 107.5 165.2 107.5 164.3 107.5 163.5 107.7 162.8 108.2 162 108.7 161.4 109.5 161.1 110.4 160.7 111.5 160.4 112.7 160.5 113.9 160.4 115.1 160.7 116.3 161.1 117.4 161.4 118.3 162 119 162.7 119.5 163.5 120 164.4 120.3 165.3 120.3L165.2 120.3ZM184.2 123.1C182.7 123.1 181.3 122.7 180 121.9 178.7 121.1 177.7 119.9 177 118.6 176.3 117.1 175.9 115.5 176 113.9 175.9 112.3 176.3 110.6 177 109.2 177.7 107.8 178.7 106.7 180 105.9 181.3 105.1 182.7 104.7 184.2 104.7 185.7 104.7 187.2 105.1 188.5 105.9 189.7 106.7 190.7 107.8 191.4 109.2 192.1 110.6 192.5 112.3 192.4 113.9 192.5 115.5 192.1 117.1 191.4 118.6 190.7 119.9 189.7 121.1 188.4 121.9 187.2 122.7 185.7 123.1 184.2 123.1ZM184.2 120.2C185.1 120.2 186 120 186.7 119.5 187.5 119 188.1 118.3 188.4 117.4 188.8 116.3 189 115.1 189 113.9 189 112.7 188.8 111.5 188.4 110.4 188.1 109.5 187.5 108.8 186.7 108.2 186 107.7 185.1 107.5 184.2 107.5 183.3 107.5 182.5 107.7 181.7 108.2 180.9 108.8 180.3 109.5 180 110.4 179.6 111.5 179.4 112.7 179.4 113.9 179.4 115.1 179.6 116.3 180 117.4 180.3 118.3 180.9 119 181.7 119.5 182.5 120 183.3 120.2 184.2 120.2ZM195.2 122.6V105.2H198.4C198.3 106 198.1 106.8 197.8 107.6 197.4 108.5 197 109.3 196.5 110.1H198.4C198.7 108.7 199.4 107.4 200.3 106.3 200.8 105.8 201.4 105.4 202.1 105.2 202.7 105 203.4 104.9 204.1 104.9 204.7 104.9 205.2 105 205.7 105.1V108.5C205.1 108.4 204.5 108.3 203.9 108.3 202.8 108.3 201.7 108.5 200.8 109 200 109.6 199.3 110.3 199 111.2 198.6 112.4 198.4 113.6 198.4 114.8V122.6H195.2ZM215.8 122.6C215 122.6 214.2 122.4 213.4 122.1 212.8 121.8 212.3 121.3 211.9 120.7 211.6 119.9 211.4 119.1 211.4 118.3V107.9H207.5V105.2H211.4V99.7H214.7V103.9C214.7 104.2 214.9 104.6 215.1 104.8 215.3 105 215.7 105.2 216 105.2H219.4V107.9H214.7V118C214.7 118.2 214.7 118.5 214.8 118.7 214.9 118.9 215 119.1 215.2 119.3 215.3 119.5 215.5 119.6 215.7 119.7 216 119.7 216.2 119.8 216.4 119.7H220.1V122.6H215.8ZM64.5 85H59.5 57V87.5 92.5H59.5V87.5H64.5V85ZM59.5 135.9V130.9H57V135.9 138.4H59.5 64.5V135.9H59.5ZM229.5 85H224.5V87.5H229.5V92.5H232V87.5 85H229.5ZM229.5 130.9V135.9H224.5V138.4H229.5 232V135.9 130.9H229.5ZM591.5 103.8C591.5 103.7 591.5 103.6 591.3 103.6 590.4 103.6 589.5 103.6 588.6 103.6 588.5 103.6 588.5 103.7 588.5 103.8 588.5 104.1 588.5 104.4 588.5 104.7 587.6 104 587.2 103.7 586.5 103.5 584.7 103.1 583.1 103.5 581.8 104.7 580.1 106.2 579.6 108.2 580.1 110.3 580.7 112.9 583 114.8 585.8 114.5 586.7 114.4 587.5 114.1 588.2 113.4 588.2 113.4 588.3 113.2 588.4 113.3 588.4 113.9 588.5 114.5 588.4 115.1 588.1 116.2 587.4 116.9 586.3 117 585.2 117.1 584.1 116.8 583.6 115.7 583.4 115.4 583.3 115.3 583 115.4 582.4 115.4 581.8 115.4 581.2 115.4 581 115.4 580.7 115.3 580.5 115.4 580.4 115.6 580.5 115.8 580.5 116 580.9 117.6 581.9 118.6 583.5 119.2 584.9 119.7 586.4 119.7 587.9 119.3 589.7 118.7 590.8 117.6 591.3 115.8 591.4 115.2 591.5 114.6 591.5 114 591.5 110.7 591.5 107.4 591.5 104.1 591.5 104 591.5 103.9 591.5 103.8ZM585.9 111.8C584.1 111.8 583 110.5 583 109 583.1 107.3 584.3 106.1 585.8 106.1 587.5 106.1 588.7 107.3 588.7 109 588.7 110.6 587.5 111.8 585.9 111.8ZM627.6 104.7C625.7 102.9 622.8 102.9 621.1 104.7 621.1 104.7 621.1 104.7 621 104.6 621 104.4 621 104.2 621 103.9 621 103.7 620.9 103.6 620.7 103.6 619.9 103.6 619.2 103.6 618.5 103.6 617.9 103.6 617.9 103.5 617.9 104.1 617.9 109 617.9 113.9 617.9 118.8 617.9 118.9 617.9 119 617.9 119 618 119.3 618 119.4 618.3 119.4 619.1 119.4 619.9 119.4 620.6 119.4 621 119.4 621 119.4 621 119 621 117.4 621 115.7 621 114.1V113.5C621.5 114.1 622 114.4 622.6 114.6 624.4 115.3 626.5 114.8 627.9 113.3 628.8 112.4 629.3 111.3 629.4 110 629.6 108 629.1 106.2 627.6 104.7ZM626.2 110.2C625.8 111.4 624.8 112.1 623.6 112.1 622.2 112.1 621.1 111.2 620.8 109.8 620.7 109.3 620.7 108.7 620.9 108.1 621.3 106.9 622.4 106.1 623.7 106.1 625 106.2 626 107.1 626.3 108.4 626.4 109 626.4 109.6 626.2 110.2ZM593.7 89.5C594.9 88.2 596.3 87.9 597.8 88.2 599.6 88.5 600.6 89.6 601 91.3 601.1 91.9 601.2 92.4 601.2 92.9 601.2 95 601.2 97 601.2 99 601.2 99 601.2 99.1 601.2 99.1 601.2 99.4 601.1 99.5 600.9 99.4 600.9 99.4 600.8 99.4 600.8 99.4 600 99.4 599.3 99.4 598.6 99.4 598.1 99.4 598.1 99.5 598.1 99 598.1 98.6 598.1 98.1 598.1 97.6 598.1 96.3 598.1 94.9 598.1 93.5 598.1 93.2 598.1 92.8 598 92.5 597.8 91.1 596.5 90.5 595.2 91 594.6 91.3 594.3 91.7 594 92.2 593.8 92.8 593.7 93.4 593.7 94.1 593.7 95.6 593.7 97.2 593.7 98.8 593.7 98.9 593.7 99 593.7 99 593.7 99.4 593.7 99.4 593.3 99.4 592.5 99.4 591.8 99.4 591 99.4 591 99.4 591 99.4 591 99.4 590.6 99.4 590.6 99.4 590.6 99.1 590.6 99 590.6 98.9 590.6 98.9 590.6 93.7 590.6 88.5 590.6 83.3 590.6 83.2 590.6 83.1 590.6 83 590.6 82.8 590.7 82.7 591 82.7 591.8 82.7 592.5 82.7 593.3 82.7 593.7 82.7 593.7 82.7 593.7 83.1 593.7 85 593.7 87 593.7 88.9 593.7 89.1 593.7 89.3 593.7 89.5ZM635.2 104.7C636.6 103.3 638.2 103 640 103.6 641.5 104.1 642.2 105.3 642.6 106.8 642.7 107.3 642.7 107.8 642.7 108.3 642.7 110.3 642.7 112.2 642.7 114.2 642.7 114.3 642.7 114.4 642.7 114.5 642.7 114.6 642.6 114.7 642.5 114.7 641.6 114.7 640.7 114.7 639.8 114.7 639.7 114.7 639.6 114.7 639.6 114.5 639.6 114.4 639.6 114.3 639.6 114.2 639.6 112.4 639.6 110.6 639.6 108.8 639.6 108.5 639.6 108.1 639.5 107.7 639.3 107 639 106.4 638.2 106.2 637.4 106 636.7 106.2 636.1 106.7 635.5 107.3 635.3 108 635.2 108.8 635.2 109.1 635.2 109.5 635.2 109.8 635.2 111.3 635.2 112.8 635.2 114.3 635.2 114.7 635.2 114.7 634.8 114.7 634 114.7 633.3 114.7 632.5 114.7 632.2 114.7 632.2 114.7 632.1 114.3 632.1 114.3 632.1 114.2 632.1 114.1 632.1 108.9 632.1 103.7 632.1 98.5 632.1 97.9 632.1 98 632.7 98 633.3 98 634.1 98 634.7 98 635.2 98 635.2 98 635.2 98.5 635.2 100.4 635.2 102.3 635.2 104.2 635.2 104.4 635.2 104.5 635.2 104.7ZM614.3 103.6C613.4 103.6 612.6 103.6 611.7 103.6 611.5 103.6 611.5 103.7 611.5 103.9 611.5 104.1 611.5 104.4 611.5 104.7 611.4 104.6 611.3 104.6 611.3 104.6 610.4 103.7 609.4 103.3 608.1 103.3 606.6 103.4 605.3 104.1 604.3 105.3 603.1 106.9 602.8 108.7 603.2 110.6 603.6 112.3 604.5 113.6 606 114.4 607.7 115.3 610 115.1 611.3 113.7 611.3 113.6 611.4 113.6 611.5 113.7 611.5 113.9 611.5 114.2 611.5 114.4 611.4 114.7 611.5 114.7 611.8 114.7 612.5 114.7 613.3 114.7 614 114.7 614.6 114.7 614.5 114.8 614.5 114.2 614.5 110.8 614.5 107.5 614.5 104.1 614.5 104 614.5 103.9 614.5 103.8 614.6 103.6 614.5 103.6 614.3 103.6ZM611.6 110.2C611.2 111.4 610.2 112.2 608.8 112.1 607.6 112.1 606.5 111.3 606.2 110 606.1 109.4 606.1 108.7 606.3 108.1 606.7 106.8 607.7 106.1 609 106.1 610.3 106.2 611.3 107 611.6 108.3 611.7 108.5 611.7 108.8 611.7 109.1 611.7 109.5 611.7 109.8 611.6 110.2ZM615.2 92.5C614.7 90.5 613.5 89 611.5 88.4 610.6 88.1 609.7 88 608.8 88.1 606.6 88.4 605 89.5 604.2 91.5 603.7 92.6 603.6 93.8 603.8 95 604.2 96.8 605.1 98.3 606.8 99.1 609 100.1 611.2 99.9 613.2 98.6 614.1 98 614.7 97.3 615.1 96.3 615.2 96.2 615.3 96 615.2 95.8 614.2 95.8 613.3 95.8 612.3 95.8 612.1 95.8 612 95.9 612 96 611.8 96.3 611.6 96.5 611.3 96.6 610.7 97 610 97.1 609.3 97 607.9 96.9 606.9 96 606.8 94.7 607 94.6 607.1 94.6 607.3 94.6 609.4 94.6 611.5 94.6 613.5 94.6 614.1 94.6 614.6 94.6 615.1 94.6 615.4 94.6 615.4 94.6 615.4 94.3 615.4 93.7 615.4 93.1 615.2 92.5ZM606.9 92.6C607 91.4 608.2 90.5 609.6 90.5 610.8 90.6 611.9 91.5 612 92.6H606.9ZM588 96.7C588 97.5 588 98.3 588 99.1 588 99.3 587.9 99.4 587.7 99.4 587.2 99.5 586.7 99.6 586.2 99.6 585.4 99.6 584.7 99.5 584 99.1 582.8 98.6 582.1 97.7 581.9 96.4 581.8 96.1 581.8 95.7 581.8 95.4 581.8 94.1 581.8 92.7 581.8 91.4 581.8 91 581.8 91 581.4 91 580.9 91 580.4 91 579.9 91 579.6 91 579.6 90.9 579.6 90.7 579.6 90 579.6 89.3 579.6 88.6 579.6 88.4 579.6 88.3 579.8 88.3 580.4 88.3 580.9 88.3 581.5 88.3 581.7 88.3 581.8 88.2 581.8 88 581.8 87.2 581.8 86.4 581.8 85.6 581.8 85.2 581.8 85.2 582.2 85.2 583 85.2 583.8 85.2 584.6 85.2 584.8 85.2 584.9 85.3 584.9 85.5 584.9 86.3 584.9 87.1 584.9 87.8 584.9 88.4 584.8 88.3 585.4 88.3 586.2 88.3 586.9 88.3 587.7 88.3 587.9 88.3 588.1 88.4 588 88.6 588 89.3 588 90 588 90.7 588 91 587.9 91 587.7 91 586.9 91 586.1 91 585.3 91 584.9 91 584.9 91 584.9 91.4 584.9 92.5 584.9 93.7 584.9 94.9 584.9 95.1 584.9 95.4 585 95.6 585.1 96.2 585.4 96.6 586.1 96.8 586.6 96.9 587.2 96.9 587.8 96.7 587.8 96.7 587.9 96.7 588 96.7ZM598 105.1C598.1 105 598.2 104.9 598.2 104.8 599 103.7 600.2 103.3 601.5 103.5 601.6 103.6 601.8 103.6 601.8 103.8 601.8 104.7 601.8 105.7 601.8 106.6 601.5 106.7 601.3 106.6 601.1 106.5 599.5 106.2 598.3 107 598 108.6 598 108.9 598 109.2 598 109.5 598 111 598 112.6 598 114.1 598 114.2 597.9 114.3 598 114.4 598 114.7 597.8 114.7 597.6 114.7 596.8 114.7 596 114.7 595.2 114.7 594.9 114.7 594.9 114.7 594.9 114.4 594.9 110.9 594.9 107.4 594.9 103.9 594.9 103.7 594.9 103.6 595.2 103.6 596 103.6 596.8 103.6 597.7 103.6 597.9 103.6 598 103.7 598 103.9 598 104.3 598 104.7 598 105.1ZM542 123.3C538.9 123.3 535.9 122.7 533.1 121.5 530.3 120.3 527.9 118.7 525.8 116.6 523.6 114.5 522 112 520.8 109.3 519.6 106.5 519 103.5 519 100.4 519 97.3 519.6 94.3 520.8 91.5 522 88.7 523.6 86.3 525.8 84.2 527.9 82.1 530.3 80.4 533.1 79.3 535.9 78.1 538.9 77.5 542 77.5 545.1 77.5 548.1 78.1 550.9 79.3 553.7 80.4 556.1 82.1 558.2 84.2 560.4 86.3 562 88.7 563.2 91.5 564.4 94.3 565 97.3 565 100.4 565 103.5 564.4 106.5 563.2 109.3 562 112 560.4 114.5 558.2 116.6 556.1 118.7 553.7 120.3 550.9 121.5 548.1 122.7 545.1 123.3 542 123.3ZM542 84.9C533.4 84.9 526.5 91.8 526.5 100.4 526.5 108.9 533.4 115.9 542 115.9 550.6 115.9 557.6 108.9 557.6 100.4 557.6 91.8 550.6 84.9 542 84.9ZM568.8 84.8C570.8 84.8 572.5 83.1 572.5 81.2 572.5 79.2 570.8 77.5 568.8 77.5 566.8 77.5 565.2 79.2 565.2 81.2 565.2 83.1 566.8 84.8 568.8 84.8ZM545.8 146.1C544.9 146.1 543.9 145.8 543.2 145.1 541.7 143.6 541.7 141.3 543.2 139.8L558.7 124.4C560.1 122.9 562.5 122.9 563.9 124.4 565.4 125.9 565.4 128.2 563.9 129.6L548.5 145.1C547.7 145.8 546.8 146.1 545.8 146.1Z" />
  <g fill="#fff" clip-path="url(#c)">
    <path
      d="M702.705 287.559C702.292 287.559 702.044 287.23 702.044 286.9V254.006C701.961 252.605 702.127 247.493 706.095 243.371C707.335 242.052 710.806 239.084 716.097 239.002C721.222 238.919 724.777 241.64 726.017 242.794C727.339 244.031 730.398 247.411 730.563 252.769C730.729 258.21 727.67 261.755 726.43 263.075C722.793 266.784 718.329 267.196 716.593 267.279C716.262 267.279 715.932 266.949 715.932 266.619C715.932 266.207 716.18 265.96 716.593 265.96C718.164 265.96 722.214 265.465 725.521 262.168C726.43 261.261 729.406 257.881 729.323 252.852C729.241 247.905 726.182 244.69 725.19 243.866C724.281 243.041 721.14 240.486 716.428 240.486C716.345 240.486 716.262 240.486 716.18 240.486C711.385 240.568 708.244 243.289 707.087 244.443C703.449 248.07 703.367 252.687 703.367 254.006V286.9C703.367 287.312 703.119 287.559 702.705 287.559Z" />
    <path
      d="M716.2 258C713.5 258 711.4 255.9 711.4 253.3 711.4 250.6 713.5 248.5 716.2 248.5 718.8 248.5 721 250.6 721 253.3 721 255.9 718.8 258 716.2 258ZM716.2 249.7C714.3 249.7 712.7 251.3 712.7 253.2 712.7 255.1 714.3 256.6 716.2 256.6 718.1 256.6 719.7 255.1 719.7 253.2 719.7 251.3 718.1 249.7 716.2 249.7ZM707.2 276C706.8 276 706.5 275.7 706.5 275.4V254C706.5 253.6 706.8 253.3 707.2 253.3 707.5 253.3 707.8 253.7 707.8 254V275.4C707.8 275.7 707.5 276 707.2 276ZM712 282.7C711.6 282.7 711.3 282.4 711.3 282V270.7C711.3 270.2 711.6 270 712 270 712.3 270 712.6 270.3 712.6 270.7V282C712.7 282.4 712.4 282.7 712 282.7ZM698.4 277.3C698 277.3 697.7 277 697.7 276.7V262.2C697.7 261.8 698.1 261.5 698.4 261.5 698.7 261.5 699.1 261.8 699.1 262.2V276.7C699.1 277.1 698.8 277.3 698.4 277.3Z" />
    <path
      d="M716.2 262.8C710.8 262.8 706.5 258.5 706.5 253.2 706.5 247.9 710.8 243.5 716.2 243.5 721.6 243.5 725.9 247.9 725.9 253.2 725.9 258.5 721.5 262.8 716.2 262.8ZM716.2 244.9C711.6 244.9 707.8 248.6 707.8 253.2 707.8 257.8 711.6 261.5 716.2 261.5 720.8 261.5 724.5 257.8 724.5 253.2 724.5 248.6 720.7 244.9 716.2 244.9ZM785.5 252.3H782.7C782.6 252.3 782.5 252.4 782.4 252.4L777.4 259C777 259.4 776.8 259.8 776.5 260.1 776.4 259.8 776 259.4 775.7 259L770.6 252.4C770.5 252.4 770.4 252.3 770.2 252.3H767.5C767.4 252.3 767.2 252.4 767.2 252.5 767.1 252.7 767.1 252.9 767.3 252.9L775 263V272C775 272.2 775.1 272.4 775.4 272.4H777.8C778 272.4 778.2 272.2 778.2 272V262.9L785.9 252.9C785.9 252.7 785.9 252.5 785.9 252.4 785.9 252.4 785.7 252.3 785.5 252.3ZM807.9 252.3H791.1C790.8 252.3 790.7 252.4 790.7 252.7V254.7C790.7 255 790.8 255.2 791.1 255.2H797.9V272C797.9 272.2 798 272.4 798.3 272.4H800.7C800.9 272.4 801.1 272.2 801.1 272V255.2H807.9C808.1 255.2 808.3 255.1 808.3 254.8V252.8C808.3 252.5 808.1 252.3 807.9 252.3ZM753.4 252.3H745.4C745.2 252.3 745 252.4 745 252.7V272C745 272.2 745.2 272.4 745.4 272.4H747.8C748.1 272.4 748.3 272.2 748.3 272V268.7 267.5 264.6 264.1 255.1H753.6C756.6 255.1 758.8 257.1 758.8 259.9 758.8 262.7 756.6 264.6 753.5 264.6H752.7C752.7 264.6 752.5 264.6 752.4 264.8 752.3 264.9 752.3 265.1 752.3 265.1 752.3 265.7 752.3 266.5 752.3 267.1 752.3 267.1 752.3 267.3 752.4 267.4 752.5 267.5 752.6 267.5 752.7 267.5 752.9 267.5 753.1 267.5 753.3 267.5 753.7 267.5 757.8 267.8 760.3 264.6 761.9 262.7 762 260.4 762 259.9 762.1 255.4 758.6 252.3 753.4 252.3ZM818.1 260.3V252.7C818.1 252.4 817.9 252.3 817.7 252.3H815.3C815 252.3 814.9 252.4 814.9 252.7V272C814.9 272.2 815 272.4 815.3 272.4H817.7C817.9 272.4 818.1 272.2 818.1 272V263.2M831.3 252.3H828.9C828.7 252.3 828.5 252.4 828.5 252.7V260.3H822C821.8 260.3 821.7 260.4 821.7 260.6V262.8C821.7 263 821.8 263.2 822 263.2H828.5V272.1C828.5 272.3 828.7 272.5 828.9 272.5H831.3C831.6 272.5 831.7 272.3 831.7 272.1V252.7C831.7 252.5 831.6 252.3 831.3 252.3Z" />
  </g>
  <g fill="#fff" fill-rule="evenodd" clip-path="url(#d)" clip-rule="evenodd">
    <path
      d="M278.664 232.433L296.029 249.654C296.462 250.083 296.462 250.779 296.029 251.208C295.813 251.422 295.53 251.529 295.246 251.529V251.529H277.873C277.262 251.529 276.766 251.038 276.766 250.431V233.202C276.766 232.595 277.262 232.104 277.873 232.104C278.183 232.104 278.463 232.23 278.664 232.433ZM292.572 249.332L278.981 235.854V249.332H292.572Z" />
    <path
      d="M311.828 268.429L294.463 251.207C294.03 250.779 294.03 250.083 294.463 249.654C294.679 249.44 294.963 249.332 295.246 249.332V249.332H312.619C313.231 249.332 313.727 249.824 313.727 250.431V267.66C313.727 268.266 313.231 268.758 312.619 268.758C312.309 268.758 312.029 268.632 311.828 268.429ZM297.92 251.529L311.511 265.008V251.529H297.92Z" />
    <path
      d="M278.981 265.008L292.572 251.529H278.981V265.008ZM296.029 251.207L278.664 268.429C278.463 268.632 278.183 268.758 277.873 268.758C277.262 268.758 276.766 268.266 276.766 267.66V250.431C276.766 249.824 277.262 249.332 277.873 249.332H295.246V249.332C295.53 249.332 295.813 249.44 296.029 249.654C296.462 250.083 296.462 250.779 296.029 251.207Z" />
    <path
      d="M294.138 253.082L280.547 266.561H294.138V253.082ZM277.09 266.883L294.455 249.661C294.656 249.458 294.936 249.332 295.246 249.332C295.858 249.332 296.354 249.824 296.354 250.431V267.66C296.354 268.266 295.858 268.758 295.246 268.758H277.873V268.758C277.59 268.758 277.306 268.651 277.09 268.436C276.658 268.007 276.658 267.312 277.09 266.883Z" />
    <path
      d="M311.511 235.854L297.92 249.332H311.511V235.854ZM294.463 249.654L311.828 232.433C312.029 232.23 312.309 232.104 312.619 232.104C313.231 232.104 313.727 232.595 313.727 233.202V250.431C313.727 251.038 313.231 251.529 312.619 251.529H295.246V251.529C294.963 251.529 294.679 251.422 294.463 251.208C294.03 250.779 294.03 250.083 294.463 249.654Z" />
    <path
      d="M296.4 247.8 309.9 234.3H296.4V247.8ZM313.4 234 296 251.2C295.8 251.4 295.6 251.5 295.2 251.5 294.6 251.5 294.1 251 294.1 250.4V233.2C294.1 232.6 294.6 232.1 295.2 232.1H312.6V232.1C312.9 232.1 313.2 232.2 313.4 232.4 313.8 232.9 313.8 233.6 313.4 234ZM324.2 274.4C321.7 274.4 319.5 275.5 318.2 277.3H318V274.9H313.8V293.3H318.1V283.9C318.1 280.8 320.3 278.6 323.1 278.6 325.8 278.6 327.5 280.5 327.5 283.4V293.3H331.8V282.7C331.8 277.5 328.8 274.4 324.2 274.4ZM344.5 274.4C338.8 274.4 334.8 278.7 334.8 284.1 334.8 289.3 338.4 293.8 344.5 293.8 348.8 293.8 352.4 291.5 353.6 287.5H349.2C348.5 289 346.6 289.9 344.5 289.9 341.6 289.8 339.6 287.9 339.3 285.6H353.9C354.5 279.2 350.6 274.4 344.5 274.4ZM344.4 278.3C347 278.3 348.9 279.8 349.5 282.1H339.4C339.9 279.8 341.8 278.3 344.4 278.3ZM366.3 293.8C372.3 293.8 376.2 289.5 376.2 284.1 376.2 278.7 372.3 274.4 366.3 274.4 360.3 274.4 356.3 278.7 356.3 284.1 356.3 289.5 360.3 293.8 366.3 293.8ZM366.3 289.7C362.9 289.7 360.6 287.2 360.6 284.1 360.6 281 362.9 278.5 366.3 278.5 369.7 278.5 371.9 281 371.9 284.1 371.9 287.2 369.7 289.7 366.3 289.7ZM389.8 274.4C387.3 274.4 385.2 275.5 383.8 277.3H383.7V274.9H379.5V293.3H383.8V283.9C383.8 280.8 385.9 278.6 388.7 278.6 391.4 278.6 393.1 280.5 393.1 283.4V293.3H397.4V282.7C397.4 277.5 394.5 274.4 389.8 274.4Z" />
  </g>
  <path fill="#fff"
    d="M692 92V132H729V127.5H696.4V96.5H729V92H692ZM755.7 109.9 762 100.1H767.1L759.7 111.7V112.3L767.5 123.9H762.2L755.7 114.1V109.9ZM782.3 114.1H788.2L785.6 102.3H785L782.3 114.1ZM789.2 118.6H781.3L780.1 123.9H775.5L781.1 100.1H789.4L795 123.9H790.4L789.2 118.6ZM806.8 100.1H811.3V119.6H822V123.9H806.8V100.1Z" />
  <path fill="#fff"
    d="M732.7 107.4C732.7 106.4 732.3 105.6 731.6 104.9 730.9 104.2 729.9 103.8 728.5 103.8 727.4 103.8 726.5 104.1 725.9 104.5 725.2 105 724.9 105.6 724.9 106.4 724.9 106.8 725 107.2 725.1 107.5 725.3 107.9 725.6 108.2 725.9 108.4 726.3 108.7 726.8 108.9 727.5 109.1 728.1 109.3 729 109.5 729.9 109.7 732.4 110.2 734.3 110.9 735.6 112 736.9 113.1 737.6 114.6 737.6 116.7V117.1C737.6 118.2 737.4 119.2 737 120.1 736.6 121 736 121.8 735.3 122.4 734.5 123.1 733.6 123.6 732.6 123.9 731.5 124.2 730.3 124.4 729 124.4 727.4 124.4 726.1 124.2 724.9 123.8 723.7 123.3 722.7 122.7 722 121.9 721.2 121.1 720.6 120.2 720.2 119.2 719.8 118.1 719.6 117 719.6 115.7V115.5H724C724 116.9 724.4 118.1 725.2 118.9 726.1 119.8 727.3 120.2 729.1 120.2 730.4 120.2 731.4 119.9 732.1 119.3 732.7 118.7 733 118 733 117.2 733 116.8 733 116.5 732.8 116.1 732.7 115.8 732.5 115.5 732.1 115.2 731.8 114.9 731.3 114.6 730.7 114.4 730.1 114.2 729.4 114 728.5 113.8 727.3 113.6 726.2 113.3 725.2 113 724.3 112.7 723.4 112.2 722.7 111.7 721.9 111.2 721.4 110.5 721 109.7 720.6 108.8 720.3 107.8 720.3 106.7V106.5C720.3 105.5 720.6 104.6 720.9 103.8 721.3 102.9 721.9 102.2 722.6 101.6 723.3 101 724.1 100.5 725.2 100.2 726.2 99.8 727.3 99.6 728.5 99.6 729.9 99.6 731.1 99.9 732.2 100.2 733.3 100.6 734.2 101.2 734.9 101.9 735.7 102.5 736.1 103.3 736.6 104.2 737.1 105.3 737.1 107.4 737.1 107.4L732.7 107.4ZM832.3 100.1V123.9H847.6V119.6H836.8V104.4H847.6V100.1H832.3ZM752.6 100.1H748.1V123.9H752.6V100.1Z" />
  <path fill="#fff" d="M844.201 109.852H839.95V114.149H844.201V109.852Z" />
  <path fill="#fff" fill-rule="evenodd"
    d="M346.435 188.549C352.425 188.549 357.284 183.697 357.284 177.718C357.284 171.851 352.425 167 346.435 167C340.445 167 335.699 171.851 335.586 177.718C335.586 171.851 330.726 167 324.736 167C318.86 167 314 171.851 314 177.831C314 183.81 318.86 188.549 324.736 188.662C318.747 188.662 314 193.513 314 199.492C314 205.472 318.86 210.323 324.849 210.323C330.839 210.323 335.699 205.472 335.699 199.492C335.699 193.513 330.839 188.774 324.962 188.662C330.839 188.662 335.699 183.81 335.699 177.944C335.699 183.81 340.445 188.549 346.435 188.549Z"
    clip-rule="evenodd" />
  <path fill="#fff"
    d="M346.4 210.2C352.4 210.2 357.3 205.4 357.3 199.4 357.3 193.4 352.4 188.5 346.4 188.5 340.4 188.5 335.6 193.4 335.6 199.4 335.6 205.4 340.4 210.2 346.4 210.2ZM399.9 171.9H395.4V199.6H399.9V171.9Z" />
  <path fill="#fff" fill-rule="evenodd"
    d="M379.1 186.1C380.1 185.1 381.4 184.5 382.7 184.5 384.1 184.5 385 184.8 385.8 185.5 386.6 186.2 387 187 387.2 188L391.2 186.5C390.7 184.8 389.8 183.4 388.3 182.2 386.8 181 384.9 180.4 382.6 180.4 379.9 180.4 377.6 181.3 375.7 183.2 373.9 185.2 373 187.5 373 190.4 373 193.2 373.9 195.5 375.7 197.5 377.6 199.4 379.9 200.3 382.6 200.3 384.9 200.3 386.8 199.7 388.3 198.5 389.7 197.2 390.7 195.9 391.3 194.2L387.5 192.7C387.2 193.6 386.7 194.4 385.9 195.1 385.1 195.8 384.1 196.1 382.7 196.1 381.2 196.1 380 195.5 379 194.5 378 193.5 377.5 192 377.5 190.2 377.6 188.5 378.1 187.1 379.1 186.1ZM410.2 194.6C411.2 195.7 412.4 196.2 413.9 196.2 415.4 196.2 416.6 195.7 417.6 194.6 418.7 193.6 419.2 192.2 419.2 190.2 419.2 188.4 418.7 187 417.6 186 416.6 184.9 415.4 184.4 413.9 184.4 412.4 184.4 411.2 184.9 410.2 186 409.2 187 408.7 188.4 408.7 190.2 408.6 192.2 409.2 193.6 410.2 194.6ZM413.9 180.4C416.7 180.4 419.1 181.3 420.9 183.2 422.7 185.2 423.7 187.5 423.7 190.4 423.7 193.3 422.8 195.7 421 197.5 419.2 199.4 416.8 200.3 414 200.3 411.2 200.3 408.9 199.4 407 197.5 405.2 195.5 404.3 193.2 404.3 190.4 404.3 187.5 405.2 185.2 407 183.2 408.7 181.3 411.1 180.4 413.9 180.4ZM437 199.6 444.3 180.9H439.6L434.7 194.2 429.7 180.9H424.9L432.4 199.6H437ZM450.1 188.2H459.2C459.2 187.1 458.8 186.1 458 185.3 457.2 184.5 456.1 184 454.6 184 453.2 184 452.2 184.5 451.3 185.3 450.6 186.2 450.2 187.2 450.1 188.2ZM459.8 193.2 463.5 194.4C463 196.1 461.9 197.6 460.5 198.7 459 199.8 457.2 200.4 455 200.4 452.3 200.4 450.1 199.5 448.3 197.7 446.5 195.9 445.5 193.4 445.5 190.4 445.5 187.5 446.5 185.2 448.3 183.2 450.1 181.4 452.2 180.5 454.7 180.5 457.5 180.5 459.8 181.4 461.4 183.1 463 184.8 463.9 187.2 463.9 190.2 463.9 191 463.9 191.5 463.7 191.7H450.1C450.1 193.1 450.6 194.3 451.7 195.2 452.7 196.1 453.8 196.6 455.3 196.6 457.5 196.3 459.1 195.3 459.8 193.2ZM479 185.4V180.9C478.7 180.8 478.2 180.8 477.8 180.8 476.5 180.8 475.4 181.1 474.5 181.7 473.5 182.2 472.8 183 472.3 184V181H468V199.7H472.4V190.8C472.4 187.2 474.1 185.3 477.4 185.3 478 185.3 478.5 185.3 479 185.4Z"
    clip-rule="evenodd" />
  <path fill="#fff"
    d="M633.3 189C633.3 190.9 632.9 192.9 632.2 194.7 631.5 196.5 630.4 198.1 629 199.5 626.2 202.3 622.4 203.8 618.5 203.8 614.6 203.8 610.8 202.3 608 199.5 606.6 198.1 605.5 196.5 604.8 194.7 604 192.9 603.6 190.9 603.7 189 603.6 187 604 185.1 604.8 183.2 605.5 181.4 606.6 179.8 608 178.4 609.4 177.1 611 176 612.8 175.2 616.5 173.7 620.5 173.7 624.2 175.2 626 176 627.6 177.1 629 178.4 630.4 179.8 631.5 181.4 632.2 183.2 632.9 185.1 633.3 187 633.3 189ZM618.5 200.7C620 200.7 621.4 200.4 622.8 199.8 624.2 199.2 625.5 198.3 626.5 197.2 627.6 196.2 628.4 194.9 629 193.5 629.6 192 629.9 190.5 629.8 189 629.8 187.4 629.6 185.9 629 184.5 628.4 183 627.6 181.8 626.5 180.7 624.9 179.1 622.9 177.9 620.7 177.5 618.5 177 616.2 177.3 614.1 178.1 612.7 178.7 611.5 179.6 610.4 180.7 609.4 181.8 608.5 183.1 607.9 184.5 607.4 185.9 607.1 187.5 607.1 189 607.1 190.5 607.4 192 607.9 193.5 609.1 196.3 611.3 198.6 614.1 199.8 615.5 200.4 617 200.7 618.5 200.7ZM638.7 203.1V174.8H644.5C646 174.7 647.5 174.9 649 175.1 649.8 175.3 650.7 175.7 651.4 176.2 652.3 176.9 653 177.8 653.5 178.8 654 179.9 654.2 181.1 654.2 182.2 654.3 183.6 653.9 184.9 653.2 186 652.4 187 651.3 187.8 650.1 188.1 651.6 188.3 653 189.1 654 190.4 655 191.7 655.5 193.4 655.4 195.1 655.4 196.2 655.2 197.3 654.8 198.3 654.4 199.3 653.9 200.2 653.1 201 652.3 201.8 651.3 202.4 650.2 202.7 649.1 203 647.2 203.1 644.4 203.1L638.7 203.1ZM641.9 177.7V187.2H644.5C646.8 187.2 648.5 186.8 649.4 186.1 650.4 185.4 650.9 184.3 650.9 182.6 650.9 180.8 650.4 179.5 649.5 178.8 648.7 178.1 647 177.7 644.5 177.7H641.9ZM641.9 189.8V200.2H644.5C645.7 200.2 647 200.1 648.2 199.9 648.9 199.8 649.6 199.6 650.1 199.2 650.7 198.8 651.2 198.2 651.5 197.5 651.8 196.7 652 195.9 652 195.1 652 194.1 651.8 193.2 651.4 192.4 651 191.6 650.4 191 649.7 190.6 649.2 190.3 648.7 190.1 648.1 190 647.2 189.9 646.3 189.8 645.4 189.9H641.9V189.8ZM688.9 189C688.9 190.9 688.5 192.9 687.7 194.7 687 196.5 685.9 198.1 684.5 199.5 681.7 202.3 678 203.8 674 203.8 670.1 203.8 666.4 202.3 663.5 199.5 661.5 197.4 660.1 194.8 659.5 191.9 658.9 189 659.2 186 660.3 183.2 661.1 181.4 662.2 179.8 663.5 178.4 664.9 177.1 666.6 176 668.4 175.2 672 173.7 676.1 173.7 679.7 175.2 681.5 176 683.2 177.1 684.5 178.4 685.9 179.8 687 181.4 687.7 183.2 688.5 185.1 688.9 187 688.9 189ZM674 200.7C675.5 200.7 677 200.4 678.4 199.8 679.7 199.2 681 198.3 682.1 197.2 683.1 196.2 684 194.9 684.5 193.5 685.1 192 685.4 190.5 685.4 189 685.4 187.4 685.1 185.9 684.5 184.5 683.7 182.3 682.2 180.5 680.3 179.2 678.5 177.9 676.3 177.3 674 177.3 672.5 177.3 671 177.6 669.6 178.1 668.2 178.7 667 179.6 666 180.7 664.9 181.8 664.1 183.1 663.5 184.5 662.9 185.9 662.6 187.5 662.6 189 662.6 190.5 662.9 192 663.5 193.5 664.1 194.9 664.9 196.2 666 197.3 667 198.4 668.3 199.2 669.7 199.8 671.1 200.4 672.5 200.7 674 200.7ZM694.2 203.1V174.8H697.5V199.9H708V203.1H694.2Z" />
  <path stroke="#fff" stroke-miterlimit="10" stroke-width="3"
    d="M589.034 187.851C589.034 203.979 576.238 209.114 560.449 199.332C544.661 189.549 532.225 186.792 532.663 193.167C533.1 199.541 545.924 194.407 561.258 181.686C576.593 168.966 589.034 171.734 589.034 187.851Z" />
  <g fill="#fff" clip-path="url(#e)">
    <path
      d="M831.7 188.9H828.3V201.4H823.6V188.9H821.2V184.9H823.6V183.4C823.6 179.3 826.2 177.3 830 177.3 830.6 177.3 831.2 177.3 831.8 177.5V182.1C831.3 181.9 830.7 181.8 830.2 181.8 829.9 181.8 829.7 181.8 829.5 181.9 829.2 182 829 182.1 828.8 182.3 828.7 182.5 828.5 182.7 828.4 182.9 828.4 183.2 828.3 183.4 828.3 183.7V184.9H831.7L831.7 188.9ZM838.7 201.4H834V177.6H838.7V201.4ZM849.3 183.9C851 183.9 852.8 184.4 854.3 185.4 855.7 186.4 856.9 187.8 857.6 189.4 858.3 191.1 858.4 192.9 858.1 194.6 857.7 196.3 856.9 197.9 855.6 199.2 854.4 200.5 852.8 201.3 851 201.7 849.3 202 847.5 201.8 845.8 201.1 844.2 200.5 842.8 199.3 841.8 197.8 840.8 196.4 840.3 194.6 840.3 192.8 840.3 191.7 840.5 190.5 841 189.4 841.4 188.3 842.1 187.3 842.9 186.5 843.7 185.6 844.7 185 845.8 184.5 846.9 184.1 848.1 183.9 849.3 183.9ZM849.3 197.2C851.7 197.2 853.4 195.2 853.4 192.8 853.5 192.3 853.4 191.7 853.2 191.2 853 190.7 852.7 190.2 852.3 189.8 851.9 189.4 851.4 189 850.9 188.8 850.4 188.6 849.8 188.5 849.3 188.5 848.1 188.5 847.1 189 846.3 189.8 845.5 190.6 845 191.7 845 192.9 845 194 845.5 195.1 846.3 195.9 847.1 196.7 848.1 197.2 849.3 197.2ZM863.2 184.2 866.2 195.7 869.3 186.6 868.4 184.2H873.1L877.1 195.7 880.1 184.2H885L879.8 201.4H874.9L871.5 192 868.3 201.4H863.4L858.3 184.2H863.2Z" />
    <path fill-rule="evenodd"
      d="M812.07 189C812.07 203.359 800.414 215 786.035 215C771.656 215 760 203.359 760 189C760 174.641 771.656 163 786.035 163C800.414 163 812.07 174.641 812.07 189ZM792.866 181.261H801.135V173.919H792.866C790.187 173.922 787.618 174.986 785.723 176.878C783.828 178.77 782.762 181.336 782.76 184.012V184.933H790.107V184.012C790.108 183.282 790.4 182.582 790.917 182.067C791.434 181.551 792.135 181.261 792.866 181.261ZM782.295 196.557C782.598 196.104 782.76 195.571 782.76 195.026V192.27H790.107V195.026C790.107 197.022 789.514 198.973 788.404 200.633C787.293 202.293 785.715 203.587 783.868 204.351C782.021 205.115 779.989 205.315 778.028 204.925C776.068 204.536 774.267 203.574 772.853 202.163C771.44 200.751 770.477 198.953 770.087 196.995C769.698 195.037 769.898 193.008 770.663 191.163C771.428 189.319 772.723 187.743 774.385 186.634C776.047 185.525 778.001 184.933 780 184.933H782.76V192.27H780C779.454 192.27 778.921 192.431 778.467 192.734C778.013 193.037 777.659 193.468 777.45 193.971C777.242 194.475 777.187 195.029 777.293 195.563C777.4 196.098 777.663 196.589 778.049 196.975C778.435 197.36 778.926 197.623 779.462 197.729C779.997 197.835 780.552 197.781 781.056 197.572C781.56 197.363 781.991 197.01 782.295 196.557ZM790.107 184.933H797.459V192.275H790.107V184.933Z"
      clip-rule="evenodd" />
    <path d="M782.76 192.271H790.107V184.934H782.76V192.271Z" />
  </g>
  <g fill="#fff" clip-path="url(#f)">
    <path
      d="M130.607 262.05C130.607 268.41 135.337 273.33 141.934 273.33C148.532 273.33 153.291 268.41 153.291 262.05C153.291 255.69 148.532 250.77 141.934 250.77C135.337 250.77 130.607 255.69 130.607 262.05ZM134.915 262.05C134.915 258.06 137.837 255 141.934 255C146.061 255 148.953 258.06 148.953 262.05C148.953 266.04 146.061 269.1 141.934 269.1C137.837 269.1 134.915 266.04 134.915 262.05ZM171.049 273H175.417L168.247 251.1H163.819L156.589 273H160.867L161.891 269.88H170.025L171.049 273ZM163.247 265.74L165.958 257.43L168.669 265.74H163.247ZM191.124 257.49H195.432C195.432 253.5 192.088 250.77 187.569 250.77C182.96 250.77 179.766 253.68 179.766 257.67C179.766 260.46 181.333 262.65 184.225 263.46C186.183 264 188.503 263.85 189.919 264.36C190.792 264.66 191.485 265.35 191.485 266.43C191.485 268.02 190.13 269.25 187.81 269.25C185.551 269.25 183.863 268.08 183.863 266.34H179.586C179.586 270.48 183.08 273.33 187.75 273.33C192.57 273.33 195.763 270.33 195.763 266.19C195.763 263.25 194.046 261.12 191.244 260.28C189.135 259.65 186.997 259.92 185.581 259.41C184.647 259.08 184.044 258.39 184.044 257.46C184.044 255.99 185.37 254.85 187.509 254.85C189.617 254.85 191.064 255.9 191.124 257.49ZM201.759 273H206.067V251.1H201.759V273ZM223.686 257.49H227.994C227.994 253.5 224.65 250.77 220.131 250.77C215.522 250.77 212.329 253.68 212.329 257.67C212.329 260.46 213.895 262.65 216.788 263.46C218.746 264 221.065 263.85 222.481 264.36C223.355 264.66 224.048 265.35 224.048 266.43C224.048 268.02 222.692 269.25 220.372 269.25C218.113 269.25 216.426 268.08 216.426 266.34H212.148C212.148 270.48 215.643 273.33 220.312 273.33C225.132 273.33 228.326 270.33 228.326 266.19C228.326 263.25 226.608 261.12 223.807 260.28C221.698 259.65 219.559 259.92 218.143 259.41C217.209 259.08 216.607 258.39 216.607 257.46C216.607 255.99 217.932 254.85 220.071 254.85C222.18 254.85 223.626 255.9 223.686 257.49Z" />
    <path fill-rule="evenodd"
      d="M105.092 250.923C102.052 247.049 97.5885 244.597 92.6529 244.597C83.1074 244.597 76.1238 253.43 76.1238 263C76.1238 269.671 80.5696 274.664 85.5152 274.664C85.9772 274.664 86.4358 274.622 86.8877 274.539C83.5755 272.133 81.4561 267.752 81.4561 263C81.4561 255.434 86.5958 249.538 92.6529 249.538C99.2587 249.538 103.852 256.07 103.852 263C103.835 268.118 102.003 273.206 98.7789 276.961C95.965 280.238 92.3203 282.316 88.313 282.976C88.313 282.976 88.6472 283 89.084 283C100.176 283 109.167 274.046 109.167 263C109.167 258.462 107.649 254.278 105.092 250.923ZM102.044 263C102.044 256.328 97.5978 251.336 92.6527 251.336C92.1901 251.336 91.7322 251.378 91.2797 251.461C94.5925 253.867 96.7113 258.248 96.7113 263C96.7113 270.566 91.5721 276.463 85.5151 276.463C78.9086 276.463 74.3155 269.93 74.3155 263C74.3323 257.882 76.1649 252.794 79.3884 249.04C82.2029 245.762 85.8475 243.684 89.8544 243.024C89.8544 243.024 89.5207 243 89.0839 243C77.992 243 69 251.955 69 263C69 267.538 70.5186 271.721 73.0759 275.078C76.1158 278.951 80.5795 281.403 85.5151 281.403C95.0606 281.403 102.044 272.57 102.044 263Z"
      clip-rule="evenodd" />
  </g>
  <g fill="#fff" clip-path="url(#g)">
    <path
      d="M72.9 203.5C64.1 203.5 58.5 197.2 58.5 188.8 58.5 180.4 64.1 174 72.9 174 80 174 84.2 177.7 86 183.3H81.2C79.7 179.8 77.3 178.1 72.9 178.1 66.9 178.1 63.3 182.8 63.3 188.8 63.3 194.7 66.9 199.5 72.9 199.5 77.5 199.5 80 197.4 81.2 194.3H86C84.6 199.6 80 203.5 72.9 203.5ZM106 203.1H101.4C101.2 202.2 101.2 201.3 101.2 200.3V199.7H101.1C100.4 201.6 98.5 203.6 94.7 203.6 90 203.6 87.4 200.7 87.4 197.4 87.4 191.4 94.4 191.3 97.3 190.8 100 190.4 101.1 190 101.1 188.2 101.1 186.5 99.6 185.4 97.2 185.4 95 185.4 93.4 186.6 93.3 188.7H88.8C89 185.3 91.6 181.8 97.1 181.8 103.9 181.8 105.7 185.9 105.7 190.3V198.2C105.7 199.9 105.7 201.9 106 203.1ZM101.3 191.4C100.8 192.6 99.6 193.6 96.3 194.2 93.4 194.7 92 195.5 92 197.3 92 199 93.4 200.2 95.8 200.2 98.6 200.2 101.3 198.2 101.3 193.6V191.4ZM116.1 185.3C114.3 185.3 112.8 186.4 112.8 187.9 112.8 189.9 115.2 190.5 118.6 191.2 122.2 192 124.8 193.8 124.8 197.1 124.8 201.2 120.9 203.5 116.4 203.5 112.2 203.5 108.2 201.6 107.7 196.7H112.3C112.7 198.9 114.1 200 116.5 200 118.4 200 120.2 199.2 120.2 197.2 120.2 195.2 118.2 194.9 114.9 194.1 111.7 193.3 108.3 191.8 108.3 188 108.3 184.3 112 181.8 116.2 181.8 120.6 181.8 124 184.1 124.4 188.5H120C119.8 186.3 118 185.3 116.1 185.3ZM147.8 192.6C147.8 199.1 143.9 203.6 138.5 203.6 135 203.6 132.7 201.8 131.9 199.3H131.8V211H127.1V182.4H131.9V186.2C132.6 183.9 135 181.8 138.5 181.8 143.9 181.8 147.8 186.3 147.8 192.6ZM143.2 192.6C143.2 188.7 141 185.6 137.4 185.6 133.9 185.6 131.7 188.4 131.5 192.2V192.6C131.5 196.7 133.4 199.8 137.4 199.8 141.1 199.8 143.2 196.7 143.2 192.6ZM169.4 194H153.6C154 197.7 156.3 199.9 159.5 199.9 161.9 199.9 163.8 199 164.6 196.9H169.2C167.9 201.1 164.4 203.6 159.6 203.6 153.4 203.6 149.3 199.1 149.3 192.6 149.3 186.4 153.6 181.8 159.6 181.8 166.6 181.8 169.4 187.3 169.4 193.1V194H169.4ZM164.8 190.6C164.5 187.4 162.6 185.4 159.5 185.4 156.3 185.4 154.2 187.5 153.7 190.6H164.8ZM176.4 193.3V203.1H171.8V182.4H176.3V186.8H176.4C177.2 184 179.2 182.1 182.4 182V186.6C178.6 186.7 176.4 189.2 176.4 193.3ZM204.2 199V203.1H186.1V174.5H190.9V199H204.2ZM223.7 203.1H219C218.9 202.2 218.8 201.3 218.8 200.3V199.7H218.8C218.1 201.6 216.2 203.6 212.2 203.6 207.6 203.6 205 200.7 205 197.4 205 191.4 212.1 191.3 215 190.8 217.7 190.4 218.8 190 218.8 188.2 218.8 186.5 217.3 185.4 214.8 185.4 212.6 185.4 211 186.6 210.9 188.7H206.4C206.6 185.3 209.3 181.8 214.7 181.8 221.6 181.8 223.3 185.9 223.3 190.4V198.4C223.3 199.9 223.4 202 223.7 203.1ZM218.9 191.4C218.4 192.6 217.3 193.6 213.9 194.2 211.1 194.7 209.7 195.5 209.7 197.3 209.7 199 211.1 200.2 213.4 200.2 216.3 200.2 218.9 198.2 218.9 193.6V191.4ZM247.7 192.6C247.7 199.2 243.9 203.6 238.4 203.6 235.1 203.6 232.6 201.6 231.7 199.3H231.6V203.1H226.9V174.5H231.7V186.2C232.5 184 235.1 181.8 238.4 181.8 243.9 181.8 247.7 186.1 247.7 192.6ZM243 192.6C243 188.4 240.7 185.6 237.2 185.6 233.6 185.6 231.5 188.3 231.3 192.2V192.6C231.3 196.7 233.5 199.8 237.2 199.8 240.8 199.8 243 196.9 243 192.6ZM257.3 185.3C255.5 185.3 253.9 186.4 253.9 187.9 253.9 189.9 256.3 190.5 259.8 191.2 263.4 192.1 266 193.8 266 197.1 266 201.2 262.1 203.6 257.6 203.6 253.4 203.6 249.4 201.7 248.9 196.8H253.5C253.9 199 255.3 200.1 257.7 200.1 259.7 200.1 261.5 199.3 261.5 197.4 261.5 195.4 259.5 195 256.2 194.2 252.8 193.5 249.6 191.9 249.6 188.1 249.6 184.4 253.2 181.8 257.5 181.8 261.9 181.8 265.2 184.1 265.7 188.6H261.3C260.9 186.3 259.1 185.3 257.3 185.3ZM48.3 203.3 38.2 185.1V173.7H39.1C40 173.7 40.8 172.9 40.8 171.9 40.8 171 40 170.2 39.1 170.2H38L38.4 169.6C38.6 168.8 38 168 37.2 168H31.8C31 168 30.4 168.8 30.6 169.6L31 170.2H29.9C29 170.2 28.2 171 28.2 172 28.2 172.9 29 173.7 29.9 173.7H30.9V185.2L20.7 203.3C19.8 204.9 19.8 206.7 20.7 208.3 21.6 209.9 23.3 210.9 25.1 210.9H44C45.8 210.9 47.4 209.9 48.3 208.3 49.2 206.7 49.2 204.9 48.3 203.3ZM47.7 208C46.9 209.4 45.5 210.2 43.9 210.2H25C23.5 210.2 22 209.4 21.2 208 20.4 206.6 20.4 204.9 21.2 203.6L31.5 185.3V173H29.9C29.3 173 28.8 172.6 28.8 172 28.8 171.4 29.3 170.9 29.9 170.9H39C39.6 170.9 40.1 171.4 40.1 172 40.1 172.6 39.6 173 39 173H37.4V185.3L47.7 203.6C48.5 204.9 48.5 206.6 47.7 208Z" />
    <path
      d="M42.3 199C39.8 200.2 36.8 200.5 33.9 198.8 31.6 197.4 29.5 197 27.7 197.2L23.4 204.8C22.9 205.7 23.2 206.4 23.4 206.7 23.5 207 24 207.7 25 207.7H43.9C44.9 207.7 45.4 207 45.5 206.7 45.7 206.4 46 205.7 45.5 204.8L42.3 199ZM32.6 193.1C32.7 193.1 32.7 193.1 32.8 193.1L34.5 195C34.5 195.2 34.4 195.3 34.4 195.5 34.4 196.1 34.9 196.7 35.6 196.7 36.2 196.7 36.7 196.1 36.7 195.5 36.7 194.9 36.2 194.3 35.6 194.3 35.3 194.3 35.1 194.4 34.9 194.5L33.2 192.7C33.2 192.6 33.3 192.6 33.3 192.6L34.8 191.8C35.1 192.3 35.7 192.5 36.2 192.5 37.1 192.5 37.9 191.7 37.9 190.8 37.9 189.9 37.1 189.1 36.2 189.1 35.3 189.1 34.5 189.9 34.5 190.8 34.5 191 34.5 191.1 34.6 191.2L33 191.9C32.9 191.8 32.7 191.8 32.6 191.8 32.2 191.8 31.9 192.1 31.9 192.5 32 192.8 32.3 193.1 32.6 193.1Z" />
  </g>
  <g fill="#fff" clip-path="url(#h)">
    <path
      d="M454.5 276.2H445.7V243.3H452.5C457.4 243.3 459.5 243.6 461.4 244.9 463.8 246.4 465.2 249 465.2 252.1 465.2 255.2 464.2 256.9 461.5 258.3 465.7 260 467.2 262.5 467.2 266.4 467.2 272.4 463 276.2 454.5 276.2ZM454.4 249.2H451.9V256H453.8C457.5 256 459.1 255 459.1 252.6 459.1 250.3 457.5 249.2 454.4 249.2ZM454.7 262H451.9V270.4H454.9C459.2 270.4 461 269.2 461 266.3 461 263.3 459 262 454.7 262ZM469.5 276.2V251.5H475.4V276.2H469.5ZM469.6 247.9V242H475.5V247.9H469.6ZM491.2 276.8C483.9 276.8 478 271.1 478 263.9 478 256.6 483.7 250.9 491 250.9 496.7 250.9 501.6 254.1 503.5 259.8H496.8C495.6 257.5 493.7 256.4 491.1 256.4 487 256.4 484 259.5 484 263.8 484 268.2 487.1 271.4 491.2 271.4 493.7 271.4 495.4 270.4 496.9 268.1H503.5C501.4 273.7 497 276.8 491.2 276.8ZM518.3 276.8C511.1 276.8 505.2 271 505.2 263.9 505.2 256.8 511.1 250.9 518.3 250.9 525.7 250.9 531.5 256.7 531.5 264.1 531.5 271 525.5 276.8 518.3 276.8ZM518.3 256.4C514.4 256.4 511.2 259.7 511.2 263.8 511.2 268.1 514.4 271.4 518.4 271.4 522.3 271.4 525.5 268.1 525.5 263.9 525.5 259.8 522.3 256.4 518.3 256.4ZM549.8 276.2V264.1C549.8 257.5 548 256.4 545.1 256.4 543.2 256.4 541.7 257.2 540.7 258.6 540 259.9 539.7 261.3 539.7 264.6V276.2H533.8V251.5H539.3V253.9C541.5 251.8 543.5 250.9 546.3 250.9 549.7 250.9 552.4 252.2 554 254.5 555.3 256.4 555.8 258.6 555.8 263V276.2H549.8ZM571.2 276.8C564 276.8 558.1 271 558.1 263.9 558.1 256.8 564 250.9 571.2 250.9 578.7 250.9 584.4 256.7 584.4 264.1 584.4 271 578.4 276.8 571.2 276.8ZM571.2 256.4C567.4 256.4 564.1 259.7 564.1 263.8 564.1 268 567.3 271.4 571.3 271.4 575.2 271.4 578.4 268 578.4 263.9 578.4 259.8 575.2 256.4 571.2 256.4ZM617.9 276.2V262.7C617.9 257.7 616 256.4 613.2 256.4 609.9 256.4 608.2 258.2 608.2 264.1V276.2H602.3V262.7C602.3 257.8 600.6 256.4 597.5 256.4 594.1 256.4 592.7 258.2 592.7 264.1V276.2H586.7V251.5H592.2V253.8C593.9 251.7 595.7 250.9 598.6 250.9 602 250.9 604.2 252.1 605.9 254.8 607.9 252.1 610.3 250.9 613.8 250.9 620.3 250.9 623.8 254.6 623.8 262V276.2H617.9ZM634.6 284.5H628.2L632.9 273.9 623.8 251.5H630.6L636.1 267.6 642 251.5H648.9L634.6 284.5Z" />
  </g>
  <g fill="#fff" clip-path="url(#i)">
    <path
      d="M489 350.6C486.6 350.6 484.2 350.6 481.7 350.6 481 350.6 480.2 350.5 479.6 350.2 478.9 349.9 478.5 349.5 478.3 348.9 478.1 348.2 478 347.5 478 346.8 478 343.4 478 340 478 336.6 478 336 478.1 335.4 478.2 334.8 478.4 334.1 478.9 333.6 479.6 333.3 480.1 333.1 480.6 333 481 333 481.4 332.9 481.8 332.9 482.2 332.9 486.8 332.9 491.4 332.9 496.1 332.9 496.6 332.9 497.2 333 497.8 333.1 498.7 333.4 499.4 333.9 499.7 334.9 499.9 335.5 500 336.1 500 336.8 500 340.1 500 343.4 500 346.7 500 347.4 499.9 348 499.7 348.7 499.4 349.6 498.7 350.2 497.8 350.4 497.2 350.6 496.6 350.7 496 350.7 493.7 350.6 491.3 350.6 489 350.6ZM489 336.1C486.9 336.1 484.7 336.1 482.6 336.1 482.5 336.1 482.4 336.1 482.3 336.1 482.2 336.1 482.2 336.1 482.2 336.3 482.2 336.3 482.2 336.4 482.2 336.4 482.2 339.9 482.2 343.4 482.2 347 482.2 347.3 482.2 347.3 482.5 347.3 486.8 347.3 491.2 347.3 495.5 347.3 495.8 347.3 495.8 347.3 495.8 347 495.8 346.9 495.8 346.9 495.8 346.9 495.8 343.4 495.8 339.9 495.8 336.5 495.8 336.4 495.8 336.3 495.8 336.3 495.8 336.2 495.8 336.1 495.7 336.1 495.6 336.1 495.5 336.1 495.4 336.1 493.3 336.1 491.1 336.1 489 336.1ZM465.8 344C468.5 346.2 471.1 348.4 473.8 350.6 473.8 350.7 473.7 350.6 473.6 350.6 471.9 350.6 470.1 350.6 468.3 350.6 468.2 350.6 468 350.6 467.9 350.5 464.5 347.3 461.2 344.2 457.8 341.1 457.8 341.1 457.7 341.1 457.6 341 457.8 340.9 457.9 340.9 458 340.9 460.8 340.9 463.6 340.9 466.5 340.9 466.9 340.9 467.3 340.8 467.7 340.5 467.9 340.3 468.1 340.1 468.1 339.8 468.1 338.9 468.1 338 468.1 337.1 468.1 336.8 467.9 336.6 467.7 336.4 467.4 336.1 467.1 336 466.7 336 463.5 336 460.3 336 457.1 336 456.9 336 456.9 336 456.9 336.2 456.9 336.3 456.9 336.4 456.9 336.5 456.9 341.1 456.9 345.7 456.9 350.3 456.9 350.7 456.9 350.7 456.5 350.7 455.4 350.7 454.2 350.7 453.2 350.7 452.8 350.7 452.8 350.7 452.8 350.3 452.8 345.4 452.8 340.5 452.8 335.5 452.8 334.7 452.8 334 452.8 333.2 452.8 332.9 452.8 332.9 453 332.9 453.1 332.9 453.1 332.9 453.2 332.9 458.2 332.9 463.3 332.9 468.4 332.9 469 332.9 469.6 333 470.2 333.2 470.5 333.2 470.7 333.4 470.8 333.5 471.6 334.2 472.1 334.9 472.1 336 472.1 337.6 472.1 339.2 472.1 340.8 472.1 341.2 472 341.6 471.9 342 471.5 343 470.7 343.5 469.7 343.8 469.3 343.8 468.9 343.9 468.5 343.9 467.7 343.9 466.9 343.9 466.1 343.9 466 343.9 465.9 343.9 465.8 344ZM413.3 350.6C413.2 350.7 413.1 350.6 413 350.6 411.8 350.6 410.6 350.6 409.4 350.6 409 350.6 409.1 350.7 409.1 350.3 409.1 348 409.1 345.7 409.1 343.5 409.1 343 409.1 343 408.7 343 404.6 343 400.6 343 396.6 343 396.1 343 396.1 342.9 396.1 343.4 396.1 345.7 396.1 347.9 396.1 350.2 396.1 350.2 396.1 350.3 396.1 350.4 396.1 350.7 396.1 350.7 395.8 350.7 394.7 350.7 393.5 350.7 392.3 350.7 392 350.7 392 350.7 392 350.4 392 348.8 392 347.3 392 345.8 392 341.7 392 337.5 392 333.4 392 333.3 392 333.2 392 333.2 391.9 333 392 332.9 392.2 332.9 393.5 332.9 394.7 332.9 395.9 332.9 396.1 332.9 396.1 333 396.1 333.2 396.1 333.7 396.1 334.3 396.1 334.8 396.1 336.4 396.1 337.9 396.1 339.4 396.1 339.5 396.1 339.6 396.1 339.7 396.1 339.8 396.2 339.8 396.3 339.8 396.4 339.8 396.5 339.8 396.5 339.8 400.6 339.8 404.6 339.8 408.7 339.8 408.7 339.8 408.8 339.8 408.8 339.8 409.1 339.8 409.1 339.8 409.1 339.5 409.1 337.6 409.1 335.7 409.1 333.9 409.1 333.6 409.1 333.4 409.1 333.2 409.1 333 409.1 332.9 409.3 332.9 410.6 332.9 411.8 332.9 413.1 332.9 413.3 332.9 413.3 333 413.3 333.2 413.3 333.2 413.3 333.3 413.3 333.3 413.3 339 413.3 344.6 413.3 350.2 413.3 350.4 413.3 350.5 413.3 350.6Z" />
    <path
      d="M414 359.4C413.5 360 413 360.6 412.5 361.2 410.6 363.3 408.8 365.4 407 367.5 407 367.5 406.9 367.6 406.8 367.6 407.1 367 407.7 366.6 408 366 407.9 366 407.8 366 407.8 366.1 407.7 366.2 407.6 366.4 407.5 366.4 408.8 364.3 410.1 362.2 411.4 360 415.1 354 418.8 348 422.5 342.1 422.6 341.8 422.6 341.6 422.5 341.4 420.3 338 418.1 334.6 415.9 331.2 415.8 331 415.7 330.9 415.9 330.6 416.1 330.1 416.2 329.6 416.4 329.1 416.5 329.1 416.5 329.2 416.6 329.3 418.9 333.4 421.2 337.4 423.5 341.5 423.6 341.7 423.6 341.9 423.5 342 420.7 346.2 418 350.4 415.3 354.6 412.9 358.2 410.6 361.8 408.2 365.4 408.2 365.5 408.1 365.6 408.1 365.7 408 365.8 407.9 365.9 408 366 408.1 366.1 408.1 365.9 408.2 365.8 408.6 365.2 409.1 364.6 409.6 364 415.2 356.5 420.9 349 426.6 341.4 426.6 341.3 426.6 341.3 426.7 341.3 426.8 341.1 426.8 341 426.7 340.9 426.6 340.8 426.6 340.7 426.5 340.6 424.1 336.5 421.7 332.3 419.3 328.2 419.3 328.1 419.2 328 419.2 327.9 419.3 327.8 419.3 327.8 419.4 327.8 423.3 327.8 427.1 327.8 431 327.8 431.2 327.8 431.3 327.9 431.4 328.2 432.4 329.9 433.4 331.6 434.4 333.4 434.4 333.5 434.5 333.6 434.6 333.7 437.2 331.3 439.9 328.9 442.5 326.4L442.6 326.5C439.5 330 436.5 333.5 433.4 337 433.3 336.9 433.3 336.8 433.2 336.7 432.1 334.8 431 332.9 429.9 330.9 429.7 330.7 429.6 330.6 429.3 330.6 427.7 330.6 426 330.6 424.3 330.6 424.2 330.6 424.1 330.6 424 330.6 423.9 330.7 424.1 330.8 424.1 330.9 426 334.2 427.9 337.4 429.8 340.7 430 341.1 430 340.9 429.7 341.3 425.3 346.4 421 351.4 416.6 356.5 416.5 356.5 416.5 356.6 416.4 356.7 415.9 357.2 415.5 357.7 415.1 358.2 414.7 358.6 414.3 359 414 359.4ZM453 322.6C453.6 322 454.1 321.4 454.7 320.8 455.8 319.4 457 318 458.2 316.7 458.3 316.6 458.3 316.6 458.4 316.5 458.4 316.6 458.4 316.6 458.4 316.6 458.4 316.7 458.2 316.8 458.3 316.9 458.2 317 458.1 317 458.1 317.2 457.9 317.3 457.8 317.4 457.8 317.6 457.7 317.5 457.7 317.7 457.6 317.8 456.9 318.7 456.2 319.6 455.6 320.5 450.3 327.5 445 334.6 439.7 341.6 439.5 341.9 439.5 342 439.6 342.3 442.1 346.7 444.7 351 447.2 355.4 447.2 355.5 447.3 355.6 447.3 355.7 447.2 355.7 447.1 355.7 446.9 355.7 443.2 355.7 439.4 355.7 435.6 355.7 435.3 355.7 435.1 355.6 435 355.4 434 353.6 433 351.9 432 350.1 432 350.1 432 350 431.8 349.9 431.8 350 431.6 350.1 431.5 350.2 428.9 352.4 426.2 354.6 423.6 356.9 423.5 357 423.3 357.1 423.2 357.2 423.2 357.1 423.3 357 423.3 356.9 426.4 353.3 429.6 349.8 432.6 346.2 432.7 346.1 432.8 346.1 432.8 346 433 346.1 433 346.3 433.1 346.4 434.3 348.4 435.5 350.5 436.7 352.6 436.8 352.9 437 353 437.2 353 438.9 352.9 440.5 353 442.2 353 442.3 353 442.4 353 442.6 353 442.6 352.8 442.5 352.7 442.4 352.6 440.5 349.2 438.5 345.7 436.5 342.3 436.5 342.3 436.5 342.3 436.5 342.3 436.3 341.9 436.3 342 436.6 341.7 437.5 340.6 438.4 339.6 439.4 338.4 443.1 334.1 446.9 329.8 450.6 325.5 450.6 325.5 450.7 325.4 450.7 325.4 450.8 325.3 450.8 325.3 450.9 325.2 451.5 324.5 452.2 323.7 452.9 323 452.9 322.8 453 322.8 453 322.6Z" />
    <path
      d="M453 322.6C453 322.7 452.9 322.8 452.8 322.9 452.1 323.7 451.5 324.4 450.8 325.2 450.8 325.2 450.7 325.3 450.7 325.3 448.9 323.4 447 321.7 444.8 320.2 442.1 318.4 439.2 317.1 436 316.4 434.2 316 432.3 315.8 430.4 315.9 425 316.1 420.1 317.9 415.9 321.2 415.5 321.4 415.2 321.7 414.9 322 414.8 322.1 414.5 322.1 414.5 322.3 414.7 322.2 414.9 321.9 415.1 321.7 417.8 318.9 421.1 316.8 424.9 315.4 427.9 314.4 431 313.9 434.2 314 437.5 314.2 440.6 314.9 443.5 316.1 446.7 317.4 449.5 319.2 451.9 321.5 452.3 321.9 452.7 322.2 453 322.6ZM414 359.4C414.3 359 414.7 358.6 415.1 358.2 415.5 357.7 415.9 357.1 416.4 356.7 419.6 360.2 423.3 363 427.8 364.7 429.5 365.3 431.2 365.8 432.9 366 434.4 366.2 436 366.2 437.5 366.1 440.6 365.9 443.6 365.1 446.4 363.8 448.2 362.9 449.9 361.9 451.5 360.6 451.5 360.6 451.6 360.5 451.8 360.4 451.8 360.6 451.7 360.7 451.6 360.8 450.7 361.6 449.8 362.4 448.8 363.1 445.7 365.4 442.2 366.9 438.4 367.6 436.7 367.9 435 368.1 433.3 368.1 429.9 368 426.6 367.2 423.4 365.9 420.7 364.8 418.1 363.2 415.8 361.3 415.2 360.6 414.6 360 414 359.4ZM457.8 317.6C457.8 317.6 458 317.5 457.9 317.6 457.9 317.7 457.8 317.8 457.8 317.9 453.5 324.8 449.3 331.7 445 338.6 444.5 339.6 443.9 340.5 443.3 341.5 443.1 341.7 443.1 341.9 443.3 342.1 445.5 345.6 447.8 349.2 450 352.7 450.2 352.9 450.2 353.1 450.1 353.4 450 353.8 449.9 354.2 449.8 354.6 449.8 354.6 449.8 354.7 449.7 354.8 449.6 354.7 449.6 354.6 449.5 354.5 447.1 350.3 444.7 346.1 442.3 342 442.1 341.7 442.2 341.6 442.3 341.4 446.2 335.5 450.1 329.6 453.9 323.6 455.2 321.7 456.5 319.7 457.7 317.8 457.8 317.8 457.9 317.7 457.8 317.6 457.8 317.6 457.8 317.6 457.8 317.6ZM451.8 360.3C451.9 360.2 452.1 360.1 452.2 360 452.1 360.2 452 360.3 451.9 360.4 451.9 360.4 451.9 360.3 451.8 360.3ZM458.1 317.3C458.1 317.2 458.1 317.2 458.1 317.1 458.2 317.2 458.2 317.1 458.2 317 458.2 317.2 458.2 317.2 458.1 317.3ZM407.5 366.4C407.5 366.5 407.5 366.6 407.4 366.6 407.4 366.6 407.5 366.5 407.5 366.4 407.5 366.4 407.5 366.4 407.5 366.4ZM458.4 316.4C458.5 316.4 458.5 316.3 458.5 316.4 458.6 316.4 458.5 316.4 458.5 316.5 458.5 316.5 458.4 316.5 458.4 316.4ZM458.3 316.9C458.3 317 458.3 317 458.3 317 458.3 317 458.3 317 458.3 316.9 458.3 316.9 458.3 316.9 458.3 316.9ZM458.1 317.3C458.1 317.3 458.1 317.4 458 317.4 458 317.4 458.1 317.3 458.1 317.3Z" />
    <path
      d="M458.4 316.5C458.4 316.5 458.4 316.5 458.4 316.4L458.5 316.5C458.5 316.5 458.4 316.6 458.4 316.6 458.4 316.6 458.4 316.6 458.4 316.5ZM458.4 316.8V316.8 316.8C458.4 316.8 458.4 316.8 458.4 316.8ZM458.3 316.9C458.4 316.9 458.4 316.8 458.4 316.8 458.4 316.9 458.4 316.9 458.3 316.9ZM458 317.4C458 317.4 458 317.4 458 317.5L458 317.4C458 317.4 458 317.4 458 317.4ZM423.2 357.1C423.1 357.2 423.1 357.2 423.1 357.2 423.1 357.2 423.1 357.1 423.2 357.1ZM451.9 360.4C451.9 360.4 451.8 360.4 451.8 360.4 451.8 360.4 451.8 360.4 451.8 360.3 451.9 360.3 451.9 360.4 451.9 360.4ZM408.2 365.8C408.1 365.9 408.1 366 408 366 407.9 365.9 408 365.8 408.1 365.7 408.1 365.7 408.1 365.8 408.2 365.8ZM458.3 316.9C458.3 317 458.3 317 458.3 317 458.2 317 458.2 317.2 458.1 317.1 458.1 317 458.2 317 458.3 316.9Z" />
  </g>
  <path fill="#fff" fill-rule="evenodd"
    d="M202.005 321H202.006C213.054 321 222.011 329.931 222.011 340.947C222.011 351.964 213.054 360.895 202.006 360.895H202.005C200.806 360.895 199.631 360.79 198.491 360.588V351.756H202.351C204.438 351.756 206.186 351.381 207.594 350.63C209.002 349.88 210.046 348.899 210.726 347.689C211.406 346.454 211.745 345.099 211.745 343.622C211.745 342.025 211.393 340.608 210.689 339.374C209.985 338.139 208.929 337.171 207.521 336.469C206.113 335.767 204.39 335.416 202.351 335.416H192.264V358.374C186.14 354.964 182 348.438 182 340.947C182 329.931 190.956 321 202.005 321ZM211.874 328.958H192.264V333.06H211.874V328.958ZM201.877 346.818C203.067 346.818 203.953 346.539 204.535 345.982C205.118 345.426 205.409 344.639 205.409 343.622C205.409 342.606 205.118 341.819 204.535 341.262C203.953 340.705 203.067 340.427 201.877 340.427H198.491V346.818H201.877Z"
    clip-rule="evenodd" />
  <path fill="#fff"
    d="M238.9 356.6C237 356.6 235.3 356.3 233.8 355.7 232.3 355.1 231.1 354.2 230.2 353 229.3 351.8 228.8 350.3 228.8 348.6H235.5C235.6 349.6 236 350.3 236.5 350.8 237.1 351.3 237.8 351.6 238.8 351.6 239.7 351.6 240.4 351.4 241 351 241.5 350.5 241.8 349.9 241.8 349.1 241.8 348.5 241.6 348 241.1 347.6 240.7 347.1 240.2 346.8 239.5 346.5 238.9 346.3 238 345.9 236.9 345.6 235.2 345.1 233.8 344.6 232.8 344.1 231.7 343.5 230.8 342.8 230 341.8 229.2 340.8 228.9 339.4 228.9 337.8 228.9 335.4 229.7 333.5 231.5 332.2 233.2 330.8 235.5 330.1 238.3 330.1 241.2 330.1 243.5 330.8 245.3 332.2 247 333.5 248 335.4 248.1 337.9H241.2C241.2 337 240.9 336.4 240.3 335.9 239.7 335.4 239 335.2 238.1 335.2 237.4 335.2 236.7 335.4 236.3 335.8 235.8 336.2 235.6 336.8 235.6 337.5 235.6 338.4 236 339 236.8 339.5 237.5 339.9 238.8 340.4 240.5 341 242.1 341.6 243.5 342.1 244.5 342.6 245.6 343.1 246.5 343.9 247.3 344.9 248 345.9 248.4 347.1 248.4 348.7 248.4 350.1 248 351.5 247.3 352.7 246.5 353.9 245.4 354.9 244 355.6 242.6 356.3 240.9 356.6 238.9 356.6ZM271 330.5V335.5H264.1V356.4H257.8V335.5H250.9V330.5H271ZM290.4 351.8H280.7L279.1 356.4H272.5L281.9 330.5H289.2L298.6 356.4H291.9L290.4 351.8ZM288.7 346.9 285.5 337.4 282.3 346.9H288.7ZM316.6 356.4 307.8 344.9V356.4H301.5V330.5H307.8V341.8L316.5 330.5H323.9L313.9 343.2 324.3 356.4H316.6ZM333.6 335.5V340.8H342.1V345.6H333.6V351.3H343.2V356.4H327.3V330.5H343.2V335.5H333.6Z" />
  <path fill="#fff" fill-opacity=".9" fill-rule="evenodd"
    d="M577.19 324L565.095 358H559.952L548 324H552.857L562.571 353.476H562.667L572.476 324H577.19ZM580.825 358V324H604.301V327.81H585.349V338.619H603.016V342.429H585.349V354.19H604.444V358H580.825ZM648.38 343.952L654.142 328.095H654.237L659.903 343.952H648.38ZM651.761 324L638.523 358H643.142L646.951 347.762H661.332L665.046 358H670.046L656.761 324H651.761ZM631.312 324.048V328.524H613.408V324.048H631.312ZM631.312 328.524H635.789V334.286H631.312V328.524ZM608.931 328.524H613.408V353.524H608.931V328.524ZM631.312 353.524V358H613.408V353.524H631.312ZM631.312 353.524V345.524H622.36V341.048H635.789V353.524H631.312Z"
    clip-rule="evenodd" />
  <path fill="#fff"
    d="M336.2 120H341.9L343.3 116.5H350.8L352.3 120H358.1L349.7 100.3H344.5L336.2 120ZM344.9 112.3 347.1 106.7 349.3 112.3H344.9ZM360.3 120H365.7V109.2L374 120H378.8V100.4H373.4V110.8L365.3 100.4H360.3V120ZM392 120.4C396.3 120.4 398.8 118.5 400.7 116L396.6 113.1C395.4 114.5 394.2 115.4 392.1 115.4 389.4 115.4 387.5 113.1 387.5 110.2 387.5 107.3 389.4 105 392.1 105 394 105 395.3 105.8 396.5 107.2L400.4 104.2C398.7 101.7 396.2 100 392.2 100 386.3 100 381.9 104.5 381.9 110.2 381.9 116.1 386.4 120.4 392 120.4ZM403.3 120H408.7V112.6H415.7V120H421.1V100.4H415.7V107.7H408.7V100.4H403.3V120ZM434.7 120.4C440.8 120.4 445.3 115.8 445.3 110.2 445.3 104.5 440.8 100 434.8 100 428.7 100 424.2 104.6 424.2 110.2 424.2 115.9 428.7 120.4 434.7 120.4ZM434.8 115.5C431.8 115.5 429.8 113 429.8 110.2 429.8 107.3 431.7 104.9 434.7 104.9 437.7 104.9 439.7 107.4 439.7 110.2 439.7 113.1 437.8 115.5 434.8 115.5ZM448.4 120H453.8V114.1H456.2L460.2 120H466.4L461.8 113.2C464.2 112.1 465.8 110.1 465.8 107.1 465.8 105.2 465.2 103.6 464.1 102.5 462.7 101.2 460.7 100.4 457.7 100.4H448.4V120ZM453.8 109.8V105.1H457.4C459.2 105.1 460.3 105.9 460.3 107.4 460.3 108.9 459.3 109.8 457.4 109.8H453.8Z" />
  <rect width="39.6" height="12.3" x="305.7" y="90.3" fill="#fff" rx="6.2" transform="rotate(60 305.7 90.3)" />
  <rect width="39.6" height="12.3" x="311.5" y="96.4" fill="#fff" rx="6.2" transform="rotate(120 311.5 96.4)" />
  <defs>
    <clipPath id="a">
      <path fill="#fff" d="M0 0H262V24H0z" transform="translate(31 20)" />
    </clipPath>
    <clipPath id="b">
      <path fill="#fff" d="M0 0H214.3V40H0z" transform="translate(654 12)" />
    </clipPath>
    <clipPath id="c">
      <path fill="#fff" d="M0 0H134V49H0z" transform="translate(697.7 239)" />
    </clipPath>
    <clipPath id="d">
      <path fill="#fff" d="M0 0H121.7V62H0z" transform="translate(276 232)" />
    </clipPath>
    <clipPath id="e">
      <path fill="#fff" d="M0 0H125V52H0z" transform="translate(760 163)" />
    </clipPath>
    <clipPath id="f">
      <path fill="#fff" d="M0 0H159V40H0z" transform="translate(69 243)" />
    </clipPath>
    <clipPath id="g">
      <path fill="#fff" d="M0 0H246V43H0z" transform="translate(20 168)" />
    </clipPath>
    <clipPath id="h">
      <path fill="#fff" d="M0 0H204V42.5H0z" transform="translate(445.7 242)" />
    </clipPath>
    <clipPath id="i">
      <path fill="#fff" d="M0 0H108V54H0z" transform="translate(392 314)" />
    </clipPath>
  </defs>
</svg>