<svg xmlns="http://www.w3.org/2000/svg" fill="none" viewBox="0 0 320 270"><g clip-path="url(#a)"><path fill="#fff" fill-rule="evenodd" d="M27.84 18.93a.4.4 0 0 0 .01-.43l-4.91-8.3a.4.4 0 0 0-.34-.2h-3.45a.4.4 0 0 0-.34.6l6.45 11.06c.15.25.5.26.67.03l1.9-2.76Zm8.9 3.26a.4.4 0 0 0 .35-.6l-6.64-11.4a.4.4 0 0 0-.34-.19h-3.45a.4.4 0 0 0-.34.6L32.98 22c.07.12.2.2.34.2h3.42Zm-14.87-.7a.4.4 0 0 1-.34.6h-2.37a.4.4 0 0 1-.4-.4v-4c0-.4.54-.55.74-.2l2.37 4Zm23.78.7h-2.03V10h2l5.62 9.62L56.85 10h2v12.2h-2.03v-8.07l-4.72 8.06h-1.73l-4.72-8.06v8.06Zm25.78 0h-7.86V10h7.86v1.99H65.6v3.11h5.83v1.99H65.6v3.12h5.83v1.98Zm7.77 0h2.03V12h4.7v-2H74.49v1.99h4.72v10.2Zm21.1 0h-2.22l-1.02-2.12h-7.1l-.99 2.12h-2.23L92.54 10h1.97l5.8 12.2Zm-6.79-9.6-2.6 5.5h5.2l-2.6-5.5Zm10.31 9.6h2.03v-3.83h2.62c2.5 0 4.3-1.76 4.3-4.18a4.1 4.1 0 0 0-4.3-4.18h-4.65v12.2Zm2.03-5.81v-4.4h2.62c1.32 0 2.26.93 2.26 2.2s-.94 2.2-2.26 2.2h-2.62Zm18.72 5.81h-7.96V10h2.03v10.2h5.93v2Zm3.57 0h7.85v-1.98h-5.82v-3.12h5.82V15.1h-5.82V12h5.82v-2h-7.85v12.2Zm13.65 0h-2.62l5.04-6.1-5.04-6.09h2.62l3.74 4.51 3.74-4.51h2.6l-5.04 6.1 5.05 6.1h-2.62l-3.73-4.52-3.74 4.51Z" clip-rule="evenodd"/></g><path fill="#fff" fill-rule="evenodd" d="M175.47 5.91a.54.54 0 0 1 .25-.06l4.75.02a.54.54 0 0 1 .43.22.5.5 0 0 1 .05.48 27.04 27.04 0 0 0 0 20.26.5.5 0 0 1-.05.48.52.52 0 0 1-.43.22h-4.75a.54.54 0 0 1-.44-.23.5.5 0 0 1-.04-.48 27.21 27.21 0 0 0-.01-20.27.5.5 0 0 1 .05-.47.53.53 0 0 1 .2-.17Zm.87 10.78c0-3.4-1.36-6.65-3.8-9.08a.48.48 0 0 0-.33-.13h-3.12a.48.48 0 0 0-.33.13.45.45 0 0 0-.14.32v3.12a.48.48 0 0 0 .44.46c1.34.1 2.6.7 3.5 1.66a5.12 5.12 0 0 1 0 7.06 5.41 5.41 0 0 1-3.5 1.65.47.47 0 0 0-.3.14.45.45 0 0 0-.14.3v3.12a.44.44 0 0 0 .13.33.47.47 0 0 0 .34.13h3.12a.48.48 0 0 0 .34-.13 12.77 12.77 0 0 0 3.8-9.08Zm11.24 5.63a.45.45 0 0 0-.13-.3.47.47 0 0 0-.3-.15c-1.35-.1-2.6-.7-3.52-1.65a5.12 5.12 0 0 1 0-7.06 5.41 5.41 0 0 1 3.51-1.66c.12 0 .23-.06.31-.14.08-.08.13-.2.13-.3V7.92a.45.45 0 0 0-.14-.32.47.47 0 0 0-.33-.13H184a.48.48 0 0 0-.34.13 12.82 12.82 0 0 0-3.79 9.08 12.8 12.8 0 0 0 3.8 9.07.48.48 0 0 0 .33.14h3.12c.13 0 .25-.05.33-.14a.4.4 0 0 0 .14-.32v-3.12Z" clip-rule="evenodd"/><path fill="#fff" d="m201.44 21.8 1.9-9.05h2.27l2.21 9.05h-1.44l-2.2-9.01h.56l-1.92 9h-1.38Zm-.86 0v-1.33h1.95v1.33h-1.95Zm-.39 0-2.64-9.36h1.61l2.58 9.36h-1.55Zm6.54 0v-1.33h1.95v1.33h-1.95Zm.8 0 2.24-9.36h1.52L209 21.8h-1.47Zm12.45.31a4.96 4.96 0 0 1-3.73-1.53 5.03 5.03 0 0 1-1.28-3.3v-.32a4.81 4.81 0 0 1 2.9-4.42 5.09 5.09 0 0 1 2.11-.42 5.1 5.1 0 0 1 3.7 1.53 4.81 4.81 0 0 1 1.31 3.31v.32a4.81 4.81 0 0 1-1.29 3.31 4.78 4.78 0 0 1-3.72 1.52Zm0-1.5a3.04 3.04 0 0 0 2.93-1.72c.27-.53.4-1.12.4-1.77 0-.67-.13-1.26-.4-1.79a3.04 3.04 0 0 0-1.16-1.24 3.3 3.3 0 0 0-1.77-.46c-.67 0-1.26.15-1.77.46-.5.3-.89.71-1.15 1.24-.27.53-.4 1.12-.4 1.79 0 .65.12 1.24.38 1.77.27.53.65.95 1.14 1.26.5.3 1.1.46 1.8.46Zm9.82 1.19v-9.36h1.33v3.85h-.07c0-1.36.3-2.36.9-3 .6-.64 1.5-.96 2.71-.96h.32v1.51h-.6c-.94 0-1.65.25-2.16.75-.5.5-.75 1.2-.75 2.14v5.07h-1.68Zm9.46 0v-9.36h1.34v4.01h-.21c0-.9.11-1.68.35-2.31a3.1 3.1 0 0 1 1.08-1.47c.48-.34 1.1-.51 1.83-.51h.07c.73 0 1.34.17 1.82.5.5.35.85.84 1.09 1.48.23.63.35 1.4.35 2.31h-.5c0-.9.13-1.68.38-2.31.24-.64.6-1.13 1.08-1.47.5-.34 1.1-.51 1.84-.51h.07c.74 0 1.35.17 1.84.5.5.35.86.84 1.1 1.48.24.63.36 1.4.36 2.31v5.35h-1.68v-5.72c0-.76-.2-1.34-.56-1.75a2 2 0 0 0-1.56-.63c-.7 0-1.25.22-1.67.67a2.5 2.5 0 0 0-.63 1.82v5.6h-1.68v-5.7c0-.77-.2-1.35-.56-1.76a2 2 0 0 0-1.56-.63c-.7 0-1.25.22-1.67.67a2.5 2.5 0 0 0-.63 1.82v5.6h-1.69Zm19.24 0V9h1.7v7.65h-.43c0-.93.12-1.72.35-2.39a3.2 3.2 0 0 1 1.12-1.56c.5-.36 1.15-.54 1.93-.54h.07c1.12 0 1.97.37 2.54 1.12.58.74.86 1.8.86 3.17v5.35h-1.68v-5.7c0-.76-.22-1.35-.65-1.77a2.23 2.23 0 0 0-1.65-.63c-.74 0-1.35.25-1.8.75-.45.5-.67 1.14-.67 1.95v5.4h-1.68Zm17.81.31a4.99 4.99 0 0 1-3.73-1.53 5.05 5.05 0 0 1-.97-1.55 5.05 5.05 0 0 1-.31-1.75v-.32a4.81 4.81 0 0 1 2.9-4.42 5.09 5.09 0 0 1 2.11-.42 5.09 5.09 0 0 1 3.7 1.53 4.8 4.8 0 0 1 1.31 3.31v.32c0 .6-.1 1.18-.33 1.75a4.62 4.62 0 0 1-2.52 2.66 5.2 5.2 0 0 1-2.16.42Zm0-1.5a3.05 3.05 0 0 0 2.93-1.72c.27-.53.4-1.12.4-1.77 0-.67-.13-1.26-.4-1.79a3.05 3.05 0 0 0-1.16-1.24 3.3 3.3 0 0 0-1.77-.46c-.68 0-1.26.15-1.77.46-.5.3-.89.71-1.15 1.24-.27.53-.4 1.12-.4 1.79 0 .65.12 1.24.38 1.77.27.53.65.95 1.14 1.26.5.3 1.1.46 1.8.46Zm9.92 1.19V9h1.68v12.8h-1.68Zm-1.3-11.47V9h2.98v1.33h-2.98Zm12.47 11.78c-.82 0-1.52-.14-2.12-.42a4.1 4.1 0 0 1-1.46-1.1 4.92 4.92 0 0 1-.84-1.56 5.97 5.97 0 0 1-.26-1.75v-.32c0-.6.09-1.2.26-1.77a4.8 4.8 0 0 1 .84-1.54c.38-.47.85-.84 1.42-1.1a4.7 4.7 0 0 1 2.06-.43c1.01 0 1.85.22 2.5.67.67.43 1.16 1 1.47 1.68.33.7.5 1.43.5 2.21v.75h-8.31v-1.26h7.08l-.39.69c0-.67-.1-1.24-.31-1.72-.21-.5-.53-.87-.95-1.14a2.9 2.9 0 0 0-1.6-.4 2.9 2.9 0 0 0-1.66.45c-.43.3-.76.72-.98 1.25a4.87 4.87 0 0 0-.32 1.82c0 .66.1 1.27.32 1.8s.56.95 1.01 1.27c.46.3 1.04.45 1.74.45a3 3 0 0 0 1.79-.49c.46-.33.75-.7.84-1.14h1.58a3.72 3.72 0 0 1-2.23 2.74c-.58.24-1.24.36-1.98.36Z"/><g clip-path="url(#b)"><path fill="#fff" fill-rule="evenodd" d="M60.2 55.55h4.92c.44 0 .79-.38.73-.82a.75.75 0 0 0-.75-.65H59a.74.74 0 0 0-.74.74v7.35c0 .4.33.73.73.73h6.13c.44 0 .79-.38.73-.82a.75.75 0 0 0-.75-.65h-4.9a.48.48 0 0 1-.47-.48v-1.24c0-.27.21-.48.48-.48h3.69c.43 0 .78-.38.73-.83a.75.75 0 0 0-.75-.64H60.2a.48.48 0 0 1-.48-.48v-1.25c0-.26.21-.48.48-.48Zm-8.45 0c.82 0 1.51.3 2.07.87.14.14.32.2.53.2.4 0 .74-.32.74-.73 0-.2-.1-.4-.3-.58a4.28 4.28 0 0 0-3.04-1.23c-1.21 0-2.25.43-3.12 1.3a4.25 4.25 0 0 0-1.29 3.11 4.3 4.3 0 0 0 1.29 3.13 4.3 4.3 0 0 0 3.12 1.28c1.22 0 2.26-.42 3.12-1.28.3-.3.3-.76 0-1.04a.73.73 0 0 0-1.05 0c-.57.57-1.26.85-2.07.85-.8 0-1.5-.28-2.08-.85a2.84 2.84 0 0 1-.86-2.09c0-.8.28-1.5.86-2.07a2.85 2.85 0 0 1 2.08-.87Zm23.97 5.88h-4.9a.48.48 0 0 1-.48-.48v-6.12c0-.37-.27-.7-.64-.74a.74.74 0 0 0-.83.73v7.35c0 .4.33.73.74.73h6.13c.43 0 .78-.38.73-.82a.75.75 0 0 0-.75-.65Zm30.94-7.35h-7.33a.74.74 0 0 0-.73.83c.04.37.37.64.75.64h2.44c.26 0 .48.22.48.48v6.14c0 .43.38.78.82.73a.75.75 0 0 0 .65-.75v-6.12c0-.26.21-.48.48-.48h2.46c.43 0 .78-.38.73-.82a.75.75 0 0 0-.75-.65Zm3.89 0c-.4 0-.74.33-.74.74v7.35a.74.74 0 0 0 1.47 0v-7.35c0-.4-.33-.74-.73-.74Zm-14.72 4.33a5.02 5.02 0 0 0-2.72-.65c-1.5 0-2.27-.37-2.27-1.1 0-.74.76-1.1 2.27-1.1.83 0 1.63.15 2.4.46.43.13.74-.03.91-.46.15-.38-.05-.74-.45-.93a7.06 7.06 0 0 0-2.86-.55c-1.11 0-2 .23-2.7.69a2.15 2.15 0 0 0-1.04 1.88c0 .85.35 1.5 1.02 1.93a5 5 0 0 0 2.72.65c1.5 0 2.27.37 2.27 1.1 0 .74-.76 1.1-2.27 1.1h-.37a6.9 6.9 0 0 1-2.37-.46.72.72 0 0 0-.94.44c-.14.38.08.82.46.96.84.35 1.79.53 2.85.53h.37a4.8 4.8 0 0 0 2.7-.68c.7-.46 1.04-1.1 1.04-1.89 0-.84-.34-1.5-1.02-1.92Zm-15.02-2.86h4.91c.44 0 .79-.38.73-.82a.75.75 0 0 0-.74-.65H79.6c-.4 0-.74.33-.74.74v7.35c0 .4.33.73.74.73h6.12c.44 0 .79-.38.73-.82a.75.75 0 0 0-.74-.65h-4.9a.48.48 0 0 1-.48-.47V59.7c0-.27.22-.48.48-.48h3.69c.43 0 .78-.38.73-.83a.75.75 0 0 0-.75-.64h-3.67a.48.48 0 0 1-.48-.48v-1.25c0-.27.22-.48.48-.48Zm-41.49 3.1c0 .08-.12.1-.16.02a7.85 7.85 0 0 0-.04-.1.2.2 0 0 1 .02-.2l.05-.06c.06-.08.14-.07.14.02v.31Zm-.63-1.74a.27.27 0 0 1-.46.02l-.05-.08a15.5 15.5 0 0 0-1.34-1.76.22.22 0 0 1 .17-.36c1.17 0 1.79.3 1.97.64.16.3.11.82-.3 1.54Zm-.26 6.13-.2.48-.03.06a4.43 4.43 0 0 1-2.12 1.94.28.28 0 0 1-.4-.33c.33-1.15.57-2.4.73-3.7a.99.99 0 0 1 .33-.63c.4-.34.77-.68 1.11-1.03.18-.17.46-.1.53.13a5 5 0 0 1 .05 3.08Zm-2.63 4.15a12.96 12.96 0 0 1-.85.83c-.12.1-.3-.03-.23-.17a14.18 14.18 0 0 0 .29-.66.15.15 0 0 1 .1-.08l.54-.16c.14-.04.25.13.15.24Zm-1.93-1.04a15.3 15.3 0 0 1-4.52-.15.15.15 0 0 1-.04-.28l.74-.39a40.28 40.28 0 0 0 4.79-2.96c.1-.08.25.01.23.14a22.1 22.1 0 0 1-.81 3.32c-.06.17-.2.3-.39.32Zm-.4 1.58c-.94 1.84-2.08 2.87-3.2 2.85-1.21-.03-2.42-1.29-3.31-3.46-.06-.15 0-.3.14-.36l.03-.02a.28.28 0 0 1 .19 0 18.15 18.15 0 0 0 5.93.66c.18 0 .3.17.22.33Zm-5.53 3.49a13.23 13.23 0 0 1-8.74-1.96c-.15-.09-.09-.31.08-.32h.1c.53-.04 1.11-.12 1.74-.24 1.34-.26 2.83-.7 4.4-1.3.13-.05.29.02.35.16a8.5 8.5 0 0 0 2.18 3.3.2.2 0 0 1-.1.36Zm-7.56-9.16c1.15-.94 2.5-1.87 3.98-2.76.03 1.9.24 3.71.61 5.35a23.94 23.94 0 0 1-4.59-2.59Zm-3.58 5.07c-.28-.51.08-1.72 1.88-3.54a.45.45 0 0 0-.04-.67l-.21-.17a.45.45 0 0 0-.6.03 9.59 9.59 0 0 0-1.96 2.62.3.3 0 0 1-.54.05 12.98 12.98 0 0 1-1.87-9.92c.03-.14.22-.15.26-.02.27.9.71 1.83 1.32 2.76.83 1.26 1.9 2.48 3.2 3.59.43.38.9.74 1.37 1.1a24.32 24.32 0 0 0 4.67 2.7c.27.13.6.14.87.02l.72-.28c.26-.11.4-.4.33-.67l-.02-.08c-.4-1.65-.61-3.52-.64-5.47v-.56a28.15 28.15 0 0 1 .04-1.36c.12-2.36.52-4.58 1.15-6.44a.33.33 0 0 0-.2-.42 21.1 21.1 0 0 0-.5-.16.33.33 0 0 0-.41.2 25.45 25.45 0 0 0-1.23 6.97.96.96 0 0 1-.47.78c-1.5.9-2.88 1.84-4.08 2.79-.25.2-.6.19-.84-.02a16.13 16.13 0 0 1-2.97-3.33c-1.5-2.3-1.85-4.46-1-6.1l.35-.54c.97-1.3 2.8-2.04 5.2-2.13h.47c1.48 0 3.07.24 4.68.7l.1.04.09.02c.37.11.75.24 1.12.37l.03.01a21.15 21.15 0 0 1 .38.14l.1.04a23.51 23.51 0 0 1 6.43 3.77 34.27 34.27 0 0 0-7.63 2.9.4.4 0 0 0-.21.33l-.03.76c0 .17.17.28.32.2A34.2 34.2 0 0 1 34 55.16c.42-.1.7-.51.64-.94l-.14-.9a1.5 1.5 0 0 0-.57-.92 24.14 24.14 0 0 0-6.05-3.36.32.32 0 0 1-.17-.46c.89-1.58 1.94-2.47 2.97-2.47h.03c1.2.02 2.42 1.28 3.31 3.46.45 1.1.8 2.37 1.04 3.75.1.6.19 1.2.25 1.83h-.02l.02.03a28.58 28.58 0 0 1 .02 5.33 36.86 36.86 0 0 1-5.83 3.78c-.72.38-1.45.74-2.16 1.07l-.04.02-.16.07c-.6.27-1.18.52-1.76.74l-.1.04-.12.05-.3.1-.07.04-.35.13-.04.01a24.2 24.2 0 0 1-3.5.98c-2.6.5-3.82.12-4.1-.4Zm1.86-19.52a12.98 12.98 0 0 1 9.75-2.25c.18.03.25.27.1.39a7.56 7.56 0 0 0-1.88 2.35.61.61 0 0 1-.7.3 17.75 17.75 0 0 0-5.38-.71c-.63.02-1.22.08-1.77.18-.16.03-.24-.17-.12-.26Zm17.95 9.52c0-.15.19-.21.28-.09a13.09 13.09 0 0 1 .67 1.05c.07.13.05.28-.04.39a15.23 15.23 0 0 1-.7.72.13.13 0 0 1-.22-.1 30.6 30.6 0 0 0 .01-1.97Zm-1.35-8.36.24.24a13.05 13.05 0 0 1 2.88 4.33.22.22 0 0 1-.25.3c-.37-.06-.8-.1-1.26-.09a.66.66 0 0 1-.66-.54 19.18 19.18 0 0 0-1.18-4.08c-.06-.14.11-.26.23-.16Zm4.94 6.52a14.16 14.16 0 0 0-3.87-7.12A14.16 14.16 0 0 0 26.25 44a14.16 14.16 0 0 0-12.23 6.92A14.17 14.17 0 0 0 12 58.25c0 3.81 1.48 7.4 4.18 10.08a14.12 14.12 0 0 0 10.07 4.18A14.24 14.24 0 0 0 40.2 55.33v-.04Zm79.84 4.3h-2.7a.33.33 0 0 1-.28-.49l1.35-2.33a.33.33 0 0 1 .57 0l1.35 2.33c.12.22-.03.5-.29.5Zm3.55 2.22-4.25-7.37a.75.75 0 0 0-1.28 0l-4.25 7.37a.75.75 0 0 0 .63 1.1c.3 0 .52-.15.7-.46l.65-1.14a.48.48 0 0 1 .42-.24h4.97a.5.5 0 0 1 .42.24l.65 1.14c.17.3.4.45.66.45a.74.74 0 0 0 .68-1.09Z" clip-rule="evenodd"/></g><g fill="#fff" clip-path="url(#c)"><path d="m145.63 64.1 4.68-12.5h2.45l4.59 12.5h-2l-2.93-8.34a8.32 8.32 0 0 1-.57-2.9h-.74a8.09 8.09 0 0 1-.6 2.9l-2.96 8.33h-1.92Zm2.5-3.3.58-1.65h5.5l.58 1.64h-6.65Zm14.02 3.54c-.6 0-1.2-.1-1.76-.29a3.51 3.51 0 0 1-1.37-.85 2.8 2.8 0 0 1-.74-1.4l1.59-.51c.08.3.21.6.4.86a2 2 0 0 0 .75.6c.36.15.76.23 1.16.22.49.03.97-.08 1.4-.32a1.03 1.03 0 0 0 .49-.91 1.07 1.07 0 0 0-.36-.82c-.36-.27-.8-.43-1.24-.48l-1.07-.2c-.5-.09-.98-.24-1.45-.45A2.4 2.4 0 0 1 159 59c-.25-.4-.38-.85-.36-1.32 0-.5.15-.98.44-1.38.31-.42.73-.75 1.2-.96a4.57 4.57 0 0 1 4.08.3c.56.4.98.95 1.2 1.6l-1.49.57a2.15 2.15 0 0 0-2.13-1.48c-.45-.03-.9.09-1.27.34a1.02 1.02 0 0 0-.43.84.9.9 0 0 0 .31.72c.36.23.76.38 1.18.42l1.06.2a5.9 5.9 0 0 1 2.06.85 2.1 2.1 0 0 1 .9 1.9 2.48 2.48 0 0 1-1.66 2.4c-.62.25-1.28.36-1.94.34Zm8.75-.24c-.43 0-.84-.08-1.23-.25-.32-.15-.59-.4-.75-.72a2.7 2.7 0 0 1-.24-1.22v-5.29h-2.02v-1.38h2.02v-2.76h1.66v2.13a.64.64 0 0 0 .64.63h1.75v1.38h-2.38v5.15a.77.77 0 0 0 .51.85.7.7 0 0 0 .35.03h1.86v1.44h-2.17Zm4.05 0v-8.86h1.62a3.3 3.3 0 0 1-.29 1.23c-.18.45-.4.89-.65 1.3h.95c.16-.73.5-1.4 1-1.96a2.54 2.54 0 0 1 1.9-.7c.29 0 .57.03.84.1v1.7a7.73 7.73 0 0 0-.95-.06 3 3 0 0 0-1.57.37c-.42.26-.74.65-.91 1.1-.21.59-.31 1.2-.3 1.83v3.94h-1.64Zm10.28.24a4.02 4.02 0 0 1-3.64-2.28 5.1 5.1 0 0 1-.56-2.38c-.01-.83.17-1.66.54-2.4.34-.7.86-1.27 1.5-1.68a4.12 4.12 0 0 1 4.31 0c.64.4 1.16.99 1.5 1.67.36.75.54 1.58.53 2.41a5.1 5.1 0 0 1-.54 2.39 4.28 4.28 0 0 1-1.5 1.67c-.65.4-1.39.61-2.14.6Zm0-1.45c.45.01.89-.11 1.27-.35.39-.26.68-.64.85-1.07a4.5 4.5 0 0 0 .3-1.77 4.7 4.7 0 0 0-.3-1.8 2.33 2.33 0 0 0-.85-1.1 2.24 2.24 0 0 0-1.27-.37c-.46 0-.91.12-1.3.37-.39.27-.69.65-.85 1.1a4.71 4.71 0 0 0-.32 1.8c-.01.6.1 1.2.32 1.76a2.19 2.19 0 0 0 2.15 1.43Zm5.54 4.68V55.24h1.51c-.01.33-.1.66-.25.96-.14.33-.33.65-.55.95h.96c.14-.35.32-.7.53-1.02A2.71 2.71 0 0 1 195.3 55c.66 0 1.3.2 1.84.57.56.42 1 .98 1.27 1.64.32.78.48 1.63.46 2.49a6.2 6.2 0 0 1-.46 2.47c-.26.65-.7 1.21-1.27 1.62-.54.38-1.19.57-1.84.56a2.68 2.68 0 0 1-1.86-.6c-.46-.43-.8-.96-1-1.56h-.98a6.1 6.1 0 0 1 1 3.5v1.9h-1.69Zm4-4.66c.44.01.87-.1 1.25-.32a2 2 0 0 0 .82-1.03c.22-.6.32-1.24.3-1.88a4.96 4.96 0 0 0-.3-1.88 2.2 2.2 0 0 0-.83-1.06c-.38-.22-.8-.33-1.24-.32-.44 0-.88.12-1.25.36-.38.28-.68.67-.84 1.11a4.63 4.63 0 0 0-.32 1.8c-.01.6.1 1.21.32 1.78a2.17 2.17 0 0 0 2.11 1.45h-.02Zm9.66 1.43c-.76 0-1.5-.2-2.14-.6a4.2 4.2 0 0 1-1.51-1.68 5.11 5.11 0 0 1-.55-2.38c-.02-.83.17-1.66.54-2.4.34-.7.86-1.27 1.5-1.68a4.12 4.12 0 0 1 4.3 0c.65.4 1.17.98 1.5 1.67.36.75.55 1.58.53 2.41.02.83-.17 1.65-.55 2.39a4.27 4.27 0 0 1-1.5 1.67 3.9 3.9 0 0 1-2.13.6Zm0-1.45c.44.01.89-.11 1.26-.35.4-.26.69-.64.86-1.07.21-.57.32-1.17.3-1.77a4.76 4.76 0 0 0-.3-1.8 2.35 2.35 0 0 0-.86-1.1 2.25 2.25 0 0 0-1.26-.37c-.46 0-.9.13-1.28.37-.39.27-.7.65-.87 1.1a4.76 4.76 0 0 0-.3 1.8c-.01.6.09 1.2.3 1.76.18.44.48.82.88 1.08.38.24.82.36 1.27.35Zm5.56 1.21v-8.86h1.62a3.3 3.3 0 0 1-.29 1.23c-.18.45-.4.89-.66 1.3h.96c.16-.73.5-1.4 1-1.96a2.54 2.54 0 0 1 1.9-.7c.29 0 .57.03.84.1v1.7a7.7 7.7 0 0 0-.95-.06 3 3 0 0 0-1.57.37c-.42.26-.74.65-.91 1.1-.21.59-.31 1.2-.3 1.83v3.94H210Zm10.49 0c-.42 0-.84-.08-1.23-.25a1.6 1.6 0 0 1-.74-.72 2.6 2.6 0 0 1-.25-1.22v-5.29h-2.01v-1.38h2v-2.76h1.68v2.13a.64.64 0 0 0 .63.63h1.75v1.38h-2.38v5.15a.78.78 0 0 0 .21.66.76.76 0 0 0 .66.22h1.85v1.44h-2.17ZM143.6 45h-3.82v3.82h1.27v-2.55h2.54V45Zm-2.55 25.87v-2.55h-1.27v3.82h3.81v-1.27h-2.54ZM227.43 45h-2.54v1.27h2.54v2.55h1.27V45h-1.27Zm0 23.32v2.55h-2.54v1.27h3.81v-3.82h-1.27Z"/></g><g fill="#fff" clip-path="url(#d)"><path fill-rule="evenodd" d="M52.7 106.9s-.62 1.08-1.5 1.98c-.26.34.1.65.38.4s1.07-1 1.81-2.55c1.11-.28 2.4-.64 3.43-1.34 2.06-1.42 2.37-3.83 2.75-4.69.35.17.58.48.73.67a14 14 0 0 0-.58-4.43c-.5 1-.67 1.98-1.8 3.63.5-.2.94-.15.98-.09-.09.21-.53 1.8-1.87 3.01a4.58 4.58 0 0 1-2.91 1.23c.16-.6.36-1.98.29-2.8a6.4 6.4 0 0 0-2.19-4.06v-6.8h2.2l1.46-1.5h-3.7v-.3s.95-.47.95-1.55-.98-1.71-1.7-1.71-1.7.55-1.7 1.72c0 .13.03.2.03.2s-1.02.6-1.4 1.64c-.84 0-1.42-.02-1.42-.02l1.02 1.05s-.52 2.04.25 3.62c.78 1.57 1.05 1.79 2.43 3.02v4.37s.1 2.4-.98 2.92c-1.06.52-2.42-.13-2.73-.3-.3-.15-2.11-.94-2.98-3.71v-.05s.6-.06.92.1c-.35-.73-1.04-1.4-1.74-3.62-.6 1.57-.66 3.66-.58 4.37.24-.36.62-.55.71-.6.07.46.62 3.21 2.87 4.77 1.44.99 4.2 1.4 5.28 1.83.3-.16.75-.28 1.3-.42Zm-.51-8.23-.01 2.2s-.04 2.34.33 2.98c.32.54.71.73 1 .8.12-.43.31-1.2.31-2.17s-.2-1.63-.57-2.42c-.34-.76-1.06-1.39-1.06-1.39Zm-3.7-7.59 2.15-.01v5.4s-1.72-1.38-2.1-3.01c-.37-1.63-.06-2.38-.06-2.38Z" clip-rule="evenodd"/><path d="M72.48 90.43h2.77l5.73 14.88h-2.8l-1.4-3.94h-5.93l-1.4 3.94h-2.68l5.7-14.88Zm-.92 8.96h4.54L73.87 93h-.06l-2.25 6.4Zm10.71-4.85h2.25v1.58l.04.04a3.9 3.9 0 0 1 3.35-1.91c1.18 0 2.11.3 2.8.91.67.61 1.01 1.53 1.01 2.75v7.4h-2.37v-6.77c-.03-.85-.2-1.46-.54-1.84-.34-.39-.86-.58-1.56-.58a2.48 2.48 0 0 0-2.42 1.73 3.1 3.1 0 0 0-.19 1.1v6.36h-2.37V94.54Zm19.43 3.6a2.17 2.17 0 0 0-.8-1.5 2.54 2.54 0 0 0-1.65-.52c-.3 0-.63.06-.98.17-.35.1-.67.29-.96.58-.29.28-.53.67-.73 1.19-.2.5-.29 1.16-.29 1.98 0 .44.05.89.15 1.33.1.44.28.84.5 1.19.23.34.53.63.9.85.35.21.8.31 1.3.31.7 0 1.27-.21 1.71-.64.46-.43.75-1.04.86-1.81h2.37a5.24 5.24 0 0 1-1.6 3.23 4.85 4.85 0 0 1-3.33 1.1 4.95 4.95 0 0 1-3.87-1.58 5.19 5.19 0 0 1-1.03-1.78 7.55 7.55 0 0 1 0-4.48 5.1 5.1 0 0 1 1-1.83c.44-.52 1-.93 1.65-1.23a5.6 5.6 0 0 1 2.33-.45 6.06 6.06 0 0 1 3.27.95 3.78 3.78 0 0 1 1.58 2.94h-2.37Zm4.52-7.71h2.38v5.52h.04a3.83 3.83 0 0 1 3.23-1.7c1.18 0 2.1.3 2.79.91.68.61 1.02 1.53 1.02 2.75v7.4h-2.38v-6.77c-.02-.85-.2-1.46-.54-1.84-.33-.39-.85-.58-1.56-.58a2.48 2.48 0 0 0-2.42 1.73c-.12.35-.18.71-.18 1.1v6.36h-2.38V90.43Zm17.11 15.17a5.16 5.16 0 0 1-4.02-1.6 5.2 5.2 0 0 1-1.06-1.8 7.05 7.05 0 0 1-.36-2.29c0-.82.12-1.57.36-2.27.25-.7.6-1.29 1.06-1.79.47-.5 1.04-.89 1.7-1.17a5.92 5.92 0 0 1 2.32-.43c.86 0 1.63.14 2.3.43a4.68 4.68 0 0 1 2.76 2.96c.25.7.38 1.45.38 2.27 0 .84-.13 1.6-.38 2.3a4.84 4.84 0 0 1-2.77 2.97 5.9 5.9 0 0 1-2.29.42Zm0-1.88a2.73 2.73 0 0 0 2.33-1.2c.25-.36.43-.77.55-1.21a5.29 5.29 0 0 0 0-2.77c-.12-.46-.3-.86-.55-1.21a2.73 2.73 0 0 0-2.33-1.2 2.72 2.72 0 0 0-2.33 1.2c-.25.35-.44.75-.57 1.2a5.82 5.82 0 0 0 0 2.78c.13.44.32.84.57 1.2a2.73 2.73 0 0 0 2.33 1.2Zm7.62-9.18h2.23v2.08h.04c.07-.3.2-.58.4-.85a4.19 4.19 0 0 1 1.68-1.32 3.82 3.82 0 0 1 1.63-.18l.33.04v2.29a5.93 5.93 0 0 0-.52-.06 2.7 2.7 0 0 0-2.56.92c-.27.3-.47.68-.63 1.14a5 5 0 0 0-.23 1.58v5.13h-2.37V94.54Z"/></g><g fill="#fff" clip-path="url(#e)"><path d="M282.06 54.64c0-.07-.03-.1-.1-.1h-1.36c-.07 0-.1.02-.1.09v.48a2.13 2.13 0 0 0-1.01-.62c-.9-.23-1.7-.02-2.37.6a2.86 2.86 0 0 0-.86 2.87 2.66 2.66 0 0 0 2.87 2.12c.46-.05.88-.22 1.22-.55.04-.04.06-.1.14-.08 0 .31.02.62-.04.93-.1.53-.5.9-1.05.96-.58.06-1.12-.1-1.38-.64-.07-.15-.15-.2-.31-.2-.3.02-.58 0-.88.02-.13 0-.26-.03-.4.01 0 .1 0 .2.03.28.2.82.73 1.34 1.5 1.62.75.28 1.52.29 2.27.06.9-.27 1.47-.87 1.7-1.78.08-.3.11-.58.11-.89v-5.06c.02-.04.02-.08.02-.12Zm-2.86 4.06a1.4 1.4 0 0 1-1.45-1.45c.01-.82.62-1.43 1.43-1.44.82 0 1.43.62 1.43 1.45.01.82-.6 1.45-1.41 1.44Zm21.2-3.6c-.96-.93-2.46-.93-3.3-.03h-.06v-.38c0-.13-.05-.16-.17-.16h-1.13c-.3 0-.26-.03-.26.26v7.59c0 .15 0 .16.17.16h1.2c.18 0 .19 0 .19-.19v-2.79c.25.28.5.46.8.58.92.36 2 .1 2.7-.67.44-.48.7-1.04.78-1.68a3.07 3.07 0 0 0-.91-2.68Zm-.72 2.8c-.19.6-.7.97-1.32.97-.72 0-1.28-.46-1.41-1.17-.05-.3-.05-.58.04-.86a1.4 1.4 0 0 1 2.74.13c.06.32.05.63-.05.93Zm-16.52-10.52a2.1 2.1 0 0 1 2.1-.7c.9.17 1.4.76 1.62 1.62.06.27.1.54.1.81v3.15c0 .11-.04.17-.15.15h-1.2c-.2 0-.2.02-.2-.2v-2.8c0-.18-.02-.35-.06-.52-.14-.72-.78-1.04-1.46-.74-.27.12-.45.33-.57.6-.14.3-.18.62-.18.94v2.52c0 .2 0 .2-.18.2h-1.21c-.15-.01-.15-.01-.16-.19v-8.15c-.02-.12.04-.15.16-.15h1.2c.2 0 .2 0 .2.2v3.25Zm21.11 7.71c.7-.72 1.53-.85 2.42-.54.77.26 1.14.87 1.3 1.63.06.24.06.49.06.72v3.16c0 .08-.02.12-.1.12h-1.35c-.06 0-.1-.03-.1-.1V57.2c0-.19-.01-.38-.06-.56-.08-.37-.26-.67-.65-.77a1.1 1.1 0 0 0-1.09.27c-.3.27-.4.65-.43 1.04-.02.17-.01.34-.01.51v2.28c0 .21 0 .21-.2.21h-1.18c-.18 0-.18 0-.18-.18v-8.03c0-.31-.03-.27.26-.27h1.06c.25 0 .23-.01.23.23v2.92c.01.08 0 .16.02.25Zm-10.64-.57h-1.3c-.12 0-.14.05-.13.14v.44l-.1-.07a2.01 2.01 0 0 0-1.6-.63 2.5 2.5 0 0 0-1.93.99c-.63.8-.8 1.72-.58 2.7.19.84.64 1.5 1.4 1.92.88.48 2.07.37 2.72-.36.02-.02.04-.03.08 0v.39c0 .11.04.15.16.14h1.13c.28 0 .27.04.27-.26v-5.27c.01-.1-.03-.13-.12-.13Zm-1.38 3.35c-.2.65-.72 1.02-1.4 1a1.36 1.36 0 0 1-1.32-1.07c-.08-.34-.07-.67.03-1 .2-.63.74-1.02 1.4-.99.65.03 1.15.44 1.31 1.09.04.14.06.29.05.44.01.18-.02.36-.07.53Zm1.85-8.97a2.75 2.75 0 0 0-1.9-2.12c-.44-.15-.9-.18-1.37-.12-1.1.15-1.9.71-2.34 1.74-.25.56-.3 1.15-.19 1.75.18.94.66 1.67 1.54 2.07 1.1.51 2.2.43 3.23-.23.44-.28.77-.68.97-1.15.03-.08.08-.15.06-.26h-1.5c-.07 0-.11.04-.14.1a1 1 0 0 1-.36.32c-.31.17-.65.22-1 .19-.73-.08-1.2-.52-1.3-1.2.1-.04.2-.03.28-.03h3.96c.17 0 .17 0 .18-.16-.01-.3-.05-.6-.12-.9Zm-4.23.02c.07-.6.67-1.04 1.36-1.02.63.01 1.18.47 1.23 1.02h-2.6Zm-9.6 2.1v1.23c0 .12-.07.13-.14.15-.27.06-.54.08-.8.08a2.6 2.6 0 0 1-1.1-.21 1.8 1.8 0 0 1-1.07-1.4 2.98 2.98 0 0 1-.04-.51V48.3c0-.18 0-.19-.19-.19h-.8c-.11 0-.15-.03-.15-.15V46.9c0-.1.04-.14.13-.14l.85.01c.13 0 .17-.04.17-.16v-1.22c0-.18 0-.19.17-.19h1.23c.11 0 .15.03.15.15v1.18c0 .27-.02.25.26.25h1.19c.1 0 .17.02.16.16V48c0 .13-.05.15-.16.14h-1.25c-.18 0-.2 0-.2.18v1.79c0 .12.02.25.05.37.06.32.24.52.56.59.29.07.57.05.86-.02.03-.02.07-.04.13-.02Zm5.06 4.28c.09-.05.1-.12.14-.17.37-.53.98-.77 1.66-.64.07.02.13.05.13.14v1.45c-.13 0-.23-.04-.33-.06-.81-.18-1.42.23-1.57 1.05-.03.15-.03.29-.03.44v2.37c0 .05-.01.1 0 .14.01.13-.06.16-.17.16h-1.23c-.16 0-.16 0-.16-.17v-5.32c0-.12.03-.16.16-.16h1.25c.12 0 .15.05.15.16v.62Zm-28.43 9.24a11.68 11.68 0 0 1-11.67-11.64 11.63 11.63 0 0 1 11.67-11.64 11.54 11.54 0 0 1 8.25 3.4 11.53 11.53 0 0 1 3.42 8.24 11.47 11.47 0 0 1-3.42 8.23 11.56 11.56 0 0 1-8.25 3.4Zm0-19.52a7.9 7.9 0 0 0-7.9 7.87 7.9 7.9 0 0 0 15.8 0 7.9 7.9 0 0 0-7.9-7.87Zm13.63-.06a1.84 1.84 0 1 0 0-3.67 1.84 1.84 0 0 0 0 3.67Zm-11.7 31.19a1.88 1.88 0 0 1-1.33-3.22l7.86-7.83a1.89 1.89 0 0 1 2.67 2.66l-7.85 7.84c-.38.37-.87.55-1.35.55Z"/></g><g fill="#fff" clip-path="url(#f)"><path d="M40.52 222.67a.33.33 0 0 1-.34-.33v-16.72c-.04-.7.05-3.3 2.06-5.4a7.25 7.25 0 0 1 10.12-.3 7.3 7.3 0 0 1 2.32 5.08 7.29 7.29 0 0 1-2.1 5.23 7.39 7.39 0 0 1-5 2.14.37.37 0 0 1-.34-.34c0-.2.13-.33.34-.33.8 0 2.85-.25 4.53-1.93a6.35 6.35 0 0 0-.17-9.3 6.75 6.75 0 0 0-4.45-1.72h-.12a6.77 6.77 0 0 0-4.62 2.02 6.81 6.81 0 0 0-1.9 4.85v16.72c0 .2-.12.33-.33.33Z"/><path d="M47.37 207.68a2.43 2.43 0 1 1 0-4.87 2.43 2.43 0 0 1 0 4.87Zm0-4.23c-.97 0-1.77.8-1.77 1.76a1.77 1.77 0 0 0 3.53 0c0-.97-.8-1.76-1.76-1.76Zm-4.58 13.35a.33.33 0 0 1-.34-.33v-10.84c0-.21.17-.34.34-.34s.33.17.33.34v10.84c0 .17-.16.34-.33.34Zm2.43 3.4a.33.33 0 0 1-.33-.33v-5.78c0-.21.17-.34.33-.34.17 0 .34.17.34.34v5.78c.04.16-.13.33-.34.33Zm-6.88-2.72a.33.33 0 0 1-.34-.34v-7.37c0-.2.17-.33.34-.33.16 0 .33.16.33.33v7.37c0 .21-.12.34-.33.34Z"/><path d="M47.37 210.1a4.91 4.91 0 0 1-4.92-4.9 4.91 4.91 0 0 1 9.83 0c0 2.69-2.23 4.9-4.91 4.9Zm0-9.13a4.22 4.22 0 1 0 0 8.47 4.22 4.22 0 1 0 0-8.47Zm35.23 3.78h-1.42c-.09 0-.13.04-.17.08l-2.56 3.3c-.17.22-.3.43-.42.6a4.82 4.82 0 0 0-.42-.6l-2.6-3.3c-.05-.04-.09-.09-.17-.09h-1.39c-.08 0-.17.05-.17.13-.04.09-.04.17.04.21l3.91 5.11v4.57c0 .12.08.2.21.2h1.22c.12 0 .2-.08.2-.2v-4.61l3.92-5.11c.04-.08.04-.17.04-.21-.04 0-.13-.09-.21-.09Zm11.35 0h-8.53c-.12 0-.2.08-.2.2V206c0 .13.08.21.2.21h3.45v8.55c0 .12.08.2.2.2h1.22c.13 0 .21-.08.21-.2v-8.5h3.45c.12 0 .2-.1.2-.22V205c0-.13-.08-.25-.2-.25Zm-27.68 0h-4.03c-.13 0-.21.08-.21.2v9.8c0 .13.08.22.2.22h1.22c.13 0 .21-.09.21-.21v-8.59h2.73c1.52 0 2.6 1 2.6 2.43 0 1.42-1.08 2.43-2.64 2.43h-.42s-.12 0-.17.08c-.04.04-.04.13-.04.13v1.04s0 .09.04.17c.05.05.13.05.17.05h.3c.2 0 2.3.12 3.57-1.47.8-1 .84-2.18.84-2.43.08-2.26-1.73-3.85-4.37-3.85Zm32.89 4.05v-3.84c0-.13-.09-.21-.21-.21h-1.22c-.13 0-.21.08-.21.2v9.8c0 .13.08.22.2.22h1.23c.12 0 .2-.09.2-.21v-4.48m6.73-5.53h-1.22c-.13 0-.21.08-.21.2v3.86h-3.32c-.08 0-.17.08-.17.17v1.13c0 .08.09.16.17.16h3.32v4.53c0 .13.08.2.2.2h1.23c.12 0 .2-.07.2-.2v-9.84c0-.09-.08-.21-.2-.21Z"/></g><g fill="#fff" fill-rule="evenodd" clip-path="url(#g)" clip-rule="evenodd"><path d="m221.75 195.22 8.83 8.75a.56.56 0 0 1-.4.95h-8.83a.56.56 0 0 1-.56-.55v-8.76a.56.56 0 0 1 .96-.4Zm7.07 8.59-6.9-6.85v6.85h6.9Z"/><path d="m238.6 213.51-8.82-8.75a.55.55 0 0 1 0-.79.6.6 0 0 1 .4-.16H239c.3 0 .56.25.56.56v8.75a.56.56 0 0 1-.96.4Zm-7.06-8.59 6.9 6.85v-6.85h-6.9Z"/><path d="m221.91 211.77 6.91-6.85h-6.9v6.85Zm8.67-7.01-8.83 8.75a.56.56 0 0 1-.96-.4v-8.75c0-.3.25-.55.56-.55h8.83a.55.55 0 0 1 .4.95Z"/><path d="m229.62 205.71-6.9 6.85h6.9v-6.85Zm-8.67 7.01 8.83-8.75a.57.57 0 0 1 .96.4v8.75c0 .3-.25.56-.56.56h-8.83a.56.56 0 0 1-.4-.95Z"/><path d="m238.44 196.96-6.9 6.85h6.9v-6.85Zm-8.66 7.01 8.82-8.75a.56.56 0 0 1 .97.4v8.75c0 .3-.25.55-.56.55h-8.83a.56.56 0 0 1-.4-.95Z"/><path d="m230.74 203.02 6.9-6.85h-6.9v6.85Zm8.66-7.01-8.82 8.75a.57.57 0 0 1-.96-.4v-8.75c0-.3.25-.56.56-.56H239a.6.6 0 0 1 .4.17c.21.21.21.57 0 .79Zm5.48 20.53c-1.27 0-2.37.57-3.05 1.47h-.07v-1.2h-2.14v9.33h2.17v-4.75c0-1.62 1.1-2.72 2.54-2.72 1.35 0 2.24.97 2.24 2.44v5.03h2.18v-5.37c0-2.63-1.52-4.23-3.87-4.23Zm10.3 0a4.77 4.77 0 0 0-4.88 4.94c0 2.65 1.8 4.93 4.89 4.93 2.21 0 4.05-1.17 4.66-3.2h-2.26c-.38.75-1.3 1.22-2.37 1.2-1.47-.03-2.5-1-2.67-2.2H260c.28-3.2-1.69-5.67-4.81-5.67Zm-.03 2c1.32 0 2.3.75 2.6 1.91h-5.16c.27-1.15 1.25-1.92 2.56-1.92Zm11.16 7.87a4.82 4.82 0 0 0 5.01-4.95 4.79 4.79 0 0 0-5.01-4.92c-3.1 0-5.1 2.16-5.1 4.92s2.03 4.94 5.1 4.94Zm0-2.07a2.79 2.79 0 0 1-2.9-2.86c0-1.6 1.13-2.85 2.9-2.85 1.7 0 2.84 1.26 2.84 2.85a2.78 2.78 0 0 1-2.84 2.86Zm11.93-7.8c-1.27 0-2.37.57-3.05 1.47h-.08v-1.2h-2.14v9.33h2.18v-4.75c0-1.62 1.1-2.72 2.54-2.72 1.34 0 2.23.97 2.23 2.44v5.03h2.18v-5.37c0-2.63-1.51-4.23-3.86-4.23Z"/></g><g fill="#fff" clip-path="url(#h)"><path d="M15 124v20.32h18.82v-2.27H17.25v-15.77h16.57V124H15Zm32.38 9.07 3.17-4.97h2.61L49.4 134v.32l3.97 5.89h-2.72l-3.27-4.96v-2.18Zm13.5 2.18h3.01l-1.35-6h-.31l-1.35 6Zm3.52 2.28h-4.03l-.6 2.68H57.4l2.86-12.1h4.23l2.86 12.1H65l-.6-2.68Zm8.94-9.43h2.25v9.94h5.45v2.17h-7.7v-12.1Z"/><path d="M35.69 131.81c0-.48-.2-.9-.56-1.26-.38-.36-.9-.54-1.57-.54-.57 0-1.02.12-1.35.36-.33.24-.5.56-.5.96 0 .2.04.4.12.56.09.17.22.32.42.46.2.13.46.25.79.35.32.1.74.2 1.23.3a6.4 6.4 0 0 1 2.88 1.15c.67.55 1 1.34 1 2.4v.21a3.32 3.32 0 0 1-1.17 2.7c-.37.33-.83.57-1.37.75a6 6 0 0 1-1.81.26c-.8 0-1.48-.11-2.08-.34a4 4 0 0 1-2.4-2.33 4.82 4.82 0 0 1-.31-1.75v-.1h2.25c0 .72.21 1.3.63 1.74.41.43 1.05.65 1.94.65.68 0 1.2-.15 1.52-.45.34-.3.5-.66.5-1.07 0-.2-.03-.38-.1-.57a1.2 1.2 0 0 0-.36-.48 2.46 2.46 0 0 0-.71-.4c-.3-.1-.68-.2-1.13-.28-.6-.1-1.16-.25-1.66-.41a4.8 4.8 0 0 1-1.31-.67 2.78 2.78 0 0 1-.86-1.03 3.4 3.4 0 0 1-.32-1.53v-.1a3.2 3.2 0 0 1 1.15-2.48c.36-.31.79-.56 1.3-.72a5.49 5.49 0 0 1 3.58.04c.55.2 1 .47 1.38.82.37.34.62.75.84 1.2.27.53.28 1.62.28 1.62l-2.24-.02Zm50.61-3.71v12.1h7.76v-2.16h-5.5v-7.75h5.5v-2.19h-7.77Zm-40.53 0h-2.25v12.1h2.25v-12.1Z"/><path d="M92.33 133.07h-2.16v2.18h2.16v-2.18Z"/></g><g fill="#fff" clip-path="url(#i)"><path fill-rule="evenodd" d="M126.75 133.95a5.5 5.5 0 0 0 5.5-5.5 5.5 5.5 0 0 0-5.5-5.45 5.53 5.53 0 0 0-5.52 5.45 5.5 5.5 0 0 0-5.51-5.45 5.5 5.5 0 0 0 0 11 5.5 5.5 0 1 0 .11 0 5.48 5.48 0 0 0 5.46-5.44 5.4 5.4 0 0 0 5.45 5.39Z" clip-rule="evenodd"/><path d="M126.75 144.96a5.5 5.5 0 1 0 0-11.02 5.5 5.5 0 0 0 0 11.02Zm27.15-19.49h-2.29v14.1h2.3v-14.1Z"/><path fill-rule="evenodd" d="M143.34 132.69c.52-.52 1.15-.8 1.84-.8a2.2 2.2 0 0 1 2.3 1.77l2-.74a3.77 3.77 0 0 0-1.49-2.18 4.31 4.31 0 0 0-2.87-.92 4.7 4.7 0 0 0-3.5 1.44 5.06 5.06 0 0 0-1.38 3.6c0 1.44.46 2.64 1.38 3.62a4.73 4.73 0 0 0 3.5 1.43 4.3 4.3 0 0 0 2.87-.92 4.8 4.8 0 0 0 1.55-2.18l-1.95-.74a2.36 2.36 0 0 1-2.41 1.72 2.6 2.6 0 0 1-1.9-.8c-.51-.52-.74-1.26-.74-2.18.05-.86.28-1.6.8-2.12Zm15.79 4.35c.52.52 1.15.8 1.9.8a2.6 2.6 0 0 0 1.9-.8c.5-.51.8-1.26.8-2.23 0-.92-.3-1.66-.8-2.18a2.6 2.6 0 0 0-1.9-.8 2.6 2.6 0 0 0-1.9.8c-.51.52-.74 1.26-.74 2.18a2.8 2.8 0 0 0 .74 2.23Zm1.9-7.22c1.43 0 2.64.46 3.56 1.44a5.1 5.1 0 0 1 1.43 3.6c0 1.5-.46 2.7-1.38 3.62a4.68 4.68 0 0 1-3.55 1.43 4.77 4.77 0 0 1-3.57-1.43 5.07 5.07 0 0 1-1.37-3.61c0-1.44.46-2.64 1.37-3.62a4.47 4.47 0 0 1 3.5-1.43Zm11.71 9.75 3.73-9.52h-2.4l-2.48 6.76-2.52-6.76h-2.47l3.84 9.52h2.3Zm6.66-5.79h4.65c0-.58-.23-1.1-.63-1.5-.4-.4-.97-.62-1.72-.62-.69 0-1.2.23-1.67.63-.34.46-.57.97-.63 1.49Zm4.94 2.52 1.9.63a4.4 4.4 0 0 1-4.3 3.04 4.68 4.68 0 0 1-3.46-1.38 5.06 5.06 0 0 1-1.38-3.72c0-1.44.47-2.64 1.38-3.62a4.5 4.5 0 0 1 3.28-1.37c1.43 0 2.58.46 3.39 1.32a5.1 5.1 0 0 1 1.26 3.6c0 .41 0 .64-.06.75h-6.95c0 .7.29 1.32.8 1.78.52.46 1.1.69 1.84.69 1.15-.12 1.96-.63 2.3-1.72Zm9.76-3.96v-2.29c-.17-.06-.4-.06-.63-.06-.63 0-1.2.18-1.66.46a2.5 2.5 0 0 0-1.1 1.2v-1.54h-2.18v9.51h2.24v-4.52c0-1.84.86-2.81 2.53-2.81a4 4 0 0 1 .8.05Z" clip-rule="evenodd"/></g><path fill="#fff" d="M264.11 133.68a7.32 7.32 0 0 1-2.2 5.34 7.57 7.57 0 0 1-12.3-2.44 7.46 7.46 0 0 1-.56-2.9 7.32 7.32 0 0 1 2.2-5.36 7.6 7.6 0 0 1 12.3 2.43c.38.93.57 1.92.56 2.93Zm-7.53 5.94a5.56 5.56 0 0 0 4.09-1.75 5.84 5.84 0 0 0 1.69-4.19 6.1 6.1 0 0 0-1.7-4.22 5.78 5.78 0 0 0-6.31-1.3 5.93 5.93 0 0 0-3.55 5.53c0 .78.14 1.55.42 2.26a6.03 6.03 0 0 0 3.15 3.23c.7.3 1.45.45 2.21.44Zm10.27 1.23v-14.38h2.93c.77-.03 1.53.03 2.29.16.45.1.88.28 1.26.56.45.34.8.8 1.04 1.31.25.55.37 1.15.37 1.75a3.3 3.3 0 0 1-.54 1.91c-.38.53-.93.91-1.55 1.08.78.1 1.49.51 1.97 1.14a4.47 4.47 0 0 1-.43 5.4c-.4.4-.92.7-1.47.84-.58.17-1.56.25-2.94.25l-2.93-.02Zm1.63-12.9v4.8h1.3c1.2 0 2.04-.17 2.54-.52.48-.36.73-.95.73-1.8 0-.92-.23-1.56-.68-1.93-.45-.37-1.31-.56-2.58-.56h-1.3Zm0 6.16v5.25h1.3c.65.01 1.3-.03 1.93-.11a2.08 2.08 0 0 0 1.63-1.24 3 3 0 0 0 .25-1.24c.01-.47-.09-.94-.3-1.37a2.37 2.37 0 0 0-1.64-1.19 7.1 7.1 0 0 0-1.38-.08h-1.79v-.02Zm23.86-.43a7.32 7.32 0 0 1-2.2 5.34 7.57 7.57 0 0 1-10.66 0 7.58 7.58 0 0 1 2.45-12.32 7.6 7.6 0 0 1 9.85 4.05c.38.93.57 1.92.56 2.93Zm-7.53 5.94a5.56 5.56 0 0 0 4.08-1.75 5.84 5.84 0 0 0 1.7-4.19 6.1 6.1 0 0 0-2.57-4.97 5.65 5.65 0 0 0-5.45-.54 5.93 5.93 0 0 0-3.55 5.53 6 6 0 0 0 1.7 4.18 5.5 5.5 0 0 0 4.1 1.74Zm10.27 1.23v-14.38h1.67v12.75h5.32v1.63h-7Z"/><path stroke="#fff" stroke-miterlimit="10" stroke-width="1.52" d="M241.62 133.1c0 8.2-6.5 10.8-14.52 5.84-8.02-4.97-14.34-6.38-14.12-3.14.22 3.24 6.74.63 14.53-5.83 7.8-6.46 14.11-5.06 14.11 3.13Z"/><g fill="#fff" clip-path="url(#j)"><path d="M56.43 170.18h-1.71v6.35h-2.38v-6.35H51.1v-2.04h1.23v-.8c0-2.04 1.28-3.1 3.23-3.1.3 0 .6.04.9.1v2.38c-.26-.1-.53-.15-.8-.15a.87.87 0 0 0-.94.93v.63h1.7v2.05Zm3.58 6.35h-2.4v-12.1H60v12.1Zm5.35-8.91a4.58 4.58 0 0 1 4.48 5.44 4.55 4.55 0 0 1-9.04-.9 4.49 4.49 0 0 1 4.56-4.54Zm0 6.77c1.23 0 2.11-1.02 2.11-2.23a2.11 2.11 0 0 0-2.11-2.2 2.22 2.22 0 0 0 0 4.43Zm7.06-6.59 1.55 5.8 1.55-4.61-.43-1.2h2.39l2.04 5.82 1.5-5.81h2.48l-2.6 8.74h-2.5l-1.74-4.8-1.63 4.8h-2.51l-2.59-8.75h2.5Z"/><path fill-rule="evenodd" d="M46.46 170.21a13.22 13.22 0 1 1-26.44-.02 13.22 13.22 0 0 1 26.44.02Zm-9.76-3.93h4.2v-3.73h-4.2a5.15 5.15 0 0 0-5.14 5.13v.46h3.74v-.46a1.4 1.4 0 0 1 1.4-1.4Zm-5.37 7.77c.15-.23.23-.5.23-.78v-1.4h3.74v-3.73h3.73v3.73H35.3v1.4a5.12 5.12 0 1 1-5.14-5.13h1.4v3.73h-1.4a1.4 1.4 0 1 0 1.17 2.18Z" clip-rule="evenodd"/><path d="M31.56 171.87h3.74v-3.72h-3.74v3.72Z"/></g><g fill="#fff" clip-path="url(#k)"><path d="M130.8 169.68a5.6 5.6 0 0 0 5.75 5.73 5.6 5.6 0 0 0 5.78-5.73 5.6 5.6 0 0 0-5.78-5.73 5.6 5.6 0 0 0-5.75 5.73Zm2.19 0a3.48 3.48 0 0 1 3.56-3.58c2.1 0 3.57 1.55 3.57 3.58a3.47 3.47 0 0 1-3.56 3.58 3.48 3.48 0 0 1-3.57-3.58Zm18.36 5.56h2.22l-3.64-11.13h-2.25L144 175.25h2.18l.52-1.58h4.13l.52 1.58Zm-3.97-3.69 1.38-4.22 1.38 4.22h-2.75Zm14.17-4.19h2.19c0-2.03-1.7-3.41-4-3.41-2.34 0-3.96 1.48-3.96 3.5 0 1.42.8 2.53 2.26 2.95 1 .27 2.18.2 2.9.45.44.16.8.5.8 1.06 0 .8-.7 1.43-1.88 1.43-1.14 0-2-.6-2-1.48h-2.17c0 2.1 1.77 3.55 4.15 3.55 2.44 0 4.07-1.52 4.07-3.63 0-1.5-.88-2.57-2.3-3-1.07-.32-2.16-.18-2.88-.44-.47-.17-.78-.52-.78-1 0-.74.68-1.32 1.76-1.32 1.07 0 1.8.53 1.84 1.34Zm5.4 7.88h2.2v-11.13h-2.2v11.13Zm11.14-7.88h2.2c0-2.03-1.7-3.41-4-3.41-2.34 0-3.97 1.48-3.97 3.5 0 1.42.8 2.53 2.27 2.95 1 .27 2.17.2 2.9.45.44.16.79.5.79 1.06 0 .8-.7 1.43-1.87 1.43-1.15 0-2-.6-2-1.48h-2.18c0 2.1 1.78 3.55 4.15 3.55 2.45 0 4.07-1.52 4.07-3.63 0-1.5-.87-2.57-2.3-3-1.07-.32-2.15-.18-2.87-.44-.48-.17-.78-.52-.78-1 0-.74.67-1.32 1.76-1.32 1.07 0 1.8.53 1.83 1.34Z"/><path fill-rule="evenodd" d="M117.84 164.03a8.06 8.06 0 0 0-6.33-3.22c-4.84 0-8.4 4.49-8.4 9.35 0 3.4 2.27 5.93 4.78 5.93.23 0 .47-.02.7-.06a7.26 7.26 0 0 1-2.76-5.87c0-3.84 2.6-6.84 5.69-6.84 3.35 0 5.69 3.32 5.69 6.84a11.1 11.1 0 0 1-2.58 7.1 8.89 8.89 0 0 1-5.32 3.05l.4.01a10.18 10.18 0 0 0 8.13-16.3Zm-1.55 6.13c0-3.39-2.26-5.92-4.78-5.92-.23 0-.46.02-.7.06a7.26 7.26 0 0 1 2.77 5.86c0 3.85-2.61 6.84-5.7 6.84-3.35 0-5.68-3.32-5.68-6.84 0-2.6.94-5.18 2.58-7.1a8.9 8.9 0 0 1 5.31-3.05l-.39-.01a10.18 10.18 0 0 0-8.13 16.3 8.06 8.06 0 0 0 6.32 3.21c4.85 0 8.4-4.48 8.4-9.35Z" clip-rule="evenodd"/></g><g fill="#fff" clip-path="url(#l)"><path d="M180.41 105.06c-4.49 0-7.3-3.2-7.3-7.5 0-4.26 2.84-7.5 7.33-7.5 3.61 0 5.73 1.89 6.61 4.69h-2.41c-.76-1.75-2-2.63-4.2-2.63-3.05 0-4.88 2.4-4.88 5.44 0 3.02 1.83 5.43 4.88 5.43 2.34 0 3.61-1.05 4.2-2.63h2.41c-.68 2.7-3.05 4.7-6.64 4.7Zm16.85-.25h-2.37a8.7 8.7 0 0 1-.1-1.4v-.3h-.02c-.37.97-1.32 1.97-3.3 1.97-2.34 0-3.66-1.45-3.66-3.12 0-3.05 3.54-3.13 5.03-3.37 1.37-.22 1.93-.42 1.93-1.3 0-.87-.76-1.46-2-1.46-1.13 0-1.93.64-2 1.68h-2.28c.1-1.73 1.44-3.52 4.23-3.52 3.46 0 4.34 2.09 4.34 4.33v4.03c0 .84.05 1.9.2 2.46Zm-2.42-5.93c-.25.64-.83 1.11-2.54 1.43-1.44.27-2.17.66-2.17 1.6 0 .84.73 1.45 1.93 1.45 1.44 0 2.78-1.03 2.78-3.37v-1.1Zm7.54-3.08c-.9 0-1.68.55-1.68 1.31 0 1.01 1.2 1.3 2.95 1.7 1.83.4 3.15 1.28 3.15 2.95 0 2.1-2 3.3-4.3 3.3-2.12 0-4.15-.98-4.39-3.5h2.32c.2 1.16.9 1.68 2.12 1.68.98 0 1.9-.4 1.9-1.38 0-1.03-1.02-1.2-2.68-1.6-1.66-.4-3.34-1.18-3.34-3.07 0-1.9 1.85-3.18 3.98-3.18 2.24 0 3.95 1.16 4.17 3.42h-2.22c-.12-1.13-1.03-1.62-1.98-1.62Zm16.12 3.72c0 3.28-1.99 5.59-4.74 5.59-1.79 0-2.96-.96-3.37-2.22h-.03v5.96h-2.39V94.33h2.42v1.9c.39-1.14 1.58-2.2 3.37-2.2 2.75 0 4.73 2.25 4.73 5.5Zm-2.35 0c0-1.99-1.13-3.56-2.96-3.56-1.78 0-2.9 1.4-2.97 3.34v.22c0 2.07.95 3.65 2.97 3.65 1.86 0 2.96-1.6 2.96-3.65Zm13.3.67h-8c.17 1.9 1.36 3 3 3 1.2 0 2.17-.44 2.56-1.5h2.32c-.64 2.14-2.42 3.4-4.86 3.4-3.12 0-5.25-2.27-5.25-5.57 0-3.17 2.22-5.48 5.25-5.48 3.54 0 4.98 2.75 5 5.7v.45h-.02Zm-2.32-1.7c-.17-1.65-1.12-2.63-2.73-2.63-1.61 0-2.69 1.03-2.93 2.63h5.66Zm5.88 1.35v4.97h-2.34v-10.5h2.3v2.24h.04a3.11 3.11 0 0 1 3.06-2.44v2.36c-1.96.03-3.06 1.28-3.06 3.37Zm14.14 2.91v2.06h-9.23V90.3h2.44v12.45h6.79Zm9.91 2.06h-2.4c-.07-.41-.1-.9-.1-1.4v-.3h-.02c-.36.97-1.32 1.97-3.32 1.97-2.34 0-3.66-1.47-3.66-3.12 0-3.05 3.56-3.12 5.05-3.37 1.37-.22 1.93-.42 1.93-1.3 0-.9-.75-1.46-2.02-1.46-1.13 0-1.93.64-2 1.7h-2.28c.1-1.72 1.47-3.52 4.25-3.52 3.47 0 4.37 2.1 4.37 4.36v4.06c0 .76.05 1.84.2 2.38Zm-2.44-5.93c-.25.64-.84 1.11-2.54 1.43-1.44.27-2.18.67-2.18 1.6 0 .84.74 1.45 1.93 1.45 1.44 0 2.78-1.03 2.78-3.37v-1.1Zm14.62.64c0 3.35-1.93 5.59-4.72 5.59a3.65 3.65 0 0 1-3.44-2.22h-.02v1.92h-2.4V90.3h2.42v5.93a3.7 3.7 0 0 1 3.44-2.22c2.79 0 4.72 2.2 4.72 5.51Zm-2.37 0c0-2.14-1.2-3.59-2.98-3.59-1.8 0-2.9 1.4-2.98 3.35v.22c0 2.07 1.13 3.64 2.98 3.64 1.83.03 2.98-1.45 2.98-3.62Zm7.23-3.72c-.91 0-1.7.55-1.7 1.31 0 1.01 1.23 1.3 2.99 1.7 1.83.42 3.17 1.28 3.17 2.98 0 2.09-2 3.32-4.3 3.32-2.14 0-4.15-.99-4.39-3.5h2.32c.2 1.16.9 1.7 2.12 1.7 1 0 1.93-.42 1.93-1.38 0-1.03-1.02-1.2-2.7-1.6-1.7-.39-3.35-1.18-3.35-3.1 0-1.91 1.85-3.2 4-3.2 2.27 0 3.95 1.16 4.2 3.45h-2.22c-.22-1.18-1.13-1.67-2.08-1.67Zm-106.18 9.11-5.15-9.2v-5.83h.46a.88.88 0 0 0 0-1.77h-.56l.22-.32c.1-.4-.2-.8-.61-.8h-2.76c-.41.01-.7.4-.61.82l.25.32h-.57a.88.88 0 0 0 0 1.77h.47v5.83l-5.18 9.18c-.46.81-.44 1.77.03 2.59.46.8 1.29 1.27 2.22 1.27h9.59a2.5 2.5 0 0 0 2.22-1.27c.44-.82.44-1.78-.02-2.59Zm-.3 2.41a2.23 2.23 0 0 1-1.92 1.11h-9.6a2.2 2.2 0 0 1-1.92-1.1 2.22 2.22 0 0 1-.03-2.25l5.22-9.3v-6.22h-.8a.54.54 0 0 1-.54-.54c0-.3.25-.54.54-.54h4.64c.29 0 .53.24.53.54 0 .3-.24.54-.53.54h-.8v6.22l5.21 9.3c.42.7.42 1.55 0 2.24Z"/><path d="M164.9 102.77a4.5 4.5 0 0 1-4.28-.12 5.3 5.3 0 0 0-3.17-.84l-2.2 3.89c-.25.44-.07.83 0 .98.07.15.34.5.83.5h9.6a.9.9 0 0 0 .82-.5.97.97 0 0 0 0-.98l-1.6-2.93Zm-4.94-3h.07l.88.96c-.02.07-.05.15-.05.24 0 .33.27.6.59.6a.6.6 0 0 0 .59-.6.6.6 0 0 0-.6-.59.8.8 0 0 0-.33.1l-.86-.93c0-.03.03-.05.03-.08l.8-.37c.15.23.42.35.69.35.46 0 .85-.4.85-.86a.87.87 0 0 0-.85-.86.87.87 0 0 0-.83 1.05l-.8.37a.28.28 0 0 0-.2-.07c-.2 0-.35.15-.35.34.05.2.2.35.37.35Z"/></g><g fill="#fff" clip-path="url(#m)"><path d="M200.75 176.4h-4.46v-16.75h3.44c2.48 0 3.53.18 4.53.82a4.2 4.2 0 0 1 1.9 3.65c0 1.57-.52 2.45-1.86 3.15 2.13.88 2.86 2.16 2.86 4.14 0 3.06-2.1 4.98-6.41 4.98Zm-.09-13.72h-1.27v3.43h1c1.88 0 2.67-.52 2.67-1.73 0-1.15-.79-1.7-2.4-1.7Zm.2 6.46h-1.47v4.29h1.54c2.18 0 3.11-.63 3.11-2.09 0-1.5-1.02-2.2-3.18-2.2Zm7.5 7.26v-12.57h3.02v12.56h-3.02Zm.02-14.38V159h3.03v3.02h-3.03Zm11.02 14.68a6.62 6.62 0 0 1-6.71-6.58c0-3.7 2.9-6.57 6.62-6.57a6.48 6.48 0 0 1 6.32 4.48h-3.39a3.07 3.07 0 0 0-2.92-1.72c-2.09 0-3.58 1.58-3.58 3.78 0 2.2 1.56 3.83 3.65 3.83 1.25 0 2.12-.5 2.87-1.66h3.39a6.43 6.43 0 0 1-6.26 4.44Zm13.76 0a6.63 6.63 0 0 1-6.66-6.58c0-3.6 3-6.57 6.65-6.57a6.6 6.6 0 0 1 6.7 6.66 6.66 6.66 0 0 1-6.69 6.49Zm0-10.4a3.73 3.73 0 0 0-3.63 3.78 3.73 3.73 0 0 0 3.66 3.85c2 0 3.62-1.7 3.62-3.8a3.76 3.76 0 0 0-3.65-3.82Zm16.01 10.1v-6.15c0-3.35-.9-3.94-2.4-3.94-.95 0-1.74.4-2.22 1.15-.39.62-.5 1.34-.5 3.02v5.91h-3.02v-12.56h2.79v1.21a4.66 4.66 0 0 1 3.54-1.5c1.74 0 3.1.64 3.93 1.82.67.98.9 2.06.9 4.3v6.73h-3.02Zm10.88.3a6.63 6.63 0 0 1-6.66-6.58 6.63 6.63 0 0 1 6.64-6.57 6.6 6.6 0 0 1 6.7 6.66 6.66 6.66 0 0 1-6.68 6.49Zm0-10.4a3.73 3.73 0 0 0-3.63 3.78 3.72 3.72 0 0 0 3.66 3.85c2 0 3.62-1.7 3.62-3.8a3.76 3.76 0 0 0-3.65-3.82Zm23.69 10.1v-6.9c0-2.51-.95-3.2-2.36-3.2-1.68 0-2.53.91-2.53 3.9v6.2h-3.02v-6.9c0-2.47-.86-3.2-2.44-3.2-1.75 0-2.45.94-2.45 3.9v6.2h-3.02v-12.57h2.76v1.18c.88-1.06 1.78-1.46 3.27-1.46 1.72 0 2.83.59 3.7 1.95a4.6 4.6 0 0 1 4.02-1.95c3.31 0 5.08 1.84 5.08 5.6v7.24h-3Zm8.51 4.2H289l2.36-5.37-4.6-11.38h3.43l2.8 8.14 3.03-8.14h3.47l-7.25 16.74Z"/></g><g fill="#fff" clip-path="url(#n)"><path d="M143.27 254.61h-3.68c-.4 0-.76-.07-1.1-.23a1.03 1.03 0 0 1-.62-.65 3.3 3.3 0 0 1-.19-1.05v-5.19c0-.3.05-.6.14-.9.1-.37.33-.63.7-.77.23-.1.47-.15.72-.17.2-.03.4-.03.61-.03h7.02c.3 0 .6.01.89.1.48.13.81.39.96.88.08.32.16.63.16.98v5.04c0 .35-.06.68-.16 1.01-.13.48-.48.74-.95.87-.3.09-.6.13-.93.13-1.2-.02-2.38-.02-3.57-.02Zm.02-7.38h-3.4c-.05 0-.07.02-.07.08v5.44c0 .16-.01.16.16.16h6.61c.16 0 .16.01.16-.16v-5.43c0-.04-.01-.07-.07-.07h-.13c-1.09-.02-2.18-.02-3.26-.02Zm-11.79 4.01c1.38 1.1 2.71 2.23 4.08 3.34-.03.06-.08.03-.12.03h-2.67c-.09 0-.16-.01-.23-.08l-5.14-4.75c0-.02-.04-.03-.08-.08.08-.04.16-.02.22-.02h4.27a1 1 0 0 0 .64-.22c.11-.09.17-.2.17-.36v-1.37a.44.44 0 0 0-.16-.35.85.85 0 0 0-.53-.22h-4.86c-.13 0-.13 0-.13.13v7.13c0 .24.03.2-.2.2h-1.69c-.2 0-.19.02-.19-.18v-8.7c0-.14 0-.14.13-.14h7.81c.32 0 .62.06.93.15.11.03.22.08.3.16.4.33.64.73.64 1.25v2.46c0 .21-.04.42-.12.62-.18.5-.58.76-1.08.88-.2.04-.43.07-.63.07h-1.22c-.06.02-.09 0-.13.05Zm-26.67 3.35c-.06.04-.12.02-.18.02h-1.79c-.2 0-.17.02-.17-.17v-3.47c0-.26.02-.23-.22-.23h-6.14c-.24 0-.22-.04-.22.2v3.53c0 .16 0 .16-.16.16h-1.8c-.15 0-.16 0-.16-.16v-8.74c-.02-.1.02-.11.13-.11h1.87c.09 0 .12.03.12.11v3.31c0 .06.03.07.07.07h6.35c.16 0 .16 0 .16-.16v-3.22c0-.08.02-.11.12-.11h1.9c.09 0 .12.03.12.11v8.86Z"/><path d="M105.19 259.08c-.28.29-.54.6-.8.9l-2.76 3.18-.1.09c.14-.3.43-.5.58-.81-.04-.04-.06-.01-.09.01-.04.06-.07.15-.16.2l2-3.26 5.62-9.14c.07-.13.07-.21 0-.33-1.1-1.72-2.21-3.45-3.33-5.17-.07-.1-.09-.19-.03-.32.1-.24.19-.5.28-.76.05.01.07.06.08.08 1.18 2.08 2.34 4.16 3.53 6.23.06.1.03.17-.02.26-1.38 2.12-2.78 4.24-4.16 6.38l-3.58 5.5-.08.16c-.03.05-.1.09-.05.13.06.04.08-.04.1-.09l.7-.9a8193.8 8193.8 0 0 0 8.7-11.57c.07-.07.05-.13 0-.2l-.1-.15c-1.2-2.1-2.42-4.19-3.63-6.27-.03-.05-.07-.1-.08-.17.04-.04.08-.03.13-.03h5.85c.13 0 .2.04.25.16l1.5 2.64.1.18 4.04-3.69.01.02-4.63 5.34c-.06-.03-.08-.09-.1-.13l-1.72-2.96c-.07-.11-.14-.16-.27-.16-.85.02-1.7 0-2.55 0h-.16c-.03.07.03.12.06.18l2.86 4.93c.13.24.15.15-.03.35l-6.65 7.68-.1.13c-.24.25-.45.5-.67.75-.18.2-.38.4-.54.63Zm19.82-18.7c.3-.3.55-.63.83-.94l1.8-2.07.09-.09a.4.4 0 0 1 .03.03c0 .08-.1.1-.09.18-.06.01-.09.04-.07.11-.12.08-.15.12-.15.22-.08-.03-.08.06-.11.09l-1.05 1.38-8.06 10.73c-.1.13-.1.22-.03.36l3.83 6.66c.03.04.06.07.06.14-.06.02-.12.02-.17.02h-5.77c-.15 0-.23-.05-.3-.18l-1.52-2.67a.2.2 0 0 0-.09-.11l-.16.13c-1.33 1.14-2.68 2.27-4.02 3.4l-.2.17c-.02-.06.04-.1.07-.13l4.72-5.45a.65.65 0 0 0 .09-.1c.07.04.1.13.13.19l1.83 3.18c.07.13.14.17.3.17.83-.02 1.66 0 2.5 0h.2c0-.09-.05-.15-.08-.19l-3-5.23v-.03c-.1-.16-.1-.13.02-.27l1.44-1.66 5.7-6.57c.01-.03.03-.04.06-.07l.08-.1 1-1.13c.02-.06.08-.1.1-.18Z"/><path d="m125.01 240.38-.11.15-1 1.15-.1.08a15.92 15.92 0 0 0-2.97-2.6 13.03 13.03 0 0 0-4.48-1.95 12.76 12.76 0 0 0-10.71 2.83c-.07.06-.19.06-.2.18.11-.08.17-.2.27-.3a12.94 12.94 0 0 1 14.48-2.84 14 14 0 0 1 4.27 2.73l.55.56Zm-19.82 18.7c.16-.23.36-.44.54-.64.22-.25.42-.52.67-.75 1.6 1.8 3.51 3.2 5.8 4.06a11.42 11.42 0 0 0 4.92.72 12.85 12.85 0 0 0 7.1-2.77c.04-.05.08-.09.15-.1.02.08-.06.11-.1.15a12.78 12.78 0 0 1-6.71 3.5c-.84.16-1.7.23-2.58.22a14.55 14.55 0 0 1-8.88-3.45c-.3-.32-.6-.64-.91-.94Zm22.25-21.28c.01.03.07-.01.06.03l-.08.13-6.48 10.56-.88 1.44c-.08.12-.08.2 0 .3l3.43 5.4c.07.12.08.21.06.34-.08.2-.12.42-.18.62-.01.03 0 .07-.04.09-.06-.03-.08-.09-.1-.15l-3.68-6.35c-.07-.12-.05-.19.03-.28l5.88-9.03 1.94-2.98c.01-.01.07-.04.04-.11.01 0 0 0 0 0Zm-3.04 21.72a.48.48 0 0 1 .2-.14.46.46 0 0 1-.17.17l-.03-.03Zm3.18-21.86c0-.03.02-.04 0-.07.05.01.05-.03.08-.05 0 .06-.02.1-.08.12Zm-25.72 24.98c0 .05 0 .07-.04.09a.12.12 0 0 0 .04-.09c.02 0 0 0 0 0Zm25.9-25.4c.01-.01.03-.06.04-.04.03.03 0 .04-.03.06l-.01-.02Zm-.06.23c0 .03 0 .06-.03.07v-.07c0 .02.02 0 .03 0Zm-.12.19c0 .03 0 .06-.02.07l.02-.07Z"/><path d="m127.72 237.28.04-.04.02.01c0 .02-.02.05-.03.05 0 0-.02 0-.03-.02Zm.03.16v-.01.01c-.02 0 0 0 0 0Zm-.05.03c.02-.01.03-.03.05-.03-.02.02-.02.03-.05.03Zm-.14.26c0 .02 0 .02-.02.03l-.01-.01.03-.02Zm-17.72 20.19-.03.04c0-.02.02-.04.03-.04Zm14.59 1.63-.03.03c-.03-.01-.01-.03 0-.06l.03.03Zm-22.21 2.76c-.02.04-.04.13-.1.09-.06-.05.02-.09.05-.13l.05.04Zm25.45-24.84v.07c-.03 0-.03.06-.07.05-.03-.06.01-.09.07-.12Z"/></g><g fill="#fff" clip-path="url(#o)"><path fill-rule="evenodd" d="M132.25 201c5.62 0 10.17 4.54 10.17 10.13a10.15 10.15 0 0 1-11.95 9.98v-4.48h1.96c1.06 0 1.94-.2 2.66-.57a3.83 3.83 0 0 0 2.11-3.56c0-.82-.18-1.54-.54-2.16a3.7 3.7 0 0 0-1.6-1.48 5.86 5.86 0 0 0-2.63-.54h-5.13V220a10.13 10.13 0 0 1 4.95-18.99Zm5.01 4.04h-9.96v2.09h9.96v-2.09Zm-5.07 9.08c.6 0 1.05-.14 1.35-.43.3-.28.44-.68.44-1.2 0-.51-.15-.91-.44-1.2-.3-.28-.75-.42-1.35-.42h-1.72v3.25h1.72Z" clip-rule="evenodd"/><path d="M151.02 219.11c-.97 0-1.83-.16-2.6-.47a3.82 3.82 0 0 1-2.56-3.6h3.43c.05.49.22.86.5 1.13.3.25.67.37 1.13.37.48 0 .86-.1 1.13-.32.28-.22.42-.53.42-.92 0-.32-.12-.6-.34-.8a2.53 2.53 0 0 0-.81-.53c-.32-.14-.77-.3-1.36-.47-.85-.26-1.55-.52-2.09-.79-.53-.26-1-.65-1.39-1.16a3.23 3.23 0 0 1-.58-2c0-1.23.44-2.19 1.34-2.88a5.46 5.46 0 0 1 3.48-1.05c1.45 0 2.62.35 3.51 1.05a3.7 3.7 0 0 1 1.43 2.9h-3.48a1.32 1.32 0 0 0-.47-1 1.63 1.63 0 0 0-1.1-.38c-.4 0-.7.1-.95.32-.24.2-.35.5-.35.88 0 .43.2.76.6 1 .4.23 1.03.5 1.88.77.85.28 1.54.56 2.07.82.54.26 1 .65 1.39 1.15.39.5.58 1.14.58 1.93 0 .75-.2 1.43-.58 2.04-.38.62-.93 1.1-1.66 1.47a5.7 5.7 0 0 1-2.57.54Zm16.29-13.3v2.57h-3.5v10.6h-3.21v-10.6h-3.5v-2.57h10.22Zm9.84 10.84h-4.93l-.79 2.33h-3.37l4.78-13.17h3.73l4.78 13.17h-3.4l-.8-2.33Zm-.83-2.47-1.63-4.83-1.62 4.83h3.25Zm14.14 4.8-4.44-5.82v5.82h-3.22v-13.17h3.22v5.78l4.4-5.78h3.78l-5.11 6.45 5.3 6.72h-3.93Zm8.68-10.6v2.66h4.3v2.48h-4.3v2.89H204v2.57h-8.09v-13.17H204v2.57h-4.87Z"/></g><path fill="#fff" fill-opacity=".9" fill-rule="evenodd" d="m179.7 241-6.14 17.28h-2.61L164.88 241h2.46l4.94 14.98h.05L177.3 241h2.4Zm1.85 17.28V241h11.93v1.94h-9.63v5.49h8.98v1.93h-8.98v5.98h9.7v1.94h-12Zm34.33-7.14 2.93-8.06h.05l2.88 8.06h-5.86ZM217.6 241l-6.73 17.28h2.35l1.93-5.2h7.31l1.89 5.2h2.54L220.14 241h-2.54Zm-10.4.02v2.28h-9.09v-2.28h9.1Zm0 2.28h2.28v2.93h-2.27v-2.93Zm-11.36 0h2.27V256h-2.27v-12.7ZM207.2 256v2.28h-9.1V256h9.1Zm0 0v-4.06h-4.55v-2.28h6.82V256h-2.27Z" clip-rule="evenodd"/><defs><clipPath id="a"><path fill="#fff" d="M0 0h133.12v12.19H0z" transform="translate(18.75 10)"/></clipPath><clipPath id="b"><path fill="#fff" d="M0 0h111.78v28.96H0z" transform="translate(12 44)"/></clipPath><clipPath id="c"><path fill="#fff" d="M0 0h88.92v27.44H0z" transform="translate(139.78 45)"/></clipPath><clipPath id="d"><path fill="#fff" d="M0 0h96.54v23.37H0z" transform="translate(41 86)"/></clipPath><clipPath id="e"><path fill="#fff" d="M0 0h64.02v37.09H0z" transform="translate(244.7 40)"/></clipPath><clipPath id="f"><path fill="#fff" d="M0 0h68.09v24.9H0z" transform="translate(38 198)"/></clipPath><clipPath id="g"><path fill="#fff" d="M0 0h61.86v31.5H0z" transform="translate(220.4 195)"/></clipPath><clipPath id="h"><path fill="#fff" d="M0 0h79.26v20.32H0z" transform="translate(15 124)"/></clipPath><clipPath id="i"><path fill="#fff" d="M0 0h83.84v22.36H0z" transform="translate(110.27 123)"/></clipPath><clipPath id="j"><path fill="#fff" d="M0 0h63.5v26.42H0z" transform="translate(20 157)"/></clipPath><clipPath id="k"><path fill="#fff" d="M0 0h80.79v20.32H0z" transform="translate(99.5 160)"/></clipPath><clipPath id="l"><path fill="#fff" d="M0 0h125v21.85H0z" transform="translate(153.54 87)"/></clipPath><clipPath id="m"><path fill="#fff" d="M0 0h103.65v21.59H0z" transform="translate(196.29 159)"/></clipPath><clipPath id="n"><path fill="#fff" d="M0 0h54.88v27.44H0z" transform="translate(94 236)"/></clipPath><clipPath id="o"><path fill="#fff" d="M0 0h82.31v20.32H0z" transform="translate(122.09 201)"/></clipPath></defs></svg>