<svg xmlns="http://www.w3.org/2000/svg" fill="none" width="865" viewBox="0 0 865 451">
  <path fill="#fff"
    d="M119.5 316.6 128.7 292H133.5L142.6 316.6H138.6L132.9 300.2C132.5 299.2 132.2 298.3 132 297.3 131.9 296.3 131.8 295.4 131.8 294.4H130.3C130.3 295.4 130.2 296.4 130 297.3 129.8 298.3 129.5 299.3 129.1 300.2L123.3 316.6H119.5ZM124.4 310.1 125.6 306.8H136.4L137.5 310.1H124.4ZM152 317.1C150.8 317.1 149.7 316.9 148.6 316.5 147.5 316.2 146.6 315.6 145.9 314.8 145.1 314.1 144.6 313.1 144.4 312.1L147.5 311.1C147.7 311.7 147.9 312.2 148.3 312.7 148.7 313.3 149.2 313.7 149.8 313.9 150.5 314.2 151.3 314.4 152.1 314.4 153 314.4 154 314.2 154.8 313.7 155.1 313.5 155.4 313.3 155.6 313 155.7 312.7 155.8 312.3 155.8 311.9 155.8 311.6 155.7 311.3 155.6 311.1 155.5 310.8 155.3 310.5 155.1 310.3 154.4 309.8 153.5 309.5 152.6 309.4L150.5 309C149.6 308.8 148.6 308.5 147.7 308.1 146.9 307.8 146.3 307.2 145.8 306.6 145.3 305.8 145.1 304.9 145.1 304 145.1 303 145.4 302 146 301.2 146.6 300.4 147.4 299.8 148.4 299.4 149.6 298.8 151 298.6 152.4 298.7 153.8 298.8 155.2 299.2 156.4 300 157.5 300.7 158.3 301.8 158.7 303.1L155.8 304.2C155.6 303.7 155.4 303.3 155.1 302.8 154.7 302.4 154.2 302 153.7 301.8 153.1 301.4 152.3 301.3 151.6 301.3 150.7 301.2 149.8 301.5 149.1 302 148.8 302.2 148.6 302.4 148.5 302.7 148.3 303 148.3 303.3 148.3 303.6 148.2 303.9 148.3 304.2 148.4 304.4 148.5 304.7 148.7 304.9 148.9 305 149.6 305.5 150.4 305.8 151.2 305.9L153.3 306.3C154.7 306.6 156.1 307.1 157.3 307.9 157.9 308.4 158.4 308.9 158.7 309.6 159 310.2 159.2 310.9 159.1 311.7 159.1 312.7 158.8 313.7 158.3 314.5 157.7 315.4 156.8 316 155.8 316.4 154.6 316.9 153.3 317.1 152 317.1ZM169.2 316.6C168.4 316.6 167.6 316.4 166.8 316.1 166.2 315.8 165.7 315.3 165.3 314.7 165 313.9 164.8 313.1 164.9 312.3V301.9H160.9V299.2H164.9V293.7H168.1V297.9C168.1 298.2 168.3 298.6 168.5 298.8 168.7 299 169.1 299.2 169.4 299.2H172.8V301.9H168.1V312C168.1 312.2 168.1 312.5 168.2 312.7 168.3 312.9 168.4 313.1 168.6 313.3 168.7 313.5 168.9 313.6 169.2 313.7 169.4 313.7 169.6 313.8 169.9 313.7H173.5V316.6H169.2ZM177.2 316.6V299.2H180.4C180.4 300 180.2 300.8 179.8 301.6 179.5 302.5 179 303.3 178.5 304.1H180.4C180.7 302.7 181.4 301.4 182.4 300.3 182.9 299.8 183.5 299.4 184.1 299.2 184.8 299 185.5 298.9 186.1 298.9 186.7 298.9 187.2 299 187.8 299.1V302.5C187.2 302.4 186.5 302.3 185.9 302.3 184.8 302.3 183.8 302.5 182.8 303 182 303.6 181.4 304.3 181 305.2 180.6 306.4 180.4 307.6 180.5 308.8V316.6H177.2ZM197.4 317.1C196 317.1 194.5 316.7 193.2 315.9 192 315.1 190.9 313.9 190.3 312.6 189.5 311.1 189.2 309.5 189.2 307.9 189.2 306.3 189.5 304.6 190.2 303.2 190.9 301.8 191.9 300.7 193.2 299.9 194.5 299.1 195.9 298.7 197.4 298.7 198.9 298.7 200.4 299.1 201.7 299.9 202.9 300.7 204 301.8 204.6 303.2 205.3 304.6 205.7 306.3 205.7 307.9 205.7 309.5 205.3 311.1 204.6 312.6 203.9 313.9 202.9 315.1 201.6 315.9 200.4 316.7 198.9 317.1 197.4 317.1ZM197.4 314.2C198.3 314.2 199.2 314 199.9 313.5 200.7 313 201.3 312.3 201.6 311.4 202 310.3 202.2 309.1 202.2 307.9 202.2 306.7 202 305.5 201.6 304.4 201.3 303.5 200.7 302.8 199.9 302.2 199.2 301.7 198.3 301.5 197.4 301.5 196.5 301.5 195.6 301.7 194.9 302.2 194.1 302.8 193.5 303.5 193.2 304.4 192.8 305.5 192.6 306.7 192.6 307.9 192.6 309.1 192.8 310.3 193.2 311.4 193.5 312.3 194.1 313 194.9 313.5 195.6 314 196.5 314.2 197.4 314.2ZM208.3 323.4V299.2H211.3C211.3 299.8 211.1 300.4 210.8 301 210.5 301.7 210.2 302.3 209.7 302.9H211.6C211.9 302.2 212.3 301.5 212.7 300.9 213.1 300.3 213.7 299.7 214.4 299.3 215.3 298.9 216.3 298.6 217.3 298.7 218.6 298.6 219.8 299 220.9 299.8 222 300.6 222.9 301.7 223.4 303 224 304.6 224.3 306.2 224.3 307.9 224.3 309.6 224 311.2 223.4 312.8 222.9 314.1 222 315.2 220.9 316 219.8 316.7 218.5 317.1 217.3 317.1 215.9 317.2 214.6 316.7 213.6 315.9 212.7 315 212 314 211.6 312.8H209.7C210.3 313.8 210.8 314.7 211.1 315.8 211.5 317 211.7 318.4 211.7 319.7V323.4L208.3 323.4ZM216.2 314.3C217.1 314.3 217.9 314.1 218.7 313.6 219.4 313.2 220 312.4 220.3 311.6 220.7 310.4 220.9 309.1 220.9 307.9 220.9 306.6 220.7 305.4 220.3 304.2 220 303.3 219.4 302.6 218.7 302.1 217.9 301.7 217.1 301.5 216.2 301.5 215.3 301.5 214.5 301.7 213.8 302.2 213 302.7 212.4 303.5 212.1 304.4 211.7 305.5 211.4 306.7 211.5 307.9 211.4 309.1 211.7 310.3 212.1 311.4 212.4 312.3 213 313 213.7 313.5 214.5 314 215.4 314.3 216.3 314.3L216.2 314.3ZM235.2 317.1C233.7 317.1 232.3 316.7 231 315.9 229.7 315.1 228.7 313.9 228 312.6 227.3 311.1 226.9 309.5 227 307.9 226.9 306.3 227.3 304.6 228 303.2 228.7 301.8 229.7 300.7 231 299.9 232.3 299.1 233.7 298.7 235.2 298.7 236.7 298.7 238.2 299.1 239.5 299.9 240.7 300.7 241.7 301.8 242.4 303.2 243.1 304.6 243.5 306.3 243.4 307.9 243.5 309.5 243.1 311.1 242.4 312.6 241.7 313.9 240.7 315.1 239.4 315.9 238.2 316.7 236.7 317.1 235.2 317.1ZM235.2 314.2C236.1 314.2 237 314 237.7 313.5 238.5 313 239.1 312.3 239.4 311.4 239.8 310.3 240 309.1 240 307.9 240 306.7 239.8 305.5 239.4 304.4 239.1 303.5 238.5 302.8 237.7 302.2 237 301.7 236.1 301.5 235.2 301.5 234.3 301.5 233.5 301.7 232.7 302.2 231.9 302.8 231.3 303.5 231 304.4 230.6 305.5 230.4 306.7 230.4 307.9 230.4 309.1 230.6 310.3 231 311.4 231.3 312.3 231.9 313 232.7 313.5 233.5 314 234.3 314.2 235.2 314.2ZM246.2 316.6V299.2H249.4C249.3 300 249.1 300.8 248.8 301.6 248.4 302.5 248 303.3 247.5 304.1H249.4C249.7 302.7 250.4 301.4 251.3 300.3 251.8 299.8 252.4 299.4 253.1 299.2 253.7 299 254.4 298.9 255.1 298.9 255.7 298.9 256.2 299 256.7 299.1V302.5C256.1 302.4 255.5 302.3 254.9 302.3 253.8 302.3 252.7 302.5 251.8 303 251 303.6 250.3 304.3 250 305.2 249.6 306.4 249.4 307.6 249.4 308.8V316.6H246.2ZM266.8 316.6C266 316.6 265.2 316.4 264.4 316.1 263.8 315.8 263.3 315.3 262.9 314.7 262.6 313.9 262.4 313.1 262.4 312.3V301.9H258.5V299.2H262.4V293.7H265.7V297.9C265.7 298.2 265.9 298.6 266.1 298.8 266.3 299 266.7 299.2 267 299.2H270.4V301.9H265.7V312C265.7 312.2 265.7 312.5 265.8 312.7 265.9 312.9 266 313.1 266.2 313.3 266.3 313.5 266.5 313.6 266.7 313.7 267 313.7 267.2 313.8 267.4 313.7H271.1V316.6H266.8ZM115.5 279H110.5 108V281.5 286.5H110.5V281.5H115.5V279ZM110.5 329.9V324.9H108V329.9 332.4H110.5 115.5V329.9H110.5ZM280.5 279H275.5V281.5H280.5V286.5H283V281.5 279H280.5ZM280.5 324.9V329.9H275.5V332.4H280.5 283V329.9 324.9H280.5Z" />
  <g clip-path="url(#a)">
    <path fill="#fff" fill-rule="evenodd"
      d="M17.8787 52.5702C18.0524 52.3193 18.0641 51.9896 17.9086 51.7269L8.23661 35.3816C8.09664 35.145 7.84284 35 7.56876 35H0.77802C0.177786 35 -0.195687 35.6543 0.107759 36.1742L12.8149 57.9469C13.1017 58.4383 13.7995 58.4654 14.1231 57.9976L17.8787 52.5702ZM35.4128 59C36.0126 59 36.3862 58.3465 36.0836 57.8267L23.0246 35.3865C22.8853 35.1471 22.6299 35 22.3538 35H15.5668C14.9666 35 14.5932 35.6543 14.8966 36.1742L27.9933 58.6143C28.1327 58.8532 28.3878 59 28.6635 59H35.4128ZM6.13373 57.6099C6.44089 58.1298 6.06767 58.7878 5.46558 58.7878H0.809134C0.380092 58.7878 0.0322877 58.4386 0.0322877 58.0079V50.1273C0.0322877 49.3343 1.07423 49.0473 1.47726 49.7294L6.13373 57.6099ZM52.9313 59H48.9339V35H52.8614L63.9419 53.9257L74.9877 35H78.9151V59H74.9178V43.1257L65.6255 59H62.2241L52.9313 43.1257V59ZM103.668 59H88.2044V35H103.668V38.9086H92.2017V45.0457H103.668V48.9543H92.2017V55.0914H103.668V59ZM118.97 59H122.967V38.9086H132.224V35H109.677V38.9086H118.97V59ZM160.5 59H156.116L154.118 54.8172H140.161L138.198 59H133.815L145.211 35H149.103L160.5 59ZM147.14 40.1086L142.02 50.9086H152.259L147.14 40.1086ZM167.422 59H171.419V51.4571H176.574C181.484 51.4571 185.025 47.9943 185.025 43.2285C185.025 38.4971 181.484 35 176.574 35H167.422V59ZM171.419 47.5485V38.9086H176.574C179.169 38.9086 181.027 40.7257 181.027 43.2285C181.027 45.7315 179.169 47.5485 176.574 47.5485H171.419ZM208.258 59H192.584V35H196.581V55.0914H208.258V59ZM215.28 59H230.744V55.0914H219.277V48.9543H230.744V45.0457H219.277V38.9086H230.744V35H215.28V59ZM242.153 59H236.998L246.922 47L236.998 35H242.153L249.516 43.88L256.88 35H262L252.076 47L262 59H256.845L249.516 50.12L242.153 59Z"
      clip-rule="evenodd" />
  </g>
  <g fill="#fff" clip-path="url(#b)">
    <path
      d="M586.607 129.05C586.607 135.41 591.337 140.33 597.934 140.33C604.532 140.33 609.291 135.41 609.291 129.05C609.291 122.69 604.532 117.77 597.934 117.77C591.337 117.77 586.607 122.69 586.607 129.05ZM590.915 129.05C590.915 125.06 593.837 122 597.934 122C602.061 122 604.953 125.06 604.953 129.05C604.953 133.04 602.061 136.1 597.934 136.1C593.837 136.1 590.915 133.04 590.915 129.05ZM627.049 140H631.417L624.247 118.1H619.819L612.589 140H616.867L617.891 136.88H626.025L627.049 140ZM619.247 132.74L621.958 124.43L624.669 132.74H619.247ZM647.124 124.49H651.432C651.432 120.5 648.088 117.77 643.569 117.77C638.96 117.77 635.766 120.68 635.766 124.67C635.766 127.46 637.333 129.65 640.225 130.46C642.183 131 644.503 130.85 645.919 131.36C646.792 131.66 647.485 132.35 647.485 133.43C647.485 135.02 646.13 136.25 643.81 136.25C641.551 136.25 639.863 135.08 639.863 133.34H635.586C635.586 137.48 639.08 140.33 643.75 140.33C648.57 140.33 651.763 137.33 651.763 133.19C651.763 130.25 650.046 128.12 647.244 127.28C645.135 126.65 642.997 126.92 641.581 126.41C640.647 126.08 640.044 125.39 640.044 124.46C640.044 122.99 641.37 121.85 643.509 121.85C645.617 121.85 647.064 122.9 647.124 124.49ZM657.759 140H662.067V118.1H657.759V140ZM679.686 124.49H683.994C683.994 120.5 680.65 117.77 676.131 117.77C671.522 117.77 668.329 120.68 668.329 124.67C668.329 127.46 669.895 129.65 672.788 130.46C674.746 131 677.065 130.85 678.481 131.36C679.355 131.66 680.048 132.35 680.048 133.43C680.048 135.02 678.692 136.25 676.372 136.25C674.113 136.25 672.426 135.08 672.426 133.34H668.148C668.148 137.48 671.643 140.33 676.312 140.33C681.132 140.33 684.326 137.33 684.326 133.19C684.326 130.25 682.608 128.12 679.807 127.28C677.698 126.65 675.559 126.92 674.143 126.41C673.209 126.08 672.607 125.39 672.607 124.46C672.607 122.99 673.932 121.85 676.071 121.85C678.18 121.85 679.626 122.9 679.686 124.49Z" />
    <path fill-rule="evenodd"
      d="M561.092 117.923C558.052 114.049 553.588 111.597 548.653 111.597C539.107 111.597 532.124 120.43 532.124 130C532.124 136.671 536.57 141.664 541.515 141.664C541.977 141.664 542.436 141.622 542.888 141.539C539.575 139.133 537.456 134.752 537.456 130C537.456 122.434 542.596 116.538 548.653 116.538C555.259 116.538 559.852 123.07 559.852 130C559.835 135.118 558.003 140.206 554.779 143.961C551.965 147.238 548.32 149.316 544.313 149.976C544.313 149.976 544.647 150 545.084 150C556.176 150 565.167 141.046 565.167 130C565.167 125.462 563.649 121.278 561.092 117.923ZM558.044 130C558.044 123.328 553.598 118.336 548.653 118.336C548.19 118.336 547.732 118.378 547.28 118.461C550.592 120.867 552.711 125.248 552.711 130C552.711 137.566 547.572 143.463 541.515 143.463C534.909 143.463 530.316 136.93 530.316 130C530.332 124.882 532.165 119.794 535.388 116.04C538.203 112.762 541.848 110.684 545.854 110.024C545.854 110.024 545.521 110 545.084 110C533.992 110 525 118.955 525 130C525 134.538 526.519 138.721 529.076 142.078C532.116 145.951 536.579 148.403 541.515 148.403C551.061 148.403 558.044 139.57 558.044 130Z"
      clip-rule="evenodd" />
  </g>
  <path fill="#fff"
    d="M568.3 44C568.3 45.9 567.9 47.9 567.2 49.7 566.5 51.5 565.4 53.1 564 54.5 561.2 57.3 557.4 58.8 553.5 58.8 549.6 58.8 545.8 57.3 543 54.5 541.6 53.1 540.5 51.5 539.8 49.7 539 47.9 538.6 45.9 538.7 44 538.6 42 539 40.1 539.8 38.2 540.5 36.4 541.6 34.8 543 33.4 544.4 32.1 546 31 547.8 30.2 551.5 28.7 555.5 28.7 559.2 30.2 561 31 562.6 32.1 564 33.4 565.4 34.8 566.5 36.4 567.2 38.2 567.9 40.1 568.3 42 568.3 44ZM553.5 55.7C555 55.7 556.4 55.4 557.8 54.8 559.2 54.2 560.5 53.3 561.5 52.2 562.6 51.2 563.4 49.9 564 48.5 564.6 47 564.9 45.5 564.8 44 564.8 42.4 564.6 40.9 564 39.5 563.4 38 562.6 36.8 561.5 35.7 559.9 34 557.9 32.9 555.7 32.5 553.5 32 551.2 32.3 549.1 33.1 547.7 33.7 546.5 34.6 545.4 35.7 544.4 36.8 543.5 38.1 542.9 39.5 542.4 40.9 542.1 42.5 542.1 44 542.1 45.5 542.4 47 542.9 48.5 544.1 51.3 546.3 53.6 549.1 54.8 550.5 55.4 552 55.7 553.5 55.7ZM573.7 58.1V29.8H579.5C581 29.7 582.5 29.9 584 30.1 584.8 30.3 585.7 30.7 586.4 31.2 587.3 31.9 588 32.8 588.5 33.8 589 34.9 589.2 36.1 589.2 37.2 589.3 38.6 588.9 39.9 588.2 41 587.4 42 586.3 42.8 585.1 43.1 586.6 43.3 588 44.1 589 45.4 590 46.7 590.5 48.4 590.4 50.1 590.4 51.2 590.2 52.3 589.8 53.3 589.4 54.3 588.9 55.2 588.1 56 587.3 56.8 586.3 57.4 585.2 57.7 584.1 58 582.2 58.1 579.4 58.1L573.7 58.1ZM576.9 32.7V42.2H579.5C581.8 42.2 583.5 41.8 584.4 41.1 585.4 40.4 585.9 39.3 585.9 37.6 585.9 35.8 585.4 34.5 584.5 33.8 583.7 33.1 582 32.7 579.5 32.7H576.9ZM576.9 44.8V55.2H579.5C580.7 55.2 582 55.1 583.2 54.9 583.9 54.8 584.6 54.6 585.1 54.2 585.7 53.8 586.2 53.2 586.5 52.5 586.8 51.7 587 50.9 587 50.1 587 49.1 586.8 48.2 586.4 47.4 586 46.6 585.4 46 584.7 45.6 584.2 45.3 583.7 45.1 583.1 45 582.2 44.9 581.3 44.8 580.4 44.9H576.9V44.8ZM623.9 44C623.9 45.9 623.5 47.9 622.7 49.7 622 51.5 620.9 53.1 619.5 54.5 616.7 57.3 613 58.8 609 58.8 605.1 58.8 601.4 57.3 598.5 54.5 596.5 52.4 595.1 49.8 594.5 46.9 593.9 44 594.2 41 595.3 38.2 596.1 36.4 597.2 34.8 598.5 33.4 599.9 32.1 601.6 31 603.4 30.2 607 28.7 611.1 28.7 614.7 30.2 616.5 31 618.2 32.1 619.5 33.4 620.9 34.8 622 36.4 622.7 38.2 623.5 40.1 623.9 42 623.9 44ZM609 55.7C610.5 55.7 612 55.4 613.4 54.8 614.7 54.2 616 53.3 617.1 52.2 618.1 51.2 619 49.9 619.5 48.5 620.1 47 620.4 45.5 620.4 44 620.4 42.4 620.1 40.9 619.5 39.5 618.7 37.3 617.2 35.5 615.3 34.2 613.5 32.9 611.3 32.3 609 32.3 607.5 32.3 606 32.6 604.6 33.1 603.2 33.7 602 34.6 601 35.7 599.9 36.8 599.1 38.1 598.5 39.5 597.9 40.9 597.6 42.5 597.6 44 597.6 45.5 597.9 47 598.5 48.5 599.1 49.9 599.9 51.2 601 52.3 602 53.4 603.3 54.2 604.7 54.8 606.1 55.4 607.5 55.7 609 55.7ZM629.2 58.1V29.8H632.5V54.9H643V58.1H629.2Z" />
  <path stroke="#fff" stroke-miterlimit="10" stroke-width="3"
    d="M524.034 42.8511C524.034 58.9793 511.238 64.1138 495.449 54.3316C479.661 44.5494 467.225 41.7925 467.663 48.1668C468.1 54.5411 480.924 49.4065 496.258 36.6863C511.593 23.966 524.034 26.7342 524.034 42.8511Z" />
  <path fill="#fff"
    d="M333 286V326H370V321.5H337.4V290.5H370V286H333ZM396.7 303.9 403 294.1H408.1L400.7 305.7V306.3L408.5 317.9H403.2L396.7 308.1V303.9ZM423.3 308.1H429.2L426.6 296.3H426L423.3 308.1ZM430.2 312.6H422.3L421.1 317.9H416.5L422.1 294.1H430.4L436 317.9H431.4L430.2 312.6ZM447.8 294.1H452.3V313.6H463V317.9H447.8V294.1Z" />
  <path fill="#fff"
    d="M373.7 301.4C373.7 300.4 373.3 299.6 372.6 298.9 371.9 298.2 370.9 297.8 369.5 297.8 368.4 297.8 367.5 298.1 366.9 298.5 366.2 299 365.9 299.6 365.9 300.4 365.9 300.8 366 301.2 366.1 301.5 366.3 301.9 366.6 302.2 366.9 302.4 367.3 302.7 367.8 302.9 368.5 303.1 369.1 303.3 370 303.5 370.9 303.7 373.4 304.2 375.3 304.9 376.6 306 377.9 307.1 378.6 308.6 378.6 310.7V311.1C378.6 312.2 378.4 313.2 378 314.1 377.6 315 377 315.8 376.3 316.4 375.5 317.1 374.6 317.6 373.6 317.9 372.5 318.2 371.3 318.4 370 318.4 368.4 318.4 367.1 318.2 365.9 317.8 364.7 317.3 363.7 316.7 363 315.9 362.2 315.1 361.6 314.2 361.2 313.2 360.8 312.1 360.6 311 360.6 309.7V309.5H365C365 310.9 365.4 312.1 366.2 312.9 367.1 313.8 368.3 314.2 370.1 314.2 371.4 314.2 372.4 313.9 373.1 313.3 373.7 312.7 374 312 374 311.2 374 310.8 374 310.5 373.8 310.1 373.7 309.8 373.5 309.5 373.1 309.2 372.8 308.9 372.3 308.6 371.7 308.4 371.1 308.2 370.4 308 369.5 307.8 368.3 307.6 367.2 307.3 366.2 307 365.3 306.7 364.4 306.2 363.7 305.7 362.9 305.2 362.4 304.5 362 303.7 361.6 302.8 361.3 301.8 361.3 300.7V300.5C361.3 299.5 361.6 298.6 361.9 297.8 362.3 296.9 362.9 296.2 363.6 295.6 364.3 295 365.1 294.5 366.2 294.2 367.2 293.8 368.3 293.6 369.5 293.6 370.9 293.6 372.1 293.9 373.2 294.2 374.3 294.6 375.2 295.2 375.9 295.9 376.7 296.5 377.1 297.3 377.6 298.2 378.1 299.3 378.1 301.4 378.1 301.4L373.7 301.4ZM473.3 294.1V317.9H488.6V313.6H477.8V298.4H488.6V294.1H473.3ZM393.6 294.1H389.1V317.9H393.6V294.1Z" />
  <path fill="#fff"
    d="M485.2 303.9H481V308.1H485.2V303.9ZM372.5 43.8C372.5 43.7 372.5 43.6 372.3 43.6 371.4 43.6 370.5 43.6 369.6 43.6 369.5 43.6 369.5 43.7 369.5 43.8 369.5 44.1 369.5 44.4 369.5 44.7 368.6 44 368.2 43.7 367.5 43.5 365.7 43.1 364.1 43.5 362.8 44.7 361.1 46.2 360.6 48.2 361.1 50.3 361.7 52.9 364 54.8 366.8 54.5 367.7 54.4 368.5 54.1 369.2 53.4 369.2 53.4 369.3 53.2 369.4 53.3 369.4 53.9 369.5 54.5 369.4 55.1 369.1 56.2 368.4 56.9 367.3 57 366.2 57.1 365.1 56.8 364.6 55.7 364.4 55.4 364.3 55.3 364 55.4 363.4 55.4 362.8 55.4 362.2 55.4 362 55.4 361.7 55.3 361.5 55.4 361.4 55.6 361.5 55.8 361.5 56 361.9 57.6 362.9 58.6 364.5 59.2 365.9 59.7 367.4 59.7 368.9 59.3 370.7 58.7 371.8 57.6 372.3 55.8 372.4 55.2 372.5 54.6 372.5 54 372.5 50.7 372.5 47.4 372.5 44.1 372.5 44 372.5 43.9 372.5 43.8ZM366.9 51.8C365.1 51.8 364 50.5 364 49 364.1 47.3 365.3 46.1 366.8 46.1 368.5 46.1 369.7 47.3 369.7 49 369.7 50.6 368.5 51.8 366.9 51.8ZM408.6 44.7C406.7 42.9 403.8 42.9 402.1 44.7 402.1 44.7 402.1 44.7 402 44.6 402 44.4 402 44.2 402 43.9 402 43.7 401.9 43.6 401.7 43.6 400.9 43.6 400.2 43.6 399.5 43.6 398.9 43.6 398.9 43.5 398.9 44.1 398.9 49 398.9 53.9 398.9 58.8 398.9 58.9 398.9 59 398.9 59 399 59.3 399 59.4 399.3 59.4 400.1 59.4 400.9 59.4 401.6 59.4 402 59.4 402 59.4 402 59 402 57.4 402 55.7 402 54.1V53.5C402.5 54.1 403 54.4 403.6 54.6 405.4 55.3 407.5 54.8 408.9 53.3 409.8 52.4 410.3 51.3 410.4 50 410.6 48 410.1 46.2 408.6 44.7ZM407.2 50.2C406.8 51.4 405.8 52.1 404.6 52.1 403.2 52.1 402.1 51.2 401.8 49.8 401.7 49.3 401.7 48.7 401.9 48.1 402.3 46.9 403.4 46.1 404.7 46.1 406 46.2 407 47.1 407.3 48.4 407.4 49 407.4 49.6 407.2 50.2ZM374.7 29.5C375.9 28.2 377.3 27.9 378.8 28.2 380.6 28.5 381.6 29.6 382 31.3 382.1 31.9 382.2 32.4 382.2 32.9 382.2 35 382.2 37 382.2 39 382.2 39 382.2 39.1 382.2 39.1 382.2 39.4 382.1 39.5 381.9 39.4 381.9 39.4 381.8 39.4 381.8 39.4 381 39.4 380.3 39.4 379.6 39.4 379.1 39.4 379.1 39.5 379.1 39 379.1 38.6 379.1 38.1 379.1 37.6 379.1 36.3 379.1 34.9 379.1 33.5 379.1 33.2 379.1 32.8 379 32.5 378.8 31.1 377.5 30.5 376.2 31 375.6 31.3 375.3 31.7 375 32.2 374.8 32.8 374.7 33.4 374.7 34.1 374.7 35.6 374.7 37.2 374.7 38.8 374.7 38.9 374.7 39 374.7 39 374.7 39.4 374.7 39.4 374.3 39.4 373.5 39.4 372.8 39.4 372 39.4 372 39.4 372 39.4 372 39.4 371.6 39.4 371.6 39.4 371.6 39.1 371.6 39 371.6 38.9 371.6 38.9 371.6 33.7 371.6 28.5 371.6 23.3 371.6 23.2 371.6 23.1 371.6 23 371.6 22.8 371.7 22.7 372 22.7 372.8 22.7 373.5 22.7 374.3 22.7 374.7 22.7 374.7 22.7 374.7 23.1 374.7 25 374.7 27 374.7 28.9 374.7 29.1 374.7 29.3 374.7 29.5ZM416.2 44.7C417.6 43.3 419.2 43 421 43.6 422.5 44.1 423.2 45.3 423.6 46.8 423.7 47.3 423.7 47.8 423.7 48.3 423.7 50.3 423.7 52.2 423.7 54.2 423.7 54.3 423.7 54.4 423.7 54.5 423.7 54.6 423.6 54.7 423.5 54.7 422.6 54.7 421.7 54.7 420.8 54.7 420.7 54.7 420.6 54.7 420.6 54.5 420.6 54.4 420.6 54.3 420.6 54.2 420.6 52.4 420.6 50.6 420.6 48.8 420.6 48.5 420.6 48.1 420.5 47.7 420.3 47 420 46.4 419.2 46.2 418.4 46 417.7 46.2 417.1 46.7 416.5 47.3 416.3 48 416.2 48.8 416.2 49.1 416.2 49.5 416.2 49.8 416.2 51.3 416.2 52.8 416.2 54.3 416.2 54.7 416.2 54.7 415.8 54.7 415 54.7 414.3 54.7 413.5 54.7 413.2 54.7 413.2 54.7 413.1 54.3 413.1 54.3 413.1 54.2 413.1 54.1 413.1 48.9 413.1 43.7 413.1 38.5 413.1 37.9 413.1 38 413.7 38 414.3 38 415.1 38 415.7 38 416.2 38 416.2 38 416.2 38.5 416.2 40.4 416.2 42.3 416.2 44.2 416.2 44.4 416.2 44.5 416.2 44.7ZM395.3 43.6C394.4 43.6 393.6 43.6 392.7 43.6 392.5 43.6 392.5 43.7 392.5 43.9 392.5 44.1 392.5 44.4 392.5 44.7 392.4 44.6 392.3 44.6 392.3 44.6 391.4 43.7 390.4 43.3 389.1 43.3 387.6 43.4 386.3 44.1 385.3 45.3 384.1 46.9 383.8 48.7 384.2 50.6 384.6 52.3 385.5 53.6 387 54.4 388.7 55.3 391 55.1 392.3 53.7 392.3 53.6 392.4 53.6 392.5 53.7 392.5 53.9 392.5 54.2 392.5 54.4 392.4 54.7 392.5 54.7 392.8 54.7 393.5 54.7 394.3 54.7 395 54.7 395.6 54.7 395.5 54.8 395.5 54.2 395.5 50.8 395.5 47.5 395.5 44.1 395.5 44 395.5 43.9 395.5 43.8 395.6 43.6 395.5 43.6 395.3 43.6ZM392.6 50.2C392.2 51.4 391.2 52.2 389.8 52.1 388.6 52.1 387.5 51.3 387.2 50 387.1 49.4 387.1 48.7 387.3 48.1 387.7 46.8 388.7 46.1 390 46.1 391.3 46.2 392.3 47 392.6 48.3 392.7 48.5 392.7 48.8 392.7 49.1 392.7 49.5 392.7 49.8 392.6 50.2ZM396.2 32.5C395.7 30.5 394.5 29 392.5 28.4 391.6 28.1 390.7 28 389.8 28.1 387.6 28.4 386 29.5 385.2 31.5 384.7 32.6 384.6 33.8 384.8 35 385.2 36.8 386.1 38.3 387.8 39.1 390 40.1 392.2 39.9 394.2 38.6 395.1 38 395.7 37.3 396.1 36.3 396.2 36.2 396.3 36 396.2 35.8 395.2 35.8 394.3 35.8 393.3 35.8 393.1 35.8 393 35.9 393 36 392.8 36.3 392.6 36.5 392.3 36.6 391.7 37 391 37.1 390.3 37 388.9 36.9 387.9 36 387.8 34.7 388 34.6 388.1 34.6 388.3 34.6 390.4 34.6 392.5 34.6 394.5 34.6 395.1 34.6 395.6 34.6 396.1 34.6 396.4 34.6 396.4 34.6 396.4 34.3 396.4 33.7 396.4 33.1 396.2 32.5ZM387.9 32.6C388 31.4 389.2 30.5 390.6 30.5 391.8 30.6 392.9 31.5 393 32.6H387.9ZM369 36.7C369 37.5 369 38.3 369 39.1 369 39.3 368.9 39.4 368.7 39.4 368.2 39.5 367.7 39.6 367.2 39.6 366.4 39.6 365.7 39.5 365 39.1 363.8 38.6 363.1 37.7 362.9 36.4 362.8 36.1 362.8 35.7 362.8 35.4 362.8 34.1 362.8 32.7 362.8 31.4 362.8 31 362.8 31 362.4 31 361.9 31 361.4 31 360.9 31 360.6 31 360.6 30.9 360.6 30.7 360.6 30 360.6 29.3 360.6 28.6 360.6 28.4 360.6 28.3 360.8 28.3 361.4 28.3 361.9 28.3 362.5 28.3 362.7 28.3 362.8 28.2 362.8 28 362.8 27.2 362.8 26.4 362.8 25.6 362.8 25.2 362.8 25.2 363.2 25.2 364 25.2 364.8 25.2 365.6 25.2 365.8 25.2 365.9 25.3 365.9 25.5 365.9 26.3 365.9 27.1 365.9 27.8 365.9 28.4 365.8 28.3 366.4 28.3 367.2 28.3 367.9 28.3 368.7 28.3 368.9 28.3 369.1 28.4 369 28.6 369 29.3 369 30 369 30.7 369 31 368.9 31 368.7 31 367.9 31 367.1 31 366.3 31 365.9 31 365.9 31 365.9 31.4 365.9 32.5 365.9 33.7 365.9 34.9 365.9 35.1 365.9 35.4 366 35.6 366.1 36.2 366.4 36.6 367.1 36.8 367.6 36.9 368.2 36.9 368.8 36.7 368.8 36.7 368.9 36.7 369 36.7ZM379 45.1C379.1 45 379.2 44.9 379.2 44.8 380 43.7 381.2 43.3 382.5 43.5 382.6 43.6 382.8 43.6 382.8 43.8 382.8 44.7 382.8 45.7 382.8 46.6 382.5 46.7 382.3 46.6 382.1 46.5 380.5 46.2 379.3 47 379 48.6 379 48.9 379 49.2 379 49.5 379 51 379 52.6 379 54.1 379 54.2 378.9 54.3 379 54.4 379 54.7 378.8 54.7 378.6 54.7 377.8 54.7 377 54.7 376.2 54.7 375.9 54.7 375.9 54.7 375.9 54.4 375.9 50.9 375.9 47.4 375.9 43.9 375.9 43.7 375.9 43.6 376.2 43.6 377 43.6 377.8 43.6 378.7 43.6 378.9 43.6 379 43.7 379 43.9 379 44.3 379 44.7 379 45.1ZM323 63.3C319.9 63.3 316.9 62.7 314.1 61.5 311.3 60.3 308.9 58.7 306.8 56.6 304.6 54.5 303 52 301.8 49.3 300.6 46.5 300 43.5 300 40.4 300 37.3 300.6 34.3 301.8 31.5 303 28.7 304.6 26.3 306.8 24.2 308.9 22.1 311.3 20.4 314.1 19.3 316.9 18.1 319.9 17.5 323 17.5 326.1 17.5 329.1 18.1 331.9 19.3 334.7 20.4 337.1 22.1 339.2 24.2 341.4 26.3 343 28.7 344.2 31.5 345.4 34.3 346 37.3 346 40.4 346 43.5 345.4 46.5 344.2 49.3 343 52 341.4 54.5 339.2 56.6 337.1 58.7 334.7 60.3 331.9 61.5 329.1 62.7 326.1 63.3 323 63.3ZM323 24.9C314.4 24.9 307.5 31.8 307.5 40.4 307.5 48.9 314.4 55.9 323 55.9 331.6 55.9 338.6 48.9 338.6 40.4 338.6 31.8 331.6 24.9 323 24.9ZM349.8 24.8C351.8 24.8 353.5 23.1 353.5 21.2 353.5 19.2 351.8 17.5 349.8 17.5 347.8 17.5 346.2 19.2 346.2 21.2 346.2 23.1 347.8 24.8 349.8 24.8ZM326.8 86.1C325.9 86.1 324.9 85.8 324.2 85.1 322.7 83.6 322.7 81.3 324.2 79.8L339.7 64.4C341.1 62.9 343.5 62.9 344.9 64.4 346.4 65.9 346.4 68.2 344.9 69.6L329.5 85.1C328.7 85.8 327.8 86.1 326.8 86.1Z" />
  <g fill="#fff" clip-path="url(#c)">
    <path
      d="M584.9 318.5C576.1 318.5 570.5 312.2 570.5 303.8 570.5 295.4 576.1 289 584.9 289 592 289 596.2 292.7 598 298.3H593.2C591.7 294.8 589.3 293.1 584.9 293.1 578.9 293.1 575.3 297.8 575.3 303.8 575.3 309.7 578.9 314.5 584.9 314.5 589.5 314.5 592 312.4 593.2 309.3H598C596.6 314.6 592 318.5 584.9 318.5ZM618 318.1H613.4C613.2 317.2 613.2 316.3 613.2 315.3V314.7H613.1C612.4 316.6 610.5 318.6 606.7 318.6 602 318.6 599.4 315.7 599.4 312.4 599.4 306.4 606.4 306.3 609.3 305.8 612 305.4 613.1 305 613.1 303.2 613.1 301.5 611.6 300.4 609.2 300.4 607 300.4 605.4 301.6 605.3 303.7H600.8C601 300.3 603.6 296.8 609.1 296.8 615.9 296.8 617.7 300.9 617.7 305.3V313.2C617.7 314.9 617.7 316.9 618 318.1ZM613.3 306.4C612.8 307.6 611.6 308.6 608.3 309.2 605.5 309.7 604 310.5 604 312.3 604 314 605.5 315.2 607.8 315.2 610.6 315.2 613.3 313.2 613.3 308.6V306.4ZM628.1 300.3C626.3 300.3 624.8 301.4 624.8 302.9 624.8 304.9 627.2 305.5 630.6 306.2 634.2 307 636.8 308.8 636.8 312.1 636.8 316.2 632.9 318.5 628.4 318.5 624.2 318.5 620.2 316.6 619.7 311.7H624.3C624.7 313.9 626.1 315 628.5 315 630.4 315 632.2 314.2 632.2 312.2 632.2 310.2 630.2 309.9 626.9 309.1 623.7 308.3 620.3 306.8 620.3 303 620.3 299.3 624 296.8 628.2 296.8 632.6 296.8 636 299.1 636.4 303.5H632C631.8 301.3 630 300.3 628.1 300.3ZM659.8 307.6C659.8 314.1 655.9 318.6 650.5 318.6 647 318.6 644.7 316.8 643.9 314.3H643.8V326H639.1V297.4H643.9V301.2C644.6 298.9 647 296.8 650.5 296.8 655.9 296.8 659.8 301.3 659.8 307.6ZM655.2 307.6C655.2 303.7 653 300.6 649.4 300.6 645.9 300.6 643.7 303.4 643.5 307.2V307.6C643.5 311.7 645.4 314.8 649.4 314.8 653.1 314.8 655.2 311.7 655.2 307.6ZM681.4 309H665.6C666 312.7 668.3 314.9 671.5 314.9 673.9 314.9 675.8 314 676.6 311.9H681.2C679.9 316.1 676.4 318.6 671.6 318.6 665.4 318.6 661.3 314.1 661.3 307.6 661.3 301.4 665.6 296.8 671.6 296.8 678.6 296.8 681.4 302.3 681.4 308.1V309H681.4ZM676.8 305.6C676.5 302.4 674.6 300.4 671.5 300.4 668.3 300.4 666.2 302.5 665.7 305.6H676.8ZM688.4 308.3V318.1H683.8V297.4H688.3V301.8H688.4C689.2 299 691.2 297.1 694.4 297V301.6C690.6 301.7 688.4 304.2 688.4 308.3ZM716.2 314V318.1H698.1V289.5H702.9V314H716.2ZM735.7 318.1H731C730.9 317.2 730.8 316.3 730.8 315.3V314.7H730.8C730.1 316.6 728.2 318.6 724.2 318.6 719.6 318.6 717 315.7 717 312.4 717 306.4 724.1 306.3 727 305.8 729.7 305.4 730.8 305 730.8 303.2 730.8 301.5 729.3 300.4 726.8 300.4 724.6 300.4 723 301.6 722.9 303.7H718.4C718.6 300.3 721.3 296.8 726.7 296.8 733.6 296.8 735.3 300.9 735.3 305.4V313.4C735.3 314.9 735.4 317 735.7 318.1ZM730.9 306.4C730.4 307.6 729.3 308.6 725.9 309.2 723.1 309.7 721.7 310.5 721.7 312.3 721.7 314 723.1 315.2 725.4 315.2 728.3 315.2 730.9 313.2 730.9 308.6V306.4ZM759.7 307.6C759.7 314.2 755.9 318.6 750.4 318.6 747.1 318.6 744.6 316.6 743.7 314.3H743.6V318.1H738.9V289.5H743.7V301.2C744.5 299 747.1 296.8 750.4 296.8 755.9 296.8 759.7 301.1 759.7 307.6ZM755 307.6C755 303.4 752.7 300.6 749.2 300.6 745.6 300.6 743.5 303.3 743.3 307.2V307.6C743.3 311.7 745.5 314.8 749.2 314.8 752.8 314.8 755 311.9 755 307.6ZM769.3 300.3C767.5 300.3 765.9 301.4 765.9 302.9 765.9 304.9 768.3 305.5 771.8 306.2 775.4 307.1 778 308.8 778 312.1 778 316.2 774.1 318.6 769.6 318.6 765.4 318.6 761.4 316.7 760.9 311.8H765.5C765.9 314 767.3 315.1 769.7 315.1 771.7 315.1 773.5 314.3 773.5 312.4 773.5 310.4 771.5 310 768.2 309.2 764.8 308.5 761.6 306.9 761.6 303.1 761.6 299.4 765.2 296.8 769.5 296.8 773.9 296.8 777.2 299.1 777.7 303.6H773.3C772.9 301.3 771.1 300.3 769.3 300.3ZM560.3 318.3 550.2 300.1V288.7H551.1C552 288.7 552.8 287.9 552.8 286.9 552.8 286 552 285.2 551.1 285.2H550L550.4 284.6C550.6 283.8 550 283 549.2 283H543.8C543 283 542.4 283.8 542.6 284.6L543 285.2H541.9C541 285.2 540.2 286 540.2 287 540.2 287.9 541 288.7 541.9 288.7H542.9V300.2L532.7 318.3C531.8 319.9 531.8 321.7 532.7 323.3 533.6 324.9 535.3 325.9 537.1 325.9H556C557.8 325.9 559.4 324.9 560.3 323.3 561.2 321.7 561.2 319.9 560.3 318.3ZM559.7 323C558.9 324.4 557.5 325.2 555.9 325.2H537C535.5 325.2 534 324.4 533.2 323 532.4 321.6 532.4 319.9 533.2 318.6L543.5 300.3V288H541.9C541.3 288 540.8 287.6 540.8 287 540.8 286.4 541.3 285.9 541.9 285.9H551C551.6 285.9 552.1 286.4 552.1 287 552.1 287.6 551.6 288 551 288H549.4V300.3L559.7 318.6C560.5 319.9 560.5 321.6 559.7 323Z" />
    <path
      d="M554.3 314C551.8 315.2 548.8 315.5 545.9 313.8 543.6 312.4 541.5 312 539.7 312.2L535.4 319.8C534.9 320.7 535.2 321.4 535.4 321.7 535.5 322 536 322.7 537 322.7H555.9C556.9 322.7 557.4 322 557.5 321.7 557.7 321.4 558 320.7 557.5 319.8L554.3 314ZM544.6 308.1C544.7 308.1 544.7 308.1 544.8 308.1L546.5 310C546.5 310.2 546.4 310.3 546.4 310.5 546.4 311.1 546.9 311.7 547.6 311.7 548.2 311.7 548.7 311.1 548.7 310.5 548.7 309.9 548.2 309.3 547.6 309.3 547.3 309.3 547.1 309.4 546.9 309.5L545.2 307.7C545.2 307.6 545.3 307.6 545.3 307.6L546.8 306.8C547.1 307.3 547.7 307.5 548.2 307.5 549.1 307.5 549.9 306.7 549.9 305.8 549.9 304.9 549.1 304.1 548.2 304.1 547.3 304.1 546.5 304.9 546.5 305.8 546.5 306 546.5 306.1 546.6 306.2L545 306.9C544.9 306.8 544.7 306.8 544.6 306.8 544.2 306.8 543.9 307.1 543.9 307.5 544 307.8 544.3 308.1 544.6 308.1Z" />
  </g>
  <path fill="#fff"
    d="M302.96 414.559C302.546 414.559 302.298 414.23 302.298 413.9V381.006C302.216 379.605 302.381 374.493 306.349 370.371C307.589 369.052 311.061 366.084 316.352 366.002C321.477 365.919 325.031 368.64 326.271 369.794C327.594 371.031 330.653 374.411 330.818 379.769C330.983 385.21 327.925 388.755 326.685 390.075C323.047 393.784 318.583 394.196 316.848 394.279C316.517 394.279 316.186 393.949 316.186 393.619C316.186 393.207 316.434 392.96 316.848 392.96C318.418 392.96 322.469 392.465 325.775 389.168C326.685 388.261 329.661 384.881 329.578 379.852C329.495 374.905 326.437 371.69 325.445 370.866C324.535 370.041 321.394 367.486 316.682 367.486C316.6 367.486 316.517 367.486 316.434 367.486C311.64 367.568 308.498 370.289 307.341 371.443C303.704 375.07 303.621 379.687 303.621 381.006V413.9C303.621 414.312 303.373 414.559 302.96 414.559Z" />
  <path fill="#fff"
    d="M316.4 385C313.8 385 311.6 382.9 311.6 380.3 311.6 377.6 313.8 375.5 316.4 375.5 319.1 375.5 321.2 377.6 321.2 380.3 321.2 382.9 319.1 385 316.4 385ZM316.4 376.7C314.5 376.7 313 378.3 313 380.2 313 382.1 314.5 383.6 316.4 383.6 318.3 383.6 319.9 382.1 319.9 380.2 319.9 378.3 318.3 376.7 316.4 376.7ZM307.4 403C307 403 306.8 402.7 306.8 402.4V381C306.8 380.6 307.1 380.3 307.4 380.3 307.8 380.3 308.1 380.7 308.1 381V402.4C308.1 402.7 307.8 403 307.4 403ZM312.2 409.7C311.8 409.7 311.6 409.4 311.6 409V397.7C311.6 397.2 311.9 397 312.2 397 312.5 397 312.9 397.3 312.9 397.7V409C313 409.4 312.6 409.7 312.2 409.7ZM298.7 404.3C298.2 404.3 298 404 298 403.7V389.2C298 388.8 298.3 388.5 298.7 388.5 299 388.5 299.3 388.8 299.3 389.2V403.7C299.3 404.1 299.1 404.3 298.7 404.3Z" />
  <path fill="#fff"
    d="M316.4 389.8C311.1 389.8 306.8 385.5 306.8 380.2 306.8 374.9 311.1 370.5 316.4 370.5 321.8 370.5 326.1 374.9 326.1 380.2 326.1 385.5 321.7 389.8 316.4 389.8ZM316.4 371.9C311.8 371.9 308.1 375.6 308.1 380.2 308.1 384.8 311.8 388.5 316.4 388.5 321.1 388.5 324.8 384.8 324.8 380.2 324.8 375.6 321 371.9 316.4 371.9ZM385.8 379.3H383C382.8 379.3 382.7 379.4 382.6 379.4L377.6 386C377.3 386.4 377 386.8 376.8 387.1 376.6 386.8 376.3 386.4 376 386L370.8 379.4C370.7 379.4 370.7 379.3 370.5 379.3H367.8C367.6 379.3 367.4 379.4 367.4 379.5 367.4 379.7 367.4 379.9 367.5 379.9L375.2 390V399C375.2 399.2 375.4 399.4 375.6 399.4H378C378.3 399.4 378.4 399.2 378.4 399V389.9L386.1 379.9C386.2 379.7 386.2 379.5 386.2 379.4 386.1 379.4 386 379.3 385.8 379.3ZM408.1 379.3H391.3C391.1 379.3 390.9 379.4 390.9 379.7V381.7C390.9 382 391.1 382.2 391.3 382.2H398.1V399C398.1 399.2 398.3 399.4 398.5 399.4H400.9C401.2 399.4 401.3 399.2 401.3 399V382.2H408.1C408.4 382.2 408.5 382.1 408.5 381.8V379.8C408.5 379.5 408.4 379.3 408.1 379.3ZM353.6 379.3H345.7C345.5 379.3 345.3 379.4 345.3 379.7V399C345.3 399.2 345.5 399.4 345.7 399.4H348.1C348.3 399.4 348.5 399.2 348.5 399V395.7 394.5 391.6 391.1 382.1H353.9C356.9 382.1 359 384.1 359 386.9 359 389.7 356.9 391.6 353.8 391.6H353C353 391.6 352.7 391.6 352.6 391.8 352.6 391.9 352.6 392.1 352.6 392.1 352.6 392.7 352.6 393.5 352.6 394.1 352.6 394.1 352.6 394.3 352.6 394.4 352.7 394.5 352.9 394.5 353 394.5 353.1 394.5 353.4 394.5 353.6 394.5 354 394.5 358.1 394.8 360.6 391.6 362.1 389.7 362.2 387.4 362.2 386.9 362.4 382.4 358.8 379.3 353.6 379.3ZM418.4 387.3V379.7C418.4 379.4 418.2 379.3 417.9 379.3H415.6C415.3 379.3 415.1 379.4 415.1 379.7V399C415.1 399.2 415.3 399.4 415.6 399.4H417.9C418.2 399.4 418.4 399.2 418.4 399V390.2M431.6 379.3H429.2C428.9 379.3 428.8 379.4 428.8 379.7V387.3H422.2C422.1 387.3 421.9 387.4 421.9 387.6V389.8C421.9 390 422.1 390.2 422.2 390.2H428.8V399.1C428.8 399.3 428.9 399.5 429.2 399.5H431.6C431.8 399.5 432 399.3 432 399.1V379.7C432 379.5 431.8 379.3 431.6 379.3Z" />
  <path fill="#fff" fill-rule="evenodd"
    d="M426.435 217.549C432.425 217.549 437.284 212.697 437.284 206.718C437.284 200.851 432.425 196 426.435 196C420.445 196 415.699 200.851 415.586 206.718C415.586 200.851 410.726 196 404.736 196C398.86 196 394 200.851 394 206.831C394 212.81 398.86 217.549 404.736 217.662C398.747 217.662 394 222.513 394 228.492C394 234.472 398.86 239.323 404.849 239.323C410.839 239.323 415.699 234.472 415.699 228.492C415.699 222.513 410.839 217.774 404.962 217.662C410.839 217.662 415.699 212.81 415.699 206.944C415.699 212.81 420.445 217.549 426.435 217.549Z"
    clip-rule="evenodd" />
  <path fill="#fff"
    d="M426.4 239.2C432.4 239.2 437.3 234.4 437.3 228.4 437.3 222.4 432.4 217.5 426.4 217.5 420.4 217.5 415.6 222.4 415.6 228.4 415.6 234.4 420.4 239.2 426.4 239.2ZM479.9 200.9H475.4V228.6H479.9V200.9Z" />
  <path fill="#fff" fill-rule="evenodd"
    d="M459.1 215.1C460.1 214.1 461.4 213.5 462.7 213.5 464.1 213.5 465 213.8 465.8 214.5 466.6 215.2 467 216 467.2 217L471.2 215.5C470.7 213.8 469.8 212.4 468.3 211.2 466.8 210 464.9 209.4 462.6 209.4 459.9 209.4 457.6 210.3 455.7 212.2 453.9 214.2 453 216.5 453 219.4 453 222.2 453.9 224.5 455.7 226.5 457.6 228.4 459.9 229.3 462.6 229.3 464.9 229.3 466.8 228.7 468.3 227.5 469.7 226.2 470.7 224.9 471.3 223.2L467.5 221.7C467.2 222.6 466.7 223.4 465.9 224.1 465.1 224.8 464.1 225.1 462.7 225.1 461.2 225.1 460 224.5 459 223.5 458 222.5 457.5 221 457.5 219.2 457.6 217.5 458.1 216.1 459.1 215.1ZM490.2 223.6C491.2 224.7 492.4 225.2 493.9 225.2 495.4 225.2 496.6 224.7 497.6 223.6 498.7 222.6 499.2 221.2 499.2 219.2 499.2 217.4 498.7 216 497.6 215 496.6 213.9 495.4 213.4 493.9 213.4 492.4 213.4 491.2 213.9 490.2 215 489.2 216 488.7 217.4 488.7 219.2 488.6 221.2 489.2 222.6 490.2 223.6ZM493.9 209.4C496.7 209.4 499.1 210.3 500.9 212.2 502.7 214.2 503.7 216.5 503.7 219.4 503.7 222.3 502.8 224.7 501 226.5 499.2 228.4 496.8 229.3 494 229.3 491.2 229.3 488.9 228.4 487 226.5 485.2 224.5 484.3 222.2 484.3 219.4 484.3 216.5 485.2 214.2 487 212.2 488.7 210.3 491.1 209.4 493.9 209.4ZM517 228.6 524.3 209.9H519.6L514.7 223.2 509.7 209.9H504.9L512.4 228.6H517ZM530.1 217.2H539.2C539.2 216.1 538.8 215.1 538 214.3 537.2 213.5 536.1 213 534.6 213 533.2 213 532.2 213.5 531.3 214.3 530.6 215.2 530.2 216.2 530.1 217.2ZM539.8 222.2 543.5 223.4C543 225.1 541.9 226.6 540.5 227.7 539 228.8 537.2 229.4 535 229.4 532.3 229.4 530.1 228.5 528.3 226.7 526.5 224.9 525.5 222.4 525.5 219.4 525.5 216.5 526.5 214.2 528.3 212.2 530.1 210.4 532.2 209.5 534.7 209.5 537.5 209.5 539.8 210.4 541.4 212.1 543 213.8 543.9 216.2 543.9 219.2 543.9 220 543.9 220.5 543.7 220.7H530.1C530.1 222.1 530.6 223.3 531.7 224.2 532.7 225.1 533.8 225.6 535.3 225.6 537.5 225.3 539.1 224.3 539.8 222.2ZM559 214.4V209.9C558.7 209.8 558.2 209.8 557.8 209.8 556.5 209.8 555.4 210.1 554.5 210.7 553.5 211.2 552.8 212 552.3 213V210H548V228.7H552.4V219.8C552.4 216.2 554.1 214.3 557.4 214.3 558 214.3 558.5 214.3 559 214.4Z"
    clip-rule="evenodd" />
  <g fill="#fff" clip-path="url(#d)">
    <path
      d="M772 53.6C769.6 53.6 767.2 53.6 764.7 53.6 764 53.6 763.2 53.5 762.6 53.2 761.9 52.9 761.5 52.5 761.3 51.9 761.1 51.2 761 50.5 761 49.8 761 46.4 761 43 761 39.6 761 39 761.1 38.4 761.2 37.8 761.4 37.1 761.9 36.6 762.6 36.3 763.1 36.1 763.6 36 764 36 764.4 35.9 764.8 35.9 765.2 35.9 769.8 35.9 774.4 35.9 779.1 35.9 779.6 35.9 780.2 36 780.8 36.1 781.7 36.4 782.4 36.9 782.7 37.9 782.9 38.5 783 39.1 783 39.8 783 43.1 783 46.4 783 49.7 783 50.4 782.9 51 782.7 51.7 782.4 52.6 781.7 53.2 780.8 53.4 780.2 53.6 779.6 53.7 779 53.7 776.7 53.6 774.3 53.6 772 53.6ZM772 39.1C769.9 39.1 767.7 39.1 765.6 39.1 765.5 39.1 765.4 39.1 765.3 39.1 765.2 39.1 765.2 39.1 765.2 39.3 765.2 39.3 765.2 39.4 765.2 39.4 765.2 42.9 765.2 46.4 765.2 50 765.2 50.3 765.2 50.3 765.5 50.3 769.8 50.3 774.2 50.3 778.5 50.3 778.8 50.3 778.8 50.3 778.8 50 778.8 49.9 778.8 49.9 778.8 49.9 778.8 46.4 778.8 42.9 778.8 39.5 778.8 39.4 778.8 39.3 778.8 39.3 778.8 39.2 778.8 39.1 778.7 39.1 778.6 39.1 778.5 39.1 778.4 39.1 776.3 39.1 774.1 39.1 772 39.1ZM748.8 47C751.5 49.2 754.1 51.4 756.8 53.6 756.8 53.7 756.7 53.6 756.6 53.6 754.9 53.6 753.1 53.6 751.3 53.6 751.2 53.6 751 53.6 750.9 53.5 747.5 50.3 744.2 47.2 740.8 44.1 740.8 44.1 740.7 44.1 740.6 44 740.8 43.9 740.9 43.9 741 43.9 743.8 43.9 746.6 43.9 749.5 43.9 749.9 43.9 750.3 43.8 750.7 43.5 750.9 43.3 751.1 43.1 751.1 42.8 751.1 41.9 751.1 41 751.1 40.1 751.1 39.8 750.9 39.6 750.7 39.4 750.4 39.1 750.1 39 749.7 39 746.5 39 743.3 39 740.1 39 739.9 39 739.9 39 739.9 39.2 739.9 39.3 739.9 39.4 739.9 39.5 739.9 44.1 739.9 48.7 739.9 53.3 739.9 53.7 739.9 53.7 739.5 53.7 738.4 53.7 737.2 53.7 736.2 53.7 735.8 53.7 735.8 53.7 735.8 53.3 735.8 48.4 735.8 43.5 735.8 38.5 735.8 37.7 735.8 37 735.8 36.2 735.8 35.9 735.8 35.9 736 35.9 736.1 35.9 736.1 35.9 736.2 35.9 741.2 35.9 746.3 35.9 751.4 35.9 752 35.9 752.6 36 753.2 36.2 753.5 36.2 753.7 36.4 753.8 36.5 754.6 37.2 755.1 37.9 755.1 39 755.1 40.6 755.1 42.2 755.1 43.8 755.1 44.2 755 44.6 754.9 45 754.5 46 753.7 46.5 752.7 46.8 752.3 46.8 751.9 46.9 751.5 46.9 750.7 46.9 749.9 46.9 749.1 46.9 749 46.9 748.9 46.9 748.8 47ZM696.3 53.6C696.2 53.7 696.1 53.6 696 53.6 694.8 53.6 693.6 53.6 692.4 53.6 692 53.6 692.1 53.7 692.1 53.3 692.1 51 692.1 48.7 692.1 46.5 692.1 46 692.1 46 691.7 46 687.6 46 683.6 46 679.6 46 679.1 46 679.1 45.9 679.1 46.4 679.1 48.7 679.1 50.9 679.1 53.2 679.1 53.2 679.1 53.3 679.1 53.3 679.1 53.7 679.1 53.7 678.8 53.7 677.7 53.7 676.5 53.7 675.3 53.7 675 53.7 675 53.7 675 53.3 675 51.8 675 50.3 675 48.8 675 44.7 675 40.5 675 36.4 675 36.3 675 36.2 675 36.2 674.9 36 675 35.9 675.2 35.9 676.5 35.9 677.7 35.9 678.9 35.9 679.1 35.9 679.1 36 679.1 36.2 679.1 36.7 679.1 37.3 679.1 37.8 679.1 39.4 679.1 40.9 679.1 42.4 679.1 42.5 679.1 42.6 679.1 42.7 679.1 42.8 679.2 42.8 679.3 42.8 679.4 42.8 679.5 42.8 679.5 42.8 683.6 42.8 687.6 42.8 691.7 42.8 691.7 42.8 691.8 42.8 691.8 42.8 692.1 42.8 692.1 42.8 692.1 42.5 692.1 40.6 692.1 38.7 692.1 36.9 692.1 36.6 692.1 36.4 692.1 36.2 692.1 36 692.1 35.9 692.3 35.9 693.6 35.9 694.8 35.9 696.1 35.9 696.3 35.9 696.3 36 696.3 36.2 696.3 36.2 696.3 36.3 696.3 36.3 696.3 42 696.3 47.6 696.3 53.2 696.3 53.3 696.3 53.5 696.3 53.6Z" />
    <path
      d="M697 62.4C696.5 63 696 63.6 695.5 64.2 693.6 66.3 691.8 68.4 690 70.5 690 70.5 689.9 70.6 689.8 70.6 690.1 70 690.7 69.6 691 69 690.9 69 690.8 69 690.8 69.1 690.7 69.2 690.6 69.4 690.5 69.4 691.8 67.3 693.1 65.2 694.4 63 698.1 57 701.8 51 705.5 45.1 705.6 44.8 705.6 44.6 705.5 44.4 703.3 41 701.1 37.6 698.9 34.2 698.8 34 698.7 33.9 698.9 33.6 699.1 33.1 699.2 32.6 699.4 32.1 699.5 32.1 699.5 32.2 699.6 32.3 701.9 36.4 704.2 40.4 706.5 44.5 706.6 44.7 706.6 44.9 706.5 45 703.7 49.2 701 53.4 698.3 57.6 695.9 61.2 693.6 64.8 691.2 68.4 691.2 68.5 691.1 68.6 691.1 68.7 691 68.8 690.9 68.9 691 69 691.1 69.1 691.1 68.9 691.2 68.8 691.6 68.2 692.1 67.6 692.6 67 698.2 59.5 703.9 52 709.6 44.4 709.6 44.3 709.6 44.3 709.7 44.3 709.8 44.1 709.8 44 709.7 43.9 709.6 43.8 709.6 43.7 709.5 43.6 707.1 39.5 704.7 35.3 702.3 31.2 702.3 31.1 702.2 31 702.2 30.9 702.3 30.8 702.3 30.8 702.4 30.8 706.3 30.8 710.1 30.8 714 30.8 714.2 30.8 714.3 30.9 714.4 31.2 715.4 32.9 716.4 34.6 717.4 36.4 717.4 36.5 717.5 36.6 717.6 36.7 720.2 34.3 722.9 31.9 725.5 29.4L725.6 29.5C722.5 33 719.5 36.5 716.4 40 716.3 39.9 716.3 39.8 716.2 39.7 715.1 37.8 714 35.9 712.9 33.9 712.7 33.7 712.6 33.6 712.3 33.6 710.7 33.6 709 33.6 707.3 33.6 707.2 33.6 707.1 33.6 707 33.6 706.9 33.7 707.1 33.8 707.1 33.9 709 37.2 710.9 40.4 712.8 43.7 713 44.1 713 43.9 712.7 44.3 708.3 49.4 704 54.4 699.6 59.5 699.5 59.5 699.5 59.6 699.4 59.7 698.9 60.2 698.5 60.7 698.1 61.2 697.7 61.6 697.3 62 697 62.4ZM736 25.6C736.6 25 737.1 24.4 737.7 23.8 738.8 22.4 740 21 741.2 19.7 741.3 19.6 741.3 19.6 741.4 19.5 741.4 19.6 741.4 19.6 741.4 19.6 741.4 19.7 741.2 19.8 741.3 19.9 741.2 20 741.1 20 741.1 20.2 740.9 20.3 740.8 20.4 740.8 20.6 740.7 20.5 740.7 20.7 740.6 20.8 739.9 21.7 739.2 22.6 738.6 23.5 733.3 30.5 728 37.6 722.7 44.6 722.5 44.9 722.5 45 722.6 45.3 725.1 49.7 727.7 54 730.2 58.4 730.2 58.5 730.3 58.6 730.3 58.7 730.2 58.7 730.1 58.7 729.9 58.7 726.2 58.7 722.4 58.7 718.6 58.7 718.3 58.7 718.1 58.6 718 58.4 717 56.6 716 54.9 715 53.1 715 53.1 715 53 714.8 52.9 714.8 53 714.6 53.1 714.5 53.2 711.9 55.4 709.2 57.6 706.6 59.9 706.5 60 706.3 60.1 706.2 60.2 706.2 60.1 706.3 60 706.3 59.9 709.4 56.3 712.6 52.8 715.6 49.2 715.7 49.1 715.8 49.1 715.8 49 716 49.1 716 49.3 716.1 49.4 717.3 51.4 718.5 53.5 719.7 55.6 719.8 55.9 720 56 720.2 56 721.9 55.9 723.5 56 725.2 56 725.3 56 725.4 56 725.6 56 725.6 55.8 725.5 55.7 725.4 55.6 723.5 52.2 721.5 48.7 719.5 45.3 719.5 45.3 719.5 45.3 719.5 45.3 719.3 44.9 719.3 45 719.6 44.7 720.5 43.6 721.4 42.6 722.4 41.4 726.1 37.1 729.9 32.8 733.6 28.5 733.6 28.5 733.7 28.4 733.7 28.4 733.8 28.3 733.8 28.3 733.9 28.2 734.5 27.5 735.2 26.7 735.9 26 735.9 25.8 736 25.8 736 25.6Z" />
    <path
      d="M736 25.6C736 25.7 735.9 25.8 735.8 25.9 735.1 26.7 734.5 27.4 733.8 28.2 733.8 28.2 733.7 28.3 733.7 28.3 731.9 26.4 730 24.7 727.8 23.2 725.1 21.4 722.2 20.1 719 19.4 717.2 19 715.3 18.8 713.4 18.9 708 19.1 703.1 20.9 698.9 24.2 698.5 24.4 698.2 24.7 697.9 25 697.8 25.1 697.5 25.1 697.5 25.3 697.7 25.2 697.9 24.9 698.1 24.7 700.8 21.9 704.1 19.8 707.9 18.4 710.9 17.4 714 16.9 717.2 17 720.5 17.2 723.6 17.9 726.5 19.1 729.7 20.4 732.5 22.2 734.9 24.5 735.3 24.9 735.7 25.2 736 25.6ZM697 62.4C697.3 62 697.7 61.6 698.1 61.2 698.5 60.7 698.9 60.1 699.4 59.7 702.6 63.2 706.3 66 710.8 67.7 712.5 68.3 714.2 68.8 715.9 69 717.4 69.2 719 69.2 720.5 69.1 723.6 68.9 726.6 68.1 729.4 66.8 731.2 65.9 732.9 64.9 734.5 63.6 734.5 63.6 734.6 63.5 734.8 63.4 734.8 63.6 734.7 63.7 734.6 63.8 733.7 64.6 732.8 65.4 731.8 66.1 728.7 68.4 725.2 69.9 721.4 70.6 719.7 70.9 718 71.1 716.3 71.1 712.9 71 709.6 70.2 706.4 68.9 703.7 67.8 701.1 66.2 698.8 64.3 698.2 63.6 697.6 63 697 62.4ZM740.8 20.6C740.8 20.6 741 20.5 740.9 20.6 740.9 20.7 740.8 20.8 740.8 20.9 736.5 27.8 732.3 34.7 728 41.6 727.5 42.6 726.9 43.5 726.3 44.5 726.1 44.7 726.1 44.9 726.3 45.1 728.5 48.6 730.8 52.2 733 55.7 733.2 55.9 733.2 56.1 733.1 56.4 733 56.8 732.9 57.2 732.8 57.6 732.8 57.6 732.8 57.7 732.7 57.8 732.6 57.7 732.6 57.6 732.5 57.5 730.1 53.3 727.7 49.1 725.3 45 725.1 44.7 725.2 44.6 725.3 44.4 729.2 38.5 733.1 32.6 736.9 26.6 738.2 24.7 739.5 22.7 740.7 20.8 740.8 20.8 740.9 20.7 740.8 20.6 740.8 20.6 740.8 20.6 740.8 20.6ZM734.8 63.3C734.9 63.2 735.1 63.1 735.2 63 735.1 63.2 735 63.3 734.9 63.4 734.9 63.4 734.9 63.3 734.8 63.3ZM741.1 20.3C741.1 20.2 741.1 20.2 741.1 20.1 741.2 20.2 741.2 20.1 741.2 20 741.2 20.2 741.2 20.2 741.1 20.3ZM690.5 69.4C690.5 69.5 690.5 69.6 690.4 69.6 690.4 69.6 690.5 69.5 690.5 69.4 690.5 69.4 690.5 69.4 690.5 69.4ZM741.4 19.4C741.5 19.4 741.5 19.3 741.5 19.4 741.6 19.4 741.5 19.4 741.5 19.5 741.5 19.5 741.4 19.5 741.4 19.4ZM741.3 19.9C741.3 20 741.3 20 741.3 20 741.3 20 741.3 20 741.3 19.9 741.3 19.9 741.3 19.9 741.3 19.9ZM741.1 20.3C741.1 20.3 741.1 20.4 741 20.4 741 20.4 741.1 20.3 741.1 20.3Z" />
    <path
      d="M741.4 19.5C741.4 19.5 741.4 19.5 741.4 19.4L741.5 19.5C741.5 19.5 741.4 19.6 741.4 19.6 741.4 19.6 741.4 19.6 741.4 19.5ZM741.4 19.8V19.8 19.8C741.4 19.8 741.4 19.8 741.4 19.8ZM741.3 19.9C741.4 19.9 741.4 19.8 741.4 19.8 741.4 19.9 741.4 19.9 741.3 19.9ZM741 20.4C741 20.4 741 20.4 741 20.5L741 20.4C741 20.4 741 20.4 741 20.4ZM706.2 60.1C706.1 60.2 706.1 60.2 706.1 60.2 706.1 60.2 706.1 60.1 706.2 60.1ZM734.9 63.4C734.9 63.4 734.8 63.4 734.8 63.4 734.8 63.4 734.8 63.4 734.8 63.3 734.9 63.3 734.9 63.4 734.9 63.4ZM691.2 68.8C691.1 68.9 691.1 69 691 69 690.9 68.9 691 68.8 691.1 68.7 691.1 68.7 691.1 68.8 691.2 68.8ZM741.3 19.9C741.3 20 741.3 20 741.3 20 741.2 20 741.2 20.2 741.1 20.1 741.1 20 741.2 20 741.3 19.9Z" />
  </g>
  <path fill="#fff" fill-rule="evenodd"
    d="M375.363 98.3839L390.768 113.661C391.151 114.042 391.151 114.659 390.768 115.039C390.576 115.229 390.325 115.324 390.073 115.324V115.324H374.662C374.119 115.324 373.679 114.888 373.679 114.35V99.0664C373.679 98.5281 374.119 98.0918 374.662 98.0918C374.936 98.0918 375.185 98.2038 375.363 98.3839ZM387.701 113.375L375.645 101.419V113.375H387.701Z"
    clip-rule="evenodd" />
  <path fill="#fff" fill-rule="evenodd"
    d="M404.783 130.316L389.379 115.038C388.995 114.658 388.995 114.041 389.379 113.661C389.57 113.47 389.822 113.375 390.073 113.375V113.375H405.484C406.027 113.375 406.467 113.811 406.467 114.35V129.633C406.467 130.171 406.027 130.608 405.484 130.608C405.21 130.608 404.961 130.496 404.783 130.316ZM392.445 115.324L404.502 127.281V115.324H392.445Z"
    clip-rule="evenodd" />
  <path fill="#fff" fill-rule="evenodd"
    d="M375.645 127.281L387.701 115.324H375.645V127.281ZM390.768 115.038L375.363 130.316C375.185 130.496 374.936 130.608 374.662 130.608C374.119 130.608 373.679 130.171 373.679 129.633V114.35C373.679 113.811 374.119 113.375 374.662 113.375H390.073V113.375C390.325 113.375 390.576 113.47 390.768 113.661C391.151 114.041 391.151 114.658 390.768 115.038Z"
    clip-rule="evenodd" />
  <path fill="#fff" fill-rule="evenodd"
    d="M389.091 116.702L377.034 128.659H389.091V116.702ZM373.967 128.944L389.372 113.667C389.55 113.487 389.798 113.375 390.073 113.375C390.616 113.375 391.056 113.811 391.056 114.35V129.633C391.056 130.171 390.616 130.608 390.073 130.608H374.662V130.608C374.411 130.608 374.159 130.512 373.967 130.322C373.584 129.942 373.584 129.325 373.967 128.944Z"
    clip-rule="evenodd" />
  <path fill="#fff" fill-rule="evenodd"
    d="M404.502 101.419L392.445 113.375H404.502V101.419ZM389.379 113.661L404.783 98.3839C404.961 98.2038 405.21 98.0918 405.484 98.0918C406.027 98.0918 406.467 98.5281 406.467 99.0664V114.35C406.467 114.888 406.027 115.324 405.484 115.324H390.073V115.324C389.822 115.324 389.57 115.229 389.379 115.039C388.995 114.659 388.995 114.042 389.379 113.661Z"
    clip-rule="evenodd" />
  <path fill="#fff" fill-rule="evenodd"
    d="M391.1 112 403.1 100H391.1V112ZM406.2 99.8 390.8 115C390.6 115.2 390.3 115.3 390.1 115.3 389.5 115.3 389.1 114.9 389.1 114.4V99.1C389.1 98.5 389.5 98.1 390.1 98.1H405.5V98.1C405.7 98.1 406 98.2 406.2 98.4 406.6 98.8 406.6 99.4 406.2 99.8ZM415.7 135.6C413.5 135.6 411.6 136.6 410.4 138.2H410.3V136.1H406.6V152.4H410.4V144.1C410.4 141.3 412.3 139.3 414.8 139.3 417.1 139.3 418.7 141 418.7 143.6V152.4H422.5V143C422.5 138.4 419.8 135.6 415.7 135.6ZM433.7 135.6C428.7 135.6 425.2 139.4 425.2 144.2 425.2 148.9 428.3 152.8 433.7 152.8 437.6 152.8 440.8 150.8 441.9 147.3H437.9C437.3 148.6 435.7 149.4 433.8 149.4 431.2 149.3 429.4 147.6 429.1 145.5H442.1C442.6 139.9 439.2 135.6 433.7 135.6ZM433.7 139.1C436 139.1 437.7 140.4 438.2 142.4H429.2C429.7 140.4 431.4 139.1 433.7 139.1ZM453.1 152.8C458.4 152.8 461.9 149 461.9 144.2 461.9 139.4 458.4 135.6 453.1 135.6 447.8 135.6 444.2 139.4 444.2 144.2 444.2 149 447.8 152.8 453.1 152.8ZM453.1 149.2C450.1 149.2 448.1 147 448.1 144.2 448.1 141.4 450.1 139.3 453.1 139.3 456.1 139.3 458.1 141.4 458.1 144.2 458.1 147 456.1 149.2 453.1 149.2ZM474 135.6C471.8 135.6 469.8 136.6 468.7 138.2H468.5V136.1H464.8V152.4H468.6V144.1C468.6 141.3 470.5 139.3 473 139.3 475.4 139.3 476.9 141 476.9 143.6V152.4H480.7V143C480.7 138.4 478.1 135.6 474 135.6Z"
    clip-rule="evenodd" />
  <g fill="#fff" clip-path="url(#e)">
    <path
      d="M545.7 390.9H542.3V403.4H537.6V390.9H535.2V386.9H537.6V385.4C537.6 381.3 540.2 379.3 544 379.3 544.6 379.3 545.2 379.3 545.8 379.5V384.1C545.3 383.9 544.7 383.8 544.2 383.8 543.9 383.8 543.7 383.8 543.5 383.9 543.2 384 543 384.1 542.8 384.3 542.7 384.5 542.5 384.7 542.4 384.9 542.4 385.2 542.3 385.4 542.3 385.7V386.9H545.7L545.7 390.9ZM552.7 403.4H548V379.6H552.7V403.4ZM563.3 385.9C565 385.9 566.8 386.4 568.3 387.4 569.7 388.4 570.9 389.8 571.6 391.4 572.3 393.1 572.4 394.9 572.1 396.6 571.7 398.3 570.9 399.9 569.6 401.2 568.4 402.5 566.8 403.3 565 403.7 563.3 404 561.5 403.8 559.8 403.1 558.2 402.5 556.8 401.3 555.8 399.8 554.8 398.4 554.3 396.6 554.3 394.8 554.3 393.7 554.5 392.5 555 391.4 555.4 390.3 556.1 389.3 556.9 388.5 557.7 387.6 558.7 387 559.8 386.5 560.9 386.1 562.1 385.9 563.3 385.9ZM563.3 399.2C565.7 399.2 567.4 397.2 567.4 394.8 567.5 394.3 567.4 393.7 567.2 393.2 567 392.7 566.7 392.2 566.3 391.8 565.9 391.4 565.4 391 564.9 390.8 564.4 390.6 563.8 390.5 563.3 390.5 562.1 390.5 561.1 391 560.3 391.8 559.5 392.6 559 393.7 559 394.9 559 396 559.5 397.1 560.3 397.9 561.1 398.7 562.1 399.2 563.3 399.2ZM577.2 386.2 580.2 397.7 583.3 388.6 582.4 386.2H587.1L591.1 397.7 594.1 386.2H599L593.8 403.4H588.9L585.5 394 582.3 403.4H577.4L572.3 386.2H577.2Z" />
    <path fill-rule="evenodd"
      d="M526.07 391C526.07 405.359 514.414 417 500.035 417C485.656 417 474 405.359 474 391C474 376.641 485.656 365 500.035 365C514.414 365 526.07 376.641 526.07 391ZM506.866 383.261H515.135V375.919H506.866C504.187 375.922 501.618 376.986 499.723 378.878C497.828 380.77 496.762 383.336 496.76 386.012V386.933H504.107V386.012C504.108 385.282 504.4 384.582 504.917 384.067C505.434 383.551 506.135 383.261 506.866 383.261ZM496.295 398.557C496.598 398.104 496.76 397.571 496.76 397.026V394.27H504.107V397.026C504.107 399.022 503.514 400.973 502.404 402.633C501.293 404.293 499.715 405.587 497.868 406.351C496.021 407.115 493.989 407.315 492.028 406.925C490.068 406.536 488.267 405.574 486.853 404.163C485.44 402.751 484.477 400.953 484.087 398.995C483.698 397.037 483.898 395.008 484.663 393.163C485.428 391.319 486.723 389.743 488.385 388.634C490.047 387.525 492.001 386.933 494 386.933H496.76V394.27H494C493.454 394.27 492.921 394.431 492.467 394.734C492.013 395.037 491.659 395.468 491.45 395.971C491.242 396.475 491.187 397.029 491.293 397.563C491.4 398.098 491.663 398.589 492.049 398.975C492.435 399.36 492.926 399.623 493.462 399.729C493.997 399.835 494.552 399.781 495.056 399.572C495.56 399.363 495.991 399.01 496.295 398.557ZM504.107 386.933H511.459V394.275H504.107V386.933Z"
      clip-rule="evenodd" />
    <path d="M496.76 394.271H504.107V386.934H496.76V394.271Z" />
  </g>
  <path fill="#fff" fill-rule="evenodd"
    d="M83.9493 105.796C84.0982 105.718 84.2643 105.678 84.4332 105.677L93.7834 105.703C93.9523 105.704 94.1184 105.744 94.2674 105.822C94.4164 105.899 94.5436 106.01 94.638 106.146C94.7324 106.282 94.7911 106.439 94.809 106.602C94.8268 106.765 94.8033 106.93 94.7404 107.082C89.5703 119.903 89.5703 134.148 94.7404 146.969C94.8033 147.122 94.8268 147.286 94.809 147.45C94.7911 147.613 94.7324 147.769 94.638 147.905C94.5436 148.041 94.4164 148.153 94.2674 148.23C94.1184 148.307 93.9523 148.347 93.7834 148.348H84.4332C84.2632 148.345 84.0967 148.301 83.9482 148.22C83.7997 148.14 83.6739 148.025 83.5816 147.886C83.4893 147.748 83.4334 147.589 83.4189 147.425C83.4043 147.26 83.4316 147.095 83.4981 146.943C86.0441 140.585 87.3497 133.823 87.3482 127.002C87.3414 120.177 86.0264 113.413 83.4706 107.055C83.409 106.903 83.3866 106.738 83.4053 106.575C83.424 106.412 83.4833 106.255 83.5781 106.12C83.6729 105.984 83.8003 105.873 83.9493 105.796ZM85.6598 127.002C85.6702 120.331 82.991 113.921 78.1961 109.145C78.0212 108.975 77.7838 108.879 77.5361 108.878H71.3869C71.1433 108.878 70.9097 108.972 70.7374 109.139C70.5652 109.307 70.4684 109.534 70.4684 109.77V115.91C70.465 116.14 70.5526 116.363 70.7131 116.533C70.8737 116.703 71.0951 116.807 71.3319 116.823C73.9729 117.027 76.4379 118.19 78.2355 120.08C80.0332 121.971 81.0316 124.45 81.0316 127.024C81.0316 129.597 80.0332 132.076 78.2355 133.967C76.4379 135.857 73.9729 137.02 71.3319 137.224C71.1031 137.238 70.888 137.335 70.7284 137.495C70.5688 137.655 70.4761 137.867 70.4684 138.089V144.229C70.4662 144.348 70.4883 144.466 70.5334 144.576C70.5786 144.686 70.6458 144.787 70.7312 144.872C70.8167 144.957 70.9186 145.025 71.0312 145.071C71.1437 145.118 71.2647 145.142 71.3869 145.143H77.5361C77.6593 145.143 77.7814 145.119 77.8948 145.072C78.0082 145.025 78.1107 144.956 78.1961 144.87C82.9942 140.092 85.6737 133.677 85.6598 127.002ZM107.781 138.089C107.779 137.863 107.689 137.646 107.529 137.481C107.369 137.317 107.15 137.217 106.918 137.202C104.277 136.999 101.812 135.836 100.014 133.946C98.2165 132.055 97.2182 129.576 97.2182 127.002C97.2182 124.429 98.2165 121.949 100.014 120.059C101.812 118.168 104.277 117.006 106.918 116.802C107.151 116.786 107.369 116.685 107.529 116.52C107.689 116.354 107.779 116.137 107.781 115.91V109.77C107.781 109.534 107.685 109.307 107.512 109.139C107.34 108.972 107.106 108.878 106.863 108.878H100.714C100.466 108.879 100.229 108.975 100.054 109.145C95.2682 113.926 92.5909 120.331 92.5909 127C92.5909 133.668 95.2682 140.073 100.054 144.854C100.139 144.94 100.242 145.009 100.355 145.056C100.468 145.103 100.59 145.127 100.714 145.127H106.863C107.107 145.125 107.341 145.03 107.513 144.862C107.685 144.694 107.781 144.466 107.781 144.229V138.089Z"
    clip-rule="evenodd" />
  <path fill="#fff"
    d="M135.1 137.1 138.8 119.3H143.3L147.6 137.1H144.8L140.4 119.3H141.5L137.8 137.1H135.1ZM133.4 137.1V134.4H137.2V137.1H133.4ZM132.6 137.1 127.4 118.6H130.6L135.6 137.1H132.6ZM145.5 137.1V134.4H149.3V137.1H145.5ZM147 137.1 151.4 118.6H154.4L149.9 137.1H147ZM171.6 137.7C169.9 137.7 168.5 137.4 167.3 136.9 166.1 136.3 165.1 135.6 164.2 134.7 163.4 133.8 162.7 132.7 162.3 131.6 161.9 130.5 161.7 129.3 161.7 128.2V127.5C161.7 126.4 161.9 125.2 162.3 124.1 162.8 122.9 163.4 121.9 164.3 121 165.1 120.1 166.2 119.4 167.4 118.8 168.6 118.3 170 118 171.6 118 173.1 118 174.5 118.3 175.7 118.8 176.9 119.4 178 120.1 178.8 121 179.7 121.9 180.3 122.9 180.8 124.1 181.2 125.2 181.4 126.4 181.4 127.5V128.2C181.4 129.3 181.2 130.5 180.8 131.6 180.4 132.7 179.7 133.8 178.9 134.7 178 135.6 177 136.3 175.8 136.9 174.6 137.4 173.2 137.7 171.6 137.7ZM171.6 134.7C172.9 134.7 174.1 134.4 175.1 133.8 176.1 133.2 176.8 132.4 177.3 131.3 177.8 130.3 178.1 129.1 178.1 127.9 178.1 126.5 177.8 125.4 177.3 124.3 176.8 123.3 176 122.5 175 121.9 174.1 121.3 172.9 121 171.6 121 170.2 121 169.1 121.3 168.1 121.9 167.1 122.5 166.3 123.3 165.8 124.3 165.3 125.4 165 126.5 165 127.9 165 129.1 165.3 130.3 165.8 131.3 166.3 132.4 167 133.2 168 133.8 169 134.4 170.2 134.7 171.6 134.7ZM190.9 137.1V118.6H193.5V126.2H193.4C193.4 123.5 193.9 121.6 195.1 120.3 196.3 119.1 198.1 118.4 200.5 118.4H201.1V121.4H199.9C198.1 121.4 196.7 121.9 195.7 122.9 194.7 123.8 194.2 125.3 194.2 127.1V137.1H190.9ZM209.5 137.1V118.6H212.1V126.5H211.7C211.7 124.7 211.9 123.2 212.4 122 212.9 120.7 213.6 119.8 214.5 119.1 215.5 118.4 216.7 118.1 218.1 118.1H218.3C219.7 118.1 220.9 118.4 221.9 119.1 222.8 119.8 223.5 120.7 224 122 224.5 123.2 224.7 124.7 224.7 126.5H223.7C223.7 124.7 224 123.2 224.4 122 224.9 120.7 225.6 119.8 226.6 119.1 227.5 118.4 228.8 118.1 230.2 118.1H230.3C231.8 118.1 233 118.4 234 119.1 234.9 119.8 235.6 120.7 236.1 122 236.6 123.2 236.8 124.7 236.8 126.5V137.1H233.5V125.8C233.5 124.3 233.1 123.2 232.4 122.4 231.7 121.5 230.7 121.1 229.3 121.1 228 121.1 226.9 121.6 226.1 122.4 225.2 123.3 224.8 124.5 224.8 126V137.1H221.5V125.8C221.5 124.3 221.1 123.2 220.4 122.4 219.7 121.5 218.6 121.1 217.3 121.1 216 121.1 214.9 121.6 214.1 122.4 213.2 123.3 212.8 124.5 212.8 126V137.1H209.5ZM247.4 137.1V111.9H250.7V126.9H249.9C249.9 125.1 250.1 123.5 250.5 122.2 251 120.9 251.8 119.9 252.8 119.2 253.7 118.4 255 118.1 256.6 118.1H256.7C258.9 118.1 260.6 118.8 261.7 120.3 262.8 121.7 263.4 123.8 263.4 126.5V137.1H260.1V125.9C260.1 124.4 259.6 123.2 258.8 122.4 258 121.5 256.9 121.1 255.6 121.1 254.1 121.1 252.9 121.6 252 122.6 251.1 123.6 250.7 124.9 250.7 126.4V137.1H247.4ZM282.4 137.7C280.8 137.7 279.4 137.4 278.2 136.9 277 136.3 275.9 135.6 275.1 134.7 274.2 133.8 273.6 132.7 273.2 131.6 272.8 130.5 272.5 129.3 272.5 128.2V127.5C272.5 126.4 272.8 125.2 273.2 124.1 273.6 122.9 274.3 121.9 275.1 121 276 120.1 277 119.4 278.2 118.8 279.5 118.3 280.9 118 282.4 118 284 118 285.4 118.3 286.6 118.8 287.8 119.4 288.8 120.1 289.7 121 290.5 121.9 291.2 122.9 291.6 124.1 292.1 125.2 292.3 126.4 292.3 127.5V128.2C292.3 129.3 292.1 130.5 291.6 131.6 291.2 132.7 290.6 133.8 289.7 134.7 288.9 135.6 287.9 136.3 286.7 136.9 285.4 137.4 284 137.7 282.4 137.7ZM282.4 134.7C283.8 134.7 285 134.4 285.9 133.8 286.9 133.2 287.7 132.4 288.2 131.3 288.7 130.3 289 129.1 289 127.9 289 126.5 288.7 125.4 288.2 124.3 287.6 123.3 286.9 122.5 285.9 121.9 284.9 121.3 283.8 121 282.4 121 281.1 121 279.9 121.3 278.9 121.9 277.9 122.5 277.2 123.3 276.7 124.3 276.1 125.4 275.9 126.5 275.9 127.9 275.9 129.1 276.1 130.3 276.6 131.3 277.1 132.4 277.9 133.2 278.9 133.8 279.9 134.4 281 134.7 282.4 134.7ZM301.9 137.1V111.9H305.2V137.1H301.9ZM299.4 114.5V111.9H305.2V114.5H299.4ZM323.9 137.7C322.3 137.7 320.9 137.4 319.7 136.9 318.6 136.3 317.6 135.6 316.9 134.7 316.1 133.8 315.6 132.7 315.2 131.6 314.9 130.5 314.7 129.3 314.7 128.2V127.5C314.7 126.3 314.9 125.2 315.2 124.1 315.6 122.9 316.1 121.9 316.9 121 317.6 120.1 318.5 119.4 319.7 118.8 320.8 118.3 322.2 118 323.7 118 325.7 118 327.4 118.5 328.6 119.3 330 120.2 330.9 121.3 331.5 122.6 332.2 124 332.5 125.4 332.5 127V128.5H316.2V126H330.1L329.3 127.3C329.3 126 329.1 124.9 328.7 124 328.3 123 327.7 122.2 326.8 121.7 326 121.2 325 120.9 323.7 120.9 322.4 120.9 321.3 121.2 320.4 121.8 319.6 122.4 318.9 123.2 318.5 124.3 318.1 125.3 317.9 126.5 317.9 127.9 317.9 129.2 318.1 130.3 318.5 131.4 318.9 132.4 319.6 133.3 320.5 133.9 321.4 134.5 322.5 134.8 323.9 134.8 325.4 134.8 326.5 134.5 327.4 133.8 328.4 133.2 328.9 132.4 329.1 131.6H332.2C331.9 132.8 331.4 133.9 330.7 134.9 329.9 135.8 329 136.5 327.8 137 326.7 137.4 325.4 137.7 323.9 137.7Z" />
  <g fill="#fff" clip-path="url(#f)">
    <path
      d="M614.8 234.2H606V201.3H612.8C617.7 201.3 619.7 201.6 621.7 202.9 624.1 204.4 625.4 207 625.4 210.1 625.4 213.2 624.4 214.9 621.8 216.3 626 218 627.4 220.5 627.4 224.4 627.4 230.4 623.3 234.2 614.8 234.2ZM614.6 207.2H612.1V214H614.1C617.8 214 619.3 213 619.3 210.6 619.3 208.3 617.8 207.2 614.6 207.2ZM615 220H612.1V228.4H615.1C619.4 228.4 621.3 227.2 621.3 224.3 621.3 221.3 619.3 220 615 220ZM629.8 234.2V209.5H635.7V234.2H629.8ZM629.8 205.9V200H635.8V205.9H629.8ZM651.5 234.8C644.2 234.8 638.3 229.1 638.3 221.9 638.3 214.6 644 208.9 651.3 208.9 656.9 208.9 661.8 212.1 663.8 217.8H657.1C655.9 215.5 654 214.4 651.3 214.4 647.2 214.4 644.3 217.5 644.3 221.8 644.3 226.2 647.4 229.4 651.5 229.4 653.9 229.4 655.6 228.4 657.1 226.1H663.8C661.7 231.7 657.2 234.8 651.5 234.8ZM678.6 234.8C671.4 234.8 665.5 229 665.5 221.9 665.5 214.8 671.4 208.9 678.5 208.9 686 208.9 691.7 214.7 691.7 222.1 691.7 229 685.7 234.8 678.6 234.8ZM678.6 214.4C674.7 214.4 671.4 217.7 671.4 221.8 671.4 226.1 674.6 229.4 678.6 229.4 682.6 229.4 685.8 226.1 685.8 221.9 685.7 217.8 682.5 214.4 678.6 214.4ZM710.1 234.2V222.1C710.1 215.5 708.3 214.4 705.4 214.4 703.5 214.4 701.9 215.2 701 216.6 700.2 217.9 700 219.3 700 222.6V234.2H694.1V209.5H699.6V211.9C701.7 209.8 703.7 208.9 706.5 208.9 709.9 208.9 712.6 210.2 714.2 212.5 715.6 214.4 716 216.6 716 221V234.2H710.1ZM731.5 234.8C724.3 234.8 718.4 229 718.4 221.9 718.4 214.8 724.3 208.9 731.5 208.9 738.9 208.9 744.7 214.7 744.7 222.1 744.6 229 738.7 234.8 731.5 234.8ZM731.5 214.4C727.6 214.4 724.4 217.7 724.4 221.8 724.4 226 727.5 229.4 731.5 229.4 735.5 229.4 738.7 226 738.7 221.9 738.7 217.8 735.5 214.4 731.5 214.4ZM778.1 234.2V220.7C778.1 215.7 776.3 214.4 773.5 214.4 770.2 214.4 768.5 216.2 768.5 222.1V234.2H762.6V220.7C762.6 215.8 760.9 214.4 757.7 214.4 754.3 214.4 752.9 216.2 752.9 222.1V234.2H747V209.5H752.4V211.8C754.1 209.7 755.9 208.9 758.8 208.9 762.2 208.9 764.4 210.1 766.1 212.8 768.1 210.1 770.6 208.9 774 208.9 780.6 208.9 784 212.6 784 220V234.2H778.1ZM794.9 242.5H788.5L793.1 231.9 784.1 209.5H790.8L796.3 225.6 802.3 209.5H809.1L794.9 242.5Z" />
  </g>
  <path fill="#fff" fill-rule="evenodd"
    d="M657.005 368H657.006C668.054 368 677.011 376.931 677.011 387.947C677.011 398.964 668.054 407.895 657.006 407.895H657.005C655.806 407.895 654.631 407.79 653.491 407.588V398.756H657.35C659.438 398.756 661.186 398.381 662.594 397.63C664.002 396.88 665.046 395.899 665.726 394.689C666.405 393.454 666.745 392.099 666.745 390.622C666.745 389.025 666.393 387.608 665.689 386.374C664.985 385.139 663.929 384.171 662.521 383.469C661.113 382.767 659.39 382.416 657.35 382.416H647.264V405.374C641.14 401.964 637 395.438 637 387.947C637 376.931 645.956 368 657.005 368ZM666.874 375.958H647.264V380.061H666.874V375.958ZM656.877 393.817C658.066 393.817 658.953 393.539 659.535 392.982C660.118 392.426 660.409 391.639 660.409 390.622C660.409 389.605 660.118 388.819 659.535 388.262C658.953 387.705 658.066 387.427 656.877 387.427H653.491V393.817H656.877Z"
    clip-rule="evenodd" />
  <path fill="#fff"
    d="M693.9 403.6C692 403.6 690.3 403.3 688.8 402.7 687.3 402.1 686.1 401.2 685.2 400 684.3 398.8 683.8 397.3 683.8 395.6H690.5C690.6 396.6 691 397.3 691.5 397.8 692.1 398.3 692.8 398.6 693.8 398.6 694.7 398.6 695.4 398.4 696 398 696.5 397.5 696.8 396.9 696.8 396.1 696.8 395.5 696.6 395 696.1 394.6 695.7 394.1 695.2 393.8 694.5 393.5 693.9 393.3 693 392.9 691.9 392.6 690.2 392.1 688.8 391.6 687.8 391.1 686.7 390.5 685.8 389.8 685 388.8 684.2 387.8 683.9 386.4 683.9 384.8 683.9 382.4 684.7 380.5 686.5 379.2 688.2 377.8 690.5 377.1 693.3 377.1 696.2 377.1 698.5 377.8 700.3 379.2 702 380.5 703 382.4 703.1 384.9H696.2C696.2 384 695.9 383.4 695.3 382.9 694.7 382.4 694 382.2 693.1 382.2 692.4 382.2 691.7 382.4 691.3 382.8 690.8 383.2 690.6 383.8 690.6 384.5 690.6 385.4 691 386 691.8 386.5 692.5 386.9 693.8 387.4 695.5 388 697.1 388.6 698.5 389.1 699.5 389.6 700.6 390.1 701.5 390.9 702.3 391.9 703 392.9 703.4 394.1 703.4 395.7 703.4 397.1 703 398.5 702.3 399.7 701.5 400.9 700.4 401.9 699 402.6 697.6 403.3 695.9 403.6 693.9 403.6ZM726 377.5V382.5H719.1V403.4H712.8V382.5H705.9V377.5H726ZM745.4 398.8H735.7L734.1 403.4H727.5L736.9 377.5H744.2L753.6 403.4H746.9L745.4 398.8ZM743.7 393.9 740.5 384.4 737.3 393.9H743.7ZM771.6 403.4 762.8 391.9V403.4H756.5V377.5H762.8V388.8L771.5 377.5H778.9L768.9 390.2 779.3 403.4H771.6ZM788.6 382.5V387.8H797.1V392.6H788.6V398.3H798.2V403.4H782.3V377.5H798.2V382.5H788.6Z" />
  <path fill="#fff" fill-opacity=".9" fill-rule="evenodd"
    d="M757.19 114L745.095 148H739.952L728 114H732.857L742.571 143.476H742.667L752.476 114H757.19ZM760.825 148V114H784.301V117.81H765.349V128.619H783.016V132.429H765.349V144.19H784.444V148H760.825ZM828.38 133.952L834.142 118.095H834.237L839.903 133.952H828.38ZM831.761 114L818.523 148H823.142L826.951 137.762H841.332L845.046 148H850.046L836.761 114H831.761ZM811.312 114.048V118.524H793.408V114.048H811.312ZM811.312 118.524H815.789V124.286H811.312V118.524ZM788.931 118.524H793.408V143.524H788.931V118.524ZM811.312 143.524V148H793.408V143.524H811.312ZM811.312 143.524V135.524H802.36V131.048H815.789V143.524H811.312Z"
    clip-rule="evenodd" />
  <path fill="#fff"
    d="M126.2 398H131.9L133.3 394.5H140.8L142.3 398H148.1L139.7 378.3H134.5L126.2 398ZM134.9 390.3 137.1 384.7 139.3 390.3H134.9ZM150.3 398H155.7V387.2L164 398H168.8V378.4H163.4V388.8L155.3 378.4H150.3V398ZM182 398.4C186.3 398.4 188.8 396.5 190.7 394L186.6 391.1C185.4 392.5 184.2 393.4 182.1 393.4 179.4 393.4 177.5 391.1 177.5 388.2 177.5 385.3 179.4 383 182.1 383 184 383 185.3 383.8 186.5 385.2L190.4 382.2C188.7 379.7 186.2 378 182.2 378 176.3 378 171.9 382.5 171.9 388.2 171.9 394.1 176.4 398.4 182 398.4ZM193.3 398H198.7V390.6H205.7V398H211.1V378.4H205.7V385.7H198.7V378.4H193.3V398ZM224.7 398.4C230.8 398.4 235.3 393.8 235.3 388.2 235.3 382.5 230.8 378 224.8 378 218.7 378 214.2 382.6 214.2 388.2 214.2 393.9 218.7 398.4 224.7 398.4ZM224.8 393.5C221.8 393.5 219.8 391 219.8 388.2 219.8 385.3 221.7 382.9 224.7 382.9 227.7 382.9 229.7 385.4 229.7 388.2 229.7 391.1 227.8 393.5 224.8 393.5ZM238.4 398H243.8V392.1H246.2L250.2 398H256.4L251.8 391.2C254.2 390.1 255.8 388.1 255.8 385.1 255.8 383.2 255.2 381.6 254.1 380.5 252.7 379.2 250.7 378.4 247.7 378.4H238.4V398ZM243.8 387.8V383.1H247.4C249.2 383.1 250.3 383.9 250.3 385.4 250.3 386.9 249.3 387.8 247.4 387.8H243.8Z" />
  <rect width="39.6" height="12.3" x="95.7" y="368.3" fill="#fff" rx="6.2" transform="rotate(60 95.7 368.3)" />
  <rect width="39.6" height="12.3" x="101.5" y="374.4" fill="#fff" rx="6.2" transform="rotate(120 101.5 374.4)" />
  <g fill="#fff" clip-path="url(#g)">
    <path
      d="M211.7 219.9H219.7C220.9 219.9 221.8 220.8 221.8 222 221.8 223.1 220.9 224 219.7 224H210C209.9 224 209.7 224.1 209.6 224.2L206.7 226.7C206.2 227.1 206.5 227.8 207.1 227.8H219.3C219.3 227.8 219.3 227.8 219.3 227.8 219.3 227.8 219.3 227.8 219.3 227.8 219.4 227.8 219.6 227.8 219.7 227.8 223 227.8 225.6 225.2 225.6 222 225.6 218.9 223.2 216.4 220.2 216.1 220.2 216.1 220.2 216.1 220.2 216.1 220.2 216.1 220.2 216.1 220.2 216.1H211.5C210.4 216.1 209.5 215.2 209.5 214 209.5 212.9 210.4 212 211.5 212H221.2C221.4 212 221.5 211.9 221.7 211.8L224.4 209.3C224.8 208.9 224.5 208.2 223.9 208.2H211.7C211.6 208.2 211.6 208.2 211.5 208.2 208.3 208.2 205.7 210.8 205.7 214 205.7 217.3 208.3 219.9 211.5 219.9 211.6 219.9 211.6 219.9 211.7 219.9ZM258.6 208.1C258.3 208.1 258 208.4 258 208.8V227.2C258 227.6 258.3 227.9 258.6 227.9H273.4C273.6 227.9 273.7 227.8 273.9 227.7L275.7 225.7C276.1 225.3 275.8 224.6 275.3 224.6H262.4C262 224.6 261.7 224.3 261.7 223.9V208.8C261.7 208.4 261.4 208.1 261.1 208.1H258.6V208.1Z" />
    <path fill-rule="evenodd"
      d="M235 208.1C235 208.2 235 208.2 235 208.1 233.1 208.2 231.6 209.7 231.5 211.6V224C231.5 224.1 231.5 224.1 231.5 224.2 231.5 226.1 233 227.8 235 227.8H248.4C250.3 227.7 251.9 226.1 251.9 224.2 251.9 224.1 251.9 224.1 251.9 224V211.6C251.8 209.8 250.3 208.2 248.4 208.2H235V208.1ZM237.5 211.6C237.5 211.6 237.5 211.6 237.5 211.6 236.3 211.7 235.4 212.7 235.3 213.8V221.6C235.3 221.7 235.3 221.7 235.3 221.7 235.3 223 236.3 224 237.5 224H245.9C247.1 224 248.1 223 248.1 221.7 248.1 221.7 248.1 221.7 248.1 221.6V213.8C248 212.7 247.1 211.7 245.9 211.6H237.5ZM297.2 227.2C297.2 227.6 297.5 227.9 297.8 227.9H300.3C300.7 227.9 301 227.6 301 227.2V212C301 211.9 301 211.9 301 211.8 301 209.8 299.4 208.2 297.5 208.2H284.7C284.6 208.2 284.5 208.2 284.5 208.2 282.5 208.2 280.9 209.8 280.9 211.8 280.9 211.9 280.9 211.9 280.9 212V227.2C280.9 227.6 281.2 227.9 281.5 227.9H284C284.4 227.9 284.7 227.6 284.7 227.2V220.9C284.7 220.5 284.9 220.2 285.3 220.2H296.6C296.9 220.2 297.2 220.5 297.2 220.9V227.2H297.2ZM284.6 216.7V213.6C284.6 212.3 285.6 211.3 286.8 211.3H295C296.2 211.3 297.2 212.3 297.2 213.6V216.7C297.2 217.1 296.9 217.4 296.6 217.4H285.3C284.9 217.4 284.6 217.1 284.6 216.7ZM350.1 227.9C349.7 227.9 349.4 227.6 349.4 227.2V220.9C349.4 220.5 349.1 220.2 348.8 220.2H337.4C337 220.2 336.7 220.5 336.7 220.9V227.2C336.7 227.6 336.4 227.9 336.1 227.9H333.6C333.2 227.9 332.9 227.6 332.9 227.2V212C332.9 211.9 332.9 211.9 332.9 211.8 332.9 209.8 334.6 208.2 336.6 208.2 336.6 208.2 336.7 208.2 336.7 208.2H349.7C351.7 208.2 353.2 209.8 353.2 211.8 353.2 211.8 353.2 211.9 353.2 212V227.2C353.2 227.6 352.9 227.8 352.6 227.8H350.1V227.9ZM336.7 213.6V216.7C336.7 217.1 337 217.4 337.4 217.4H348.8C349.1 217.4 349.4 217.1 349.4 216.7V213.6C349.4 212.3 348.4 211.3 347.2 211.3H339C337.7 211.3 336.7 212.3 336.7 213.6Z"
      clip-rule="evenodd" />
    <path
      d="M310.4 208.1C310.6 208.1 310.8 208.2 310.9 208.4L322.1 221.8C322.5 222.2 323.2 221.9 323.2 221.3V208.8C323.2 208.4 323.5 208.1 323.9 208.1H326.4C326.7 208.1 327 208.4 327 208.8V227.2C327 227.6 326.7 227.9 326.4 227.9H323.2C323.2 227.9 323.2 227.8 323.2 227.8 323.2 227.8 323.2 227.8 323.2 227.8L311.8 214.5C311.4 214.1 310.7 214.4 310.7 214.9V227.2C310.7 227.6 310.4 227.9 310 227.9H307.5C307.2 227.9 306.9 227.6 306.9 227.2V208.8C306.9 208.4 307.2 208.1 307.5 208.1H310.4ZM147.5 228.5C147.8 228.2 148.2 228 148.6 228H189.4C190.1 228 190.5 228.9 189.9 229.5L181.9 237.5C181.6 237.8 181.2 238 180.7 238H140C139.2 238 138.9 237.1 139.4 236.6L147.5 228.5ZM147.5 198.5C147.8 198.2 148.2 198 148.6 198H189.4C190.1 198 190.5 198.9 189.9 199.4L181.9 207.5C181.6 207.8 181.2 207.9 180.7 207.9H140C139.2 207.9 138.9 207 139.4 206.5L147.5 198.5ZM181.9 213.4C181.6 213.1 181.2 212.9 180.7 212.9H140C139.2 212.9 138.9 213.8 139.4 214.3L147.5 222.4C147.8 222.7 148.2 222.9 148.6 222.9H189.4C190.1 222.9 190.5 222 189.9 221.5L181.9 213.4Z" />
  </g>
  <defs>
    <clipPath id="a">
      <path fill="#fff" d="M0 0H262V24H0z" transform="translate(0 35)" />
    </clipPath>
    <clipPath id="b">
      <path fill="#fff" d="M0 0H159V40H0z" transform="translate(525 110)" />
    </clipPath>
    <clipPath id="c">
      <path fill="#fff" d="M0 0H246V43H0z" transform="translate(532 283)" />
    </clipPath>
    <clipPath id="d">
      <path fill="#fff" d="M0 0H108V54H0z" transform="translate(675 17)" />
    </clipPath>
    <clipPath id="e">
      <path fill="#fff" d="M0 0H125V52H0z" transform="translate(474 365)" />
    </clipPath>
    <clipPath id="f">
      <path fill="#fff" d="M0 0H204V42.5H0z" transform="translate(606 200)" />
    </clipPath>
    <clipPath id="g">
      <path fill="#fff" d="M0 0H214.3V40H0z" transform="translate(139 198)" />
    </clipPath>
  </defs>
</svg>