<svg xmlns="http://www.w3.org/2000/svg" fill="none" viewBox="0 0 865 451"><path fill="#fff" d="m119.5 316.6 9.2-24.6h4.8l9 24.6h-3.9l-5.7-16.4-.9-3-.2-2.8h-1.5a16 16 0 0 1-1.2 5.8l-5.8 16.4h-3.8Zm5-6.5 1-3.3h11l1 3.3h-13ZM152 317c-1.2 0-2.3-.1-3.4-.5-1-.3-2-1-2.7-1.7a5.5 5.5 0 0 1-1.5-2.7l3.1-1c.2.6.4 1.1.8 1.6.4.6 1 1 1.5 1.2a6 6 0 0 0 2.3.5 5 5 0 0 0 2.7-.7 2 2 0 0 0 1-1.8 2 2 0 0 0-.7-1.6 5 5 0 0 0-2.5-.9l-2-.4-3-.9c-.7-.3-1.3-.9-1.8-1.5-.5-.8-.7-1.7-.7-2.6 0-1 .3-2 .9-2.8.6-.8 1.4-1.4 2.4-1.8a9 9 0 0 1 8 .6 6 6 0 0 1 2.3 3l-2.9 1.2-.7-1.4a4.2 4.2 0 0 0-3.5-1.5 4 4 0 0 0-2.5.7 2 2 0 0 0-.8 1.6 1.8 1.8 0 0 0 .6 1.4 5 5 0 0 0 2.3.9l2 .4c1.5.3 2.9.8 4.1 1.6a4.2 4.2 0 0 1 1.8 3.8 4.9 4.9 0 0 1-3.3 4.7c-1.2.5-2.5.7-3.8.7Zm17.2-.4c-.8 0-1.6-.2-2.4-.5a4 4 0 0 1-1.5-1.4 5 5 0 0 1-.4-2.4v-10.4h-4v-2.7h4v-5.5h3.2v4.2a1.3 1.3 0 0 0 1.3 1.3h3.4v2.7h-4.7V312a1.5 1.5 0 0 0 1 1.7h4.4v2.9h-4.3Zm8 0v-17.4h3.2c0 .8-.2 1.6-.6 2.4-.3.9-.8 1.7-1.3 2.5h2a8 8 0 0 1 1.9-3.8 5 5 0 0 1 3.7-1.4 5 5 0 0 1 1.7.2v3.4a15 15 0 0 0-1.9-.2c-1 0-2.1.2-3 .7-1 .6-1.5 1.3-1.9 2.2a9.8 9.8 0 0 0-.5 3.6v7.8h-3.3Zm20.2.4c-1.4 0-3-.3-4.2-1.1-1.2-.8-2.3-2-3-3.3a10 10 0 0 1-1-4.7c0-1.6.3-3.3 1-4.7a8.2 8.2 0 0 1 3-3.3 8.1 8.1 0 0 1 8.5 0 8 8 0 0 1 3 3.3c.6 1.4 1 3 1 4.7a10 10 0 0 1-1.1 4.7 8.4 8.4 0 0 1-3 3.3 7.6 7.6 0 0 1-4.2 1.2Zm0-2.8a4 4 0 0 0 2.5-.7c.8-.5 1.4-1.2 1.7-2a11.3 11.3 0 0 0 0-7.1c-.3-.9-.9-1.6-1.7-2.2-.7-.5-1.6-.7-2.5-.7-.9 0-1.8.2-2.5.7-.8.6-1.4 1.3-1.7 2.2a9.2 9.2 0 0 0-.6 3.5c0 1.2.2 2.4.6 3.5.3.9 1 1.6 1.7 2.1s1.6.7 2.5.7Zm10.9 9.2v-24.2h3a4 4 0 0 1-.5 1.8l-1 2h1.8l1-2a5.3 5.3 0 0 1 4.7-2.3c1.3 0 2.5.3 3.6 1 1 1 2 2 2.5 3.3.6 1.6 1 3.2.9 4.9a12 12 0 0 1-1 4.9 7.3 7.3 0 0 1-2.4 3.2c-1 .7-2.4 1-3.6 1-1.4.2-2.7-.3-3.7-1.1a7.4 7.4 0 0 1-2-3h-1.9a12 12 0 0 1 2 6.9v3.6h-3.4Zm8-9.1c.8 0 1.6-.2 2.4-.7a4 4 0 0 0 1.6-2 12 12 0 0 0 0-7.4c-.3-.9-.9-1.6-1.6-2-.8-.5-1.6-.7-2.5-.7a4 4 0 0 0-2.4.7c-.8.5-1.4 1.3-1.7 2.2a9.1 9.1 0 0 0-.6 3.5 9 9 0 0 0 .6 3.5 4.3 4.3 0 0 0 4.2 2.9Zm18.9 2.7c-1.5 0-3-.3-4.2-1.1-1.3-.8-2.3-2-3-3.3a10 10 0 0 1-1-4.7c0-1.6.3-3.3 1-4.7a8.1 8.1 0 0 1 3-3.3 8.1 8.1 0 0 1 8.4 0 8 8 0 0 1 3 3.3c.7 1.4 1 3 1 4.7a10 10 0 0 1-1 4.7 8.4 8.4 0 0 1-3 3.3 7.7 7.7 0 0 1-4.2 1.2Zm0-2.8c.9 0 1.8-.2 2.5-.7.8-.5 1.4-1.2 1.7-2a9 9 0 0 0 .6-3.6c0-1.2-.2-2.4-.6-3.5-.3-.9-1-1.6-1.7-2.2-.7-.5-1.6-.7-2.5-.7-.9 0-1.7.2-2.5.7-.8.6-1.4 1.3-1.7 2.2a9.4 9.4 0 0 0-.6 3.5 9 9 0 0 0 .6 3.5c.3.9 1 1.6 1.7 2.1.8.5 1.6.7 2.5.7Zm11 2.4v-17.4h3.2a7 7 0 0 1-.6 2.4l-1.3 2.5h1.9c.3-1.4 1-2.7 2-3.8a5 5 0 0 1 3.7-1.4c.6 0 1.1 0 1.6.2v3.4a15 15 0 0 0-1.8-.2c-1.1 0-2.2.2-3.1.7-.8.6-1.5 1.3-1.8 2.2a9.8 9.8 0 0 0-.6 3.6v7.8h-3.2Zm20.6 0c-.8 0-1.6-.2-2.4-.5a4 4 0 0 1-1.5-1.4c-.3-.8-.5-1.6-.5-2.4v-10.4h-4v-2.7h4v-5.5h3.3v4.2a1.3 1.3 0 0 0 1.3 1.3h3.4v2.7h-4.7V312a1.5 1.5 0 0 0 1 1.7h4.4v2.9h-4.3ZM115.5 279H108v7.5h2.5v-5h5V279Zm-5 51v-5.1H108v7.5h7.5V330h-5Zm170-51h-5v2.5h5v5h2.5V279h-2.5Zm0 45.9v5h-5v2.5h7.5V325h-2.5Z"/><g clip-path="url(#a)"><path fill="#fff" fill-rule="evenodd" d="M17.9 52.6c.2-.3.2-.6 0-.9L8.2 35.4a.8.8 0 0 0-.6-.4H.8c-.6 0-1 .7-.7 1.2l12.7 21.7c.3.5 1 .6 1.3.1l3.8-5.4ZM35.4 59c.6 0 1-.7.7-1.2L23 35.4a.8.8 0 0 0-.7-.4h-6.8c-.6 0-1 .7-.7 1.2l13 22.4c.2.3.5.4.8.4h6.7ZM6.1 57.6c.3.5 0 1.2-.6 1.2H.8A.8.8 0 0 1 0 58v-7.9c0-.8 1-1 1.5-.4l4.6 8ZM53 59h-4V35h4l11 19 11-19h4v24h-4V43.1L65.6 59h-3.4L53 43.1V59Zm50.8 0H88.2V35h15.5v4H92.2v6h11.5v4H92.2v6h11.5v4Zm15.3 0h4V39h9.2v-4h-22.5v4h9.3v20Zm41.5 0h-4.4l-2-4.2h-14l-1.9 4.2h-4.4l11.4-24h3.9l11.4 24Zm-13.4-18.9-5 10.8h10.2L147 40.1ZM167.4 59h4v-7.5h5.2a8 8 0 0 0 8.4-8.3 8 8 0 0 0-8.4-8.2h-9.2v24Zm4-11.5V39h5.2c2.6 0 4.4 1.8 4.4 4.3s-1.8 4.3-4.4 4.3h-5.2ZM208.3 59h-15.7V35h4v20h11.7v4Zm7 0h15.4v-4h-11.4v-6h11.4v-4h-11.4v-6h11.4v-4h-15.4v24Zm26.9 0H237l10-12-10-12h5.2l7.3 8.9L257 35h5.1l-10 12 10 12h-5.2l-7.3-8.9-7.3 8.9Z" clip-rule="evenodd"/></g><g fill="#fff" clip-path="url(#b)"><path d="M586.6 129a11 11 0 0 0 11.3 11.3 11 11 0 0 0 11.4-11.3 11 11 0 0 0-11.4-11.2 11 11 0 0 0-11.3 11.3Zm4.3 0c0-4 3-7 7-7 4.2 0 7 3 7 7s-2.8 7.1-7 7.1c-4 0-7-3-7-7Zm36.1 11h4.4l-7.2-21.9h-4.4l-7.2 21.9h4.3l1-3.1h8.1l1 3.1Zm-7.8-7.3 2.8-8.3 2.7 8.3h-5.5Zm28-8.2h4.2c0-4-3.3-6.7-7.8-6.7-4.6 0-7.8 2.9-7.8 6.9 0 2.8 1.5 5 4.4 5.8 2 .5 4.3.3 5.7.9.9.3 1.6 1 1.6 2 0 1.6-1.4 2.8-3.7 2.8-2.2 0-4-1.1-4-2.9h-4.2c0 4.2 3.5 7 8.1 7 4.9 0 8-3 8-7.1 0-3-1.7-5-4.5-6-2-.5-4.2-.3-5.6-.8-1-.3-1.6-1-1.6-2 0-1.4 1.4-2.6 3.5-2.6s3.6 1.1 3.6 2.7Zm10.6 15.5h4.3v-21.9h-4.3V140Zm21.9-15.5h4.3c0-4-3.4-6.7-7.9-6.7-4.6 0-7.8 2.9-7.8 6.9 0 2.8 1.6 5 4.5 5.8 2 .5 4.3.3 5.7.9.9.3 1.5 1 1.5 2 0 1.6-1.3 2.8-3.6 2.8s-4-1.1-4-2.9h-4.3c0 4.2 3.5 7 8.2 7 4.8 0 8-3 8-7.1 0-3-1.7-5-4.5-6-2.1-.5-4.2-.3-5.7-.8-.9-.3-1.5-1-1.5-2 0-1.4 1.3-2.6 3.5-2.6 2 0 3.5 1.1 3.6 2.7Z"/><path fill-rule="evenodd" d="M561 118c-3-4-7.4-6.4-12.3-6.4-9.6 0-16.6 8.8-16.6 18.4 0 6.7 4.5 11.7 9.4 11.7.5 0 1 0 1.4-.2a14.3 14.3 0 0 1-5.4-11.5c0-7.6 5.1-13.5 11.2-13.5 6.6 0 11.2 6.6 11.2 13.5a22 22 0 0 1-5.1 14 17.5 17.5 0 0 1-10.5 6h.8a20 20 0 0 0 16-32Zm-3 12c0-6.7-4.4-11.7-9.3-11.7-.5 0-1 0-1.4.2 3.3 2.4 5.4 6.7 5.4 11.5 0 7.6-5.1 13.5-11.2 13.5-6.6 0-11.2-6.6-11.2-13.5 0-5.1 1.9-10.2 5-14 2.9-3.2 6.5-5.3 10.6-6h-.8a20 20 0 0 0-16 32c3 4 7.5 6.4 12.4 6.4 9.6 0 16.5-8.8 16.5-18.4Z" clip-rule="evenodd"/></g><path fill="#fff" d="M568.3 44a15 15 0 0 1-4.3 10.5 14.9 14.9 0 0 1-24.2-4.8c-.8-1.8-1.2-3.8-1.1-5.7a15 15 0 0 1 4.3-10.6 15 15 0 0 1 24.2 4.8c.7 1.9 1.1 3.8 1.1 5.8Zm-14.8 11.7a11 11 0 0 0 8-3.5 11.5 11.5 0 0 0 3.3-8.2 12 12 0 0 0-3.3-8.3 11.4 11.4 0 0 0-12.4-2.6 11.7 11.7 0 0 0-7 10.9c0 1.5.3 3 .8 4.5 1.2 2.8 3.4 5 6.2 6.3 1.4.6 2.9.9 4.4.9Zm20.2 2.4V29.8h5.8c1.5 0 3 0 4.5.3.8.2 1.7.6 2.4 1.1 1 .7 1.6 1.6 2 2.6.6 1 .8 2.3.8 3.4a7 7 0 0 1-1 3.8 6 6 0 0 1-3.1 2.1c1.5.2 3 1 3.9 2.3a7 7 0 0 1 1.4 4.7 8.9 8.9 0 0 1-2.3 5.9c-.8.8-1.8 1.4-2.9 1.7-1.1.3-3 .4-5.8.4h-5.7Zm3.2-25.4v9.5h2.6c2.3 0 4-.4 5-1 .9-.8 1.4-2 1.4-3.6 0-1.8-.5-3-1.4-3.8-.8-.7-2.5-1.1-5-1.1h-2.6Zm0 12.1v10.4h2.6c1.2 0 2.5 0 3.7-.3.7 0 1.4-.3 2-.7.5-.4 1-1 1.3-1.7a6 6 0 0 0 .5-2.4 6 6 0 0 0-.6-2.7c-.4-.8-1-1.4-1.7-1.8-.5-.3-1-.5-1.6-.6-.9-.1-1.8-.2-2.7-.1H577Zm47-.8a15 15 0 0 1-4.4 10.5 14.9 14.9 0 0 1-21 0 15 15 0 0 1 4.9-24.3 15 15 0 0 1 19.3 8c.8 1.9 1.2 3.8 1.2 5.8ZM609 55.7a11 11 0 0 0 8-3.5 11.5 11.5 0 0 0 3.4-8.2 12 12 0 0 0-5-9.8 11.1 11.1 0 0 0-14.4 1.5 11.7 11.7 0 0 0-3.4 8.3 11.8 11.8 0 0 0 7 10.8c1.5.6 3 .9 4.4.9Zm20.2 2.4V29.8h3.3v25H643v3.3h-13.8Z"/><path stroke="#fff" stroke-miterlimit="10" stroke-width="3" d="M524 42.9c0 16-12.8 21.2-28.6 11.4-15.7-9.8-28.2-12.5-27.7-6.1.4 6.3 13.2 1.2 28.6-11.5 15.3-12.7 27.7-10 27.7 6.2Z"/><path fill="#fff" d="M333 286v40h37v-4.5h-32.6v-31H370V286h-37Zm63.7 17.9 6.3-9.8h5.1l-7.4 11.6v.6l7.8 11.6h-5.3l-6.5-9.8V304Zm26.6 4.2h6l-2.7-11.8h-.6l-2.7 11.8Zm7 4.5h-8L421 318h-4.6l5.6-23.8h8.3l5.6 23.8h-4.6l-1.2-5.3Zm17.5-18.6h4.5v19.6H463v4.3h-15.2v-23.8Z"/><path fill="#fff" d="M373.7 301.4c0-1-.4-1.8-1-2.5-.8-.7-1.8-1-3.2-1-1.1 0-2 .2-2.6.6-.7.5-1 1.1-1 2 0 .3 0 .7.2 1l.8 1 1.6.6 2.4.6c2.5.5 4.4 1.2 5.7 2.3 1.3 1 2 2.6 2 4.7v.4c0 1.1-.2 2.1-.6 3a7.2 7.2 0 0 1-4.4 3.8c-1 .3-2.3.5-3.6.5-1.6 0-3-.2-4.1-.6a7.9 7.9 0 0 1-4.7-4.6c-.4-1-.6-2.2-.6-3.5v-.2h4.4c0 1.4.4 2.6 1.2 3.4.9.9 2.1 1.3 3.9 1.3 1.3 0 2.3-.3 3-.9.6-.6 1-1.3 1-2 0-.5-.1-.8-.3-1.2a2 2 0 0 0-.7-1l-1.4-.7-2.2-.6-3.3-.8c-1-.3-1.8-.8-2.5-1.3a5.5 5.5 0 0 1-1.7-2c-.4-.9-.7-1.9-.7-3v-.2a6.3 6.3 0 0 1 2.3-5c.7-.5 1.5-1 2.5-1.3a10.8 10.8 0 0 1 7 0c1.2.4 2 1 2.8 1.7.8.6 1.2 1.4 1.7 2.3.5 1 .5 3.2.5 3.2h-4.4Zm99.6-7.4v24h15.3v-4.3h-10.8v-15.2h10.8V294h-15.3Zm-79.7 0H389v24h4.5v-23.8Z"/><path fill="#fff" d="M485.2 303.9h-4.3v4.2h4.3V304ZM372.5 43.8c0-.1 0-.2-.2-.2h-2.7l-.1.2v1c-.9-.8-1.3-1.1-2-1.3a5 5 0 0 0-4.7 1.2 5.6 5.6 0 0 0-1.7 5.6 5.2 5.2 0 0 0 5.7 4.2 4 4 0 0 0 2.4-1c0-.1 0-.3.2-.2V55c-.3 1-1 1.8-2.1 1.9-1.1.1-2.2-.2-2.7-1.3-.2-.3-.3-.4-.6-.3h-2.5v.6a4.4 4.4 0 0 0 3 3.2c1.4.5 3 .5 4.4 0a4.6 4.6 0 0 0 3.4-3.4 7 7 0 0 0 .2-1.8V43.8Zm-5.6 8A2.8 2.8 0 0 1 364 49c0-1.7 1.3-2.9 2.8-2.9 1.7 0 2.9 1.2 2.9 2.9 0 1.6-1.2 2.8-2.8 2.8Zm41.7-7.1a4.6 4.6 0 0 0-6.5 0h-.1v-.8c0-.2 0-.3-.3-.3h-2.2c-.6 0-.6 0-.6.5V59c0 .3 0 .4.4.4h2.3c.4 0 .4 0 .4-.4v-5.5c.5.6 1 1 1.6 1.1 1.8.7 4 .2 5.3-1.3.9-1 1.4-2 1.5-3.3a6 6 0 0 0-1.8-5.3Zm-1.4 5.5c-.4 1.2-1.4 2-2.6 2-1.4 0-2.5-1-2.8-2.4l.1-1.7a3 3 0 0 1 2.8-2c1.3 0 2.3 1 2.6 2.3.1.6 0 1.2-.1 1.8Zm-32.5-20.7a4.1 4.1 0 0 1 4.1-1.3c1.8.3 2.8 1.4 3.2 3.1l.2 1.6v6.2c0 .3 0 .4-.3.3h-2.3c-.5 0-.5 0-.5-.4v-6.5c-.3-1.4-1.6-2-3-1.5-.5.3-.8.7-1 1.2a4 4 0 0 0-.4 1.9V39c0 .4 0 .4-.4.4H372c-.4 0-.4 0-.4-.3V23c0-.2.1-.3.4-.3h2.3c.4 0 .4 0 .4.4v6.4Zm41.5 15.2c1.4-1.4 3-1.7 4.8-1 1.5.4 2.2 1.6 2.6 3.1v7.7l-.1.2h-2.7c-.1 0-.2 0-.2-.2v-6.7c-.3-.8-.6-1.4-1.4-1.6-.8-.2-1.5 0-2.1.5a3 3 0 0 0-.9 2v5.6c0 .4 0 .4-.4.4h-2.3c-.3 0-.3 0-.4-.4V38.5c0-.6 0-.5.6-.5h2c.5 0 .5 0 .5.5v6.2Zm-20.9-1.1h-2.6c-.2 0-.2 0-.2.3v.8l-.2-.1a4 4 0 0 0-3.2-1.3 5 5 0 0 0-3.8 2 6 6 0 0 0-1.1 5.3c.4 1.7 1.3 3 2.8 3.8 1.7 1 4 .7 5.3-.7h.2v.7c0 .3 0 .3.3.3h2.2c.6 0 .5.1.5-.5V43.8c0-.2 0-.2-.2-.2Zm-2.7 6.6c-.4 1.2-1.4 2-2.8 2-1.2 0-2.3-1-2.6-2.2v-2c.5-1.2 1.5-2 2.8-1.9 1.3 0 2.3.9 2.6 2.2l.1.8-.1 1Zm3.6-17.7c-.5-2-1.7-3.5-3.7-4.1-.9-.3-1.8-.4-2.7-.3a5.5 5.5 0 0 0-4.6 3.4 5.9 5.9 0 0 0-.4 3.5 5.2 5.2 0 0 0 3 4c2.2 1 4.4.9 6.4-.4a5 5 0 0 0 1.9-2.3c0-.1.2-.3.1-.5h-3l-.2.2a2 2 0 0 1-.7.6c-.6.4-1.3.5-2 .4-1.4-.1-2.4-1-2.5-2.3h8.3c.3 0 .3-.1.3-.4 0-.6 0-1.2-.2-1.8Zm-8.3 0c.1-1.1 1.3-2 2.7-2 1.2 0 2.3 1 2.4 2h-5.1ZM369 36.7V39c0 .2-.1.3-.3.3l-1.5.2a5 5 0 0 1-2.2-.5 3.5 3.5 0 0 1-2.1-2.7v-5c0-.4 0-.4-.5-.4H361c-.3 0-.3 0-.3-.3v-2.1c0-.2 0-.3.2-.3h1.7c.2 0 .3 0 .3-.3v-2.4c0-.4 0-.4.4-.4h2.4c.2 0 .3 0 .3.3v2.3c0 .6 0 .5.5.5h2.3c.2 0 .4 0 .3.3v2.1c0 .3 0 .3-.3.3h-2.4c-.4 0-.4 0-.4.4v4.2c.2.6.5 1 1.2 1.2h1.7l.2-.1Zm10 8.4.2-.3c.8-1 2-1.5 3.3-1.3.1 0 .3.1.3.3v2.8h-.7c-1.6-.4-2.8.4-3 2l-.1.9v4.9c0 .3-.2.3-.4.3h-2.4c-.3 0-.3 0-.3-.3V43.9c0-.2 0-.3.3-.3h2.5c.2 0 .3.1.3.3v1.2Zm-56 18.2a22.7 22.7 0 0 1-16.2-6.7 22.7 22.7 0 0 1-5-25.1A23 23 0 1 1 323 63.3Zm0-38.4a15.5 15.5 0 1 0 0 31 15.5 15.5 0 0 0 0-31Zm26.8-.1a3.6 3.6 0 1 0 0-7.3 3.6 3.6 0 0 0 0 7.3Zm-23 61.3c-1 0-1.9-.3-2.6-1a3.7 3.7 0 0 1 0-5.3l15.5-15.4a3.7 3.7 0 0 1 5.2 5.2l-15.4 15.5a4 4 0 0 1-2.7 1Z"/><g fill="#fff" clip-path="url(#c)"><path d="M584.9 318.5c-8.8 0-14.4-6.3-14.4-14.7 0-8.4 5.6-14.8 14.4-14.8 7.1 0 11.3 3.7 13 9.3h-4.7c-1.5-3.5-4-5.2-8.3-5.2-6 0-9.6 4.7-9.6 10.7 0 6 3.6 10.7 9.6 10.7 4.6 0 7.1-2.1 8.3-5.2h4.8c-1.4 5.3-6 9.2-13.1 9.2Zm33.1-.5h-4.6c-.2-.8-.2-1.7-.2-2.7v-.6c-.8 2-2.7 3.9-6.6 3.9-4.6 0-7.2-2.9-7.2-6.2 0-6 7-6.1 10-6.6 2.6-.4 3.7-.8 3.7-2.6 0-1.7-1.5-2.8-3.9-2.8-2.2 0-3.8 1.2-4 3.3h-4.4c.2-3.4 2.8-7 8.3-7 6.8 0 8.6 4.2 8.6 8.6v8c0 1.6 0 3.6.3 4.8Zm-4.7-11.6c-.5 1.2-1.7 2.2-5 2.8-2.8.5-4.3 1.3-4.3 3.1 0 1.7 1.5 2.9 3.8 2.9 2.8 0 5.5-2 5.5-6.6v-2.2Zm14.8-6.1c-1.8 0-3.3 1.1-3.3 2.6 0 2 2.4 2.6 5.8 3.3 3.6.8 6.2 2.6 6.2 5.9 0 4-4 6.4-8.4 6.4-4.2 0-8.2-1.9-8.7-6.8h4.6c.4 2.2 1.8 3.3 4.2 3.3 1.9 0 3.7-.8 3.7-2.8 0-2-2-2.3-5.3-3.1-3.2-.8-6.6-2.3-6.6-6 0-3.8 3.7-6.3 7.9-6.3 4.4 0 7.8 2.3 8.2 6.7H632c-.2-2.2-2-3.2-3.9-3.2Zm31.7 7.3c0 6.5-3.9 11-9.3 11-3.5 0-5.8-1.8-6.6-4.3V326H639v-28.6h4.8v3.8c.7-2.3 3.1-4.4 6.6-4.4 5.4 0 9.3 4.5 9.3 10.8Zm-4.6 0c0-3.9-2.2-7-5.8-7-3.5 0-5.7 2.8-5.9 6.6v.4c0 4.1 2 7.2 5.9 7.2 3.7 0 5.8-3.1 5.8-7.2Zm26.2 1.4h-15.8c.4 3.7 2.7 5.9 6 5.9 2.3 0 4.2-1 5-3h4.6c-1.3 4.2-4.8 6.7-9.6 6.7-6.2 0-10.3-4.5-10.3-11 0-6.2 4.3-10.8 10.3-10.8 7 0 9.8 5.5 9.8 11.3v.9Zm-4.6-3.4c-.3-3.2-2.2-5.2-5.3-5.2-3.2 0-5.3 2-5.8 5.2h11.1Zm11.6 2.7v9.8h-4.6v-20.7h4.5v4.4h.1a6.1 6.1 0 0 1 6-4.8v4.6c-3.8 0-6 2.6-6 6.7Zm27.8 5.7v4h-18.1v-28.5h4.8V314h13.3Zm19.5 4H731l-.2-2.7v-.6c-.7 2-2.6 3.9-6.6 3.9-4.6 0-7.2-3-7.2-6.2 0-6 7-6.1 10-6.6 2.7-.4 3.8-.8 3.8-2.6 0-1.7-1.5-2.8-4-2.8-2.2 0-3.8 1.2-4 3.3h-4.4c.2-3.4 2.9-6.9 8.3-6.9 6.9 0 8.6 4.1 8.6 8.6v8c0 1.5.1 3.6.4 4.7Zm-4.8-11.6c-.5 1.2-1.6 2.2-5 2.8-2.8.5-4.2 1.3-4.2 3.1 0 1.7 1.4 2.9 3.7 2.9 2.9 0 5.5-2 5.5-6.6v-2.2Zm28.8 1.2c0 6.6-3.8 11-9.3 11-3.3 0-5.8-2-6.7-4.3v3.8h-4.8v-28.6h4.8v11.7a7.3 7.3 0 0 1 6.7-4.4c5.5 0 9.3 4.3 9.3 10.8Zm-4.7 0c0-4.2-2.3-7-5.8-7-3.6 0-5.7 2.7-5.9 6.6v.4c0 4 2.2 7.2 5.9 7.2 3.6 0 5.8-2.9 5.8-7.2Zm14.3-7.3c-1.8 0-3.4 1.1-3.4 2.6 0 2 2.4 2.6 5.9 3.3 3.6.9 6.2 2.6 6.2 5.9 0 4.1-3.9 6.5-8.4 6.5-4.2 0-8.2-1.9-8.7-6.8h4.6c.4 2.2 1.8 3.3 4.2 3.3 2 0 3.8-.8 3.8-2.7 0-2-2-2.4-5.3-3.2-3.4-.7-6.6-2.3-6.6-6 0-3.8 3.6-6.4 7.9-6.4 4.4 0 7.7 2.3 8.2 6.8h-4.4c-.4-2.3-2.2-3.3-4-3.3Zm-209 18L550.2 300v-11.4h.9c1 0 1.7-.8 1.7-1.8s-.8-1.7-1.7-1.7H550l.4-.6c.2-.8-.4-1.6-1.2-1.6h-5.4c-.8 0-1.4.8-1.2 1.6l.4.6h-1c-1 0-1.8.8-1.8 1.8s.8 1.7 1.7 1.7h1v11.5l-10.2 18a5 5 0 0 0 0 5.1 5 5 0 0 0 4.4 2.6H556a5 5 0 0 0 4.3-2.6c1-1.6 1-3.4 0-5Zm-.6 4.7a4.4 4.4 0 0 1-3.8 2.2H537a4.4 4.4 0 0 1-3.8-6.6l10.3-18.3V288h-1.6a1 1 0 0 1-1-1c0-.6.4-1.1 1-1.1h9.1c.6 0 1 .5 1 1 0 .7-.4 1.1-1 1.1h-1.6v12.3l10.3 18.3c.8 1.3.8 3 0 4.4Z"/><path d="M554.3 314a8.8 8.8 0 0 1-8.4-.2 10.4 10.4 0 0 0-6.2-1.6l-4.3 7.6a2 2 0 0 0 0 2c.1.2.6 1 1.6 1h18.9c1 0 1.5-.8 1.6-1a2 2 0 0 0 0-2l-3.2-5.8Zm-9.7-5.9h.2l1.7 2v.4c0 .6.4 1.2 1 1.2.7 0 1.2-.6 1.2-1.2s-.5-1.2-1.1-1.2l-.7.2-1.7-1.8v-.1l1.6-.8c.3.5.9.7 1.4.7.9 0 1.7-.8 1.7-1.7 0-1-.8-1.7-1.7-1.7a1.7 1.7 0 0 0-1.6 2l-1.6.8a.5.5 0 0 0-.4-.1c-.4 0-.7.3-.7.7.1.3.4.6.7.6Z"/></g><path fill="#fff" d="M303 414.6a.7.7 0 0 1-.7-.7V381c0-1.4 0-6.5 4-10.6a14.3 14.3 0 0 1 20-.6 14 14 0 0 1 .4 20.3 14.6 14.6 0 0 1-9.9 4.2c-.3 0-.6-.4-.6-.7 0-.4.2-.6.6-.6 1.6 0 5.7-.5 9-3.8.9-1 3.9-4.3 3.8-9.3-.1-5-3.2-8.2-4.2-9-.9-.9-4-3.4-8.7-3.4h-.3c-4.8 0-7.9 2.8-9 4a13.4 13.4 0 0 0-3.8 9.5v33c0 .4-.2.7-.6.7Z"/><path fill="#fff" d="M316.4 385a4.8 4.8 0 1 1 0-9.5 4.8 4.8 0 0 1 0 9.5Zm0-8.3a3.5 3.5 0 0 0-3.4 3.5c0 1.9 1.5 3.4 3.4 3.4 2 0 3.5-1.5 3.5-3.4 0-2-1.6-3.5-3.5-3.5Zm-9 26.3a.7.7 0 0 1-.6-.6V381c0-.4.3-.7.6-.7.4 0 .7.4.7.7v21.4c0 .3-.3.6-.7.6Zm4.8 6.7a.7.7 0 0 1-.6-.7v-11.3c0-.5.3-.7.6-.7s.7.3.7.7V409c0 .4-.3.7-.7.7Zm-13.5-5.4a.7.7 0 0 1-.7-.6v-14.5c0-.4.3-.7.7-.7.3 0 .6.3.6.7v14.5c0 .4-.2.6-.6.6Z"/><path fill="#fff" d="M316.4 389.8a9.7 9.7 0 0 1-9.6-9.6 9.7 9.7 0 0 1 19.3 0c0 5.3-4.4 9.6-9.7 9.6Zm0-18a8.3 8.3 0 1 0 0 16.7 8.3 8.3 0 1 0 0-16.6Zm69.4 7.5H383l-.4.1-5 6.6-.8 1.1-.8-1.1-5.2-6.6-.3-.1h-2.7c-.2 0-.4 0-.4.2l.1.4 7.7 10v9c0 .3.2.5.4.5h2.4c.3 0 .4-.2.4-.4v-9l7.7-10.1.1-.5-.4-.1Zm22.3 0h-16.8c-.2 0-.4.1-.4.4v2c0 .3.2.5.4.5h6.8V399c0 .2.2.4.4.4h2.4c.3 0 .4-.2.4-.4v-16.8h6.8c.3 0 .4-.1.4-.4v-2c0-.3-.1-.5-.4-.5Zm-54.5 0h-7.9c-.3 0-.4.1-.4.4V399c0 .2.1.4.4.4h2.4c.2 0 .4-.2.4-.4v-17h5.4c3 0 5.1 2 5.1 4.8s-2.1 4.7-5.2 4.7h-.8s-.3 0-.4.2v2.7l.4.1h.6c.4 0 4.5.3 7-2.9a8 8 0 0 0 1.6-4.7c.2-4.5-3.4-7.6-8.6-7.6Zm64.8 8v-7.6c0-.3-.2-.4-.5-.4h-2.3c-.3 0-.5.1-.5.4V399c0 .2.2.4.4.4h2.4c.3 0 .5-.2.5-.4v-8.8m13.2-10.9h-2.4c-.3 0-.4.1-.4.4v7.6h-6.6c-.1 0-.3.1-.3.3v2.2c0 .2.2.4.3.4h6.6v8.9c0 .2.1.4.4.4h2.4c.2 0 .4-.2.4-.4v-19.4c0-.2-.2-.4-.4-.4Z"/><path fill="#fff" fill-rule="evenodd" d="M426.4 217.5c6 0 10.9-4.8 10.9-10.8a10.9 10.9 0 0 0-21.7 0 10.8 10.8 0 1 0-10.9 11 10.8 10.8 0 1 0 .2 0c6 0 10.8-4.9 10.8-10.8 0 6 4.7 10.6 10.7 10.6Z" clip-rule="evenodd"/><path fill="#fff" d="M426.4 239.2a10.8 10.8 0 1 0 0-21.7 10.8 10.8 0 0 0 0 21.7Zm53.5-38.3h-4.5v27.7h4.5V201Z"/><path fill="#fff" fill-rule="evenodd" d="M459.1 215a5 5 0 0 1 3.6-1.5 4.3 4.3 0 0 1 4.5 3.5l4-1.5a7.4 7.4 0 0 0-3-4.3 8.5 8.5 0 0 0-5.6-1.8c-2.7 0-5 1-6.9 2.8a10 10 0 0 0-2.7 7.2c0 2.8.9 5.1 2.7 7 2 2 4.2 2.9 6.9 2.9 2.3 0 4.2-.6 5.6-1.8a9.4 9.4 0 0 0 3.1-4.3l-3.8-1.5a4.6 4.6 0 0 1-4.8 3.4c-1.5 0-2.7-.6-3.7-1.6s-1.5-2.5-1.5-4.3c.1-1.7.6-3.1 1.6-4.1Zm31.1 8.6a5.1 5.1 0 0 0 7.5 0 6 6 0 0 0 1.5-4.4c0-1.8-.5-3.2-1.6-4.2a5.1 5.1 0 0 0-7.5 0c-1 1-1.4 2.4-1.4 4.2-.1 2 .5 3.4 1.5 4.4Zm3.7-14.2c2.8 0 5.2 1 7 2.8a10 10 0 0 1 2.8 7.2c0 2.9-.9 5.3-2.7 7a9.2 9.2 0 0 1-7 2.9c-2.8 0-5-1-7-2.8a10 10 0 0 1-2.7-7.1c0-2.9.9-5.2 2.7-7.2 1.7-1.9 4-2.8 6.9-2.8Zm23.1 19.2 7.3-18.7h-4.7l-4.9 13.3-5-13.3H505l7.5 18.7h4.6Zm13-11.4h9.2a4 4 0 0 0-1.2-3c-.8-.7-2-1.2-3.4-1.2s-2.4.5-3.3 1.3a6 6 0 0 0-1.2 3Zm9.8 5 3.7 1.2a8.6 8.6 0 0 1-8.5 6c-2.7 0-5-1-6.7-2.7a10 10 0 0 1-2.8-7.3c0-2.9 1-5.2 2.8-7.2a9.4 9.4 0 0 1 13.1-.1 10 10 0 0 1 2.5 7.1c0 .8 0 1.3-.2 1.5h-13.6c0 1.4.5 2.6 1.6 3.5 1 1 2.1 1.4 3.6 1.4 2.2-.3 3.8-1.3 4.5-3.4Zm19.2-7.8v-4.5l-1.2-.1c-1.3 0-2.4.3-3.3.9a5 5 0 0 0-2.2 2.3v-3H548v18.7h4.4v-8.9c0-3.6 1.7-5.5 5-5.5a7 7 0 0 1 1.6 0Z" clip-rule="evenodd"/><g fill="#fff" clip-path="url(#d)"><path d="M772 53.6h-7.3c-.7 0-1.5-.1-2.2-.4a2 2 0 0 1-1.2-1.3l-.3-2V39.5c0-.6 0-1.2.2-1.8.2-.7.7-1.2 1.4-1.5a5 5 0 0 1 1.4-.3h15.1l1.7.1c1 .3 1.6.8 1.9 1.8.2.6.3 1.2.3 1.9v10l-.3 1.9c-.3 1-1 1.5-1.9 1.7l-1.8.3h-7Zm0-14.5h-6.7l-.1.2V50c0 .3 0 .3.3.3h13c.3 0 .3 0 .3-.3V39.2l-.1-.2H772ZM748.8 47l8 6.6h-5.5l-.4-.1-10.1-9.4-.2-.1c.2-.1.3 0 .4 0h8.5a2 2 0 0 0 1.2-.5c.2-.2.4-.4.4-.7V40c0-.3-.2-.5-.4-.7-.3-.3-.6-.4-1-.4H740c-.2 0-.2 0-.2.2v14.2c0 .4 0 .4-.4.4H736c-.4 0-.3 0-.3-.4V36.2c0-.3 0-.3.2-.3h15.5l1.8.3c.3 0 .5.2.6.3.8.7 1.3 1.4 1.3 2.5v4.8l-.2 1.2c-.4 1-1.2 1.5-2.2 1.8a6 6 0 0 1-1.2.1h-2.7Zm-52.5 6.6h-3.9c-.4 0-.3 0-.3-.3v-6.8c0-.5 0-.5-.4-.5h-12.1c-.5 0-.5 0-.5.4v6.9c0 .4 0 .4-.3.4h-3.5c-.3 0-.3 0-.3-.4V36.2c0-.2 0-.3.2-.3h3.7c.2 0 .2 0 .2.3v6.5l.2.1h12.4c.4 0 .4 0 .4-.3v-6.3c0-.2 0-.3.2-.3h3.8c.2 0 .2 0 .2.3v17.4Z"/><path d="m697 62.4-1.5 1.8c-1.9 2-3.7 4.2-5.5 6.3l-.2.1c.3-.6.9-1 1.2-1.6h-.2l-.3.4 3.9-6.4 11-18c.2-.2.2-.4 0-.6L699 34.2c-.1-.2-.2-.3 0-.6l.5-1.5.2.2 7 12.2-.1.5-8.2 12.6a66290.4 66290.4 0 0 0-7.2 11.1c0 .1-.2.2-.1.3l.2-.2a2138.5 2138.5 0 0 0 18.5-24.5c.1-.2 0-.3 0-.4l-.2-.3-7.2-12.4-.1-.3H714c.2 0 .3 0 .4.3l3 5.2.2.3 8-7.3-9.2 10.6-.2-.3L713 34c-.2-.2-.3-.3-.6-.3H707l.1.3 5.7 9.8c.2.4.2.2-.1.6l-13.1 15.2-.2.2-1.3 1.5c-.4.4-.8.8-1 1.2Zm39-36.8 1.7-1.8 3.5-4.1.2-.2c0 .2-.2.3-.1.4-.1 0-.2.1-.2.3-.2.1-.3.2-.3.4l-.2.2-2 2.7-16 21.1v.7l7.6 13.1v.3h-11.5c-.3 0-.5 0-.6-.3l-3-5.3-.2-.2-.3.3-7.9 6.7-.4.3.1-.3 9.3-10.7.2-.2c.2 0 .2.3.3.4l3.6 6.2c.1.3.3.4.5.4h5.4l-.2-.4-5.9-10.3c-.2-.4-.2-.3 0-.6 1-1 2-2.1 2.9-3.3l11.2-12.9.1-.1.2-.2 2-2.2.1-.4Z"/><path d="m736 25.6-.2.3-2 2.3-.1.1a31.3 31.3 0 0 0-5.9-5 25.6 25.6 0 0 0-8.8-4 25.1 25.1 0 0 0-21 5.6c-.2.2-.5.2-.5.4l.6-.6a25.4 25.4 0 0 1 28.4-5.6c3.2 1.3 6 3 8.4 5.4l1.1 1.1Zm-39 36.8 1-1.2 1.4-1.5c3.2 3.5 7 6.3 11.4 8a22.6 22.6 0 0 0 9.7 1.4 25.2 25.2 0 0 0 14.3-5.7l-.2.4a25.2 25.2 0 0 1-18.3 7.3 27.4 27.4 0 0 1-17.5-6.8l-1.8-1.9Zm43.8-41.8h.1l-.1.3L728 41.6l-1.7 2.9c-.2.2-.2.4 0 .6l6.7 10.6c.2.2.2.4.1.7l-.3 1.2v.2l-.3-.3-7.2-12.5c-.2-.3-.1-.4 0-.6L737 26.6l3.8-5.8s.2-.1.1-.2Zm-6 42.7.4-.3c0 .2-.2.3-.3.4v-.1Zm6.3-43V20h.1l-.1.2Zm-50.6 49.1-.1.2v-.2c.1 0 0 0 0 0Zm50.9-50h.1Zm-.1.5v.1-.1Zm-.2.4v.1-.1Zm.3-.8Zm0 .3Zm-.1.1h.1Zm-.3.5Zm-34.8 39.7v.1Z"/><path d="M734.9 63.4c-.1 0 0 0 0-.1Zm-43.7 5.4-.2.2v-.3h.2Zm50.1-48.9v.1s0 .2-.2.1l.2-.2Z"/></g><path fill="#fff" fill-rule="evenodd" d="M218.9 211.7h9.6c.9 0 1.6-.7 1.5-1.6-.1-.7-.8-1.3-1.5-1.3h-12c-.8 0-1.5.7-1.5 1.5v14.5c0 .8.7 1.4 1.5 1.4h12c.9 0 1.6-.7 1.5-1.6-.1-.8-.8-1.3-1.5-1.3H219a1 1 0 0 1-1-1V220c0-.5.5-1 1-1h7.2c.9 0 1.6-.7 1.5-1.6-.1-.7-.8-1.2-1.5-1.2H219a1 1 0 0 1-1-1v-2.4c0-.5.5-1 1-1Zm-16.7 0c1.7 0 3 .6 4.1 1.7.3.3.6.5 1 .5.8 0 1.5-.7 1.5-1.5 0-.4-.2-.8-.6-1.1a8.4 8.4 0 0 0-6-2.5c-2.3 0-4.4.9-6.1 2.6a8.4 8.4 0 0 0-2.5 6.1c0 2.4.8 4.5 2.5 6.2a8.5 8.5 0 0 0 6.1 2.5c2.4 0 4.5-.8 6.2-2.5.5-.6.5-1.5 0-2-.6-.7-1.5-.7-2 0a5.5 5.5 0 0 1-4.2 1.6 5 5 0 0 1-4-1.7 5.6 5.6 0 0 1-1.8-4c0-1.7.6-3 1.7-4.2a5.6 5.6 0 0 1 4.1-1.7Zm47.2 11.6h-9.6a1 1 0 0 1-1-1v-12c0-.7-.5-1.4-1.2-1.5-1 0-1.7.6-1.7 1.5v14.5c0 .8.7 1.4 1.5 1.4h12c.9 0 1.6-.7 1.5-1.6-.1-.8-.8-1.3-1.5-1.3Zm60.9-14.5h-14.4c-.9 0-1.6.8-1.5 1.7.1.7.8 1.2 1.5 1.2h4.8c.5 0 1 .5 1 1v12c0 1 .7 1.6 1.6 1.5.7 0 1.2-.7 1.2-1.5v-12c0-.5.5-1 1-1h4.8c.9 0 1.6-.7 1.5-1.6-.1-.7-.8-1.3-1.5-1.3Zm7.6 0c-.7 0-1.4.7-1.4 1.5v14.5c0 .8.7 1.4 1.4 1.4.8 0 1.5-.6 1.5-1.4v-14.5c0-.8-.7-1.5-1.5-1.5Zm-29 8.6a9.9 9.9 0 0 0-5.3-1.3c-3 0-4.4-.7-4.4-2.2 0-1.4 1.5-2.2 4.4-2.2 1.7 0 3.2.3 4.7 1 1 .2 1.5-.1 1.8-1 .3-.7 0-1.4-.8-1.8-1.7-.7-3.6-1-5.7-1-2.2 0-4 .4-5.3 1.3-1.3.9-2 2.1-2 3.7 0 1.7.7 3 2 3.8 1.3.8 3 1.3 5.3 1.3 3 0 4.5.7 4.5 2.1 0 1.5-1.5 2.2-4.5 2.2h-.7c-1.5 0-3-.3-4.7-1-.7-.2-1.5.2-1.8 1-.3.7.1 1.6.9 1.8 1.7.7 3.5 1.1 5.6 1.1h.7c2.2 0 4-.5 5.3-1.3 1.4-1 2-2.2 2-3.8 0-1.6-.6-2.9-2-3.7Zm-29.5-5.7h9.7c.8 0 1.5-.7 1.4-1.6 0-.7-.7-1.3-1.4-1.3h-12c-.9 0-1.5.7-1.5 1.5v14.5c0 .8.6 1.4 1.4 1.4h12.1c.8 0 1.5-.7 1.4-1.6 0-.8-.7-1.3-1.4-1.3h-9.7a1 1 0 0 1-1-1V220c0-.5.5-1 1-1h7.3c.8 0 1.5-.7 1.4-1.6 0-.7-.7-1.2-1.5-1.2h-7.2a1 1 0 0 1-1-1v-2.4c0-.5.5-1 1-1Zm-81.6 6.1c0 .2-.3.2-.3 0l-.1-.1v-.4l.1-.1c.1-.2.3-.2.3 0v.6Zm-1.3-3.4c-.2.4-.7.4-.9 0v-.1l-2.7-3.5c-.2-.2 0-.7.3-.7 2.3 0 3.5.6 4 1.3.2.6.1 1.6-.7 3Zm-.5 12-.4 1v.1c-.9 1.7-2.3 3-4.2 3.9a.6.6 0 0 1-.8-.7 49 49 0 0 0 1.4-7.3c0-.5.3-.9.7-1.2l2.2-2c.3-.4.9-.2 1 .2.7 2.2.7 4.3.1 6Zm-5.2 8.2a26.2 26.2 0 0 1-1.6 1.7c-.3.2-.6 0-.5-.4l.1-.2a30.3 30.3 0 0 0 .7-1.2l1-.3c.3-.1.5.2.3.4Zm-3.8-2-2.4.2c-2 0-4.2-.1-6.5-.5-.2 0-.3-.4 0-.6a88.8 88.8 0 0 0 10.8-6.6c.3-.1.5 0 .5.3-.4 2.4-1 4.6-1.6 6.6a1 1 0 0 1-.8.6Zm-.8 3.1c-1.8 3.6-4 5.6-6.2 5.6-2.4 0-4.8-2.5-6.6-6.8 0-.3 0-.6.3-.7.2 0 .3-.1.4 0a35.7 35.7 0 0 0 11.7 1.3c.4 0 .6.3.4.6Zm-10.8 6.9a26 26 0 0 1-17.2-3.9c-.3-.2-.2-.6.1-.6h.2a52.4 52.4 0 0 0 12-3c.4-.1.7 0 .8.3 1.2 2.9 2.6 5 4.3 6.5.3.2.1.6-.2.7Zm-15-18c2.4-1.9 5-3.7 8-5.5 0 3.7.4 7.3 1.1 10.5a46.9 46.9 0 0 1-9-5Zm-7 10c-.5-1 .2-3.5 3.8-7 .3-.4.3-1-.1-1.4-.2 0-.3-.2-.4-.3a.9.9 0 0 0-1.2 0l-.2.2c-1.8 1.8-3 3.5-3.7 5-.2.5-.8.5-1 .1a25.5 25.5 0 0 1-3.7-19.5c0-.3.4-.3.5 0a22 22 0 0 0 2.6 5.4 34.1 34.1 0 0 0 9 9.2 47.8 47.8 0 0 0 9.2 5.3c.5.3 1.1.3 1.7 0l1.4-.5c.5-.2.8-.8.6-1.3v-.2c-.8-3.2-1.2-6.9-1.3-10.7v-1.1a43.6 43.6 0 0 1 .1-2.7c.3-4.6 1-9 2.3-12.7.1-.3 0-.7-.4-.8a44 44 0 0 0-1-.3.6.6 0 0 0-.8.4c-1.4 4-2.2 8.7-2.4 13.7 0 .6-.4 1.2-1 1.5a71 71 0 0 0-8 5.5c-.5.4-1.2.4-1.6 0-2.4-2-4.4-4.3-5.9-6.6-3-4.5-3.6-8.8-2-12l.7-1c2-2.6 5.6-4 10.3-4.2h1c2.8 0 6 .4 9.1 1.4h.4l2.2.8.6.2h.2l.2.2a46.3 46.3 0 0 1 12.7 7.4 64 64 0 0 0-15 5.7c-.3.1-.5.4-.5.6v1.5c0 .4.3.6.6.4a67.3 67.3 0 0 1 14.9-5.8c.8-.2 1.4-1 1.2-1.9l-.2-1.8a3 3 0 0 0-1.1-1.8 47.5 47.5 0 0 0-12-6.6.6.6 0 0 1-.3-.9c1.8-3.1 3.8-4.8 5.9-4.8 2.4 0 4.8 2.5 6.5 6.8a49.3 49.3 0 0 1 2.5 11 56.2 56.2 0 0 1 .1 10.5 72.6 72.6 0 0 1-15.7 9.5l-.4.2-3.5 1.5h-.2l-.2.1a106.8 106.8 0 0 1-1.4.6h-.1c-2.4.9-4.8 1.5-6.9 2-5.1 1-7.5.2-8-.9Zm3.7-38.5a25.5 25.5 0 0 1 19.2-4.4c.4 0 .5.5.2.7-1.4 1-2.6 2.6-3.7 4.7-.3.5-.9.7-1.4.6a35 35 0 0 0-14-1c-.4 0-.5-.4-.3-.6Zm35.3 18.7c0-.2.4-.4.6-.1a26 26 0 0 1 1.3 2c.1.3.1.6 0 .8a29.8 29.8 0 0 1-1.5 1.4c-.1.2-.4 0-.4-.2a59.3 59.3 0 0 0 0-3.9Zm-2.6-16.4a26.3 26.3 0 0 1 6.1 9c.1.3-.1.6-.5.6a13 13 0 0 0-2.5-.2c-.6 0-1.1-.4-1.3-1a37.7 37.7 0 0 0-2.3-8.1c0-.3.3-.5.5-.3Zm9.7 12.8a27.9 27.9 0 0 0-27.4-22.2 27.9 27.9 0 0 0-28.1 28 27.9 27.9 0 0 0 28 28.1 27.9 27.9 0 0 0 28.1-28c0-2-.2-4-.6-5.8Zm157.1 8.5h-5.3a.6.6 0 0 1-.5-1l2.6-4.6c.3-.4 1-.4 1.2 0l2.6 4.6c.2.5 0 1-.6 1Zm7 4.4-8.4-14.6c-.6-.9-1.9-.9-2.5 0l-8.3 14.6-.2.5c0 .9.6 1.6 1.4 1.6.6 0 1-.3 1.4-.9l1.3-2.2c.1-.3.5-.5.8-.5h9.8c.3 0 .6.2.8.5l1.3 2.2c.3.6.8.9 1.3 1a1.5 1.5 0 0 0 1.3-2.2Zm31.8-125.7 15.4 15.3a1 1 0 0 1-.7 1.6h-15.4a1 1 0 0 1-1-1V99.1c0-.6.4-1 1-1 .2 0 .5.1.7.3Zm12.3 15-12-12v12h12Z" clip-rule="evenodd"/><path fill="#fff" fill-rule="evenodd" d="M404.8 130.3 389.4 115a1 1 0 0 1 0-1.3c.2-.2.4-.3.7-.3h15.4c.5 0 1 .4 1 1v15.2c0 .6-.5 1-1 1a1 1 0 0 1-.7-.3Zm-12.4-15 12.1 12v-12h-12Z" clip-rule="evenodd"/><path fill="#fff" fill-rule="evenodd" d="m375.6 127.3 12.1-12h-12v12Zm15.2-12.3-15.4 15.3a1 1 0 0 1-1.7-.7v-15.3c0-.5.4-1 1-1H390l.7.4c.4.3.4 1 0 1.3Z" clip-rule="evenodd"/><path fill="#fff" fill-rule="evenodd" d="m389 116.7-12 12h12v-12Zm-15 12.2 15.4-15.2a1 1 0 0 1 1.7.6v15.3c0 .6-.5 1-1 1h-15.4a1 1 0 0 1-.7-.3 1 1 0 0 1 0-1.4Z" clip-rule="evenodd"/><path fill="#fff" fill-rule="evenodd" d="m404.5 101.4-12 12h12v-12Zm-15.1 12.3 15.4-15.3a1 1 0 0 1 1.7.7v15.3c0 .5-.5 1-1 1H390a1 1 0 0 1-.7-.4 1 1 0 0 1 0-1.3Z" clip-rule="evenodd"/><path fill="#fff" fill-rule="evenodd" d="m391 112 12.1-12h-12v12Zm15.2-12.2L390.8 115a1 1 0 0 1-1.7-.7V99.1c0-.6.4-1 1-1h15.4c.2 0 .5 0 .7.3.4.4.4 1 0 1.4Zm9.5 35.8c-2.2 0-4 1-5.3 2.6h-.1V136h-3.7v16.3h3.8V144c0-2.8 1.9-4.8 4.4-4.8 2.3 0 3.9 1.7 3.9 4.3v8.8h3.8V143c0-4.6-2.7-7.4-6.8-7.4Zm18 0c-5 0-8.5 3.8-8.5 8.6 0 4.7 3.1 8.6 8.5 8.6 3.9 0 7.1-2 8.2-5.5h-4c-.6 1.3-2.2 2-4.1 2-2.6 0-4.4-1.7-4.7-3.8h13c.5-5.6-3-9.9-8.4-9.9Zm0 3.5c2.3 0 4 1.3 4.5 3.3h-9c.5-2 2.2-3.3 4.5-3.3Zm19.4 13.7c5.3 0 8.8-3.8 8.8-8.6s-3.5-8.6-8.8-8.6c-5.3 0-8.9 3.8-8.9 8.6s3.6 8.6 9 8.6Zm0-3.6c-3 0-5-2.2-5-5s2-5 5-5 5 2.2 5 5-2 5-5 5Zm20.9-13.6c-2.2 0-4.2 1-5.3 2.6h-.2V136h-3.7v16.3h3.8V144c0-2.8 1.9-4.8 4.4-4.8 2.4 0 4 1.7 4 4.3v8.8h3.7V143c0-4.6-2.6-7.4-6.7-7.4Z" clip-rule="evenodd"/><g fill="#fff" clip-path="url(#e)"><path d="M545.7 391h-3.4v12.4h-4.7V391h-2.4v-4h2.4v-1.5c0-4 2.6-6.1 6.4-6.1.6 0 1.2 0 1.8.2v4.6c-.5-.2-1-.3-1.6-.3a1.7 1.7 0 0 0-1.9 1.9v1.2h3.4v4Zm7 12.4H548v-23.8h4.7v23.8Zm10.6-17.5a9 9 0 0 1 6.3 15.3 9 9 0 1 1-6.3-15.3Zm0 13.3c2.4 0 4.1-2 4.1-4.4a4.1 4.1 0 0 0-4.1-4.3 4.4 4.4 0 0 0 0 8.7Zm13.9-13 3 11.5 3-9.1-.8-2.4h4.7l4 11.5 3-11.5h4.9l-5.2 17.2H589l-3.4-9.4-3.2 9.4h-5l-5-17.2h4.9Z"/><path fill-rule="evenodd" d="M526 391a26 26 0 1 1-52 0 26 26 0 0 1 52 0Zm-19.1-7.7h8.2v-7.4H507a10.1 10.1 0 0 0-10.1 10.1v1h7.3v-1a2.8 2.8 0 0 1 2.8-2.7Zm-10.6 15.3c.3-.5.5-1 .5-1.6v-2.7h7.3v2.7a10 10 0 1 1-10.1-10h2.8v7.3H494a2.8 2.8 0 1 0 2.3 4.3Zm7.8-11.7h7.4v7.4H504v-7.4Z" clip-rule="evenodd"/><path d="M496.8 394.3h7.3v-7.4h-7.3v7.4Z"/></g><path fill="#fff" fill-rule="evenodd" d="m84 105.8.4-.1h9.4a1 1 0 0 1 .8.4 1 1 0 0 1 .1 1 53.2 53.2 0 0 0 .1 40.3 1 1 0 0 1-.5.8 1 1 0 0 1-.5.1h-9.4a1 1 0 0 1-.8-.4 1 1 0 0 1-.1-1 53.6 53.6 0 0 0 0-40.3 1 1 0 0 1 .4-.8Zm1.7 21.2c0-6.7-2.7-13-7.5-17.9a1 1 0 0 0-.7-.2h-6.1a1 1 0 0 0-.7.2l-.2.7v6.1c0 .2 0 .5.2.6l.6.3a11 11 0 0 1 7 3.3 10 10 0 0 1 0 13.9c-1.9 1.9-4.3 3-7 3.2a1 1 0 0 0-.6.3l-.2.6v6.1a.9.9 0 0 0 .2.7 1 1 0 0 0 .7.2h6.1a1 1 0 0 0 .7-.2 25.1 25.1 0 0 0 7.5-17.9Zm22 11c0-.1 0-.4-.2-.5a1 1 0 0 0-.6-.3 11 11 0 0 1-6.9-3.3 10 10 0 0 1 0-13.8c1.8-2 4.3-3 7-3.3.2 0 .4-.1.5-.3.2-.1.3-.4.3-.6v-6.1a1 1 0 0 0-.3-.7 1 1 0 0 0-.6-.2h-6.2a1 1 0 0 0-.6.2 25.2 25.2 0 0 0 0 35.8 1 1 0 0 0 .6.2h6.2c.2 0 .4 0 .6-.2.2-.2.3-.4.3-.7v-6.1Z" clip-rule="evenodd"/><path fill="#fff" d="m135 137 3.8-17.7h4.5l4.3 17.8h-2.8l-4.4-17.8h1.1l-3.7 17.8H135Zm-1.6 0v-2.6h3.8v2.7h-3.8Zm-.8 0-5.2-18.4h3.2l5 18.5h-3Zm12.9 0v-2.6h3.8v2.7h-3.8Zm1.5 0 4.4-18.4h3l-4.5 18.5H147Zm24.6.7c-1.7 0-3-.3-4.3-.8a9.8 9.8 0 0 1-3-2.2c-1-1-1.6-2-2-3a10 10 0 0 1-.6-3.5v-.7a9.5 9.5 0 0 1 5.7-8.7 10 10 0 0 1 4.2-.8 10 10 0 0 1 7.2 3c.9 1 1.5 2 2 3 .4 1.2.6 2.4.6 3.5v.7a9.5 9.5 0 0 1-2.5 6.5 9.4 9.4 0 0 1-7.3 3Zm0-3a6 6 0 0 0 5.8-3.4c.4-1 .7-2.2.7-3.4 0-1.4-.3-2.5-.8-3.6a6 6 0 0 0-2.3-2.4 6.5 6.5 0 0 0-6.9 0 6 6 0 0 0-2.3 2.4 8 8 0 0 0 0 7c.5 1 1.2 1.9 2.2 2.5a7 7 0 0 0 3.6 1Zm19.3 2.3v-18.4h2.6v7.6h-.2c0-2.7.6-4.6 1.8-5.9 1.2-1.2 3-1.9 5.4-1.9h.6v3h-1.2c-1.8 0-3.3.5-4.2 1.5-1 1-1.5 2.4-1.5 4.2v10h-3.3Zm18.6 0v-18.4h2.6v8h-.4c0-1.9.2-3.4.7-4.6a6 6 0 0 1 2.1-3 6 6 0 0 1 3.6-1h.2a6 6 0 0 1 3.6 1c1 .8 1.6 1.7 2 3 .6 1.2.8 2.7.8 4.5h-1c0-1.8.3-3.3.7-4.5a6 6 0 0 1 2.2-3 7 7 0 0 1 3.6-1h.1a7 7 0 0 1 3.7 1c1 .8 1.6 1.7 2.1 3 .5 1.2.7 2.7.7 4.5v10.6h-3.3v-11.3c0-1.5-.4-2.6-1-3.4a3.9 3.9 0 0 0-3.2-1.3c-1.3 0-2.4.5-3.2 1.3a5 5 0 0 0-1.3 3.6v11h-3.3v-11.2a5 5 0 0 0-1.1-3.4 3.9 3.9 0 0 0-3-1.3c-1.4 0-2.5.5-3.3 1.3a5 5 0 0 0-1.3 3.6v11h-3.3Zm37.9 0v-25h3.3v15h-.8c0-1.8.2-3.4.6-4.7a6.3 6.3 0 0 1 2.3-3c1-.8 2.2-1.1 3.8-1.1 2.3 0 4 .7 5 2.2a10 10 0 0 1 1.8 6.2v10.6H260v-11.3c0-1.4-.5-2.6-1.3-3.4-.8-.9-2-1.3-3.2-1.3-1.5 0-2.7.5-3.6 1.5-.9 1-1.3 2.3-1.3 3.8v10.7h-3.3Zm35 .7a9.8 9.8 0 0 1-7.3-3c-.9-1-1.5-2-2-3a10 10 0 0 1-.6-3.5v-.7a9.5 9.5 0 0 1 5.7-8.7 10 10 0 0 1 4.2-.8 10 10 0 0 1 7.3 3c.8 1 1.5 2 2 3 .4 1.2.6 2.4.6 3.5v.7a9.5 9.5 0 0 1-2.6 6.5 9.4 9.4 0 0 1-7.3 3Zm0-3a6 6 0 0 0 5.8-3.4c.5-1 .8-2.2.8-3.4 0-1.4-.3-2.5-.8-3.6a6 6 0 0 0-2.3-2.4 6.5 6.5 0 0 0-7 0 6 6 0 0 0-2.2 2.4c-.6 1-.8 2.2-.8 3.6 0 1.2.2 2.4.7 3.4a6.5 6.5 0 0 0 5.8 3.5ZM302 137v-25h3.2v25H302Zm-2.6-22.5v-2.6h5.8v2.6h-5.8Zm24.6 23.2c-1.7 0-3-.3-4.3-.8a8 8 0 0 1-2.8-2.2c-.8-1-1.3-2-1.7-3-.3-1.2-.5-2.4-.5-3.5v-.7c0-1.2.2-2.3.5-3.4.4-1.2 1-2.2 1.7-3 .7-1 1.6-1.7 2.8-2.3 1.1-.5 2.5-.8 4-.8 2 0 3.7.5 5 1.3a8 8 0 0 1 2.8 3.3 10 10 0 0 1 1 4.4v1.5h-16.3V126H330l-.8 1.3c0-1.3-.2-2.4-.6-3.3-.4-1-1-1.8-1.9-2.3-.8-.5-1.8-.8-3-.8a5.6 5.6 0 0 0-5.2 3.3 8.7 8.7 0 0 0-.7 3.7c0 1.3.2 2.4.6 3.5.4 1 1.1 1.9 2 2.5.9.6 2 .9 3.4.9 1.5 0 2.6-.3 3.5-1 1-.6 1.5-1.4 1.7-2.2h3a7.3 7.3 0 0 1-4.3 5.4 10 10 0 0 1-3.9.7Z"/><path fill="#fff" fill-rule="evenodd" d="M94 409.1s-1.2 2.2-3 4c-.4.6.3 1.2.8.7.6-.5 2.1-2 3.6-5 2.2-.5 4.7-1.3 6.7-2.6 4-2.8 4.7-7.6 5.4-9.3.7.4 1.2 1 1.5 1.3 0-2-.3-6.6-1.2-8.7-1 2-1.3 4-3.5 7.2 1-.4 1.8-.3 2-.2-.2.4-1.1 3.5-3.8 6a9 9 0 0 1-5.7 2.3c.3-1.1.7-3.9.6-5.5-.2-1.6-1-4.9-4.3-8V378h4.3l2.9-3H93v-.6s1.9-1 1.9-3c0-2.2-2-3.4-3.4-3.4s-3.3 1-3.3 3.4v.4s-2 1.2-2.7 3.2h-2.8l2 2s-1 4 .5 7.1c1.5 3.1 2 3.6 4.8 6v8.6s.2 4.7-2 5.7c-2 1-4.7-.2-5.3-.5-.6-.3-4.2-1.9-5.9-7.3v-.1s1.2-.2 1.8.2c-.7-1.5-2-2.8-3.4-7.2a21 21 0 0 0-1.1 8.6c.4-.7 1.2-1 1.4-1.1a14 14 0 0 0 5.6 9.3c2.8 2 8.3 2.8 10.4 3.6.6-.3 1.5-.5 2.5-.8ZM93 393v4.4s0 4.6.7 5.8c.6 1.1 1.3 1.5 2 1.6.1-.8.5-2.4.5-4.3s-.4-3.2-1-4.7c-.8-1.5-2.2-2.8-2.2-2.8Zm-7.3-15H90v10.6s-3.4-2.7-4.2-6c-.7-3.1 0-4.6 0-4.6Z" clip-rule="evenodd"/><path fill="#fff" d="M133 376.7h5.4l11.3 29.3h-5.5l-2.8-7.7h-11.7L127 406h-5.3l11.2-29.3Zm-1.9 17.7h9l-4.4-12.6h-.1l-4.5 12.6Zm21.1-9.6h4.4v3.1l.1.1a7.7 7.7 0 0 1 6.6-3.8 8 8 0 0 1 5.5 1.8c1.4 1.2 2 3 2 5.4V406h-4.6v-13.3c-.1-1.7-.5-2.9-1.1-3.6-.7-.8-1.7-1.2-3-1.2a4.9 4.9 0 0 0-3.8 1.7c-.5.5-.8 1-1 1.7-.3.7-.4 1.4-.4 2.2V406h-4.7v-21.2Zm38.3 7.1a4.3 4.3 0 0 0-1.6-3 5 5 0 0 0-3.3-1l-1.9.3c-.7.2-1.3.6-1.9 1.2a7 7 0 0 0-1.4 2.3 11 11 0 0 0-.6 4l.3 2.6c.2.8.6 1.6 1 2.3.5.7 1 1.2 1.8 1.7a5 5 0 0 0 2.5.6c1.4 0 2.5-.4 3.4-1.3.9-.8 1.5-2 1.7-3.6h4.7c-.5 2.8-1.5 5-3.2 6.4a9.6 9.6 0 0 1-6.6 2.2c-1.6 0-3.1-.3-4.4-.8a9.8 9.8 0 0 1-3.2-2.3 11 11 0 0 1-2-3.5 14.8 14.8 0 0 1 0-8.8 10 10 0 0 1 2-3.7 9 9 0 0 1 3.2-2.4 12 12 0 0 1 8-.4c1.2.3 2.2.8 3 1.4a7.4 7.4 0 0 1 3.2 5.8h-4.7Zm8.9-15.2h4.6v10.9h.1a6 6 0 0 1 2.6-2.4 8 8 0 0 1 3.8-1 8 8 0 0 1 5.5 1.8c1.3 1.2 2 3 2 5.4V406h-4.7v-13.3c0-1.7-.4-2.9-1-3.6-.7-.8-1.7-1.2-3.1-1.2a4.9 4.9 0 0 0-3.8 1.7l-1 1.7c-.2.7-.4 1.4-.4 2.2V406h-4.6v-29.3Zm33.6 29.9a10.2 10.2 0 0 1-8-3.2c-.8-1-1.5-2.1-2-3.5a14 14 0 0 1-.7-4.5c0-1.6.3-3.1.7-4.5a9.7 9.7 0 0 1 5.5-5.8c1.3-.6 2.8-.9 4.5-.9 1.7 0 3.2.3 4.5.9a9.5 9.5 0 0 1 5.5 5.8c.5 1.4.7 2.9.7 4.5s-.2 3.1-.7 4.5a9.5 9.5 0 0 1-5.5 5.9c-1.3.5-2.8.8-4.5.8Zm0-3.7a5.4 5.4 0 0 0 4.6-2.4c.5-.7.9-1.5 1-2.4a10.4 10.4 0 0 0 0-5.4c-.1-1-.5-1.7-1-2.4a5.4 5.4 0 0 0-4.6-2.4 5.4 5.4 0 0 0-4.6 2.4c-.5.7-.8 1.5-1 2.4a11.4 11.4 0 0 0 0 5.4 8 8 0 0 0 1 2.4c.5.7 1.2 1.3 2 1.7.7.5 1.6.7 2.6.7Zm15-18.1h4.4v4.1h.1a5 5 0 0 1 .8-1.7 8.1 8.1 0 0 1 3.3-2.6c.7-.2 1.4-.4 2-.4h1.2l.7.2v4.5a11.4 11.4 0 0 0-2-.2 5.3 5.3 0 0 0-4.1 1.8c-.5.6-1 1.4-1.2 2.3-.3.9-.5 2-.5 3.1V406H248v-21.2Z"/><g fill="#fff" clip-path="url(#f)"><path d="M614.8 234.2H606v-33h6.8c4.9 0 7 .4 8.9 1.7a8.3 8.3 0 0 1 3.7 7.2c0 3-1 4.8-3.6 6.2 4.2 1.7 5.6 4.2 5.6 8.1 0 6-4.1 9.8-12.6 9.8Zm-.2-27h-2.5v6.8h2c3.7 0 5.2-1 5.2-3.4 0-2.3-1.5-3.4-4.7-3.4Zm.4 12.8h-2.9v8.4h3c4.3 0 6.2-1.2 6.2-4.1 0-3-2-4.3-6.3-4.3Zm14.8 14.2v-24.7h5.9v24.7h-6Zm0-28.3V200h6v6h-6Zm21.7 28.9a13 13 0 0 1-13.2-13c0-7.2 5.7-12.9 13-12.9a13 13 0 0 1 12.5 8.9H657a6 6 0 0 0-5.8-3.4c-4 0-7 3.1-7 7.4 0 4.4 3 7.6 7.2 7.6 2.4 0 4.1-1 5.6-3.3h6.7a12.6 12.6 0 0 1-12.3 8.7Zm27.1 0a13 13 0 0 1-13.1-13 13 13 0 0 1 13-12.9 13 13 0 0 1 13.2 13.2c0 7-6 12.7-13.1 12.7Zm0-20.4a7.3 7.3 0 0 0-7.2 7.4c0 4.3 3.2 7.6 7.2 7.6s7.2-3.3 7.2-7.5c0-4.1-3.3-7.5-7.2-7.5Zm31.4 19.8v-12c0-6.7-1.7-7.8-4.6-7.8a5 5 0 0 0-4.4 2.2c-.8 1.3-1 2.7-1 6v11.6h-6v-24.7h5.6v2.4a9 9 0 0 1 7-3 9 9 0 0 1 7.6 3.6c1.4 2 1.8 4 1.8 8.5v13.2h-6Zm21.5.6a13 13 0 0 1-13.1-13 13 13 0 0 1 13-12.9 13 13 0 0 1 13.3 13.2c0 7-6 12.7-13.2 12.7Zm0-20.4a7.3 7.3 0 0 0-7.1 7.4c0 4.2 3.1 7.6 7.1 7.6 4 0 7.2-3.4 7.2-7.5s-3.2-7.5-7.2-7.5Zm46.6 19.8v-13.5c0-5-1.8-6.3-4.6-6.3-3.3 0-5 1.8-5 7.7v12.1h-6v-13.5c0-4.9-1.6-6.3-4.8-6.3-3.4 0-4.8 1.8-4.8 7.7v12.1h-6v-24.7h5.5v2.3c1.7-2 3.5-2.9 6.4-2.9 3.4 0 5.6 1.2 7.3 3.9a9 9 0 0 1 8-3.9c6.5 0 10 3.7 10 11v14.3h-6Zm16.8 8.3h-6.4l4.6-10.6-9-22.4h6.7l5.5 16 6-16h6.8l-14.2 33Z"/></g><path fill="#fff" fill-rule="evenodd" d="M657 368a20 20 0 1 1 0 39.9c-1.2 0-2.4-.1-3.5-.3v-8.8h3.9c2 0 3.8-.4 5.2-1.2a7.5 7.5 0 0 0 4.1-7 7.2 7.2 0 0 0-4.2-7.2c-1.4-.6-3.1-1-5.1-1h-10.1v23A20 20 0 0 1 657 368Zm9.9 8h-19.6v4h19.6v-4Zm-10 17.8c1.2 0 2-.3 2.6-.8.6-.6 1-1.4 1-2.4s-.4-1.8-1-2.3c-.5-.6-1.4-.9-2.6-.9h-3.4v6.4h3.4Z" clip-rule="evenodd"/><path fill="#fff" d="M694 403.6c-2 0-3.7-.3-5.2-.9a7.5 7.5 0 0 1-5-7h6.7c.1.9.5 1.6 1 2.1.6.5 1.3.8 2.3.8.9 0 1.6-.2 2.2-.6.5-.5.8-1 .8-1.9a2 2 0 0 0-.7-1.5 5 5 0 0 0-1.6-1c-.6-.3-1.5-.7-2.6-1-1.7-.5-3-1-4.1-1.5-1.1-.6-2-1.3-2.8-2.3-.8-1-1.1-2.4-1.1-4 0-2.4.8-4.3 2.6-5.6 1.7-1.4 4-2.1 6.8-2.1 3 0 5.2.7 7 2a7.3 7.3 0 0 1 2.8 5.7h-6.9c0-.8-.3-1.4-.9-2-.6-.4-1.3-.6-2.2-.6-.7 0-1.4.2-1.8.6-.5.4-.7 1-.7 1.7 0 .9.4 1.5 1.2 2 .7.4 2 1 3.7 1.5l4 1.6c1 .5 2 1.3 2.8 2.3a6 6 0 0 1 1.1 3.8 8 8 0 0 1-1.1 4 7.8 7.8 0 0 1-3.3 2.9c-1.4.7-3.1 1-5 1Zm32-26.1v5h-6.9v20.9h-6.3v-20.9h-6.9v-5H726Zm19.4 21.3h-9.7l-1.6 4.6h-6.6l9.4-26h7.3l9.4 26H747l-1.5-4.6Zm-1.7-4.9-3.2-9.5-3.2 9.5h6.4Zm27.9 9.5-8.8-11.5v11.5h-6.3v-26h6.3v11.4l8.7-11.3h7.4l-10 12.7 10.4 13.2h-7.7Zm17-20.9v5.3h8.5v4.8h-8.5v5.7h9.6v5h-15.9v-25.8h16v5h-9.7Z"/><path fill="#fff" fill-opacity=".9" fill-rule="evenodd" d="M757.2 114 745 148h-5l-12-34h4.9l9.7 29.5 9.9-29.5h4.7Zm3.6 34v-34h23.5v3.8h-19v10.8H783v3.8h-17.7v11.8h19.1v3.8h-23.6Zm67.6-14 5.7-16h.1l5.7 16h-11.5Zm3.4-20-13.3 34h4.6l3.9-10.2h14.3L845 148h5l-13.2-34h-5Zm-20.5 0v4.5h-17.9V114h18Zm0 4.5h4.5v5.8h-4.5v-5.8Zm-22.4 0h4.5v25H789v-25Zm22.4 25v4.5h-17.9v-4.5h18Zm0 0v-8h-9V131h13.5v12.5h-4.5Z" clip-rule="evenodd"/><defs><clipPath id="a"><path fill="#fff" d="M0 0h262v24H0z" transform="translate(0 35)"/></clipPath><clipPath id="b"><path fill="#fff" d="M0 0h159v40H0z" transform="translate(525 110)"/></clipPath><clipPath id="c"><path fill="#fff" d="M0 0h246v43H0z" transform="translate(532 283)"/></clipPath><clipPath id="d"><path fill="#fff" d="M0 0h108v54H0z" transform="translate(675 17)"/></clipPath><clipPath id="e"><path fill="#fff" d="M0 0h125v52H0z" transform="translate(474 365)"/></clipPath><clipPath id="f"><path fill="#fff" d="M0 0h204v42.5H0z" transform="translate(606 200)"/></clipPath></defs></svg>