<?xml version="1.0" encoding="UTF-8"?>
<svg xmlns="http://www.w3.org/2000/svg">
  <symbol id="bulb" viewBox="0 0 24 24">
    <path opacity="0.3"
      d="M14 7.59005L13 7.01005L13 3.05005L11 3.05005L11 7.01005L10 7.59005C8.76 8.31005 8 9.63005 8 11.05C8 13.26 9.79 15.05 12 15.05C14.21 15.05 16 13.2601 16 11.0501C16 9.63005 15.23 8.31005 14 7.59005Z" />
    <path
      d="M3.55 18.0901L4.96 19.5001L6.75 17.7001L5.34 16.2901L3.55 18.0901ZM11 19.0001L13 19.0001L13 22.0001L11 22.0001L11 19.0001ZM0.999998 10L4 10L4 12L0.999998 12L0.999998 10ZM15 5.86005L15 1.05005L9 1.05005L9 5.86005C7.21 6.90005 6 8.83005 6 11.05C6 14.36 8.69 17.05 12 17.05C15.31 17.0501 18 14.3601 18 11.0501C18 8.83005 16.79 6.90005 15 5.86005ZM12 15.05C9.79 15.05 8 13.2601 8 11.0501C8 9.63005 8.77 8.31005 10 7.59005L11 7.01005L11 3.05005L13 3.05005L13 7.01005L14 7.59005C15.24 8.31005 16 9.63005 16 11.0501C16 13.2601 14.21 15.0501 12 15.05ZM20 10.0001L23 10.0001L23 12.0001L20 12.0001L20 10.0001ZM17.24 17.7101L19.03 19.5101L20.44 18.1001L18.64 16.3101L17.24 17.7101Z" />
  </symbol>
  <symbol id="chat" viewBox="0 0 24 24">
    <path opacity="0.3" d="M15 11V4H4V12.17L4.59 11.59L5.17 11H6H15Z" />
    <path
      d="M21 6H19V15H6V17C6 17.55 6.45 18 7 18H18L22 22V7C22 6.45 21.55 6 21 6ZM16 13C16.55 13 17 12.55 17 12V3C17 2.45 16.55 2 16 2H3C2.45 2 2 2.45 2 3V17L6 13H16ZM4.59 11.59L4 12.17V4H15V11H5.17L4.59 11.59Z" />
  </symbol>
  <symbol id="check" viewBox="0 0 24 24">
    <path opacity="0.3"
      d="M12 4C7.59 4 4 7.59 4 12C4 16.41 7.59 20 12 20C16.41 20 20 16.41 20 12C20 7.59 16.41 4 12 4ZM10 17L6 13L7.41 11.59L10 14.17L16.59 7.58L18 9L10 17Z" />
    <path
      d="M12 2C6.48 2 2 6.48 2 12C2 17.52 6.48 22 12 22C17.52 22 22 17.52 22 12C22 6.48 17.52 2 12 2ZM12 20C7.59 20 4 16.41 4 12C4 7.59 7.59 4 12 4C16.41 4 20 7.59 20 12C20 16.41 16.41 20 12 20ZM16.59 7.58L10 14.17L7.41 11.59L6 13L10 17L18 9L16.59 7.58Z" />
  </symbol>
  <symbol id="plane" viewBox="0 0 24 24">
    <path opacity="0.3"
      d="M6.12666 12.298L12.1441 7.69478L4.56396 10.7212L6.12666 12.298ZM13.0068 19.1641L16.0332 11.5839L11.43 17.6013L13.0068 19.1641Z" />
    <path
      d="M1.00707 9.99293L5.94975 14.9497L17.9706 5.75736L8.77817 17.7782L13.735 22.7209L22.2132 1.51472L1.00707 9.99293ZM6.12652 12.2981L4.55675 10.7283L12.144 7.69483L6.12652 12.2981ZM13.0067 19.1641L11.4369 17.5943L16.0402 11.5768L13.0067 19.1641Z" />
  </symbol>
  <symbol id="formCheck" fill="none" stroke="currentColor" viewBox="0 0 106 80">
    <path fill-rule="evenodd" clip-rule="evenodd"
      d="M103.601 14.854L39.1536 78.0301L2 41.6091L14.6005 28.7551L39.1536 52.824L91 2L103.601 14.854Z"
      stroke-width="2" />
  </symbol>
  <symbol id="formCross" viewBox="0 0 84 84">
    <path
      d="M69 81.7279L68.2929 82.435L69 83.1421L69.7071 82.435L69 81.7279ZM41.864 54.5919L42.5711 53.8848L41.864 53.1777L41.1569 53.8848L41.864 54.5919ZM81.7279 69L82.435 69.7071L83.1421 69L82.435 68.2929L81.7279 69ZM54.5919 41.864L53.8848 41.1569L53.1777 41.864L53.8848 42.5711L54.5919 41.864ZM81.7279 14.7279L82.435 15.435L83.1421 14.7279L82.435 14.0208L81.7279 14.7279ZM69 2L69.7071 1.29289L69 0.585788L68.2929 1.29289L69 2ZM41.864 29.136L41.1569 29.8431L41.864 30.5503L42.5711 29.8431L41.864 29.136ZM14.7279 2L15.435 1.29289L14.7279 0.585786L14.0208 1.29289L14.7279 2ZM2 14.7279L1.29289 14.0208L0.585786 14.7279L1.29289 15.435L2 14.7279ZM29.136 41.864L29.8431 42.5711L30.5503 41.864L29.8431 41.1569L29.136 41.864ZM2 69L1.29289 68.2929L0.585787 69L1.29289 69.7071L2 69ZM14.7279 81.7279L14.0208 82.435L14.7279 83.1421L15.435 82.435L14.7279 81.7279ZM69.7071 81.0208L42.5711 53.8848L41.1569 55.299L68.2929 82.435L69.7071 81.0208ZM81.0208 68.2929L68.2929 81.0208L69.7071 82.435L82.435 69.7071L81.0208 68.2929ZM53.8848 42.5711L81.0208 69.7071L82.435 68.2929L55.299 41.1569L53.8848 42.5711ZM81.0208 14.0208L53.8848 41.1569L55.299 42.5711L82.435 15.435L81.0208 14.0208ZM68.2929 2.70711L81.0208 15.435L82.435 14.0208L69.7071 1.29289L68.2929 2.70711ZM42.5711 29.8431L69.7071 2.70711L68.2929 1.29289L41.1569 28.4289L42.5711 29.8431ZM14.0208 2.70711L41.1569 29.8431L42.5711 28.4289L15.435 1.29289L14.0208 2.70711ZM2.70711 15.435L15.435 2.70711L14.0208 1.29289L1.29289 14.0208L2.70711 15.435ZM29.8431 41.1569L2.70711 14.0208L1.29289 15.435L28.4289 42.5711L29.8431 41.1569ZM2.70711 69.7071L29.8431 42.5711L28.4289 41.1569L1.29289 68.2929L2.70711 69.7071ZM15.435 81.0208L2.70711 68.2929L1.29289 69.7071L14.0208 82.435L15.435 81.0208ZM41.1569 53.8848L14.0208 81.0208L15.435 82.435L42.5711 55.299L41.1569 53.8848Z" />
  </symbol>
</svg>