<?xml version="1.0" encoding="UTF-8"?>
<svg xmlns="http://www.w3.org/2000/svg">
  <symbol id="bulb" viewBox="0 0 24 24">
    <path opacity="0.3"
      d="M14 7.59005L13 7.01005L13 3.05005L11 3.05005L11 7.01005L10 7.59005C8.76 8.31005 8 9.63005 8 11.05C8 13.26 9.79 15.05 12 15.05C14.21 15.05 16 13.2601 16 11.0501C16 9.63005 15.23 8.31005 14 7.59005Z" />
    <path
      d="M3.55 18.0901L4.96 19.5001L6.75 17.7001L5.34 16.2901L3.55 18.0901ZM11 19.0001L13 19.0001L13 22.0001L11 22.0001L11 19.0001ZM0.999998 10L4 10L4 12L0.999998 12L0.999998 10ZM15 5.86005L15 1.05005L9 1.05005L9 5.86005C7.21 6.90005 6 8.83005 6 11.05C6 14.36 8.69 17.05 12 17.05C15.31 17.0501 18 14.3601 18 11.0501C18 8.83005 16.79 6.90005 15 5.86005ZM12 15.05C9.79 15.05 8 13.2601 8 11.0501C8 9.63005 8.77 8.31005 10 7.59005L11 7.01005L11 3.05005L13 3.05005L13 7.01005L14 7.59005C15.24 8.31005 16 9.63005 16 11.0501C16 13.2601 14.21 15.0501 12 15.05ZM20 10.0001L23 10.0001L23 12.0001L20 12.0001L20 10.0001ZM17.24 17.7101L19.03 19.5101L20.44 18.1001L18.64 16.3101L17.24 17.7101Z" />
  </symbol>
  <symbol id="chat" viewBox="0 0 24 24">
    <path opacity="0.3" d="M15 11V4H4V12.17L4.59 11.59L5.17 11H6H15Z" />
    <path
      d="M21 6H19V15H6V17C6 17.55 6.45 18 7 18H18L22 22V7C22 6.45 21.55 6 21 6ZM16 13C16.55 13 17 12.55 17 12V3C17 2.45 16.55 2 16 2H3C2.45 2 2 2.45 2 3V17L6 13H16ZM4.59 11.59L4 12.17V4H15V11H5.17L4.59 11.59Z" />
  </symbol>
  <symbol id="check" viewBox="0 0 24 24">
    <path opacity="0.3"
      d="M12 4C7.59 4 4 7.59 4 12C4 16.41 7.59 20 12 20C16.41 20 20 16.41 20 12C20 7.59 16.41 4 12 4ZM10 17L6 13L7.41 11.59L10 14.17L16.59 7.58L18 9L10 17Z" />
    <path
      d="M12 2C6.48 2 2 6.48 2 12C2 17.52 6.48 22 12 22C17.52 22 22 17.52 22 12C22 6.48 17.52 2 12 2ZM12 20C7.59 20 4 16.41 4 12C4 7.59 7.59 4 12 4C16.41 4 20 7.59 20 12C20 16.41 16.41 20 12 20ZM16.59 7.58L10 14.17L7.41 11.59L6 13L10 17L18 9L16.59 7.58Z" />
  </symbol>
</svg>