<svg width="192" height="64" viewBox="0 0 192 64" fill="none" xmlns="http://www.w3.org/2000/svg">
  <g fill="white" stroke="white" stroke-width="0.128" stroke-miterlimit="10">
    <path d="M5.59066 3.06592H2.98975V5.66683H5.59066V3.06592Z" />
    <path d="M5.59066 6.13306H2.98975V8.73524H5.59066V6.13306Z" />
    <path d="M5.59066 9.19922H2.98975V11.8001H5.59066V9.19922Z" />
    <path d="M5.59066 12.3108H2.98975V14.9117H5.59066V12.3108Z" />
    <path d="M5.59066 15.3767H2.98975V17.9789H5.59066V15.3767Z" />
    <path d="M5.59066 18.4441H2.98975V21.0463H5.59066V18.4441Z" />
    <path d="M8.65658 0H6.05566V2.60091H8.65658V0Z" />
    <path d="M8.65658 3.06592H6.05566V5.66683H8.65658V3.06592Z" />
    <path d="M8.65658 6.13306H6.05566V8.73524H8.65658V6.13306Z" />
    <path d="M8.65658 9.19922H6.05566V11.8001H8.65658V9.19922Z" />
    <path d="M8.65658 12.3108H6.05566V14.9117H8.65658V12.3108Z" />
    <path d="M8.65658 15.3767H6.05566V17.9789H8.65658V15.3767Z" />
    <path d="M8.65658 18.4441H6.05566V21.0463H8.65658V18.4441Z" />
    <path d="M11.7225 0H9.12158V2.60091H11.7225V0Z" />
    <path d="M11.7225 9.19922H9.12158V11.8001H11.7225V9.19922Z" />
    <path d="M11.7225 18.4441H9.12158V21.0463H11.7225V18.4441Z" />
    <path d="M14.7884 0H12.1875V2.60091H14.7884V0Z" />
    <path d="M14.7884 9.19922H12.1875V11.8001H14.7884V9.19922Z" />
    <path d="M14.7884 18.4441H12.1875V21.0463H14.7884V18.4441Z" />
    <path d="M17.9015 0H15.3005V2.60091H17.9015V0Z" />
    <path d="M17.9015 9.19922H15.3005V11.8001H17.9015V9.19922Z" />
    <path d="M17.9015 18.4441H15.3005V21.0463H17.9015V18.4441Z" />
    <path d="M20.9674 0H18.3665V2.60091H20.9674V0Z" />
    <path d="M20.9674 9.19922H18.3665V11.8001H20.9674V9.19922Z" />
    <path d="M20.9674 18.4441H18.3665V21.0463H20.9674V18.4441Z" />
    <path d="M24.0334 0H21.4325V2.60091H24.0334V0Z" />
    <path d="M24.0334 18.4441H21.4325V21.0463H24.0334V18.4441Z" />
    <path
      d="M26.9608 6.13306H29.563V8.73397H26.9608V6.13306ZM26.9608 9.19901H29.563V11.7999H26.9608V9.19901ZM26.9608 12.3107H29.563V14.9129H26.9608V12.3107ZM30.028 6.13306H32.629V8.73397H30.028V6.13306ZM30.028 9.19901H32.629V11.7999H30.028V9.19901ZM30.028 12.3107H32.629V14.9129H30.028V12.3107ZM30.028 15.3767H32.629V17.9788H30.028V15.3767ZM33.094 15.3767H35.6949V17.9788H33.094V15.3767ZM33.094 18.4439H35.6949V21.0448H33.094V18.4439ZM36.1599 18.4439H38.7609V21.0448H36.1599V18.4439ZM39.278 15.3767H41.8802V17.9788H39.278V15.3767ZM39.278 18.4439H41.8802V21.0448H39.278V18.4439ZM42.3439 6.13306H44.9461V8.73397H42.3376L42.3439 6.13306ZM42.3439 9.19901H44.9461V11.7999H42.3376L42.3439 9.19901ZM42.3439 12.3107H44.9461V14.9129H42.3376L42.3439 12.3107ZM42.3439 15.3767H44.9461V17.9788H42.3376L42.3439 15.3767ZM45.4112 6.13306H48.0121V8.73397H45.4048L45.4112 6.13306ZM45.4112 9.19901H48.0121V11.7999H45.4048L45.4112 9.19901ZM45.4112 12.3107H48.0121V14.9129H45.4048L45.4112 12.3107Z" />
    <path
      d="M51.031 9.19535H53.6357V11.7975H51.031V9.19535ZM51.031 12.3083H53.6357V14.9092H51.031V12.3083ZM51.031 15.3743H53.6357V17.9714H51.031V15.3743ZM54.097 6.12939H56.6991V8.73158H54.097V6.12939ZM54.097 9.19535H56.6991V11.7975H54.097V9.19535ZM54.097 12.3083H56.6991V14.9092H54.097V12.3083ZM54.097 15.3743H56.6991V17.9714H54.097V15.3743ZM54.097 18.4402H56.6991V21.0424H54.097V18.4402ZM57.1629 6.12939H59.7651V8.73158H57.1629V6.12939ZM57.1629 12.3083H59.7651V14.9092H57.1629V12.3083ZM57.1629 18.4402H59.7651V21.0424H57.1629V18.4402ZM60.2289 6.12939H62.831V8.73158H60.2289V6.12939ZM60.2289 12.3083H62.831V14.9092H60.2289V12.3083ZM60.2289 18.4402H62.831V21.0424H60.2289V18.4402ZM63.3418 6.12939H65.9427V8.73158H63.3418V6.12939ZM63.3418 12.3083H65.9427V14.9092H63.3418V12.3083ZM63.3418 18.4402H65.9427V21.0424H63.3418V18.4402ZM66.4078 6.12939H69.01V8.73158H66.4078V6.12939ZM66.4078 9.19535H69.01V11.7975H66.4078V9.19535ZM66.4078 12.3083H69.01V14.9092H66.4078V12.3083ZM66.4078 18.4402H69.01V21.0424H66.4078V18.4402ZM69.4737 9.19535H72.0759V11.7975H69.4737V9.19535ZM69.4737 12.3083H72.0759V14.9092H69.4737V12.3083Z" />
    <path
      d="M75.0173 6.15479H77.6182V8.75697H75.0173V6.15479ZM75.0173 9.22074H77.6182V11.8229H75.0173V9.22074ZM75.0173 12.3337H77.6182V14.9359H75.0173V12.3337ZM75.0173 15.3997H77.6182V18.0018H75.0173V15.3997ZM75.0173 18.4656H77.6182V21.0678H75.0173V18.4656ZM78.0833 6.15479H80.6842V8.75697H78.0833V6.15479ZM78.0833 9.22074H80.6842V11.8229H78.0833V9.22074ZM78.0833 12.3337H80.6842V14.9359H78.0833V12.3337ZM78.0833 15.3997H80.6842V18.0018H78.0833V15.3997ZM78.0833 18.4656H80.6842V21.0678H78.0833V18.4656ZM81.1492 9.22074H83.7489V11.8229H81.1492V9.22074ZM84.2152 6.15479H86.8161V8.75697H84.2152V6.15479ZM87.3281 6.15479H89.9291V8.75697H87.3281V6.15479Z" />
    <path d="M95.5057 6.13696H92.9048V8.73915H95.5057V6.13696Z" />
    <path d="M95.5057 9.20288H92.9048V11.8038H95.5057V9.20288Z" />
    <path d="M95.5057 12.3147H92.9048V14.9156H95.5057V12.3147Z" />
    <path d="M95.5057 18.4478H92.9048V21.0499H95.5057V18.4478Z" />
    <path d="M98.573 6.13696H95.972V8.73915H98.573V6.13696Z" />
    <path d="M98.573 12.3147H95.972V14.9156H98.573V12.3147Z" />
    <path d="M98.573 18.4478H95.972V21.0499H98.573V18.4478Z" />
    <path d="M101.639 6.13696H99.038V8.73915H101.639V6.13696Z" />
    <path d="M101.639 12.3147H99.038V14.9156H101.639V12.3147Z" />
    <path d="M101.639 18.4478H99.038V21.0499H101.639V18.4478Z" />
    <path d="M104.752 6.13696H102.15V8.73915H104.752V6.13696Z" />
    <path d="M104.752 12.3147H102.15V14.9156H104.752V12.3147Z" />
    <path d="M104.752 18.4478H102.15V21.0499H104.752V18.4478Z" />
    <path d="M107.818 6.13696H105.216V8.73915H107.818V6.13696Z" />
    <path d="M107.818 12.3147H105.216V14.9156H107.818V12.3147Z" />
    <path d="M107.818 15.3806H105.216V17.9828H107.818V15.3806Z" />
    <path d="M107.818 18.4478H105.216V21.0499H107.818V18.4478Z" />
    <path d="M116.458 18.4441H113.857V21.0463H116.458V18.4441Z" />
    <path
      d="M110.791 6.13317H113.392V8.73409H110.791V6.13317ZM113.862 0H116.464V2.5971H113.862V0ZM113.862 3.06595H116.464V5.66814H113.862V3.06595ZM113.862 6.13317H116.464V8.73409H113.862V6.13317ZM113.862 9.20421H116.464V11.8051H113.862V9.20421ZM113.862 12.3159H116.464V14.9181H113.862V12.3159ZM113.862 15.3819H116.464V17.984H113.862V15.3819ZM116.928 0.00762328H119.53V2.5971H116.923L116.928 0.00762328ZM116.928 3.07358H119.53V5.66814H116.923L116.928 3.07358ZM116.928 6.1408H119.53V8.73409H116.923L116.928 6.1408ZM116.928 9.20675H119.53V11.8077H116.923L116.928 9.20675ZM116.928 12.3184H119.53V14.9206H116.923L116.928 12.3184ZM116.928 15.3844H119.53V17.9866H116.923L116.928 15.3844ZM116.928 18.4516H119.53V21.0525H116.923L116.928 18.4516ZM119.994 6.1408H122.596V8.73409H119.994V6.1408ZM119.994 18.4516H122.596V21.0525H119.994V18.4516ZM123.107 18.4516H125.708V21.0525H123.107V18.4516Z" />
    <path d="M131.151 6.13306H128.549V8.73524H131.151V6.13306Z" />
    <path d="M131.151 12.3108H128.549V14.9117H131.151V12.3108Z" />
    <path d="M131.151 15.3767H128.549V17.9789H131.151V15.3767Z" />
    <path d="M131.151 18.4441H128.549V21.0463H131.151V18.4441Z" />
    <path d="M134.217 6.13306H131.615V8.73524H134.217V6.13306Z" />
    <path d="M134.217 12.3108H131.615V14.9117H134.217V12.3108Z" />
    <path d="M134.217 18.4441H131.615V21.0463H134.217V18.4441Z" />
    <path d="M137.282 6.13306H134.681V8.73524H137.282V6.13306Z" />
    <path d="M137.282 12.3108H134.681V14.9117H137.282V12.3108Z" />
    <path d="M137.282 18.4441H134.681V21.0463H137.282V18.4441Z" />
    <path d="M140.395 6.13306H137.794V8.73524H140.395V6.13306Z" />
    <path d="M140.395 12.3108H137.794V14.9117H140.395V12.3108Z" />
    <path d="M140.395 18.4441H137.794V21.0463H140.395V18.4441Z" />
    <path d="M143.462 6.13306H140.86V8.73524H143.462V6.13306Z" />
    <path d="M143.462 9.19922H140.86V11.8001H143.462V9.19922Z" />
    <path d="M143.462 12.3108H140.86V14.9117H143.462V12.3108Z" />
    <path d="M143.462 15.3767H140.86V17.9789H143.462V15.3767Z" />
    <path d="M143.462 18.4441H140.86V21.0463H143.462V18.4441Z" />
    <path d="M146.528 9.19922H143.926V11.8001H146.528V9.19922Z" />
    <path d="M146.528 12.3108H143.926V14.9117H146.528V12.3108Z" />
    <path d="M146.528 15.3767H143.926V17.9789H146.528V15.3767Z" />
    <path d="M146.528 18.4441H143.926V21.0463H146.528V18.4441Z" />
    <path
      d="M149.454 0H152.056V2.5971H149.454V0ZM149.454 3.06595H152.056V5.66814H149.454V3.06595ZM149.454 6.13317H152.056V8.73409H149.454V6.13317ZM149.454 9.19913H152.056V11.8H149.454V9.19913ZM149.454 12.3108H152.056V14.913H149.454V12.3108ZM149.454 15.3768H152.056V17.979H149.454V15.3768ZM149.454 18.444H152.056V21.0449H149.454V18.444ZM152.521 0H155.122V2.5971H152.521V0ZM152.521 3.06595H155.122V5.66814H152.521V3.06595ZM152.521 6.13317H155.122V8.73409H152.521V6.13317ZM152.521 9.19913H155.122V11.8H152.521V9.19913ZM152.521 12.3108H155.122V14.913H152.521V12.3108ZM152.521 15.3768H155.122V17.979H152.521V15.3768ZM152.521 18.444H155.122V21.0449H152.521V18.444ZM155.587 12.3108H158.188V14.913H155.587V12.3108ZM158.653 9.20421H161.255V11.8051H158.654L158.653 9.20421ZM158.653 12.3159H161.255V14.9181H158.654L158.653 12.3159ZM158.653 15.3819H161.255V17.984H158.654L158.653 15.3819ZM161.764 6.13317H164.366V8.73409H161.764V6.13317ZM161.764 9.19913H164.366V11.8H161.764V9.19913ZM161.764 15.3768H164.366V17.979H161.764V15.3768ZM161.764 18.444H164.366V21.0449H161.764V18.444ZM164.829 6.13317H167.432V8.73409H164.829V6.13317ZM164.829 18.444H167.432V21.0449H164.829V18.444Z" />
    <path
      d="M170.277 9.20409H172.878V11.805H170.277V9.20409ZM170.277 12.3158H172.878V14.918H170.277V12.3158ZM170.277 15.3817H172.878V17.9839H170.277V15.3817ZM173.343 6.13814H175.943V8.73397H173.343V6.13814ZM173.343 9.20409H175.943V11.805H173.343V9.20409ZM173.343 12.3158H175.943V14.918H173.343V12.3158ZM173.343 15.3817H175.943V17.9839H173.343V15.3817ZM173.343 18.449H175.943V21.0499H173.343V18.449ZM176.409 6.13814H179.011V8.73397H176.409V6.13814ZM176.409 12.3158H179.011V14.918H176.409V12.3158ZM176.409 18.449H179.011V21.0499H176.409V18.449ZM179.474 6.13814H182.077V8.73397H179.474V6.13814ZM179.474 12.3158H182.077V14.918H179.474V12.3158ZM179.474 18.449H182.077V21.0499H179.474V18.449ZM182.587 6.13814H185.19V8.73397H182.587V6.13814ZM182.587 12.3158H185.19V14.918H182.587V12.3158ZM182.587 18.449H185.19V21.0499H182.587V18.449ZM185.651 6.13306H188.253V8.73397H185.651V6.13306ZM185.651 9.19901H188.253V11.7999H185.651V9.19901ZM185.651 12.3107H188.253V14.9129H185.651V12.3107ZM185.651 18.4439H188.253V21.0448H185.651V18.4439ZM188.722 9.20409H191.324V11.805H188.722V9.20409ZM188.722 12.3158H191.324V14.918H188.722V12.3158Z" />
    <path d="M2.60091 39.8435H0V42.4444H2.60091V39.8435Z" />
    <path d="M5.59066 39.8435H2.98975V42.4444H5.59066V39.8435Z" />
    <path d="M5.59066 42.9094H2.98975V45.5116H5.59066V42.9094Z" />
    <path d="M5.59066 45.9753H2.98975V48.5763H5.59066V45.9753Z" />
    <path d="M5.59066 49.0884H2.98975V51.6893H5.59066V49.0884Z" />
    <path d="M5.59066 52.1543H2.98975V54.7565H5.59066V52.1543Z" />
    <path d="M8.65658 36.7773H6.05566V39.3783H8.65658V36.7773Z" />
    <path d="M8.65658 39.8435H6.05566V42.4444H8.65658V39.8435Z" />
    <path d="M8.65658 42.9094H6.05566V45.5116H8.65658V42.9094Z" />
    <path d="M8.65658 45.9753H6.05566V48.5763H8.65658V45.9753Z" />
    <path d="M8.65658 49.0884H6.05566V51.6893H8.65658V49.0884Z" />
    <path d="M8.65658 52.1543H6.05566V54.7565H8.65658V52.1543Z" />
    <path d="M8.65658 55.2202H6.05566V57.8224H8.65658V55.2202Z" />
    <path d="M11.7225 36.7773H9.12158V39.3783H11.7225V36.7773Z" />
    <path d="M11.7225 55.2202H9.12158V57.8224H11.7225V55.2202Z" />
    <path d="M14.7884 36.7773H12.1875V39.3783H14.7884V36.7773Z" />
    <path d="M14.7884 55.2202H12.1875V57.8224H14.7884V55.2202Z" />
    <path d="M17.9015 36.7773H15.3005V39.3783H17.9015V36.7773Z" />
    <path d="M17.9015 55.2202H15.3005V57.8224H17.9015V55.2202Z" />
    <path d="M20.9674 36.7773H18.3665V39.3783H20.9674V36.7773Z" />
    <path d="M20.9674 39.8435H18.3665V42.4444H20.9674V39.8435Z" />
    <path d="M20.9674 52.1543H18.3665V54.7565H20.9674V52.1543Z" />
    <path d="M20.9674 55.2202H18.3665V57.8224H20.9674V55.2202Z" />
    <path d="M2.60091 36.7773H0V39.3783H2.60091V36.7773Z" />
    <path d="M26.7042 42.9094H24.1033V45.5116H26.7042V42.9094Z" />
    <path d="M26.7042 49.0884H24.1033V51.6893H26.7042V49.0884Z" />
    <path d="M26.7042 52.1543H24.1033V54.7565H26.7042V52.1543Z" />
    <path d="M26.7042 55.2202H24.1033V57.8224H26.7042V55.2202Z" />
    <path d="M29.7701 42.9094H27.1692V45.5116H29.7701V42.9094Z" />
    <path d="M29.7701 49.0884H27.1692V51.6893H29.7701V49.0884Z" />
    <path d="M29.7701 55.2202H27.1692V57.8224H29.7701V55.2202Z" />
    <path d="M32.836 42.9094H30.2351V45.5116H32.836V42.9094Z" />
    <path d="M32.836 49.0884H30.2351V51.6893H32.836V49.0884Z" />
    <path d="M32.836 55.2202H30.2351V57.8224H32.836V55.2202Z" />
    <path d="M35.9491 42.9094H33.3481V45.5116H35.9491V42.9094Z" />
    <path d="M35.9491 49.0884H33.3481V51.6893H35.9491V49.0884Z" />
    <path d="M35.9491 55.2202H33.3481V57.8224H35.9491V55.2202Z" />
    <path d="M39.015 42.9094H36.4141V45.5116H39.015V42.9094Z" />
    <path d="M39.015 45.9753H36.4141V48.5763H39.015V45.9753Z" />
    <path d="M39.015 49.0884H36.4141V51.6893H39.015V49.0884Z" />
    <path d="M39.015 52.1543H36.4141V54.7565H39.015V52.1543Z" />
    <path d="M39.015 55.2202H36.4141V57.8224H39.015V55.2202Z" />
    <path d="M42.0809 45.9753H39.48V48.5763H42.0809V45.9753Z" />
    <path d="M42.0809 49.0884H39.48V51.6893H42.0809V49.0884Z" />
    <path d="M42.0809 52.1543H39.48V54.7565H42.0809V52.1543Z" />
    <path d="M42.0809 55.2202H39.48V57.8224H42.0809V55.2202Z" />
    <path
      d="M45.0084 42.9094H47.6106V45.5103H45.0084V42.9094ZM45.0084 45.9754H47.6106V48.5763H45.0084V45.9754ZM45.0084 49.0883H47.6106V51.6893H45.0084V49.0883ZM45.0084 52.1543H47.6106V54.7552H45.0084V52.1543ZM45.0084 55.2202H47.6106V57.8212H45.0084V55.2202ZM45.0084 58.2862H47.6106V60.8871H45.0084V58.2862ZM45.0084 61.3992H47.6106V64.0001H45.0084V61.3992ZM48.0756 42.9094H50.6766V45.5103H48.0756V42.9094ZM48.0756 45.9754H50.6766V48.5763H48.0756V45.9754ZM48.0756 49.0883H50.6766V51.6893H48.0756V49.0883ZM48.0756 52.1543H50.6766V54.7552H48.0756V52.1543ZM48.0756 55.2202H50.6766V57.8212H48.0756V55.2202ZM48.0756 58.2862H50.6766V60.8871H48.0756V58.2862ZM48.0756 61.3992H50.6766V64.0001H48.0756V61.3992ZM51.1416 42.9094H53.7425V45.5103H51.1416V42.9094ZM51.1416 55.2202H53.7425V57.8212H51.1416V55.2202ZM54.2075 42.9094H56.8123V45.5103H54.2075V42.9094ZM54.2075 55.2202H56.8123V57.8212H54.2075V55.2202ZM57.3205 42.9094H59.9214V45.5103H57.3205V42.9094ZM57.3205 55.2202H59.9214V57.8212H57.3205V55.2202ZM60.3865 42.9094H62.9874V45.5103H60.3865V42.9094ZM60.3865 45.9754H62.9874V48.5763H60.3865V45.9754ZM60.3865 49.0883H62.9874V51.6893H60.3865V49.0883ZM60.3865 52.1543H62.9874V54.7552H60.3865V52.1543ZM60.3865 55.2202H62.9874V57.8212H60.3865V55.2202ZM63.4524 45.9754H66.0533V48.5763H63.4524V45.9754ZM63.4524 49.0883H66.0533V51.6893H63.4524V49.0883ZM63.4524 52.1543H66.0533V54.7552H63.4524V52.1543Z" />
    <path
      d="M68.9807 36.7761H71.5816V39.377H68.9807V36.7761ZM68.9807 42.908H71.5816V45.5089H68.9807V42.908ZM68.9807 45.974H71.5816V48.5749H68.9807V45.974ZM68.9807 49.0869H71.5816V51.6879H68.9807V49.0869ZM68.9807 52.1529H71.5816V54.7551H68.9807V52.1529ZM68.9807 55.2188H71.5816V57.8198H68.9807V55.2188ZM72.0467 36.7761H74.6476V39.377H72.0467V36.7761ZM72.0467 42.908H74.6476V45.5089H72.0467V42.908ZM72.0467 45.974H74.6476V48.5749H72.0467V45.974ZM72.0467 49.0869H74.6476V51.6879H72.0467V49.0869ZM72.0467 52.1529H74.6476V54.7551H72.0467V52.1529ZM72.0467 55.2188H74.6476V57.8198H72.0467V55.2188Z" />
    <path
      d="M77.5229 42.9093H80.1251V45.5102H77.5229V42.9093ZM80.5953 36.7761H83.1962V39.377H80.5953V36.7761ZM80.5953 39.8421H83.1962V42.443H80.5953V39.8421ZM80.5953 42.908H83.1962V45.5089H80.5953V42.908ZM80.5953 45.974H83.1962V48.5749H80.5953V45.974ZM80.5953 49.0869H83.1962V51.6879H80.5953V49.0869ZM80.5953 52.1529H83.1962V54.7551H80.5953V52.1529ZM83.6612 36.7787H86.2621V39.3796H83.6612V36.7787ZM83.6612 39.8446H86.2621V42.4455H83.6612V39.8446ZM83.6612 42.9106H86.2621V45.5115H83.6612V42.9106ZM83.6612 45.9765H86.2621V48.5774H83.6612V45.9765ZM83.6612 49.0895H86.2621V51.6904H83.6612V49.0895ZM83.6612 52.1554H86.2621V54.7551H83.6612V52.1554ZM83.6612 55.2214H86.2621V57.8223H83.6612V55.2214ZM86.7272 42.9106H89.3281V45.5115H86.7272V42.9106ZM86.7272 55.2214H89.3281V57.8223H86.7272V55.2214ZM89.8389 55.2214H92.441V57.8223H89.8389V55.2214Z" />
    <path
      d="M95.3673 52.1504H97.9695V54.7551H95.3673V52.1504ZM98.4333 42.9055H101.035V45.5064H98.4333V42.9055ZM98.4333 49.0844H101.035V51.6853H98.4333V49.0844ZM98.4333 52.1504H101.035V54.7551H98.4333V52.1504ZM98.4333 55.2163H101.035V57.8173H98.4333V55.2163ZM101.499 42.9055H104.101V45.5064H101.499V42.9055ZM101.499 49.0844H104.101V51.6853H101.499V49.0844ZM101.499 55.2163H104.101V57.8173H101.499V55.2163ZM104.566 42.9055H107.167V45.5064H104.566V42.9055ZM104.566 49.0844H107.167V51.6853H104.566V49.0844ZM104.566 55.2163H107.167V57.8173H104.566V55.2163ZM107.678 42.9055H110.28V45.5064H107.678V42.9055ZM107.678 49.0844H110.28V51.6853H107.678V49.0844ZM107.678 55.2163H110.28V57.8173H107.678V55.2163ZM110.744 42.9055H113.346V45.5064H110.744V42.9055ZM110.744 45.9715H113.346V48.5724H110.744V45.9715ZM110.744 49.0844H113.346V51.6853H110.744V49.0844ZM110.744 52.1504H113.346V54.7551H110.744V52.1504ZM110.744 55.2163H113.346V57.8173H110.744V55.2163ZM113.81 45.9715H116.412V48.5724H113.81V45.9715ZM113.81 49.0844H116.412V51.6853H113.81V49.0844ZM113.81 52.1504H116.412V54.7551H113.81V52.1504ZM113.81 55.2163H116.412V57.8173H113.81V55.2163Z" />
    <path d="M121.941 36.7773H119.34V39.3783H121.941V36.7773Z" />
    <path d="M121.941 39.8435H119.34V42.4444H121.941V39.8435Z" />
    <path d="M121.941 42.9094H119.34V45.5116H121.941V42.9094Z" />
    <path d="M121.941 45.9753H119.34V48.5763H121.941V45.9753Z" />
    <path d="M121.941 49.0884H119.34V51.6893H121.941V49.0884Z" />
    <path d="M121.941 52.1543H119.34V54.7565H121.941V52.1543Z" />
    <path d="M121.941 55.2202H119.34V57.8224H121.941V55.2202Z" />
    <path d="M125.006 36.7773H122.406V39.3783H125.006V36.7773Z" />
    <path d="M125.006 39.8435H122.406V42.4444H125.006V39.8435Z" />
    <path d="M125.006 42.9094H122.406V45.5116H125.006V42.9094Z" />
    <path d="M125.006 45.9753H122.406V48.5763H125.006V45.9753Z" />
    <path d="M125.006 49.0884H122.406V51.6893H125.006V49.0884Z" />
    <path d="M125.006 52.1543H122.406V54.7565H125.006V52.1543Z" />
  </g>

</svg>