<svg xmlns="http://www.w3.org/2000/svg" fill="none" width="149" viewBox="0 0 149 24">
  <g fill="#656D73" clip-path="url(#a)">
    <path
      d="m26.2 10.3-5.2-9A2.6 2.6 0 0 0 18.7 0H8.4a3.3 3.3 0 0 0-2.9 1.6l-5.1 9a2.7 2.7 0 0 0 0 2.7l5.1 9A3.3 3.3 0 0 0 8.4 24h10.3a2.6 2.6 0 0 0 2.3-1.3l5.2-9a3.3 3.3 0 0 0 0-3.4ZM1.8 12l.6-1L7 3l3 5a1 1 0 0 0 1.6-1L9.3 3a2.2 2.2 0 0 0-1.7-1H18l-4.9 8.5a1 1 0 0 1-.9.5H3.6a2 2 0 0 0-1.8 1ZM18 22H8.7l3-5a1 1 0 0 0-.8-1.5 1 1 0 0 0-1 .5L7 21l-.5 1a2 2 0 0 0 0-1.8l-4-7.2h9.7a1 1 0 0 1 .9.5l4.4 7.6a2.2 2.2 0 0 0 1.7 1H18Zm6.3-9-4.6 8-5-8.5a1 1 0 0 1 0-1l5-8.6.6-1a2 2 0 0 0 0 2.2c.3.3 4 7 4 7h-5.8a1 1 0 0 0-.9.5 1 1 0 0 0 1 1.4h4.6a2 2 0 0 0 1.7-1l-.6 1Zm58.4-6.3c-.6 0-1.2.1-1.7.4-.5.3-1 .7-1.3 1.2h-.4L79 7h-3.4a.6.6 0 0 0-.5.4L74.5 9h3.8s-1.2 0-1.2 1v5.5h-1.5a.6.6 0 0 0-.5.4l-.6 1.6H83a.6.6 0 0 0 .5-.4l.6-1.6h-4.6v-4.9c.3-.4.6-.8 1-1 .4-.4.9-.6 1.4-.5a1 1 0 0 1 1 .4l.2 1h2.1c0-1.3-.2-2.3-.7-2.8a2.3 2.3 0 0 0-1.9-1ZM96 12l-1.8-.7-1.7-.4-1.3-.5c-.4-.2-.6-.4-.6-.8a1 1 0 0 1 .6-.8 5 5 0 0 1 2.6-.1 7.1 7.1 0 0 1 2 .6l.5.3 1-1.6a167.3 167.3 0 0 0-1.5-.9 8.9 8.9 0 0 0-5-.3c-.5.1-1 .3-1.4.6a3 3 0 0 0-1 1 2.7 2.7 0 0 0 .2 2.8l1.3 1 1.6.6a56.7 56.7 0 0 1 3 1 1 1 0 0 1 .7.8 1 1 0 0 1-.6 1 4 4 0 0 1-2.6 0 9 9 0 0 1-2.3-1c-.3 0-.5-.2-.6-.3L88 16a7.5 7.5 0 0 0 5 1.7c1.6 0 2.7-.3 3.5-1a3 3 0 0 0 1.1-2.4c0-.5-.1-1-.5-1.4a4 4 0 0 0-1.2-1Zm13.6 2.5a5 5 0 0 1-1.6.9l-1 .2a2.3 2.3 0 0 1-2-.9c-.4-.5-.6-1.3-.6-2.5V9h4.9l.7-2h-5.6V3.7l-2 .6a.6.6 0 0 0-.4.6v2h-1a.6.6 0 0 0-.6.4L99.8 9h3.5s-1.4 0-1.4 1v2.3c0 2 .4 3.3 1.2 4.2.8.8 2 1.3 3.5 1.3a6.2 6.2 0 0 0 2.6-.6l1.2-.6.8-.7-1.1-1.6-.5.3Zm12.7.7-.1-.6a14 14 0 0 1 0-2.4l.1-1.9c0-.5 0-1-.2-1.5a2.8 2.8 0 0 0-1.9-1.8l-1.8-.3a11 11 0 0 0-4.5.9l.6 1.8 1.3-.5a7 7 0 0 1 2-.3c.6 0 1 .2 1.5.4.4.3.6.8.6 1.4v.8l-.1.2h-.2a29.3 29.3 0 0 1-1.8-.1c-.7 0-1.3 0-2 .2-.5 0-1 .3-1.4.6-.4.2-.7.6-1 1l-.2 1.5a2.8 2.8 0 0 0 .9 2.1c.5.6 1.4.9 2.4.9a4 4 0 0 0 2-.5c.5-.3.9-.6 1.2-1.1h.4l.3 1.4h2.4a.6.6 0 0 0 .6-.5l.3-1.5h-1.4v-.2Zm-2.5-1v.1c-.2.4-.5.7-.8.9a3 3 0 0 1-1.6.4c-.6 0-1-.1-1.3-.4a1.4 1.4 0 0 1-.4-1c0-.3 0-.6.2-.8l.6-.5.8-.2h2.5v1.6Zm12.3-2.5 4.2-4.8h-2.8l-3.5 4.3h-1V2.6h-3a.6.6 0 0 0-.5.4l-.6 1.6h3s-1.3 0-1.3.9v11.9h2.5v-4.5h1l3.7 4.5h2a.6.6 0 0 0 .6-.4l.6-1.6h-1.9l-3-3.7ZM57.9 7a.6.6 0 0 0-.6.3L55 13.6h-.4l-3-6.7h-2.2a.6.6 0 0 0-.5.4L48.4 9h3s-1.5 0-1 1.4l3.1 7h2.6L60 7h-2.2Zm-12.6.5-1.5-.7a7 7 0 0 0-3.9.2 5 5 0 0 0-1.8 1c-.5.5-.9 1-1.2 1.7-.3.8-.4 1.6-.4 2.4 0 .8.1 1.6.4 2.4a4.7 4.7 0 0 0 2.9 2.8 6 6 0 0 0 2.4.4c.5 0 2.9-.1 4.7-1.4l-.3-1.8a8 8 0 0 1-4.3 1.3l-1.2-.1-1-.5a2.5 2.5 0 0 1-1.2-2.1v-.2h7.8l.2-1.8c0-.8-.1-1.5-.5-2.2-.2-.5-.6-1-1-1.4Zm-.7 3.7H39V11c0-.4.1-.7.3-1 .2-.4.4-.6.7-.8a2 2 0 0 1 1-.5l1-.2c1 0 1.6.2 2 .7.5.5.7 1.2.7 1.8v.2Zm25.8-3.7-1.6-.7A7 7 0 0 0 65 7a4.8 4.8 0 0 0-3 2.8c-.2.7-.4 1.5-.4 2.3 0 .8.2 1.6.4 2.4a4.7 4.7 0 0 0 3 2.8c.7.3 1.5.4 2.3.4.5 0 3-.1 4.8-1.4l-.3-1.8a8 8 0 0 1-4.3 1.3c-.4 0-.9 0-1.3-.2A2.5 2.5 0 0 1 64 13h7.9l.1-2c0-.8-.2-1.5-.5-2.2l-1.1-1.4Zm-.7 3.7H64V11c0-.4.2-.7.4-1 .2-.4.4-.6.7-.8a2 2 0 0 1 1-.5l1-.2c.9 0 1.5.2 2 .7.4.5.6 1.2.6 1.8v.2Zm77.7-3.7-1.6-.7a7 7 0 0 0-3.8.2 4.8 4.8 0 0 0-3 2.8 6 6 0 0 0-.5 2.3c0 .8.2 1.6.4 2.4a4.7 4.7 0 0 0 3 2.8c.7.3 1.5.4 2.3.4.5 0 3-.1 4.8-1.4l-.3-1.8a8 8 0 0 1-4.3 1.3c-.4 0-.9 0-1.3-.2-.3 0-.7-.2-1-.4A2.5 2.5 0 0 1 141 13v-.2h7.8l.2-1.8c0-.8-.2-1.5-.5-2.2-.3-.5-.6-1-1.1-1.4Zm-.7 3.7H141V11c0-.4.2-.7.4-1 .2-.4.4-.6.7-.8a2 2 0 0 1 1-.5l1-.2c.9 0 1.5.2 2 .7.4.5.6 1.2.6 1.8v.2Z" />
  </g>
  <defs>
    <clipPath id="a">
      <path fill="#fff" d="M0 0h149v24H0z" />
    </clipPath>
  </defs>
</svg>