<?xml version="1.0" standalone="no"?>
<!DOCTYPE svg PUBLIC "-//W3C//DTD SVG 20010904//EN"
 "http://www.w3.org/TR/2001/REC-SVG-20010904/DTD/svg10.dtd">
<svg version="1.0" xmlns="http://www.w3.org/2000/svg"
 width="700.000000pt" height="700.000000pt" viewBox="0 0 700.000000 700.000000"
 preserveAspectRatio="xMidYMid meet">
<metadata>
Created by potrace 1.14, written by Peter Selinger 2001-2017
</metadata>
<g transform="translate(0.000000,700.000000) scale(0.100000,-0.100000)"
fill="#000000" stroke="none">
<path d="M0 3500 l0 -3500 3500 0 3500 0 0 3500 0 3500 -3500 0 -3500 0 0
-3500z m1510 1055 l0 -155 -155 0 -155 0 0 155 0 155 155 0 155 0 0 -155z
m350 0 l0 -155 -155 0 -155 0 0 155 0 155 155 0 155 0 0 -155z m350 0 l0 -155
-155 0 -155 0 0 155 0 155 155 0 155 0 0 -155z m350 0 l0 -155 -150 0 -150 0
0 155 0 155 150 0 150 0 0 -155z m350 0 l0 -155 -155 0 -155 0 0 155 0 155
155 0 155 0 0 -155z m350 0 l0 -155 -155 0 -155 0 0 155 0 155 155 0 155 0 0
-155z m800 0 l0 -155 -155 0 -155 0 0 155 0 155 155 0 155 0 0 -155z m690 0
l0 -155 -155 0 -155 0 0 155 0 155 155 0 155 0 0 -155z m350 0 l0 -155 -155 0
-155 0 0 155 0 155 155 0 155 0 0 -155z m340 0 l0 -155 -150 0 -150 0 0 155 0
155 150 0 150 0 0 -155z m360 0 l0 -155 -155 0 -155 0 0 155 0 155 155 0 155
0 0 -155z m350 0 l0 -155 -155 0 -155 0 0 155 0 155 155 0 155 0 0 -155z
m-4990 -350 l0 -155 -150 0 -150 0 0 155 0 155 150 0 150 0 0 -155z m350 0 l0
-156 -152 3 -153 3 -3 153 -3 152 156 0 155 0 0 -155z m2550 0 l0 -155 -155 0
-155 0 0 155 0 155 155 0 155 0 0 -155z m340 0 l0 -155 -155 0 -155 0 0 155 0
155 155 0 155 0 0 -155z m350 0 l0 -155 -155 0 -155 0 0 155 0 155 155 0 155
0 0 -155z m1400 0 l0 -155 -155 0 -155 0 0 155 0 155 155 0 155 0 0 -155z
m-4990 -350 l0 -155 -150 0 -150 0 0 155 0 155 150 0 150 0 0 -155z m350 0 l0
-156 -152 3 -153 3 -3 153 -3 152 156 0 155 0 0 -155z m2890 5 l0 -150 -155 0
-155 0 0 150 0 150 155 0 155 0 0 -150z m350 0 l0 -150 -155 0 -155 0 0 150 0
150 155 0 155 0 0 -150z m-3590 -350 l0 -150 -150 0 -150 0 0 150 0 150 150 0
150 0 0 -150z m350 0 l0 -150 -155 0 -155 0 0 150 0 150 155 0 155 0 0 -150z
m350 0 l0 -150 -155 0 -155 0 0 150 0 150 155 0 155 0 0 -150z m350 0 l0 -150
-155 0 -155 0 0 150 0 150 155 0 155 0 0 -150z m350 0 l0 -150 -150 0 -150 0
0 150 0 150 150 0 150 0 0 -150z m350 0 l0 -150 -155 0 -155 0 0 150 0 150
155 0 155 0 0 -150z m1490 0 l0 -150 -155 0 -155 0 0 150 0 150 155 0 155 0 0
-150z m350 0 l0 -150 -155 0 -155 0 0 150 0 150 155 0 155 0 0 -150z m-3590
-355 l0 -155 -150 0 -150 0 0 155 0 155 150 0 150 0 0 -155z m350 0 l0 -156
-152 3 -153 3 -3 153 -3 152 156 0 155 0 0 -155z m2890 0 l0 -155 -155 0 -155
0 0 155 0 155 155 0 155 0 0 -155z m350 0 l0 -155 -155 0 -155 0 0 155 0 155
155 0 155 0 0 -155z m-3590 -350 l0 -155 -150 0 -150 0 0 155 0 155 150 0 150
0 0 -155z m350 0 l0 -156 -152 3 -153 3 -3 153 -3 152 156 0 155 0 0 -155z
m2890 0 l0 -155 -155 0 -155 0 0 155 0 155 155 0 155 0 0 -155z m350 0 l0
-155 -155 0 -155 0 0 155 0 155 155 0 155 0 0 -155z m1400 0 l0 -155 -155 0
-155 0 0 155 0 155 155 0 155 0 0 -155z m-4990 -345 l0 -150 -150 0 -150 0 0
150 0 150 150 0 150 0 0 -150z m350 0 l0 -150 -155 0 -155 0 0 150 0 150 155
0 155 0 0 -150z m350 0 l0 -150 -155 0 -155 0 0 150 0 150 155 0 155 0 0 -150z
m350 0 l0 -150 -155 0 -155 0 0 150 0 150 155 0 155 0 0 -150z m350 0 l0 -150
-150 0 -150 0 0 150 0 150 150 0 150 0 0 -150z m350 0 l0 -150 -155 0 -155 0
0 150 0 150 155 0 155 0 0 -150z m350 0 l0 -150 -155 0 -155 0 0 150 0 150
155 0 155 0 0 -150z m1490 0 l0 -150 -155 0 -155 0 0 150 0 150 155 0 155 0 0
-150z m350 0 l0 -150 -155 0 -155 0 0 150 0 150 155 0 155 0 0 -150z m340 0
l0 -150 -150 0 -150 0 0 150 0 150 150 0 150 0 0 -150z m360 0 l0 -150 -155 0
-155 0 0 150 0 150 155 0 155 0 0 -150z m350 0 l0 -150 -155 0 -155 0 0 150 0
150 155 0 155 0 0 -150z"/>
</g>
</svg>
